%TF.GenerationSoftware,KiCad,Pcbnew,(5.1.12)-1*%
%TF.CreationDate,2021-12-01T17:34:03-08:00*%
%TF.ProjectId,inverter-stage,696e7665-7274-4657-922d-73746167652e,rev?*%
%TF.SameCoordinates,Original*%
%TF.FileFunction,Legend,Top*%
%TF.FilePolarity,Positive*%
%FSLAX46Y46*%
G04 Gerber Fmt 4.6, Leading zero omitted, Abs format (unit mm)*
G04 Created by KiCad (PCBNEW (5.1.12)-1) date 2021-12-01 17:34:03*
%MOMM*%
%LPD*%
G01*
G04 APERTURE LIST*
%ADD10C,0.150000*%
%ADD11C,0.200000*%
%ADD12C,0.120000*%
G04 APERTURE END LIST*
D10*
X168884952Y-39464571D02*
X169027809Y-39512190D01*
X169075428Y-39559809D01*
X169123047Y-39655047D01*
X169123047Y-39797904D01*
X169075428Y-39893142D01*
X169027809Y-39940761D01*
X168932571Y-39988380D01*
X168551619Y-39988380D01*
X168551619Y-38988380D01*
X168884952Y-38988380D01*
X168980190Y-39036000D01*
X169027809Y-39083619D01*
X169075428Y-39178857D01*
X169075428Y-39274095D01*
X169027809Y-39369333D01*
X168980190Y-39416952D01*
X168884952Y-39464571D01*
X168551619Y-39464571D01*
X171027809Y-39702666D02*
X171504000Y-39702666D01*
X170932571Y-39988380D02*
X171265904Y-38988380D01*
X171599238Y-39988380D01*
X109571428Y-76952380D02*
X109571428Y-75952380D01*
X109904761Y-76666666D01*
X110238095Y-75952380D01*
X110238095Y-76952380D01*
X110904761Y-75952380D02*
X111095238Y-75952380D01*
X111190476Y-76000000D01*
X111285714Y-76095238D01*
X111333333Y-76285714D01*
X111333333Y-76619047D01*
X111285714Y-76809523D01*
X111190476Y-76904761D01*
X111095238Y-76952380D01*
X110904761Y-76952380D01*
X110809523Y-76904761D01*
X110714285Y-76809523D01*
X110666666Y-76619047D01*
X110666666Y-76285714D01*
X110714285Y-76095238D01*
X110809523Y-76000000D01*
X110904761Y-75952380D01*
X111761904Y-76952380D02*
X111761904Y-75952380D01*
X112000000Y-75952380D01*
X112142857Y-76000000D01*
X112238095Y-76095238D01*
X112285714Y-76190476D01*
X112333333Y-76380952D01*
X112333333Y-76523809D01*
X112285714Y-76714285D01*
X112238095Y-76809523D01*
X112142857Y-76904761D01*
X112000000Y-76952380D01*
X111761904Y-76952380D01*
X113523809Y-76952380D02*
X113523809Y-75952380D01*
X114000000Y-76952380D02*
X114000000Y-75952380D01*
X114571428Y-76952380D01*
X114571428Y-75952380D01*
X115047619Y-76952380D02*
X115047619Y-75952380D01*
X115285714Y-75952380D01*
X115428571Y-76000000D01*
X115523809Y-76095238D01*
X115571428Y-76190476D01*
X115619047Y-76380952D01*
X115619047Y-76523809D01*
X115571428Y-76714285D01*
X115523809Y-76809523D01*
X115428571Y-76904761D01*
X115285714Y-76952380D01*
X115047619Y-76952380D01*
X116047619Y-76428571D02*
X116380952Y-76428571D01*
X116523809Y-76952380D02*
X116047619Y-76952380D01*
X116047619Y-75952380D01*
X116523809Y-75952380D01*
X116857142Y-75952380D02*
X117523809Y-76952380D01*
X117523809Y-75952380D02*
X116857142Y-76952380D01*
X121309523Y-76904761D02*
X121452380Y-76952380D01*
X121690476Y-76952380D01*
X121785714Y-76904761D01*
X121833333Y-76857142D01*
X121880952Y-76761904D01*
X121880952Y-76666666D01*
X121833333Y-76571428D01*
X121785714Y-76523809D01*
X121690476Y-76476190D01*
X121500000Y-76428571D01*
X121404761Y-76380952D01*
X121357142Y-76333333D01*
X121309523Y-76238095D01*
X121309523Y-76142857D01*
X121357142Y-76047619D01*
X121404761Y-76000000D01*
X121500000Y-75952380D01*
X121738095Y-75952380D01*
X121880952Y-76000000D01*
X122309523Y-76952380D02*
X122309523Y-75952380D01*
X122690476Y-75952380D01*
X122785714Y-76000000D01*
X122833333Y-76047619D01*
X122880952Y-76142857D01*
X122880952Y-76285714D01*
X122833333Y-76380952D01*
X122785714Y-76428571D01*
X122690476Y-76476190D01*
X122309523Y-76476190D01*
X123309523Y-76428571D02*
X123642857Y-76428571D01*
X123785714Y-76952380D02*
X123309523Y-76952380D01*
X123309523Y-75952380D01*
X123785714Y-75952380D01*
X124214285Y-76428571D02*
X124547619Y-76428571D01*
X124690476Y-76952380D02*
X124214285Y-76952380D01*
X124214285Y-75952380D01*
X124690476Y-75952380D01*
X125119047Y-76952380D02*
X125119047Y-75952380D01*
X125357142Y-75952380D01*
X125500000Y-76000000D01*
X125595238Y-76095238D01*
X125642857Y-76190476D01*
X125690476Y-76380952D01*
X125690476Y-76523809D01*
X125642857Y-76714285D01*
X125595238Y-76809523D01*
X125500000Y-76904761D01*
X125357142Y-76952380D01*
X125119047Y-76952380D01*
X183571428Y-71928571D02*
X183714285Y-71976190D01*
X183761904Y-72023809D01*
X183809523Y-72119047D01*
X183809523Y-72261904D01*
X183761904Y-72357142D01*
X183714285Y-72404761D01*
X183619047Y-72452380D01*
X183238095Y-72452380D01*
X183238095Y-71452380D01*
X183571428Y-71452380D01*
X183666666Y-71500000D01*
X183714285Y-71547619D01*
X183761904Y-71642857D01*
X183761904Y-71738095D01*
X183714285Y-71833333D01*
X183666666Y-71880952D01*
X183571428Y-71928571D01*
X183238095Y-71928571D01*
X183261904Y-46666666D02*
X183738095Y-46666666D01*
X183166666Y-46952380D02*
X183500000Y-45952380D01*
X183833333Y-46952380D01*
X155166666Y-38952380D02*
X155500000Y-39952380D01*
X155833333Y-38952380D01*
X156166666Y-39952380D02*
X156166666Y-38952380D01*
X156404761Y-38952380D01*
X156547619Y-39000000D01*
X156642857Y-39095238D01*
X156690476Y-39190476D01*
X156738095Y-39380952D01*
X156738095Y-39523809D01*
X156690476Y-39714285D01*
X156642857Y-39809523D01*
X156547619Y-39904761D01*
X156404761Y-39952380D01*
X156166666Y-39952380D01*
X157166666Y-39952380D02*
X157166666Y-38952380D01*
X157404761Y-38952380D01*
X157547619Y-39000000D01*
X157642857Y-39095238D01*
X157690476Y-39190476D01*
X157738095Y-39380952D01*
X157738095Y-39523809D01*
X157690476Y-39714285D01*
X157642857Y-39809523D01*
X157547619Y-39904761D01*
X157404761Y-39952380D01*
X157166666Y-39952380D01*
X164337333Y-82214285D02*
X164432571Y-82309523D01*
X164337333Y-82404761D01*
X164242095Y-82309523D01*
X164337333Y-82214285D01*
X164337333Y-82404761D01*
X164337333Y-81166666D02*
X164432571Y-81261904D01*
X164337333Y-81357142D01*
X164242095Y-81261904D01*
X164337333Y-81166666D01*
X164337333Y-81357142D01*
X165099238Y-83166666D02*
X165194476Y-83071428D01*
X165384952Y-82785714D01*
X165480190Y-82595238D01*
X165575428Y-82309523D01*
X165670666Y-81833333D01*
X165670666Y-81452380D01*
X165575428Y-80976190D01*
X165480190Y-80690476D01*
X165384952Y-80500000D01*
X165194476Y-80214285D01*
X165099238Y-80119047D01*
D11*
X136004000Y-82309523D02*
X136289714Y-82404761D01*
X136765904Y-82404761D01*
X136956380Y-82309523D01*
X137051619Y-82214285D01*
X137146857Y-82023809D01*
X137146857Y-81833333D01*
X137051619Y-81642857D01*
X136956380Y-81547619D01*
X136765904Y-81452380D01*
X136384952Y-81357142D01*
X136194476Y-81261904D01*
X136099238Y-81166666D01*
X136004000Y-80976190D01*
X136004000Y-80785714D01*
X136099238Y-80595238D01*
X136194476Y-80500000D01*
X136384952Y-80404761D01*
X136861142Y-80404761D01*
X137146857Y-80500000D01*
X138004000Y-82404761D02*
X138004000Y-81071428D01*
X138004000Y-80404761D02*
X137908761Y-80500000D01*
X138004000Y-80595238D01*
X138099238Y-80500000D01*
X138004000Y-80404761D01*
X138004000Y-80595238D01*
X138956380Y-81071428D02*
X138956380Y-82404761D01*
X138956380Y-81261904D02*
X139051619Y-81166666D01*
X139242095Y-81071428D01*
X139527809Y-81071428D01*
X139718285Y-81166666D01*
X139813523Y-81357142D01*
X139813523Y-82404761D01*
X141623047Y-81071428D02*
X141623047Y-82690476D01*
X141527809Y-82880952D01*
X141432571Y-82976190D01*
X141242095Y-83071428D01*
X140956380Y-83071428D01*
X140765904Y-82976190D01*
X141623047Y-82309523D02*
X141432571Y-82404761D01*
X141051619Y-82404761D01*
X140861142Y-82309523D01*
X140765904Y-82214285D01*
X140670666Y-82023809D01*
X140670666Y-81452380D01*
X140765904Y-81261904D01*
X140861142Y-81166666D01*
X141051619Y-81071428D01*
X141432571Y-81071428D01*
X141623047Y-81166666D01*
X142861142Y-82404761D02*
X142670666Y-82309523D01*
X142575428Y-82119047D01*
X142575428Y-80404761D01*
X144480190Y-82404761D02*
X144480190Y-81357142D01*
X144384952Y-81166666D01*
X144194476Y-81071428D01*
X143813523Y-81071428D01*
X143623047Y-81166666D01*
X144480190Y-82309523D02*
X144289714Y-82404761D01*
X143813523Y-82404761D01*
X143623047Y-82309523D01*
X143527809Y-82119047D01*
X143527809Y-81928571D01*
X143623047Y-81738095D01*
X143813523Y-81642857D01*
X144289714Y-81642857D01*
X144480190Y-81547619D01*
X146956380Y-82404761D02*
X146956380Y-80404761D01*
X147718285Y-80404761D01*
X147908761Y-80500000D01*
X148004000Y-80595238D01*
X148099238Y-80785714D01*
X148099238Y-81071428D01*
X148004000Y-81261904D01*
X147908761Y-81357142D01*
X147718285Y-81452380D01*
X146956380Y-81452380D01*
X148956380Y-82404761D02*
X148956380Y-80404761D01*
X149813523Y-82404761D02*
X149813523Y-81357142D01*
X149718285Y-81166666D01*
X149527809Y-81071428D01*
X149242095Y-81071428D01*
X149051619Y-81166666D01*
X148956380Y-81261904D01*
X151623047Y-82404761D02*
X151623047Y-81357142D01*
X151527809Y-81166666D01*
X151337333Y-81071428D01*
X150956380Y-81071428D01*
X150765904Y-81166666D01*
X151623047Y-82309523D02*
X151432571Y-82404761D01*
X150956380Y-82404761D01*
X150765904Y-82309523D01*
X150670666Y-82119047D01*
X150670666Y-81928571D01*
X150765904Y-81738095D01*
X150956380Y-81642857D01*
X151432571Y-81642857D01*
X151623047Y-81547619D01*
X152480190Y-82309523D02*
X152670666Y-82404761D01*
X153051619Y-82404761D01*
X153242095Y-82309523D01*
X153337333Y-82119047D01*
X153337333Y-82023809D01*
X153242095Y-81833333D01*
X153051619Y-81738095D01*
X152765904Y-81738095D01*
X152575428Y-81642857D01*
X152480190Y-81452380D01*
X152480190Y-81357142D01*
X152575428Y-81166666D01*
X152765904Y-81071428D01*
X153051619Y-81071428D01*
X153242095Y-81166666D01*
X154956380Y-82309523D02*
X154765904Y-82404761D01*
X154384952Y-82404761D01*
X154194476Y-82309523D01*
X154099238Y-82119047D01*
X154099238Y-81357142D01*
X154194476Y-81166666D01*
X154384952Y-81071428D01*
X154765904Y-81071428D01*
X154956380Y-81166666D01*
X155051619Y-81357142D01*
X155051619Y-81547619D01*
X154099238Y-81738095D01*
X157146857Y-80404761D02*
X157813523Y-82404761D01*
X158480190Y-80404761D01*
X159813523Y-81357142D02*
X159146857Y-81357142D01*
X159146857Y-82404761D02*
X159146857Y-80404761D01*
X160099238Y-80404761D01*
X160861142Y-82404761D02*
X160861142Y-80404761D01*
X161337333Y-80404761D01*
X161623047Y-80500000D01*
X161813523Y-80690476D01*
X161908761Y-80880952D01*
X162004000Y-81261904D01*
X162004000Y-81547619D01*
X161908761Y-81928571D01*
X161813523Y-82119047D01*
X161623047Y-82309523D01*
X161337333Y-82404761D01*
X160861142Y-82404761D01*
D10*
X105214285Y-46095238D02*
X104547619Y-46333333D01*
X105214285Y-46571428D01*
X104547619Y-47476190D02*
X104547619Y-46904761D01*
X104547619Y-47190476D02*
X105547619Y-47190476D01*
X105404761Y-47095238D01*
X105309523Y-47000000D01*
X105261904Y-46904761D01*
X104642857Y-47904761D02*
X104595238Y-47952380D01*
X104547619Y-47904761D01*
X104595238Y-47857142D01*
X104642857Y-47904761D01*
X104547619Y-47904761D01*
X105547619Y-48571428D02*
X105547619Y-48666666D01*
X105500000Y-48761904D01*
X105452380Y-48809523D01*
X105357142Y-48857142D01*
X105166666Y-48904761D01*
X104928571Y-48904761D01*
X104738095Y-48857142D01*
X104642857Y-48809523D01*
X104595238Y-48761904D01*
X104547619Y-48666666D01*
X104547619Y-48571428D01*
X104595238Y-48476190D01*
X104642857Y-48428571D01*
X104738095Y-48380952D01*
X104928571Y-48333333D01*
X105166666Y-48333333D01*
X105357142Y-48380952D01*
X105452380Y-48428571D01*
X105500000Y-48476190D01*
X105547619Y-48571428D01*
X104547619Y-50095238D02*
X105547619Y-50095238D01*
X104833333Y-50428571D01*
X105547619Y-50761904D01*
X104547619Y-50761904D01*
X104547619Y-51666666D02*
X105071428Y-51666666D01*
X105166666Y-51619047D01*
X105214285Y-51523809D01*
X105214285Y-51333333D01*
X105166666Y-51238095D01*
X104595238Y-51666666D02*
X104547619Y-51571428D01*
X104547619Y-51333333D01*
X104595238Y-51238095D01*
X104690476Y-51190476D01*
X104785714Y-51190476D01*
X104880952Y-51238095D01*
X104928571Y-51333333D01*
X104928571Y-51571428D01*
X104976190Y-51666666D01*
X105214285Y-52000000D02*
X105214285Y-52380952D01*
X105547619Y-52142857D02*
X104690476Y-52142857D01*
X104595238Y-52190476D01*
X104547619Y-52285714D01*
X104547619Y-52380952D01*
X105214285Y-52571428D02*
X105214285Y-52952380D01*
X105547619Y-52714285D02*
X104690476Y-52714285D01*
X104595238Y-52761904D01*
X104547619Y-52857142D01*
X104547619Y-52952380D01*
X104547619Y-53285714D02*
X105214285Y-53285714D01*
X105547619Y-53285714D02*
X105500000Y-53238095D01*
X105452380Y-53285714D01*
X105500000Y-53333333D01*
X105547619Y-53285714D01*
X105452380Y-53285714D01*
X104547619Y-54190476D02*
X105071428Y-54190476D01*
X105166666Y-54142857D01*
X105214285Y-54047619D01*
X105214285Y-53857142D01*
X105166666Y-53761904D01*
X104595238Y-54190476D02*
X104547619Y-54095238D01*
X104547619Y-53857142D01*
X104595238Y-53761904D01*
X104690476Y-53714285D01*
X104785714Y-53714285D01*
X104880952Y-53761904D01*
X104928571Y-53857142D01*
X104928571Y-54095238D01*
X104976190Y-54190476D01*
X104595238Y-54619047D02*
X104547619Y-54714285D01*
X104547619Y-54904761D01*
X104595238Y-55000000D01*
X104690476Y-55047619D01*
X104738095Y-55047619D01*
X104833333Y-55000000D01*
X104880952Y-54904761D01*
X104880952Y-54761904D01*
X104928571Y-54666666D01*
X105023809Y-54619047D01*
X105071428Y-54619047D01*
X105166666Y-54666666D01*
X105214285Y-54761904D01*
X105214285Y-54904761D01*
X105166666Y-55000000D01*
X105547619Y-56142857D02*
X105547619Y-56809523D01*
X104547619Y-56142857D01*
X104547619Y-56809523D01*
X105214285Y-57619047D02*
X104547619Y-57619047D01*
X105214285Y-57190476D02*
X104690476Y-57190476D01*
X104595238Y-57238095D01*
X104547619Y-57333333D01*
X104547619Y-57476190D01*
X104595238Y-57571428D01*
X104642857Y-57619047D01*
X104547619Y-58095238D02*
X105214285Y-58095238D01*
X105023809Y-58095238D02*
X105119047Y-58142857D01*
X105166666Y-58190476D01*
X105214285Y-58285714D01*
X105214285Y-58380952D01*
X104547619Y-58714285D02*
X105547619Y-58714285D01*
X104928571Y-58809523D02*
X104547619Y-59095238D01*
X105214285Y-59095238D02*
X104833333Y-58714285D01*
X104547619Y-59666666D02*
X104595238Y-59571428D01*
X104642857Y-59523809D01*
X104738095Y-59476190D01*
X105023809Y-59476190D01*
X105119047Y-59523809D01*
X105166666Y-59571428D01*
X105214285Y-59666666D01*
X105214285Y-59809523D01*
X105166666Y-59904761D01*
X105119047Y-59952380D01*
X105023809Y-60000000D01*
X104738095Y-60000000D01*
X104642857Y-59952380D01*
X104595238Y-59904761D01*
X104547619Y-59809523D01*
X104547619Y-59666666D01*
X105214285Y-60333333D02*
X104547619Y-60571428D01*
X105214285Y-60809523D01*
X104547619Y-61190476D02*
X105214285Y-61190476D01*
X105547619Y-61190476D02*
X105500000Y-61142857D01*
X105452380Y-61190476D01*
X105500000Y-61238095D01*
X105547619Y-61190476D01*
X105452380Y-61190476D01*
X104595238Y-62095238D02*
X104547619Y-62000000D01*
X104547619Y-61809523D01*
X104595238Y-61714285D01*
X104642857Y-61666666D01*
X104738095Y-61619047D01*
X105023809Y-61619047D01*
X105119047Y-61666666D01*
X105166666Y-61714285D01*
X105214285Y-61809523D01*
X105214285Y-62000000D01*
X105166666Y-62095238D01*
D12*
%TO.C,A1*%
X111270000Y-35270000D02*
X111270000Y-32730000D01*
X111270000Y-32730000D02*
X108600000Y-32730000D01*
X108600000Y-35270000D02*
X108600000Y-73500000D01*
X108600000Y-30060000D02*
X108600000Y-32730000D01*
X123970000Y-32730000D02*
X126640000Y-32730000D01*
X123970000Y-32730000D02*
X123970000Y-70830000D01*
X123970000Y-70830000D02*
X126640000Y-70830000D01*
X111270000Y-35270000D02*
X108600000Y-35270000D01*
X111270000Y-35270000D02*
X111270000Y-70830000D01*
X111270000Y-70830000D02*
X108600000Y-70830000D01*
X108600000Y-73500000D02*
X126640000Y-73500000D01*
X126640000Y-73500000D02*
X126640000Y-30060000D01*
X126640000Y-30060000D02*
X108600000Y-30060000D01*
%TO.C,U2*%
X141780000Y-67758000D02*
X140130000Y-67758000D01*
X140130000Y-67758000D02*
X140130000Y-78038000D01*
X140130000Y-78038000D02*
X145430000Y-78038000D01*
X145430000Y-78038000D02*
X145430000Y-67758000D01*
X145430000Y-67758000D02*
X143780000Y-67758000D01*
X137640000Y-67698000D02*
X137640000Y-78098000D01*
X137640000Y-78098000D02*
X147920000Y-78098000D01*
X147920000Y-78098000D02*
X147920000Y-67698000D01*
X147920000Y-67698000D02*
X137640000Y-67698000D01*
X143780000Y-67758000D02*
G75*
G02*
X141780000Y-67758000I-1000000J0D01*
G01*
%TO.C,U1*%
X141780000Y-48708000D02*
X140130000Y-48708000D01*
X140130000Y-48708000D02*
X140130000Y-58988000D01*
X140130000Y-58988000D02*
X145430000Y-58988000D01*
X145430000Y-58988000D02*
X145430000Y-48708000D01*
X145430000Y-48708000D02*
X143780000Y-48708000D01*
X137640000Y-48648000D02*
X137640000Y-59048000D01*
X137640000Y-59048000D02*
X147920000Y-59048000D01*
X147920000Y-59048000D02*
X147920000Y-48648000D01*
X147920000Y-48648000D02*
X137640000Y-48648000D01*
X143780000Y-48708000D02*
G75*
G02*
X141780000Y-48708000I-1000000J0D01*
G01*
%TO.C,Q4*%
X185134000Y-72858000D02*
X185134000Y-83098000D01*
X180493000Y-72858000D02*
X180493000Y-83098000D01*
X185134000Y-72858000D02*
X180493000Y-72858000D01*
X185134000Y-83098000D02*
X180493000Y-83098000D01*
X183624000Y-72858000D02*
X183624000Y-83098000D01*
X185134000Y-76128000D02*
X183624000Y-76128000D01*
X185134000Y-79829000D02*
X183624000Y-79829000D01*
%TO.C,Q3*%
X185134000Y-60158000D02*
X185134000Y-70398000D01*
X180493000Y-60158000D02*
X180493000Y-70398000D01*
X185134000Y-60158000D02*
X180493000Y-60158000D01*
X185134000Y-70398000D02*
X180493000Y-70398000D01*
X183624000Y-60158000D02*
X183624000Y-70398000D01*
X185134000Y-63428000D02*
X183624000Y-63428000D01*
X185134000Y-67129000D02*
X183624000Y-67129000D01*
%TO.C,Q2*%
X185134000Y-47458000D02*
X185134000Y-57698000D01*
X180493000Y-47458000D02*
X180493000Y-57698000D01*
X185134000Y-47458000D02*
X180493000Y-47458000D01*
X185134000Y-57698000D02*
X180493000Y-57698000D01*
X183624000Y-47458000D02*
X183624000Y-57698000D01*
X185134000Y-50728000D02*
X183624000Y-50728000D01*
X185134000Y-54429000D02*
X183624000Y-54429000D01*
%TO.C,Q1*%
X185134000Y-34758000D02*
X185134000Y-44998000D01*
X180493000Y-34758000D02*
X180493000Y-44998000D01*
X185134000Y-34758000D02*
X180493000Y-34758000D01*
X185134000Y-44998000D02*
X180493000Y-44998000D01*
X183624000Y-34758000D02*
X183624000Y-44998000D01*
X185134000Y-38028000D02*
X183624000Y-38028000D01*
X185134000Y-41729000D02*
X183624000Y-41729000D01*
%TO.C,J2*%
X175370000Y-40336000D02*
X175370000Y-27736000D01*
X175370000Y-27736000D02*
X165020000Y-27736000D01*
X165020000Y-27736000D02*
X165020000Y-28686000D01*
X165020000Y-28686000D02*
X164520000Y-28436000D01*
X164520000Y-28436000D02*
X164520000Y-30336000D01*
X164520000Y-30336000D02*
X164520000Y-30386000D01*
X164520000Y-30386000D02*
X165020000Y-30136000D01*
X165020000Y-30136000D02*
X165020000Y-35536000D01*
X165020000Y-35536000D02*
X164520000Y-35236000D01*
X164520000Y-35236000D02*
X164520000Y-40336000D01*
X164520000Y-40336000D02*
X175370000Y-40336000D01*
%TO.C,C4*%
X154290000Y-71608000D02*
G75*
G03*
X154290000Y-71608000I-2620000J0D01*
G01*
X154250000Y-71608000D02*
X149090000Y-71608000D01*
X154250000Y-71648000D02*
X149090000Y-71648000D01*
X154249000Y-71688000D02*
X149091000Y-71688000D01*
X154248000Y-71728000D02*
X149092000Y-71728000D01*
X154246000Y-71768000D02*
X149094000Y-71768000D01*
X154243000Y-71808000D02*
X149097000Y-71808000D01*
X154239000Y-71848000D02*
X152710000Y-71848000D01*
X150630000Y-71848000D02*
X149101000Y-71848000D01*
X154235000Y-71888000D02*
X152710000Y-71888000D01*
X150630000Y-71888000D02*
X149105000Y-71888000D01*
X154231000Y-71928000D02*
X152710000Y-71928000D01*
X150630000Y-71928000D02*
X149109000Y-71928000D01*
X154226000Y-71968000D02*
X152710000Y-71968000D01*
X150630000Y-71968000D02*
X149114000Y-71968000D01*
X154220000Y-72008000D02*
X152710000Y-72008000D01*
X150630000Y-72008000D02*
X149120000Y-72008000D01*
X154213000Y-72048000D02*
X152710000Y-72048000D01*
X150630000Y-72048000D02*
X149127000Y-72048000D01*
X154206000Y-72088000D02*
X152710000Y-72088000D01*
X150630000Y-72088000D02*
X149134000Y-72088000D01*
X154198000Y-72128000D02*
X152710000Y-72128000D01*
X150630000Y-72128000D02*
X149142000Y-72128000D01*
X154190000Y-72168000D02*
X152710000Y-72168000D01*
X150630000Y-72168000D02*
X149150000Y-72168000D01*
X154181000Y-72208000D02*
X152710000Y-72208000D01*
X150630000Y-72208000D02*
X149159000Y-72208000D01*
X154171000Y-72248000D02*
X152710000Y-72248000D01*
X150630000Y-72248000D02*
X149169000Y-72248000D01*
X154161000Y-72288000D02*
X152710000Y-72288000D01*
X150630000Y-72288000D02*
X149179000Y-72288000D01*
X154150000Y-72329000D02*
X152710000Y-72329000D01*
X150630000Y-72329000D02*
X149190000Y-72329000D01*
X154138000Y-72369000D02*
X152710000Y-72369000D01*
X150630000Y-72369000D02*
X149202000Y-72369000D01*
X154125000Y-72409000D02*
X152710000Y-72409000D01*
X150630000Y-72409000D02*
X149215000Y-72409000D01*
X154112000Y-72449000D02*
X152710000Y-72449000D01*
X150630000Y-72449000D02*
X149228000Y-72449000D01*
X154098000Y-72489000D02*
X152710000Y-72489000D01*
X150630000Y-72489000D02*
X149242000Y-72489000D01*
X154084000Y-72529000D02*
X152710000Y-72529000D01*
X150630000Y-72529000D02*
X149256000Y-72529000D01*
X154068000Y-72569000D02*
X152710000Y-72569000D01*
X150630000Y-72569000D02*
X149272000Y-72569000D01*
X154052000Y-72609000D02*
X152710000Y-72609000D01*
X150630000Y-72609000D02*
X149288000Y-72609000D01*
X154035000Y-72649000D02*
X152710000Y-72649000D01*
X150630000Y-72649000D02*
X149305000Y-72649000D01*
X154018000Y-72689000D02*
X152710000Y-72689000D01*
X150630000Y-72689000D02*
X149322000Y-72689000D01*
X153999000Y-72729000D02*
X152710000Y-72729000D01*
X150630000Y-72729000D02*
X149341000Y-72729000D01*
X153980000Y-72769000D02*
X152710000Y-72769000D01*
X150630000Y-72769000D02*
X149360000Y-72769000D01*
X153960000Y-72809000D02*
X152710000Y-72809000D01*
X150630000Y-72809000D02*
X149380000Y-72809000D01*
X153938000Y-72849000D02*
X152710000Y-72849000D01*
X150630000Y-72849000D02*
X149402000Y-72849000D01*
X153917000Y-72889000D02*
X152710000Y-72889000D01*
X150630000Y-72889000D02*
X149423000Y-72889000D01*
X153894000Y-72929000D02*
X152710000Y-72929000D01*
X150630000Y-72929000D02*
X149446000Y-72929000D01*
X153870000Y-72969000D02*
X152710000Y-72969000D01*
X150630000Y-72969000D02*
X149470000Y-72969000D01*
X153845000Y-73009000D02*
X152710000Y-73009000D01*
X150630000Y-73009000D02*
X149495000Y-73009000D01*
X153819000Y-73049000D02*
X152710000Y-73049000D01*
X150630000Y-73049000D02*
X149521000Y-73049000D01*
X153792000Y-73089000D02*
X152710000Y-73089000D01*
X150630000Y-73089000D02*
X149548000Y-73089000D01*
X153765000Y-73129000D02*
X152710000Y-73129000D01*
X150630000Y-73129000D02*
X149575000Y-73129000D01*
X153735000Y-73169000D02*
X152710000Y-73169000D01*
X150630000Y-73169000D02*
X149605000Y-73169000D01*
X153705000Y-73209000D02*
X152710000Y-73209000D01*
X150630000Y-73209000D02*
X149635000Y-73209000D01*
X153674000Y-73249000D02*
X152710000Y-73249000D01*
X150630000Y-73249000D02*
X149666000Y-73249000D01*
X153641000Y-73289000D02*
X152710000Y-73289000D01*
X150630000Y-73289000D02*
X149699000Y-73289000D01*
X153607000Y-73329000D02*
X152710000Y-73329000D01*
X150630000Y-73329000D02*
X149733000Y-73329000D01*
X153571000Y-73369000D02*
X152710000Y-73369000D01*
X150630000Y-73369000D02*
X149769000Y-73369000D01*
X153534000Y-73409000D02*
X152710000Y-73409000D01*
X150630000Y-73409000D02*
X149806000Y-73409000D01*
X153496000Y-73449000D02*
X152710000Y-73449000D01*
X150630000Y-73449000D02*
X149844000Y-73449000D01*
X153455000Y-73489000D02*
X152710000Y-73489000D01*
X150630000Y-73489000D02*
X149885000Y-73489000D01*
X153413000Y-73529000D02*
X152710000Y-73529000D01*
X150630000Y-73529000D02*
X149927000Y-73529000D01*
X153369000Y-73569000D02*
X152710000Y-73569000D01*
X150630000Y-73569000D02*
X149971000Y-73569000D01*
X153323000Y-73609000D02*
X152710000Y-73609000D01*
X150630000Y-73609000D02*
X150017000Y-73609000D01*
X153275000Y-73649000D02*
X152710000Y-73649000D01*
X150630000Y-73649000D02*
X150065000Y-73649000D01*
X153224000Y-73689000D02*
X152710000Y-73689000D01*
X150630000Y-73689000D02*
X150116000Y-73689000D01*
X153170000Y-73729000D02*
X152710000Y-73729000D01*
X150630000Y-73729000D02*
X150170000Y-73729000D01*
X153113000Y-73769000D02*
X152710000Y-73769000D01*
X150630000Y-73769000D02*
X150227000Y-73769000D01*
X153053000Y-73809000D02*
X152710000Y-73809000D01*
X150630000Y-73809000D02*
X150287000Y-73809000D01*
X152989000Y-73849000D02*
X152710000Y-73849000D01*
X150630000Y-73849000D02*
X150351000Y-73849000D01*
X152921000Y-73889000D02*
X152710000Y-73889000D01*
X150630000Y-73889000D02*
X150419000Y-73889000D01*
X152848000Y-73929000D02*
X150492000Y-73929000D01*
X152768000Y-73969000D02*
X150572000Y-73969000D01*
X152681000Y-74009000D02*
X150659000Y-74009000D01*
X152585000Y-74049000D02*
X150755000Y-74049000D01*
X152475000Y-74089000D02*
X150865000Y-74089000D01*
X152347000Y-74129000D02*
X150993000Y-74129000D01*
X152188000Y-74169000D02*
X151152000Y-74169000D01*
X151954000Y-74209000D02*
X151386000Y-74209000D01*
X153145000Y-68803225D02*
X153145000Y-69303225D01*
X153395000Y-69053225D02*
X152895000Y-69053225D01*
%TO.C,C3*%
X135270000Y-72878000D02*
G75*
G03*
X135270000Y-72878000I-3270000J0D01*
G01*
X135230000Y-72878000D02*
X128770000Y-72878000D01*
X135230000Y-72918000D02*
X128770000Y-72918000D01*
X135230000Y-72958000D02*
X128770000Y-72958000D01*
X135228000Y-72998000D02*
X128772000Y-72998000D01*
X135227000Y-73038000D02*
X128773000Y-73038000D01*
X135224000Y-73078000D02*
X128776000Y-73078000D01*
X135222000Y-73118000D02*
X133040000Y-73118000D01*
X130960000Y-73118000D02*
X128778000Y-73118000D01*
X135218000Y-73158000D02*
X133040000Y-73158000D01*
X130960000Y-73158000D02*
X128782000Y-73158000D01*
X135215000Y-73198000D02*
X133040000Y-73198000D01*
X130960000Y-73198000D02*
X128785000Y-73198000D01*
X135211000Y-73238000D02*
X133040000Y-73238000D01*
X130960000Y-73238000D02*
X128789000Y-73238000D01*
X135206000Y-73278000D02*
X133040000Y-73278000D01*
X130960000Y-73278000D02*
X128794000Y-73278000D01*
X135201000Y-73318000D02*
X133040000Y-73318000D01*
X130960000Y-73318000D02*
X128799000Y-73318000D01*
X135195000Y-73358000D02*
X133040000Y-73358000D01*
X130960000Y-73358000D02*
X128805000Y-73358000D01*
X135189000Y-73398000D02*
X133040000Y-73398000D01*
X130960000Y-73398000D02*
X128811000Y-73398000D01*
X135182000Y-73438000D02*
X133040000Y-73438000D01*
X130960000Y-73438000D02*
X128818000Y-73438000D01*
X135175000Y-73478000D02*
X133040000Y-73478000D01*
X130960000Y-73478000D02*
X128825000Y-73478000D01*
X135167000Y-73518000D02*
X133040000Y-73518000D01*
X130960000Y-73518000D02*
X128833000Y-73518000D01*
X135159000Y-73558000D02*
X133040000Y-73558000D01*
X130960000Y-73558000D02*
X128841000Y-73558000D01*
X135150000Y-73599000D02*
X133040000Y-73599000D01*
X130960000Y-73599000D02*
X128850000Y-73599000D01*
X135141000Y-73639000D02*
X133040000Y-73639000D01*
X130960000Y-73639000D02*
X128859000Y-73639000D01*
X135131000Y-73679000D02*
X133040000Y-73679000D01*
X130960000Y-73679000D02*
X128869000Y-73679000D01*
X135121000Y-73719000D02*
X133040000Y-73719000D01*
X130960000Y-73719000D02*
X128879000Y-73719000D01*
X135110000Y-73759000D02*
X133040000Y-73759000D01*
X130960000Y-73759000D02*
X128890000Y-73759000D01*
X135098000Y-73799000D02*
X133040000Y-73799000D01*
X130960000Y-73799000D02*
X128902000Y-73799000D01*
X135086000Y-73839000D02*
X133040000Y-73839000D01*
X130960000Y-73839000D02*
X128914000Y-73839000D01*
X135074000Y-73879000D02*
X133040000Y-73879000D01*
X130960000Y-73879000D02*
X128926000Y-73879000D01*
X135061000Y-73919000D02*
X133040000Y-73919000D01*
X130960000Y-73919000D02*
X128939000Y-73919000D01*
X135047000Y-73959000D02*
X133040000Y-73959000D01*
X130960000Y-73959000D02*
X128953000Y-73959000D01*
X135033000Y-73999000D02*
X133040000Y-73999000D01*
X130960000Y-73999000D02*
X128967000Y-73999000D01*
X135018000Y-74039000D02*
X133040000Y-74039000D01*
X130960000Y-74039000D02*
X128982000Y-74039000D01*
X135002000Y-74079000D02*
X133040000Y-74079000D01*
X130960000Y-74079000D02*
X128998000Y-74079000D01*
X134986000Y-74119000D02*
X133040000Y-74119000D01*
X130960000Y-74119000D02*
X129014000Y-74119000D01*
X134970000Y-74159000D02*
X133040000Y-74159000D01*
X130960000Y-74159000D02*
X129030000Y-74159000D01*
X134952000Y-74199000D02*
X133040000Y-74199000D01*
X130960000Y-74199000D02*
X129048000Y-74199000D01*
X134934000Y-74239000D02*
X133040000Y-74239000D01*
X130960000Y-74239000D02*
X129066000Y-74239000D01*
X134916000Y-74279000D02*
X133040000Y-74279000D01*
X130960000Y-74279000D02*
X129084000Y-74279000D01*
X134896000Y-74319000D02*
X133040000Y-74319000D01*
X130960000Y-74319000D02*
X129104000Y-74319000D01*
X134876000Y-74359000D02*
X133040000Y-74359000D01*
X130960000Y-74359000D02*
X129124000Y-74359000D01*
X134856000Y-74399000D02*
X133040000Y-74399000D01*
X130960000Y-74399000D02*
X129144000Y-74399000D01*
X134834000Y-74439000D02*
X133040000Y-74439000D01*
X130960000Y-74439000D02*
X129166000Y-74439000D01*
X134812000Y-74479000D02*
X133040000Y-74479000D01*
X130960000Y-74479000D02*
X129188000Y-74479000D01*
X134790000Y-74519000D02*
X133040000Y-74519000D01*
X130960000Y-74519000D02*
X129210000Y-74519000D01*
X134766000Y-74559000D02*
X133040000Y-74559000D01*
X130960000Y-74559000D02*
X129234000Y-74559000D01*
X134742000Y-74599000D02*
X133040000Y-74599000D01*
X130960000Y-74599000D02*
X129258000Y-74599000D01*
X134716000Y-74639000D02*
X133040000Y-74639000D01*
X130960000Y-74639000D02*
X129284000Y-74639000D01*
X134690000Y-74679000D02*
X133040000Y-74679000D01*
X130960000Y-74679000D02*
X129310000Y-74679000D01*
X134664000Y-74719000D02*
X133040000Y-74719000D01*
X130960000Y-74719000D02*
X129336000Y-74719000D01*
X134636000Y-74759000D02*
X133040000Y-74759000D01*
X130960000Y-74759000D02*
X129364000Y-74759000D01*
X134607000Y-74799000D02*
X133040000Y-74799000D01*
X130960000Y-74799000D02*
X129393000Y-74799000D01*
X134578000Y-74839000D02*
X133040000Y-74839000D01*
X130960000Y-74839000D02*
X129422000Y-74839000D01*
X134548000Y-74879000D02*
X133040000Y-74879000D01*
X130960000Y-74879000D02*
X129452000Y-74879000D01*
X134516000Y-74919000D02*
X133040000Y-74919000D01*
X130960000Y-74919000D02*
X129484000Y-74919000D01*
X134484000Y-74959000D02*
X133040000Y-74959000D01*
X130960000Y-74959000D02*
X129516000Y-74959000D01*
X134450000Y-74999000D02*
X133040000Y-74999000D01*
X130960000Y-74999000D02*
X129550000Y-74999000D01*
X134416000Y-75039000D02*
X133040000Y-75039000D01*
X130960000Y-75039000D02*
X129584000Y-75039000D01*
X134380000Y-75079000D02*
X133040000Y-75079000D01*
X130960000Y-75079000D02*
X129620000Y-75079000D01*
X134343000Y-75119000D02*
X133040000Y-75119000D01*
X130960000Y-75119000D02*
X129657000Y-75119000D01*
X134305000Y-75159000D02*
X133040000Y-75159000D01*
X130960000Y-75159000D02*
X129695000Y-75159000D01*
X134265000Y-75199000D02*
X129735000Y-75199000D01*
X134224000Y-75239000D02*
X129776000Y-75239000D01*
X134182000Y-75279000D02*
X129818000Y-75279000D01*
X134137000Y-75319000D02*
X129863000Y-75319000D01*
X134092000Y-75359000D02*
X129908000Y-75359000D01*
X134044000Y-75399000D02*
X129956000Y-75399000D01*
X133995000Y-75439000D02*
X130005000Y-75439000D01*
X133944000Y-75479000D02*
X130056000Y-75479000D01*
X133890000Y-75519000D02*
X130110000Y-75519000D01*
X133834000Y-75559000D02*
X130166000Y-75559000D01*
X133776000Y-75599000D02*
X130224000Y-75599000D01*
X133714000Y-75639000D02*
X130286000Y-75639000D01*
X133650000Y-75679000D02*
X130350000Y-75679000D01*
X133581000Y-75719000D02*
X130419000Y-75719000D01*
X133509000Y-75759000D02*
X130491000Y-75759000D01*
X133432000Y-75799000D02*
X130568000Y-75799000D01*
X133350000Y-75839000D02*
X130650000Y-75839000D01*
X133262000Y-75879000D02*
X130738000Y-75879000D01*
X133165000Y-75919000D02*
X130835000Y-75919000D01*
X133059000Y-75959000D02*
X130941000Y-75959000D01*
X132940000Y-75999000D02*
X131060000Y-75999000D01*
X132802000Y-76039000D02*
X131198000Y-76039000D01*
X132633000Y-76079000D02*
X131367000Y-76079000D01*
X132402000Y-76119000D02*
X131598000Y-76119000D01*
X133839000Y-69377759D02*
X133839000Y-70007759D01*
X134154000Y-69692759D02*
X133524000Y-69692759D01*
%TO.C,C2*%
X154290000Y-52558000D02*
G75*
G03*
X154290000Y-52558000I-2620000J0D01*
G01*
X154250000Y-52558000D02*
X149090000Y-52558000D01*
X154250000Y-52598000D02*
X149090000Y-52598000D01*
X154249000Y-52638000D02*
X149091000Y-52638000D01*
X154248000Y-52678000D02*
X149092000Y-52678000D01*
X154246000Y-52718000D02*
X149094000Y-52718000D01*
X154243000Y-52758000D02*
X149097000Y-52758000D01*
X154239000Y-52798000D02*
X152710000Y-52798000D01*
X150630000Y-52798000D02*
X149101000Y-52798000D01*
X154235000Y-52838000D02*
X152710000Y-52838000D01*
X150630000Y-52838000D02*
X149105000Y-52838000D01*
X154231000Y-52878000D02*
X152710000Y-52878000D01*
X150630000Y-52878000D02*
X149109000Y-52878000D01*
X154226000Y-52918000D02*
X152710000Y-52918000D01*
X150630000Y-52918000D02*
X149114000Y-52918000D01*
X154220000Y-52958000D02*
X152710000Y-52958000D01*
X150630000Y-52958000D02*
X149120000Y-52958000D01*
X154213000Y-52998000D02*
X152710000Y-52998000D01*
X150630000Y-52998000D02*
X149127000Y-52998000D01*
X154206000Y-53038000D02*
X152710000Y-53038000D01*
X150630000Y-53038000D02*
X149134000Y-53038000D01*
X154198000Y-53078000D02*
X152710000Y-53078000D01*
X150630000Y-53078000D02*
X149142000Y-53078000D01*
X154190000Y-53118000D02*
X152710000Y-53118000D01*
X150630000Y-53118000D02*
X149150000Y-53118000D01*
X154181000Y-53158000D02*
X152710000Y-53158000D01*
X150630000Y-53158000D02*
X149159000Y-53158000D01*
X154171000Y-53198000D02*
X152710000Y-53198000D01*
X150630000Y-53198000D02*
X149169000Y-53198000D01*
X154161000Y-53238000D02*
X152710000Y-53238000D01*
X150630000Y-53238000D02*
X149179000Y-53238000D01*
X154150000Y-53279000D02*
X152710000Y-53279000D01*
X150630000Y-53279000D02*
X149190000Y-53279000D01*
X154138000Y-53319000D02*
X152710000Y-53319000D01*
X150630000Y-53319000D02*
X149202000Y-53319000D01*
X154125000Y-53359000D02*
X152710000Y-53359000D01*
X150630000Y-53359000D02*
X149215000Y-53359000D01*
X154112000Y-53399000D02*
X152710000Y-53399000D01*
X150630000Y-53399000D02*
X149228000Y-53399000D01*
X154098000Y-53439000D02*
X152710000Y-53439000D01*
X150630000Y-53439000D02*
X149242000Y-53439000D01*
X154084000Y-53479000D02*
X152710000Y-53479000D01*
X150630000Y-53479000D02*
X149256000Y-53479000D01*
X154068000Y-53519000D02*
X152710000Y-53519000D01*
X150630000Y-53519000D02*
X149272000Y-53519000D01*
X154052000Y-53559000D02*
X152710000Y-53559000D01*
X150630000Y-53559000D02*
X149288000Y-53559000D01*
X154035000Y-53599000D02*
X152710000Y-53599000D01*
X150630000Y-53599000D02*
X149305000Y-53599000D01*
X154018000Y-53639000D02*
X152710000Y-53639000D01*
X150630000Y-53639000D02*
X149322000Y-53639000D01*
X153999000Y-53679000D02*
X152710000Y-53679000D01*
X150630000Y-53679000D02*
X149341000Y-53679000D01*
X153980000Y-53719000D02*
X152710000Y-53719000D01*
X150630000Y-53719000D02*
X149360000Y-53719000D01*
X153960000Y-53759000D02*
X152710000Y-53759000D01*
X150630000Y-53759000D02*
X149380000Y-53759000D01*
X153938000Y-53799000D02*
X152710000Y-53799000D01*
X150630000Y-53799000D02*
X149402000Y-53799000D01*
X153917000Y-53839000D02*
X152710000Y-53839000D01*
X150630000Y-53839000D02*
X149423000Y-53839000D01*
X153894000Y-53879000D02*
X152710000Y-53879000D01*
X150630000Y-53879000D02*
X149446000Y-53879000D01*
X153870000Y-53919000D02*
X152710000Y-53919000D01*
X150630000Y-53919000D02*
X149470000Y-53919000D01*
X153845000Y-53959000D02*
X152710000Y-53959000D01*
X150630000Y-53959000D02*
X149495000Y-53959000D01*
X153819000Y-53999000D02*
X152710000Y-53999000D01*
X150630000Y-53999000D02*
X149521000Y-53999000D01*
X153792000Y-54039000D02*
X152710000Y-54039000D01*
X150630000Y-54039000D02*
X149548000Y-54039000D01*
X153765000Y-54079000D02*
X152710000Y-54079000D01*
X150630000Y-54079000D02*
X149575000Y-54079000D01*
X153735000Y-54119000D02*
X152710000Y-54119000D01*
X150630000Y-54119000D02*
X149605000Y-54119000D01*
X153705000Y-54159000D02*
X152710000Y-54159000D01*
X150630000Y-54159000D02*
X149635000Y-54159000D01*
X153674000Y-54199000D02*
X152710000Y-54199000D01*
X150630000Y-54199000D02*
X149666000Y-54199000D01*
X153641000Y-54239000D02*
X152710000Y-54239000D01*
X150630000Y-54239000D02*
X149699000Y-54239000D01*
X153607000Y-54279000D02*
X152710000Y-54279000D01*
X150630000Y-54279000D02*
X149733000Y-54279000D01*
X153571000Y-54319000D02*
X152710000Y-54319000D01*
X150630000Y-54319000D02*
X149769000Y-54319000D01*
X153534000Y-54359000D02*
X152710000Y-54359000D01*
X150630000Y-54359000D02*
X149806000Y-54359000D01*
X153496000Y-54399000D02*
X152710000Y-54399000D01*
X150630000Y-54399000D02*
X149844000Y-54399000D01*
X153455000Y-54439000D02*
X152710000Y-54439000D01*
X150630000Y-54439000D02*
X149885000Y-54439000D01*
X153413000Y-54479000D02*
X152710000Y-54479000D01*
X150630000Y-54479000D02*
X149927000Y-54479000D01*
X153369000Y-54519000D02*
X152710000Y-54519000D01*
X150630000Y-54519000D02*
X149971000Y-54519000D01*
X153323000Y-54559000D02*
X152710000Y-54559000D01*
X150630000Y-54559000D02*
X150017000Y-54559000D01*
X153275000Y-54599000D02*
X152710000Y-54599000D01*
X150630000Y-54599000D02*
X150065000Y-54599000D01*
X153224000Y-54639000D02*
X152710000Y-54639000D01*
X150630000Y-54639000D02*
X150116000Y-54639000D01*
X153170000Y-54679000D02*
X152710000Y-54679000D01*
X150630000Y-54679000D02*
X150170000Y-54679000D01*
X153113000Y-54719000D02*
X152710000Y-54719000D01*
X150630000Y-54719000D02*
X150227000Y-54719000D01*
X153053000Y-54759000D02*
X152710000Y-54759000D01*
X150630000Y-54759000D02*
X150287000Y-54759000D01*
X152989000Y-54799000D02*
X152710000Y-54799000D01*
X150630000Y-54799000D02*
X150351000Y-54799000D01*
X152921000Y-54839000D02*
X152710000Y-54839000D01*
X150630000Y-54839000D02*
X150419000Y-54839000D01*
X152848000Y-54879000D02*
X150492000Y-54879000D01*
X152768000Y-54919000D02*
X150572000Y-54919000D01*
X152681000Y-54959000D02*
X150659000Y-54959000D01*
X152585000Y-54999000D02*
X150755000Y-54999000D01*
X152475000Y-55039000D02*
X150865000Y-55039000D01*
X152347000Y-55079000D02*
X150993000Y-55079000D01*
X152188000Y-55119000D02*
X151152000Y-55119000D01*
X151954000Y-55159000D02*
X151386000Y-55159000D01*
X153145000Y-49753225D02*
X153145000Y-50253225D01*
X153395000Y-50003225D02*
X152895000Y-50003225D01*
%TO.C,C1*%
X135270000Y-53828000D02*
G75*
G03*
X135270000Y-53828000I-3270000J0D01*
G01*
X135230000Y-53828000D02*
X128770000Y-53828000D01*
X135230000Y-53868000D02*
X128770000Y-53868000D01*
X135230000Y-53908000D02*
X128770000Y-53908000D01*
X135228000Y-53948000D02*
X128772000Y-53948000D01*
X135227000Y-53988000D02*
X128773000Y-53988000D01*
X135224000Y-54028000D02*
X128776000Y-54028000D01*
X135222000Y-54068000D02*
X133040000Y-54068000D01*
X130960000Y-54068000D02*
X128778000Y-54068000D01*
X135218000Y-54108000D02*
X133040000Y-54108000D01*
X130960000Y-54108000D02*
X128782000Y-54108000D01*
X135215000Y-54148000D02*
X133040000Y-54148000D01*
X130960000Y-54148000D02*
X128785000Y-54148000D01*
X135211000Y-54188000D02*
X133040000Y-54188000D01*
X130960000Y-54188000D02*
X128789000Y-54188000D01*
X135206000Y-54228000D02*
X133040000Y-54228000D01*
X130960000Y-54228000D02*
X128794000Y-54228000D01*
X135201000Y-54268000D02*
X133040000Y-54268000D01*
X130960000Y-54268000D02*
X128799000Y-54268000D01*
X135195000Y-54308000D02*
X133040000Y-54308000D01*
X130960000Y-54308000D02*
X128805000Y-54308000D01*
X135189000Y-54348000D02*
X133040000Y-54348000D01*
X130960000Y-54348000D02*
X128811000Y-54348000D01*
X135182000Y-54388000D02*
X133040000Y-54388000D01*
X130960000Y-54388000D02*
X128818000Y-54388000D01*
X135175000Y-54428000D02*
X133040000Y-54428000D01*
X130960000Y-54428000D02*
X128825000Y-54428000D01*
X135167000Y-54468000D02*
X133040000Y-54468000D01*
X130960000Y-54468000D02*
X128833000Y-54468000D01*
X135159000Y-54508000D02*
X133040000Y-54508000D01*
X130960000Y-54508000D02*
X128841000Y-54508000D01*
X135150000Y-54549000D02*
X133040000Y-54549000D01*
X130960000Y-54549000D02*
X128850000Y-54549000D01*
X135141000Y-54589000D02*
X133040000Y-54589000D01*
X130960000Y-54589000D02*
X128859000Y-54589000D01*
X135131000Y-54629000D02*
X133040000Y-54629000D01*
X130960000Y-54629000D02*
X128869000Y-54629000D01*
X135121000Y-54669000D02*
X133040000Y-54669000D01*
X130960000Y-54669000D02*
X128879000Y-54669000D01*
X135110000Y-54709000D02*
X133040000Y-54709000D01*
X130960000Y-54709000D02*
X128890000Y-54709000D01*
X135098000Y-54749000D02*
X133040000Y-54749000D01*
X130960000Y-54749000D02*
X128902000Y-54749000D01*
X135086000Y-54789000D02*
X133040000Y-54789000D01*
X130960000Y-54789000D02*
X128914000Y-54789000D01*
X135074000Y-54829000D02*
X133040000Y-54829000D01*
X130960000Y-54829000D02*
X128926000Y-54829000D01*
X135061000Y-54869000D02*
X133040000Y-54869000D01*
X130960000Y-54869000D02*
X128939000Y-54869000D01*
X135047000Y-54909000D02*
X133040000Y-54909000D01*
X130960000Y-54909000D02*
X128953000Y-54909000D01*
X135033000Y-54949000D02*
X133040000Y-54949000D01*
X130960000Y-54949000D02*
X128967000Y-54949000D01*
X135018000Y-54989000D02*
X133040000Y-54989000D01*
X130960000Y-54989000D02*
X128982000Y-54989000D01*
X135002000Y-55029000D02*
X133040000Y-55029000D01*
X130960000Y-55029000D02*
X128998000Y-55029000D01*
X134986000Y-55069000D02*
X133040000Y-55069000D01*
X130960000Y-55069000D02*
X129014000Y-55069000D01*
X134970000Y-55109000D02*
X133040000Y-55109000D01*
X130960000Y-55109000D02*
X129030000Y-55109000D01*
X134952000Y-55149000D02*
X133040000Y-55149000D01*
X130960000Y-55149000D02*
X129048000Y-55149000D01*
X134934000Y-55189000D02*
X133040000Y-55189000D01*
X130960000Y-55189000D02*
X129066000Y-55189000D01*
X134916000Y-55229000D02*
X133040000Y-55229000D01*
X130960000Y-55229000D02*
X129084000Y-55229000D01*
X134896000Y-55269000D02*
X133040000Y-55269000D01*
X130960000Y-55269000D02*
X129104000Y-55269000D01*
X134876000Y-55309000D02*
X133040000Y-55309000D01*
X130960000Y-55309000D02*
X129124000Y-55309000D01*
X134856000Y-55349000D02*
X133040000Y-55349000D01*
X130960000Y-55349000D02*
X129144000Y-55349000D01*
X134834000Y-55389000D02*
X133040000Y-55389000D01*
X130960000Y-55389000D02*
X129166000Y-55389000D01*
X134812000Y-55429000D02*
X133040000Y-55429000D01*
X130960000Y-55429000D02*
X129188000Y-55429000D01*
X134790000Y-55469000D02*
X133040000Y-55469000D01*
X130960000Y-55469000D02*
X129210000Y-55469000D01*
X134766000Y-55509000D02*
X133040000Y-55509000D01*
X130960000Y-55509000D02*
X129234000Y-55509000D01*
X134742000Y-55549000D02*
X133040000Y-55549000D01*
X130960000Y-55549000D02*
X129258000Y-55549000D01*
X134716000Y-55589000D02*
X133040000Y-55589000D01*
X130960000Y-55589000D02*
X129284000Y-55589000D01*
X134690000Y-55629000D02*
X133040000Y-55629000D01*
X130960000Y-55629000D02*
X129310000Y-55629000D01*
X134664000Y-55669000D02*
X133040000Y-55669000D01*
X130960000Y-55669000D02*
X129336000Y-55669000D01*
X134636000Y-55709000D02*
X133040000Y-55709000D01*
X130960000Y-55709000D02*
X129364000Y-55709000D01*
X134607000Y-55749000D02*
X133040000Y-55749000D01*
X130960000Y-55749000D02*
X129393000Y-55749000D01*
X134578000Y-55789000D02*
X133040000Y-55789000D01*
X130960000Y-55789000D02*
X129422000Y-55789000D01*
X134548000Y-55829000D02*
X133040000Y-55829000D01*
X130960000Y-55829000D02*
X129452000Y-55829000D01*
X134516000Y-55869000D02*
X133040000Y-55869000D01*
X130960000Y-55869000D02*
X129484000Y-55869000D01*
X134484000Y-55909000D02*
X133040000Y-55909000D01*
X130960000Y-55909000D02*
X129516000Y-55909000D01*
X134450000Y-55949000D02*
X133040000Y-55949000D01*
X130960000Y-55949000D02*
X129550000Y-55949000D01*
X134416000Y-55989000D02*
X133040000Y-55989000D01*
X130960000Y-55989000D02*
X129584000Y-55989000D01*
X134380000Y-56029000D02*
X133040000Y-56029000D01*
X130960000Y-56029000D02*
X129620000Y-56029000D01*
X134343000Y-56069000D02*
X133040000Y-56069000D01*
X130960000Y-56069000D02*
X129657000Y-56069000D01*
X134305000Y-56109000D02*
X133040000Y-56109000D01*
X130960000Y-56109000D02*
X129695000Y-56109000D01*
X134265000Y-56149000D02*
X129735000Y-56149000D01*
X134224000Y-56189000D02*
X129776000Y-56189000D01*
X134182000Y-56229000D02*
X129818000Y-56229000D01*
X134137000Y-56269000D02*
X129863000Y-56269000D01*
X134092000Y-56309000D02*
X129908000Y-56309000D01*
X134044000Y-56349000D02*
X129956000Y-56349000D01*
X133995000Y-56389000D02*
X130005000Y-56389000D01*
X133944000Y-56429000D02*
X130056000Y-56429000D01*
X133890000Y-56469000D02*
X130110000Y-56469000D01*
X133834000Y-56509000D02*
X130166000Y-56509000D01*
X133776000Y-56549000D02*
X130224000Y-56549000D01*
X133714000Y-56589000D02*
X130286000Y-56589000D01*
X133650000Y-56629000D02*
X130350000Y-56629000D01*
X133581000Y-56669000D02*
X130419000Y-56669000D01*
X133509000Y-56709000D02*
X130491000Y-56709000D01*
X133432000Y-56749000D02*
X130568000Y-56749000D01*
X133350000Y-56789000D02*
X130650000Y-56789000D01*
X133262000Y-56829000D02*
X130738000Y-56829000D01*
X133165000Y-56869000D02*
X130835000Y-56869000D01*
X133059000Y-56909000D02*
X130941000Y-56909000D01*
X132940000Y-56949000D02*
X131060000Y-56949000D01*
X132802000Y-56989000D02*
X131198000Y-56989000D01*
X132633000Y-57029000D02*
X131367000Y-57029000D01*
X132402000Y-57069000D02*
X131598000Y-57069000D01*
X133839000Y-50327759D02*
X133839000Y-50957759D01*
X134154000Y-50642759D02*
X133524000Y-50642759D01*
%TO.C,J1*%
X161654000Y-40336000D02*
X161654000Y-27736000D01*
X161654000Y-27736000D02*
X151304000Y-27736000D01*
X151304000Y-27736000D02*
X151304000Y-28686000D01*
X151304000Y-28686000D02*
X150804000Y-28436000D01*
X150804000Y-28436000D02*
X150804000Y-30336000D01*
X150804000Y-30336000D02*
X150804000Y-30386000D01*
X150804000Y-30386000D02*
X151304000Y-30136000D01*
X151304000Y-30136000D02*
X151304000Y-35536000D01*
X151304000Y-35536000D02*
X150804000Y-35236000D01*
X150804000Y-35236000D02*
X150804000Y-40336000D01*
X150804000Y-40336000D02*
X161654000Y-40336000D01*
%TO.C,RV1*%
X120120000Y-82470000D02*
X120120000Y-80650000D01*
X120120000Y-79350000D02*
X120120000Y-77530000D01*
X126960000Y-82470000D02*
X126960000Y-80650000D01*
X126960000Y-79350000D02*
X126960000Y-77530000D01*
X120120000Y-77530000D02*
X126960000Y-77530000D01*
X120120000Y-82470000D02*
X126960000Y-82470000D01*
%TO.C,RV2*%
X109124000Y-82506000D02*
X115964000Y-82506000D01*
X109124000Y-77566000D02*
X115964000Y-77566000D01*
X115964000Y-79386000D02*
X115964000Y-77566000D01*
X115964000Y-82506000D02*
X115964000Y-80686000D01*
X109124000Y-79386000D02*
X109124000Y-77566000D01*
X109124000Y-82506000D02*
X109124000Y-80686000D01*
%TO.C,D3*%
X143474000Y-30768000D02*
X143474000Y-30924000D01*
X143474000Y-33084000D02*
X143474000Y-33240000D01*
X146706335Y-30925392D02*
G75*
G03*
X143474000Y-30768484I-1672335J-1078608D01*
G01*
X146706335Y-33082608D02*
G75*
G02*
X143474000Y-33239516I-1672335J1078608D01*
G01*
X146075130Y-30924163D02*
G75*
G03*
X143993039Y-30924000I-1041130J-1079837D01*
G01*
X146075130Y-33083837D02*
G75*
G02*
X143993039Y-33084000I-1041130J1079837D01*
G01*
%TO.C,U3*%
X139160000Y-29170000D02*
X139160000Y-39410000D01*
X134519000Y-29170000D02*
X134519000Y-39410000D01*
X139160000Y-29170000D02*
X134519000Y-29170000D01*
X139160000Y-39410000D02*
X134519000Y-39410000D01*
X137650000Y-29170000D02*
X137650000Y-39410000D01*
X139160000Y-32440000D02*
X137650000Y-32440000D01*
X139160000Y-36141000D02*
X137650000Y-36141000D01*
%TO.C,R1*%
X160306000Y-55538000D02*
X160306000Y-55208000D01*
X160306000Y-55208000D02*
X166846000Y-55208000D01*
X166846000Y-55208000D02*
X166846000Y-55538000D01*
X160306000Y-57618000D02*
X160306000Y-57948000D01*
X160306000Y-57948000D02*
X166846000Y-57948000D01*
X166846000Y-57948000D02*
X166846000Y-57618000D01*
%TO.C,R2*%
X166846000Y-63028000D02*
X166846000Y-62698000D01*
X160306000Y-63028000D02*
X166846000Y-63028000D01*
X160306000Y-62698000D02*
X160306000Y-63028000D01*
X166846000Y-60288000D02*
X166846000Y-60618000D01*
X160306000Y-60288000D02*
X166846000Y-60288000D01*
X160306000Y-60618000D02*
X160306000Y-60288000D01*
%TO.C,R3*%
X167100000Y-72998000D02*
X167100000Y-72668000D01*
X160560000Y-72998000D02*
X167100000Y-72998000D01*
X160560000Y-72668000D02*
X160560000Y-72998000D01*
X167100000Y-70258000D02*
X167100000Y-70588000D01*
X160560000Y-70258000D02*
X167100000Y-70258000D01*
X160560000Y-70588000D02*
X160560000Y-70258000D01*
%TO.C,R4*%
X160560000Y-75668000D02*
X160560000Y-75338000D01*
X160560000Y-75338000D02*
X167100000Y-75338000D01*
X167100000Y-75338000D02*
X167100000Y-75668000D01*
X160560000Y-77748000D02*
X160560000Y-78078000D01*
X160560000Y-78078000D02*
X167100000Y-78078000D01*
X167100000Y-78078000D02*
X167100000Y-77748000D01*
%TO.C,R5*%
X141764000Y-37060000D02*
X141764000Y-36730000D01*
X141764000Y-36730000D02*
X148304000Y-36730000D01*
X148304000Y-36730000D02*
X148304000Y-37060000D01*
X141764000Y-39140000D02*
X141764000Y-39470000D01*
X141764000Y-39470000D02*
X148304000Y-39470000D01*
X148304000Y-39470000D02*
X148304000Y-39140000D01*
%TO.C,C5*%
X167624000Y-47036000D02*
G75*
G03*
X167624000Y-47036000I-5120000J0D01*
G01*
X162504000Y-52116000D02*
X162504000Y-41956000D01*
X162464000Y-52116000D02*
X162464000Y-41956000D01*
X162424000Y-52116000D02*
X162424000Y-41956000D01*
X162384000Y-52115000D02*
X162384000Y-41957000D01*
X162344000Y-52114000D02*
X162344000Y-41958000D01*
X162304000Y-52113000D02*
X162304000Y-41959000D01*
X162264000Y-52111000D02*
X162264000Y-41961000D01*
X162224000Y-52109000D02*
X162224000Y-41963000D01*
X162184000Y-52106000D02*
X162184000Y-41966000D01*
X162144000Y-52104000D02*
X162144000Y-41968000D01*
X162104000Y-52101000D02*
X162104000Y-41971000D01*
X162064000Y-52098000D02*
X162064000Y-41974000D01*
X162024000Y-52094000D02*
X162024000Y-41978000D01*
X161984000Y-52090000D02*
X161984000Y-41982000D01*
X161944000Y-52086000D02*
X161944000Y-41986000D01*
X161904000Y-52081000D02*
X161904000Y-41991000D01*
X161864000Y-52076000D02*
X161864000Y-41996000D01*
X161824000Y-52071000D02*
X161824000Y-42001000D01*
X161783000Y-52066000D02*
X161783000Y-42006000D01*
X161743000Y-52060000D02*
X161743000Y-42012000D01*
X161703000Y-52054000D02*
X161703000Y-42018000D01*
X161663000Y-52047000D02*
X161663000Y-42025000D01*
X161623000Y-52040000D02*
X161623000Y-42032000D01*
X161583000Y-52033000D02*
X161583000Y-42039000D01*
X161543000Y-52026000D02*
X161543000Y-42046000D01*
X161503000Y-52018000D02*
X161503000Y-42054000D01*
X161463000Y-52010000D02*
X161463000Y-42062000D01*
X161423000Y-52001000D02*
X161423000Y-42071000D01*
X161383000Y-51992000D02*
X161383000Y-42080000D01*
X161343000Y-51983000D02*
X161343000Y-42089000D01*
X161303000Y-51974000D02*
X161303000Y-42098000D01*
X161263000Y-51964000D02*
X161263000Y-42108000D01*
X161223000Y-51954000D02*
X161223000Y-48277000D01*
X161223000Y-45795000D02*
X161223000Y-42118000D01*
X161183000Y-51943000D02*
X161183000Y-48277000D01*
X161183000Y-45795000D02*
X161183000Y-42129000D01*
X161143000Y-51933000D02*
X161143000Y-48277000D01*
X161143000Y-45795000D02*
X161143000Y-42139000D01*
X161103000Y-51921000D02*
X161103000Y-48277000D01*
X161103000Y-45795000D02*
X161103000Y-42151000D01*
X161063000Y-51910000D02*
X161063000Y-48277000D01*
X161063000Y-45795000D02*
X161063000Y-42162000D01*
X161023000Y-51898000D02*
X161023000Y-48277000D01*
X161023000Y-45795000D02*
X161023000Y-42174000D01*
X160983000Y-51886000D02*
X160983000Y-48277000D01*
X160983000Y-45795000D02*
X160983000Y-42186000D01*
X160943000Y-51873000D02*
X160943000Y-48277000D01*
X160943000Y-45795000D02*
X160943000Y-42199000D01*
X160903000Y-51860000D02*
X160903000Y-48277000D01*
X160903000Y-45795000D02*
X160903000Y-42212000D01*
X160863000Y-51847000D02*
X160863000Y-48277000D01*
X160863000Y-45795000D02*
X160863000Y-42225000D01*
X160823000Y-51833000D02*
X160823000Y-48277000D01*
X160823000Y-45795000D02*
X160823000Y-42239000D01*
X160783000Y-51819000D02*
X160783000Y-48277000D01*
X160783000Y-45795000D02*
X160783000Y-42253000D01*
X160743000Y-51804000D02*
X160743000Y-48277000D01*
X160743000Y-45795000D02*
X160743000Y-42268000D01*
X160703000Y-51790000D02*
X160703000Y-48277000D01*
X160703000Y-45795000D02*
X160703000Y-42282000D01*
X160663000Y-51774000D02*
X160663000Y-48277000D01*
X160663000Y-45795000D02*
X160663000Y-42298000D01*
X160623000Y-51759000D02*
X160623000Y-48277000D01*
X160623000Y-45795000D02*
X160623000Y-42313000D01*
X160583000Y-51743000D02*
X160583000Y-48277000D01*
X160583000Y-45795000D02*
X160583000Y-42329000D01*
X160543000Y-51726000D02*
X160543000Y-48277000D01*
X160543000Y-45795000D02*
X160543000Y-42346000D01*
X160503000Y-51710000D02*
X160503000Y-48277000D01*
X160503000Y-45795000D02*
X160503000Y-42362000D01*
X160463000Y-51693000D02*
X160463000Y-48277000D01*
X160463000Y-45795000D02*
X160463000Y-42379000D01*
X160423000Y-51675000D02*
X160423000Y-48277000D01*
X160423000Y-45795000D02*
X160423000Y-42397000D01*
X160383000Y-51657000D02*
X160383000Y-48277000D01*
X160383000Y-45795000D02*
X160383000Y-42415000D01*
X160343000Y-51639000D02*
X160343000Y-48277000D01*
X160343000Y-45795000D02*
X160343000Y-42433000D01*
X160303000Y-51620000D02*
X160303000Y-48277000D01*
X160303000Y-45795000D02*
X160303000Y-42452000D01*
X160263000Y-51600000D02*
X160263000Y-48277000D01*
X160263000Y-45795000D02*
X160263000Y-42472000D01*
X160223000Y-51581000D02*
X160223000Y-48277000D01*
X160223000Y-45795000D02*
X160223000Y-42491000D01*
X160183000Y-51561000D02*
X160183000Y-48277000D01*
X160183000Y-45795000D02*
X160183000Y-42511000D01*
X160143000Y-51540000D02*
X160143000Y-48277000D01*
X160143000Y-45795000D02*
X160143000Y-42532000D01*
X160103000Y-51519000D02*
X160103000Y-48277000D01*
X160103000Y-45795000D02*
X160103000Y-42553000D01*
X160063000Y-51498000D02*
X160063000Y-48277000D01*
X160063000Y-45795000D02*
X160063000Y-42574000D01*
X160023000Y-51476000D02*
X160023000Y-48277000D01*
X160023000Y-45795000D02*
X160023000Y-42596000D01*
X159983000Y-51453000D02*
X159983000Y-48277000D01*
X159983000Y-45795000D02*
X159983000Y-42619000D01*
X159943000Y-51431000D02*
X159943000Y-48277000D01*
X159943000Y-45795000D02*
X159943000Y-42641000D01*
X159903000Y-51407000D02*
X159903000Y-48277000D01*
X159903000Y-45795000D02*
X159903000Y-42665000D01*
X159863000Y-51383000D02*
X159863000Y-48277000D01*
X159863000Y-45795000D02*
X159863000Y-42689000D01*
X159823000Y-51359000D02*
X159823000Y-48277000D01*
X159823000Y-45795000D02*
X159823000Y-42713000D01*
X159783000Y-51334000D02*
X159783000Y-48277000D01*
X159783000Y-45795000D02*
X159783000Y-42738000D01*
X159743000Y-51309000D02*
X159743000Y-48277000D01*
X159743000Y-45795000D02*
X159743000Y-42763000D01*
X159703000Y-51283000D02*
X159703000Y-48277000D01*
X159703000Y-45795000D02*
X159703000Y-42789000D01*
X159663000Y-51257000D02*
X159663000Y-48277000D01*
X159663000Y-45795000D02*
X159663000Y-42815000D01*
X159623000Y-51230000D02*
X159623000Y-48277000D01*
X159623000Y-45795000D02*
X159623000Y-42842000D01*
X159583000Y-51202000D02*
X159583000Y-48277000D01*
X159583000Y-45795000D02*
X159583000Y-42870000D01*
X159543000Y-51174000D02*
X159543000Y-48277000D01*
X159543000Y-45795000D02*
X159543000Y-42898000D01*
X159503000Y-51146000D02*
X159503000Y-48277000D01*
X159503000Y-45795000D02*
X159503000Y-42926000D01*
X159463000Y-51116000D02*
X159463000Y-48277000D01*
X159463000Y-45795000D02*
X159463000Y-42956000D01*
X159423000Y-51086000D02*
X159423000Y-48277000D01*
X159423000Y-45795000D02*
X159423000Y-42986000D01*
X159383000Y-51056000D02*
X159383000Y-48277000D01*
X159383000Y-45795000D02*
X159383000Y-43016000D01*
X159343000Y-51025000D02*
X159343000Y-48277000D01*
X159343000Y-45795000D02*
X159343000Y-43047000D01*
X159303000Y-50993000D02*
X159303000Y-48277000D01*
X159303000Y-45795000D02*
X159303000Y-43079000D01*
X159263000Y-50961000D02*
X159263000Y-48277000D01*
X159263000Y-45795000D02*
X159263000Y-43111000D01*
X159223000Y-50928000D02*
X159223000Y-48277000D01*
X159223000Y-45795000D02*
X159223000Y-43144000D01*
X159183000Y-50894000D02*
X159183000Y-48277000D01*
X159183000Y-45795000D02*
X159183000Y-43178000D01*
X159143000Y-50860000D02*
X159143000Y-48277000D01*
X159143000Y-45795000D02*
X159143000Y-43212000D01*
X159103000Y-50825000D02*
X159103000Y-48277000D01*
X159103000Y-45795000D02*
X159103000Y-43247000D01*
X159063000Y-50789000D02*
X159063000Y-48277000D01*
X159063000Y-45795000D02*
X159063000Y-43283000D01*
X159023000Y-50752000D02*
X159023000Y-48277000D01*
X159023000Y-45795000D02*
X159023000Y-43320000D01*
X158983000Y-50715000D02*
X158983000Y-48277000D01*
X158983000Y-45795000D02*
X158983000Y-43357000D01*
X158943000Y-50676000D02*
X158943000Y-48277000D01*
X158943000Y-45795000D02*
X158943000Y-43396000D01*
X158903000Y-50637000D02*
X158903000Y-48277000D01*
X158903000Y-45795000D02*
X158903000Y-43435000D01*
X158863000Y-50597000D02*
X158863000Y-48277000D01*
X158863000Y-45795000D02*
X158863000Y-43475000D01*
X158823000Y-50556000D02*
X158823000Y-48277000D01*
X158823000Y-45795000D02*
X158823000Y-43516000D01*
X158783000Y-50514000D02*
X158783000Y-48277000D01*
X158783000Y-45795000D02*
X158783000Y-43558000D01*
X158743000Y-50472000D02*
X158743000Y-43600000D01*
X158703000Y-50428000D02*
X158703000Y-43644000D01*
X158663000Y-50383000D02*
X158663000Y-43689000D01*
X158623000Y-50337000D02*
X158623000Y-43735000D01*
X158583000Y-50290000D02*
X158583000Y-43782000D01*
X158543000Y-50242000D02*
X158543000Y-43830000D01*
X158503000Y-50192000D02*
X158503000Y-43880000D01*
X158463000Y-50142000D02*
X158463000Y-43930000D01*
X158423000Y-50090000D02*
X158423000Y-43982000D01*
X158383000Y-50036000D02*
X158383000Y-44036000D01*
X158343000Y-49981000D02*
X158343000Y-44091000D01*
X158303000Y-49925000D02*
X158303000Y-44147000D01*
X158263000Y-49866000D02*
X158263000Y-44206000D01*
X158223000Y-49806000D02*
X158223000Y-44266000D01*
X158183000Y-49745000D02*
X158183000Y-44327000D01*
X158143000Y-49681000D02*
X158143000Y-44391000D01*
X158103000Y-49615000D02*
X158103000Y-44457000D01*
X158063000Y-49546000D02*
X158063000Y-44526000D01*
X158023000Y-49475000D02*
X158023000Y-44597000D01*
X157983000Y-49401000D02*
X157983000Y-44671000D01*
X157943000Y-49325000D02*
X157943000Y-44747000D01*
X157903000Y-49245000D02*
X157903000Y-44827000D01*
X157863000Y-49161000D02*
X157863000Y-44911000D01*
X157823000Y-49073000D02*
X157823000Y-44999000D01*
X157783000Y-48980000D02*
X157783000Y-45092000D01*
X157743000Y-48882000D02*
X157743000Y-45190000D01*
X157703000Y-48778000D02*
X157703000Y-45294000D01*
X157663000Y-48666000D02*
X157663000Y-45406000D01*
X157623000Y-48546000D02*
X157623000Y-45526000D01*
X157583000Y-48414000D02*
X157583000Y-45658000D01*
X157543000Y-48266000D02*
X157543000Y-45806000D01*
X157503000Y-48098000D02*
X157503000Y-45974000D01*
X157463000Y-47898000D02*
X157463000Y-46174000D01*
X157423000Y-47635000D02*
X157423000Y-46437000D01*
X167983646Y-49911000D02*
X166983646Y-49911000D01*
X167483646Y-50411000D02*
X167483646Y-49411000D01*
%TO.C,C6*%
X132124000Y-32036000D02*
G75*
G03*
X132124000Y-32036000I-2120000J0D01*
G01*
X132084000Y-32036000D02*
X127924000Y-32036000D01*
X132084000Y-32076000D02*
X127924000Y-32076000D01*
X132083000Y-32116000D02*
X127925000Y-32116000D01*
X132081000Y-32156000D02*
X127927000Y-32156000D01*
X132078000Y-32196000D02*
X127930000Y-32196000D01*
X132075000Y-32236000D02*
X130844000Y-32236000D01*
X129164000Y-32236000D02*
X127933000Y-32236000D01*
X132071000Y-32276000D02*
X130844000Y-32276000D01*
X129164000Y-32276000D02*
X127937000Y-32276000D01*
X132066000Y-32316000D02*
X130844000Y-32316000D01*
X129164000Y-32316000D02*
X127942000Y-32316000D01*
X132060000Y-32356000D02*
X130844000Y-32356000D01*
X129164000Y-32356000D02*
X127948000Y-32356000D01*
X132054000Y-32396000D02*
X130844000Y-32396000D01*
X129164000Y-32396000D02*
X127954000Y-32396000D01*
X132046000Y-32436000D02*
X130844000Y-32436000D01*
X129164000Y-32436000D02*
X127962000Y-32436000D01*
X132038000Y-32476000D02*
X130844000Y-32476000D01*
X129164000Y-32476000D02*
X127970000Y-32476000D01*
X132029000Y-32516000D02*
X130844000Y-32516000D01*
X129164000Y-32516000D02*
X127979000Y-32516000D01*
X132020000Y-32556000D02*
X130844000Y-32556000D01*
X129164000Y-32556000D02*
X127988000Y-32556000D01*
X132009000Y-32596000D02*
X130844000Y-32596000D01*
X129164000Y-32596000D02*
X127999000Y-32596000D01*
X131998000Y-32636000D02*
X130844000Y-32636000D01*
X129164000Y-32636000D02*
X128010000Y-32636000D01*
X131986000Y-32676000D02*
X130844000Y-32676000D01*
X129164000Y-32676000D02*
X128022000Y-32676000D01*
X131972000Y-32716000D02*
X130844000Y-32716000D01*
X129164000Y-32716000D02*
X128036000Y-32716000D01*
X131958000Y-32757000D02*
X130844000Y-32757000D01*
X129164000Y-32757000D02*
X128050000Y-32757000D01*
X131944000Y-32797000D02*
X130844000Y-32797000D01*
X129164000Y-32797000D02*
X128064000Y-32797000D01*
X131928000Y-32837000D02*
X130844000Y-32837000D01*
X129164000Y-32837000D02*
X128080000Y-32837000D01*
X131911000Y-32877000D02*
X130844000Y-32877000D01*
X129164000Y-32877000D02*
X128097000Y-32877000D01*
X131893000Y-32917000D02*
X130844000Y-32917000D01*
X129164000Y-32917000D02*
X128115000Y-32917000D01*
X131874000Y-32957000D02*
X130844000Y-32957000D01*
X129164000Y-32957000D02*
X128134000Y-32957000D01*
X131855000Y-32997000D02*
X130844000Y-32997000D01*
X129164000Y-32997000D02*
X128153000Y-32997000D01*
X131834000Y-33037000D02*
X130844000Y-33037000D01*
X129164000Y-33037000D02*
X128174000Y-33037000D01*
X131812000Y-33077000D02*
X130844000Y-33077000D01*
X129164000Y-33077000D02*
X128196000Y-33077000D01*
X131789000Y-33117000D02*
X130844000Y-33117000D01*
X129164000Y-33117000D02*
X128219000Y-33117000D01*
X131764000Y-33157000D02*
X130844000Y-33157000D01*
X129164000Y-33157000D02*
X128244000Y-33157000D01*
X131739000Y-33197000D02*
X130844000Y-33197000D01*
X129164000Y-33197000D02*
X128269000Y-33197000D01*
X131712000Y-33237000D02*
X130844000Y-33237000D01*
X129164000Y-33237000D02*
X128296000Y-33237000D01*
X131684000Y-33277000D02*
X130844000Y-33277000D01*
X129164000Y-33277000D02*
X128324000Y-33277000D01*
X131654000Y-33317000D02*
X130844000Y-33317000D01*
X129164000Y-33317000D02*
X128354000Y-33317000D01*
X131623000Y-33357000D02*
X130844000Y-33357000D01*
X129164000Y-33357000D02*
X128385000Y-33357000D01*
X131591000Y-33397000D02*
X130844000Y-33397000D01*
X129164000Y-33397000D02*
X128417000Y-33397000D01*
X131556000Y-33437000D02*
X130844000Y-33437000D01*
X129164000Y-33437000D02*
X128452000Y-33437000D01*
X131520000Y-33477000D02*
X130844000Y-33477000D01*
X129164000Y-33477000D02*
X128488000Y-33477000D01*
X131482000Y-33517000D02*
X130844000Y-33517000D01*
X129164000Y-33517000D02*
X128526000Y-33517000D01*
X131442000Y-33557000D02*
X130844000Y-33557000D01*
X129164000Y-33557000D02*
X128566000Y-33557000D01*
X131400000Y-33597000D02*
X130844000Y-33597000D01*
X129164000Y-33597000D02*
X128608000Y-33597000D01*
X131355000Y-33637000D02*
X130844000Y-33637000D01*
X129164000Y-33637000D02*
X128653000Y-33637000D01*
X131308000Y-33677000D02*
X130844000Y-33677000D01*
X129164000Y-33677000D02*
X128700000Y-33677000D01*
X131258000Y-33717000D02*
X130844000Y-33717000D01*
X129164000Y-33717000D02*
X128750000Y-33717000D01*
X131204000Y-33757000D02*
X130844000Y-33757000D01*
X129164000Y-33757000D02*
X128804000Y-33757000D01*
X131146000Y-33797000D02*
X130844000Y-33797000D01*
X129164000Y-33797000D02*
X128862000Y-33797000D01*
X131084000Y-33837000D02*
X130844000Y-33837000D01*
X129164000Y-33837000D02*
X128924000Y-33837000D01*
X131017000Y-33877000D02*
X128991000Y-33877000D01*
X130944000Y-33917000D02*
X129064000Y-33917000D01*
X130863000Y-33957000D02*
X129145000Y-33957000D01*
X130772000Y-33997000D02*
X129236000Y-33997000D01*
X130668000Y-34037000D02*
X129340000Y-34037000D01*
X130541000Y-34077000D02*
X129467000Y-34077000D01*
X130374000Y-34117000D02*
X129634000Y-34117000D01*
X131199000Y-29766199D02*
X131199000Y-30166199D01*
X131399000Y-29966199D02*
X130999000Y-29966199D01*
%TO.C,C7*%
X131399000Y-34966199D02*
X130999000Y-34966199D01*
X131199000Y-34766199D02*
X131199000Y-35166199D01*
X130374000Y-39117000D02*
X129634000Y-39117000D01*
X130541000Y-39077000D02*
X129467000Y-39077000D01*
X130668000Y-39037000D02*
X129340000Y-39037000D01*
X130772000Y-38997000D02*
X129236000Y-38997000D01*
X130863000Y-38957000D02*
X129145000Y-38957000D01*
X130944000Y-38917000D02*
X129064000Y-38917000D01*
X131017000Y-38877000D02*
X128991000Y-38877000D01*
X129164000Y-38837000D02*
X128924000Y-38837000D01*
X131084000Y-38837000D02*
X130844000Y-38837000D01*
X129164000Y-38797000D02*
X128862000Y-38797000D01*
X131146000Y-38797000D02*
X130844000Y-38797000D01*
X129164000Y-38757000D02*
X128804000Y-38757000D01*
X131204000Y-38757000D02*
X130844000Y-38757000D01*
X129164000Y-38717000D02*
X128750000Y-38717000D01*
X131258000Y-38717000D02*
X130844000Y-38717000D01*
X129164000Y-38677000D02*
X128700000Y-38677000D01*
X131308000Y-38677000D02*
X130844000Y-38677000D01*
X129164000Y-38637000D02*
X128653000Y-38637000D01*
X131355000Y-38637000D02*
X130844000Y-38637000D01*
X129164000Y-38597000D02*
X128608000Y-38597000D01*
X131400000Y-38597000D02*
X130844000Y-38597000D01*
X129164000Y-38557000D02*
X128566000Y-38557000D01*
X131442000Y-38557000D02*
X130844000Y-38557000D01*
X129164000Y-38517000D02*
X128526000Y-38517000D01*
X131482000Y-38517000D02*
X130844000Y-38517000D01*
X129164000Y-38477000D02*
X128488000Y-38477000D01*
X131520000Y-38477000D02*
X130844000Y-38477000D01*
X129164000Y-38437000D02*
X128452000Y-38437000D01*
X131556000Y-38437000D02*
X130844000Y-38437000D01*
X129164000Y-38397000D02*
X128417000Y-38397000D01*
X131591000Y-38397000D02*
X130844000Y-38397000D01*
X129164000Y-38357000D02*
X128385000Y-38357000D01*
X131623000Y-38357000D02*
X130844000Y-38357000D01*
X129164000Y-38317000D02*
X128354000Y-38317000D01*
X131654000Y-38317000D02*
X130844000Y-38317000D01*
X129164000Y-38277000D02*
X128324000Y-38277000D01*
X131684000Y-38277000D02*
X130844000Y-38277000D01*
X129164000Y-38237000D02*
X128296000Y-38237000D01*
X131712000Y-38237000D02*
X130844000Y-38237000D01*
X129164000Y-38197000D02*
X128269000Y-38197000D01*
X131739000Y-38197000D02*
X130844000Y-38197000D01*
X129164000Y-38157000D02*
X128244000Y-38157000D01*
X131764000Y-38157000D02*
X130844000Y-38157000D01*
X129164000Y-38117000D02*
X128219000Y-38117000D01*
X131789000Y-38117000D02*
X130844000Y-38117000D01*
X129164000Y-38077000D02*
X128196000Y-38077000D01*
X131812000Y-38077000D02*
X130844000Y-38077000D01*
X129164000Y-38037000D02*
X128174000Y-38037000D01*
X131834000Y-38037000D02*
X130844000Y-38037000D01*
X129164000Y-37997000D02*
X128153000Y-37997000D01*
X131855000Y-37997000D02*
X130844000Y-37997000D01*
X129164000Y-37957000D02*
X128134000Y-37957000D01*
X131874000Y-37957000D02*
X130844000Y-37957000D01*
X129164000Y-37917000D02*
X128115000Y-37917000D01*
X131893000Y-37917000D02*
X130844000Y-37917000D01*
X129164000Y-37877000D02*
X128097000Y-37877000D01*
X131911000Y-37877000D02*
X130844000Y-37877000D01*
X129164000Y-37837000D02*
X128080000Y-37837000D01*
X131928000Y-37837000D02*
X130844000Y-37837000D01*
X129164000Y-37797000D02*
X128064000Y-37797000D01*
X131944000Y-37797000D02*
X130844000Y-37797000D01*
X129164000Y-37757000D02*
X128050000Y-37757000D01*
X131958000Y-37757000D02*
X130844000Y-37757000D01*
X129164000Y-37716000D02*
X128036000Y-37716000D01*
X131972000Y-37716000D02*
X130844000Y-37716000D01*
X129164000Y-37676000D02*
X128022000Y-37676000D01*
X131986000Y-37676000D02*
X130844000Y-37676000D01*
X129164000Y-37636000D02*
X128010000Y-37636000D01*
X131998000Y-37636000D02*
X130844000Y-37636000D01*
X129164000Y-37596000D02*
X127999000Y-37596000D01*
X132009000Y-37596000D02*
X130844000Y-37596000D01*
X129164000Y-37556000D02*
X127988000Y-37556000D01*
X132020000Y-37556000D02*
X130844000Y-37556000D01*
X129164000Y-37516000D02*
X127979000Y-37516000D01*
X132029000Y-37516000D02*
X130844000Y-37516000D01*
X129164000Y-37476000D02*
X127970000Y-37476000D01*
X132038000Y-37476000D02*
X130844000Y-37476000D01*
X129164000Y-37436000D02*
X127962000Y-37436000D01*
X132046000Y-37436000D02*
X130844000Y-37436000D01*
X129164000Y-37396000D02*
X127954000Y-37396000D01*
X132054000Y-37396000D02*
X130844000Y-37396000D01*
X129164000Y-37356000D02*
X127948000Y-37356000D01*
X132060000Y-37356000D02*
X130844000Y-37356000D01*
X129164000Y-37316000D02*
X127942000Y-37316000D01*
X132066000Y-37316000D02*
X130844000Y-37316000D01*
X129164000Y-37276000D02*
X127937000Y-37276000D01*
X132071000Y-37276000D02*
X130844000Y-37276000D01*
X129164000Y-37236000D02*
X127933000Y-37236000D01*
X132075000Y-37236000D02*
X130844000Y-37236000D01*
X132078000Y-37196000D02*
X127930000Y-37196000D01*
X132081000Y-37156000D02*
X127927000Y-37156000D01*
X132083000Y-37116000D02*
X127925000Y-37116000D01*
X132084000Y-37076000D02*
X127924000Y-37076000D01*
X132084000Y-37036000D02*
X127924000Y-37036000D01*
X132124000Y-37036000D02*
G75*
G03*
X132124000Y-37036000I-2120000J0D01*
G01*
%TO.C,D1*%
X145644000Y-46506000D02*
X145644000Y-43566000D01*
X145644000Y-43566000D02*
X140204000Y-43566000D01*
X140204000Y-43566000D02*
X140204000Y-46506000D01*
X140204000Y-46506000D02*
X145644000Y-46506000D01*
X146864000Y-45036000D02*
X145644000Y-45036000D01*
X138984000Y-45036000D02*
X140204000Y-45036000D01*
X144744000Y-46506000D02*
X144744000Y-43566000D01*
X144624000Y-46506000D02*
X144624000Y-43566000D01*
X144864000Y-46506000D02*
X144864000Y-43566000D01*
%TO.C,D2*%
X144864000Y-65506000D02*
X144864000Y-62566000D01*
X144624000Y-65506000D02*
X144624000Y-62566000D01*
X144744000Y-65506000D02*
X144744000Y-62566000D01*
X138984000Y-64036000D02*
X140204000Y-64036000D01*
X146864000Y-64036000D02*
X145644000Y-64036000D01*
X140204000Y-65506000D02*
X145644000Y-65506000D01*
X140204000Y-62566000D02*
X140204000Y-65506000D01*
X145644000Y-62566000D02*
X140204000Y-62566000D01*
X145644000Y-65506000D02*
X145644000Y-62566000D01*
%TO.C,A1*%
D10*
X116905714Y-29086666D02*
X117381904Y-29086666D01*
X116810476Y-29372380D02*
X117143809Y-28372380D01*
X117477142Y-29372380D01*
X118334285Y-29372380D02*
X117762857Y-29372380D01*
X118048571Y-29372380D02*
X118048571Y-28372380D01*
X117953333Y-28515238D01*
X117858095Y-28610476D01*
X117762857Y-28658095D01*
%TO.C,U2*%
X142018095Y-66210380D02*
X142018095Y-67019904D01*
X142065714Y-67115142D01*
X142113333Y-67162761D01*
X142208571Y-67210380D01*
X142399047Y-67210380D01*
X142494285Y-67162761D01*
X142541904Y-67115142D01*
X142589523Y-67019904D01*
X142589523Y-66210380D01*
X143018095Y-66305619D02*
X143065714Y-66258000D01*
X143160952Y-66210380D01*
X143399047Y-66210380D01*
X143494285Y-66258000D01*
X143541904Y-66305619D01*
X143589523Y-66400857D01*
X143589523Y-66496095D01*
X143541904Y-66638952D01*
X142970476Y-67210380D01*
X143589523Y-67210380D01*
%TO.C,U1*%
X142018095Y-47160380D02*
X142018095Y-47969904D01*
X142065714Y-48065142D01*
X142113333Y-48112761D01*
X142208571Y-48160380D01*
X142399047Y-48160380D01*
X142494285Y-48112761D01*
X142541904Y-48065142D01*
X142589523Y-47969904D01*
X142589523Y-47160380D01*
X143589523Y-48160380D02*
X143018095Y-48160380D01*
X143303809Y-48160380D02*
X143303809Y-47160380D01*
X143208571Y-47303238D01*
X143113333Y-47398476D01*
X143018095Y-47446095D01*
%TO.C,Q4*%
X186681619Y-78073238D02*
X186634000Y-78168476D01*
X186538761Y-78263714D01*
X186395904Y-78406571D01*
X186348285Y-78501809D01*
X186348285Y-78597047D01*
X186586380Y-78549428D02*
X186538761Y-78644666D01*
X186443523Y-78739904D01*
X186253047Y-78787523D01*
X185919714Y-78787523D01*
X185729238Y-78739904D01*
X185634000Y-78644666D01*
X185586380Y-78549428D01*
X185586380Y-78358952D01*
X185634000Y-78263714D01*
X185729238Y-78168476D01*
X185919714Y-78120857D01*
X186253047Y-78120857D01*
X186443523Y-78168476D01*
X186538761Y-78263714D01*
X186586380Y-78358952D01*
X186586380Y-78549428D01*
X185919714Y-77263714D02*
X186586380Y-77263714D01*
X185538761Y-77501809D02*
X186253047Y-77739904D01*
X186253047Y-77120857D01*
%TO.C,Q3*%
X186681619Y-65373238D02*
X186634000Y-65468476D01*
X186538761Y-65563714D01*
X186395904Y-65706571D01*
X186348285Y-65801809D01*
X186348285Y-65897047D01*
X186586380Y-65849428D02*
X186538761Y-65944666D01*
X186443523Y-66039904D01*
X186253047Y-66087523D01*
X185919714Y-66087523D01*
X185729238Y-66039904D01*
X185634000Y-65944666D01*
X185586380Y-65849428D01*
X185586380Y-65658952D01*
X185634000Y-65563714D01*
X185729238Y-65468476D01*
X185919714Y-65420857D01*
X186253047Y-65420857D01*
X186443523Y-65468476D01*
X186538761Y-65563714D01*
X186586380Y-65658952D01*
X186586380Y-65849428D01*
X185586380Y-65087523D02*
X185586380Y-64468476D01*
X185967333Y-64801809D01*
X185967333Y-64658952D01*
X186014952Y-64563714D01*
X186062571Y-64516095D01*
X186157809Y-64468476D01*
X186395904Y-64468476D01*
X186491142Y-64516095D01*
X186538761Y-64563714D01*
X186586380Y-64658952D01*
X186586380Y-64944666D01*
X186538761Y-65039904D01*
X186491142Y-65087523D01*
%TO.C,Q2*%
X186681619Y-52673238D02*
X186634000Y-52768476D01*
X186538761Y-52863714D01*
X186395904Y-53006571D01*
X186348285Y-53101809D01*
X186348285Y-53197047D01*
X186586380Y-53149428D02*
X186538761Y-53244666D01*
X186443523Y-53339904D01*
X186253047Y-53387523D01*
X185919714Y-53387523D01*
X185729238Y-53339904D01*
X185634000Y-53244666D01*
X185586380Y-53149428D01*
X185586380Y-52958952D01*
X185634000Y-52863714D01*
X185729238Y-52768476D01*
X185919714Y-52720857D01*
X186253047Y-52720857D01*
X186443523Y-52768476D01*
X186538761Y-52863714D01*
X186586380Y-52958952D01*
X186586380Y-53149428D01*
X185681619Y-52339904D02*
X185634000Y-52292285D01*
X185586380Y-52197047D01*
X185586380Y-51958952D01*
X185634000Y-51863714D01*
X185681619Y-51816095D01*
X185776857Y-51768476D01*
X185872095Y-51768476D01*
X186014952Y-51816095D01*
X186586380Y-52387523D01*
X186586380Y-51768476D01*
%TO.C,Q1*%
X186681619Y-39973238D02*
X186634000Y-40068476D01*
X186538761Y-40163714D01*
X186395904Y-40306571D01*
X186348285Y-40401809D01*
X186348285Y-40497047D01*
X186586380Y-40449428D02*
X186538761Y-40544666D01*
X186443523Y-40639904D01*
X186253047Y-40687523D01*
X185919714Y-40687523D01*
X185729238Y-40639904D01*
X185634000Y-40544666D01*
X185586380Y-40449428D01*
X185586380Y-40258952D01*
X185634000Y-40163714D01*
X185729238Y-40068476D01*
X185919714Y-40020857D01*
X186253047Y-40020857D01*
X186443523Y-40068476D01*
X186538761Y-40163714D01*
X186586380Y-40258952D01*
X186586380Y-40449428D01*
X186586380Y-39068476D02*
X186586380Y-39639904D01*
X186586380Y-39354190D02*
X185586380Y-39354190D01*
X185729238Y-39449428D01*
X185824476Y-39544666D01*
X185872095Y-39639904D01*
%TO.C,J2*%
X174306666Y-40478380D02*
X174306666Y-41192666D01*
X174259047Y-41335523D01*
X174163809Y-41430761D01*
X174020952Y-41478380D01*
X173925714Y-41478380D01*
X174735238Y-40573619D02*
X174782857Y-40526000D01*
X174878095Y-40478380D01*
X175116190Y-40478380D01*
X175211428Y-40526000D01*
X175259047Y-40573619D01*
X175306666Y-40668857D01*
X175306666Y-40764095D01*
X175259047Y-40906952D01*
X174687619Y-41478380D01*
X175306666Y-41478380D01*
%TO.C,C4*%
X155777142Y-71774666D02*
X155824761Y-71822285D01*
X155872380Y-71965142D01*
X155872380Y-72060380D01*
X155824761Y-72203238D01*
X155729523Y-72298476D01*
X155634285Y-72346095D01*
X155443809Y-72393714D01*
X155300952Y-72393714D01*
X155110476Y-72346095D01*
X155015238Y-72298476D01*
X154920000Y-72203238D01*
X154872380Y-72060380D01*
X154872380Y-71965142D01*
X154920000Y-71822285D01*
X154967619Y-71774666D01*
X155205714Y-70917523D02*
X155872380Y-70917523D01*
X154824761Y-71155619D02*
X155539047Y-71393714D01*
X155539047Y-70774666D01*
%TO.C,C3*%
X136757142Y-73044666D02*
X136804761Y-73092285D01*
X136852380Y-73235142D01*
X136852380Y-73330380D01*
X136804761Y-73473238D01*
X136709523Y-73568476D01*
X136614285Y-73616095D01*
X136423809Y-73663714D01*
X136280952Y-73663714D01*
X136090476Y-73616095D01*
X135995238Y-73568476D01*
X135900000Y-73473238D01*
X135852380Y-73330380D01*
X135852380Y-73235142D01*
X135900000Y-73092285D01*
X135947619Y-73044666D01*
X135852380Y-72711333D02*
X135852380Y-72092285D01*
X136233333Y-72425619D01*
X136233333Y-72282761D01*
X136280952Y-72187523D01*
X136328571Y-72139904D01*
X136423809Y-72092285D01*
X136661904Y-72092285D01*
X136757142Y-72139904D01*
X136804761Y-72187523D01*
X136852380Y-72282761D01*
X136852380Y-72568476D01*
X136804761Y-72663714D01*
X136757142Y-72711333D01*
%TO.C,C2*%
X155777142Y-52724666D02*
X155824761Y-52772285D01*
X155872380Y-52915142D01*
X155872380Y-53010380D01*
X155824761Y-53153238D01*
X155729523Y-53248476D01*
X155634285Y-53296095D01*
X155443809Y-53343714D01*
X155300952Y-53343714D01*
X155110476Y-53296095D01*
X155015238Y-53248476D01*
X154920000Y-53153238D01*
X154872380Y-53010380D01*
X154872380Y-52915142D01*
X154920000Y-52772285D01*
X154967619Y-52724666D01*
X154967619Y-52343714D02*
X154920000Y-52296095D01*
X154872380Y-52200857D01*
X154872380Y-51962761D01*
X154920000Y-51867523D01*
X154967619Y-51819904D01*
X155062857Y-51772285D01*
X155158095Y-51772285D01*
X155300952Y-51819904D01*
X155872380Y-52391333D01*
X155872380Y-51772285D01*
%TO.C,C1*%
X136757142Y-53994666D02*
X136804761Y-54042285D01*
X136852380Y-54185142D01*
X136852380Y-54280380D01*
X136804761Y-54423238D01*
X136709523Y-54518476D01*
X136614285Y-54566095D01*
X136423809Y-54613714D01*
X136280952Y-54613714D01*
X136090476Y-54566095D01*
X135995238Y-54518476D01*
X135900000Y-54423238D01*
X135852380Y-54280380D01*
X135852380Y-54185142D01*
X135900000Y-54042285D01*
X135947619Y-53994666D01*
X136852380Y-53042285D02*
X136852380Y-53613714D01*
X136852380Y-53328000D02*
X135852380Y-53328000D01*
X135995238Y-53423238D01*
X136090476Y-53518476D01*
X136138095Y-53613714D01*
%TO.C,J1*%
X160590666Y-40478380D02*
X160590666Y-41192666D01*
X160543047Y-41335523D01*
X160447809Y-41430761D01*
X160304952Y-41478380D01*
X160209714Y-41478380D01*
X161590666Y-41478380D02*
X161019238Y-41478380D01*
X161304952Y-41478380D02*
X161304952Y-40478380D01*
X161209714Y-40621238D01*
X161114476Y-40716476D01*
X161019238Y-40764095D01*
%TO.C,RV1*%
X119442380Y-80595238D02*
X118966190Y-80928571D01*
X119442380Y-81166666D02*
X118442380Y-81166666D01*
X118442380Y-80785714D01*
X118490000Y-80690476D01*
X118537619Y-80642857D01*
X118632857Y-80595238D01*
X118775714Y-80595238D01*
X118870952Y-80642857D01*
X118918571Y-80690476D01*
X118966190Y-80785714D01*
X118966190Y-81166666D01*
X118442380Y-80309523D02*
X119442380Y-79976190D01*
X118442380Y-79642857D01*
X119442380Y-78785714D02*
X119442380Y-79357142D01*
X119442380Y-79071428D02*
X118442380Y-79071428D01*
X118585238Y-79166666D01*
X118680476Y-79261904D01*
X118728095Y-79357142D01*
%TO.C,RV2*%
X108446380Y-80631238D02*
X107970190Y-80964571D01*
X108446380Y-81202666D02*
X107446380Y-81202666D01*
X107446380Y-80821714D01*
X107494000Y-80726476D01*
X107541619Y-80678857D01*
X107636857Y-80631238D01*
X107779714Y-80631238D01*
X107874952Y-80678857D01*
X107922571Y-80726476D01*
X107970190Y-80821714D01*
X107970190Y-81202666D01*
X107446380Y-80345523D02*
X108446380Y-80012190D01*
X107446380Y-79678857D01*
X107541619Y-79393142D02*
X107494000Y-79345523D01*
X107446380Y-79250285D01*
X107446380Y-79012190D01*
X107494000Y-78916952D01*
X107541619Y-78869333D01*
X107636857Y-78821714D01*
X107732095Y-78821714D01*
X107874952Y-78869333D01*
X108446380Y-79440761D01*
X108446380Y-78821714D01*
%TO.C,H1*%
X182238095Y-28892380D02*
X182238095Y-27892380D01*
X182238095Y-28368571D02*
X182809523Y-28368571D01*
X182809523Y-28892380D02*
X182809523Y-27892380D01*
X183809523Y-28892380D02*
X183238095Y-28892380D01*
X183523809Y-28892380D02*
X183523809Y-27892380D01*
X183428571Y-28035238D01*
X183333333Y-28130476D01*
X183238095Y-28178095D01*
%TO.C,H2*%
X175110095Y-78804380D02*
X175110095Y-77804380D01*
X175110095Y-78280571D02*
X175681523Y-78280571D01*
X175681523Y-78804380D02*
X175681523Y-77804380D01*
X176110095Y-77899619D02*
X176157714Y-77852000D01*
X176252952Y-77804380D01*
X176491047Y-77804380D01*
X176586285Y-77852000D01*
X176633904Y-77899619D01*
X176681523Y-77994857D01*
X176681523Y-78090095D01*
X176633904Y-78232952D01*
X176062476Y-78804380D01*
X176681523Y-78804380D01*
%TO.C,H3*%
X104161095Y-78804380D02*
X104161095Y-77804380D01*
X104161095Y-78280571D02*
X104732523Y-78280571D01*
X104732523Y-78804380D02*
X104732523Y-77804380D01*
X105113476Y-77804380D02*
X105732523Y-77804380D01*
X105399190Y-78185333D01*
X105542047Y-78185333D01*
X105637285Y-78232952D01*
X105684904Y-78280571D01*
X105732523Y-78375809D01*
X105732523Y-78613904D01*
X105684904Y-78709142D01*
X105637285Y-78756761D01*
X105542047Y-78804380D01*
X105256333Y-78804380D01*
X105161095Y-78756761D01*
X105113476Y-78709142D01*
%TO.C,H4*%
X104238095Y-28892380D02*
X104238095Y-27892380D01*
X104238095Y-28368571D02*
X104809523Y-28368571D01*
X104809523Y-28892380D02*
X104809523Y-27892380D01*
X105714285Y-28225714D02*
X105714285Y-28892380D01*
X105476190Y-27844761D02*
X105238095Y-28559047D01*
X105857142Y-28559047D01*
%TO.C,D3*%
X144295904Y-29496380D02*
X144295904Y-28496380D01*
X144534000Y-28496380D01*
X144676857Y-28544000D01*
X144772095Y-28639238D01*
X144819714Y-28734476D01*
X144867333Y-28924952D01*
X144867333Y-29067809D01*
X144819714Y-29258285D01*
X144772095Y-29353523D01*
X144676857Y-29448761D01*
X144534000Y-29496380D01*
X144295904Y-29496380D01*
X145200666Y-28496380D02*
X145819714Y-28496380D01*
X145486380Y-28877333D01*
X145629238Y-28877333D01*
X145724476Y-28924952D01*
X145772095Y-28972571D01*
X145819714Y-29067809D01*
X145819714Y-29305904D01*
X145772095Y-29401142D01*
X145724476Y-29448761D01*
X145629238Y-29496380D01*
X145343523Y-29496380D01*
X145248285Y-29448761D01*
X145200666Y-29401142D01*
%TO.C,U3*%
X139612380Y-35051904D02*
X140421904Y-35051904D01*
X140517142Y-35004285D01*
X140564761Y-34956666D01*
X140612380Y-34861428D01*
X140612380Y-34670952D01*
X140564761Y-34575714D01*
X140517142Y-34528095D01*
X140421904Y-34480476D01*
X139612380Y-34480476D01*
X139612380Y-34099523D02*
X139612380Y-33480476D01*
X139993333Y-33813809D01*
X139993333Y-33670952D01*
X140040952Y-33575714D01*
X140088571Y-33528095D01*
X140183809Y-33480476D01*
X140421904Y-33480476D01*
X140517142Y-33528095D01*
X140564761Y-33575714D01*
X140612380Y-33670952D01*
X140612380Y-33956666D01*
X140564761Y-34051904D01*
X140517142Y-34099523D01*
%TO.C,R1*%
X163409333Y-54660380D02*
X163076000Y-54184190D01*
X162837904Y-54660380D02*
X162837904Y-53660380D01*
X163218857Y-53660380D01*
X163314095Y-53708000D01*
X163361714Y-53755619D01*
X163409333Y-53850857D01*
X163409333Y-53993714D01*
X163361714Y-54088952D01*
X163314095Y-54136571D01*
X163218857Y-54184190D01*
X162837904Y-54184190D01*
X164361714Y-54660380D02*
X163790285Y-54660380D01*
X164076000Y-54660380D02*
X164076000Y-53660380D01*
X163980761Y-53803238D01*
X163885523Y-53898476D01*
X163790285Y-53946095D01*
%TO.C,R2*%
X163409333Y-59740380D02*
X163076000Y-59264190D01*
X162837904Y-59740380D02*
X162837904Y-58740380D01*
X163218857Y-58740380D01*
X163314095Y-58788000D01*
X163361714Y-58835619D01*
X163409333Y-58930857D01*
X163409333Y-59073714D01*
X163361714Y-59168952D01*
X163314095Y-59216571D01*
X163218857Y-59264190D01*
X162837904Y-59264190D01*
X163790285Y-58835619D02*
X163837904Y-58788000D01*
X163933142Y-58740380D01*
X164171238Y-58740380D01*
X164266476Y-58788000D01*
X164314095Y-58835619D01*
X164361714Y-58930857D01*
X164361714Y-59026095D01*
X164314095Y-59168952D01*
X163742666Y-59740380D01*
X164361714Y-59740380D01*
%TO.C,R3*%
X163663333Y-69710380D02*
X163330000Y-69234190D01*
X163091904Y-69710380D02*
X163091904Y-68710380D01*
X163472857Y-68710380D01*
X163568095Y-68758000D01*
X163615714Y-68805619D01*
X163663333Y-68900857D01*
X163663333Y-69043714D01*
X163615714Y-69138952D01*
X163568095Y-69186571D01*
X163472857Y-69234190D01*
X163091904Y-69234190D01*
X163996666Y-68710380D02*
X164615714Y-68710380D01*
X164282380Y-69091333D01*
X164425238Y-69091333D01*
X164520476Y-69138952D01*
X164568095Y-69186571D01*
X164615714Y-69281809D01*
X164615714Y-69519904D01*
X164568095Y-69615142D01*
X164520476Y-69662761D01*
X164425238Y-69710380D01*
X164139523Y-69710380D01*
X164044285Y-69662761D01*
X163996666Y-69615142D01*
%TO.C,R4*%
X163663333Y-74790380D02*
X163330000Y-74314190D01*
X163091904Y-74790380D02*
X163091904Y-73790380D01*
X163472857Y-73790380D01*
X163568095Y-73838000D01*
X163615714Y-73885619D01*
X163663333Y-73980857D01*
X163663333Y-74123714D01*
X163615714Y-74218952D01*
X163568095Y-74266571D01*
X163472857Y-74314190D01*
X163091904Y-74314190D01*
X164520476Y-74123714D02*
X164520476Y-74790380D01*
X164282380Y-73742761D02*
X164044285Y-74457047D01*
X164663333Y-74457047D01*
%TO.C,R5*%
X144867333Y-36182380D02*
X144534000Y-35706190D01*
X144295904Y-36182380D02*
X144295904Y-35182380D01*
X144676857Y-35182380D01*
X144772095Y-35230000D01*
X144819714Y-35277619D01*
X144867333Y-35372857D01*
X144867333Y-35515714D01*
X144819714Y-35610952D01*
X144772095Y-35658571D01*
X144676857Y-35706190D01*
X144295904Y-35706190D01*
X145772095Y-35182380D02*
X145295904Y-35182380D01*
X145248285Y-35658571D01*
X145295904Y-35610952D01*
X145391142Y-35563333D01*
X145629238Y-35563333D01*
X145724476Y-35610952D01*
X145772095Y-35658571D01*
X145819714Y-35753809D01*
X145819714Y-35991904D01*
X145772095Y-36087142D01*
X145724476Y-36134761D01*
X145629238Y-36182380D01*
X145391142Y-36182380D01*
X145295904Y-36134761D01*
X145248285Y-36087142D01*
%TO.C,C5*%
X162337333Y-53643142D02*
X162289714Y-53690761D01*
X162146857Y-53738380D01*
X162051619Y-53738380D01*
X161908761Y-53690761D01*
X161813523Y-53595523D01*
X161765904Y-53500285D01*
X161718285Y-53309809D01*
X161718285Y-53166952D01*
X161765904Y-52976476D01*
X161813523Y-52881238D01*
X161908761Y-52786000D01*
X162051619Y-52738380D01*
X162146857Y-52738380D01*
X162289714Y-52786000D01*
X162337333Y-52833619D01*
X163242095Y-52738380D02*
X162765904Y-52738380D01*
X162718285Y-53214571D01*
X162765904Y-53166952D01*
X162861142Y-53119333D01*
X163099238Y-53119333D01*
X163194476Y-53166952D01*
X163242095Y-53214571D01*
X163289714Y-53309809D01*
X163289714Y-53547904D01*
X163242095Y-53643142D01*
X163194476Y-53690761D01*
X163099238Y-53738380D01*
X162861142Y-53738380D01*
X162765904Y-53690761D01*
X162718285Y-53643142D01*
%TO.C,C6*%
X133611142Y-32202666D02*
X133658761Y-32250285D01*
X133706380Y-32393142D01*
X133706380Y-32488380D01*
X133658761Y-32631238D01*
X133563523Y-32726476D01*
X133468285Y-32774095D01*
X133277809Y-32821714D01*
X133134952Y-32821714D01*
X132944476Y-32774095D01*
X132849238Y-32726476D01*
X132754000Y-32631238D01*
X132706380Y-32488380D01*
X132706380Y-32393142D01*
X132754000Y-32250285D01*
X132801619Y-32202666D01*
X132706380Y-31345523D02*
X132706380Y-31536000D01*
X132754000Y-31631238D01*
X132801619Y-31678857D01*
X132944476Y-31774095D01*
X133134952Y-31821714D01*
X133515904Y-31821714D01*
X133611142Y-31774095D01*
X133658761Y-31726476D01*
X133706380Y-31631238D01*
X133706380Y-31440761D01*
X133658761Y-31345523D01*
X133611142Y-31297904D01*
X133515904Y-31250285D01*
X133277809Y-31250285D01*
X133182571Y-31297904D01*
X133134952Y-31345523D01*
X133087333Y-31440761D01*
X133087333Y-31631238D01*
X133134952Y-31726476D01*
X133182571Y-31774095D01*
X133277809Y-31821714D01*
%TO.C,C7*%
X133611142Y-37202666D02*
X133658761Y-37250285D01*
X133706380Y-37393142D01*
X133706380Y-37488380D01*
X133658761Y-37631238D01*
X133563523Y-37726476D01*
X133468285Y-37774095D01*
X133277809Y-37821714D01*
X133134952Y-37821714D01*
X132944476Y-37774095D01*
X132849238Y-37726476D01*
X132754000Y-37631238D01*
X132706380Y-37488380D01*
X132706380Y-37393142D01*
X132754000Y-37250285D01*
X132801619Y-37202666D01*
X132706380Y-36869333D02*
X132706380Y-36202666D01*
X133706380Y-36631238D01*
%TO.C,D1*%
X142185904Y-42566380D02*
X142185904Y-41566380D01*
X142424000Y-41566380D01*
X142566857Y-41614000D01*
X142662095Y-41709238D01*
X142709714Y-41804476D01*
X142757333Y-41994952D01*
X142757333Y-42137809D01*
X142709714Y-42328285D01*
X142662095Y-42423523D01*
X142566857Y-42518761D01*
X142424000Y-42566380D01*
X142185904Y-42566380D01*
X143709714Y-42566380D02*
X143138285Y-42566380D01*
X143424000Y-42566380D02*
X143424000Y-41566380D01*
X143328761Y-41709238D01*
X143233523Y-41804476D01*
X143138285Y-41852095D01*
X147742095Y-47388380D02*
X147742095Y-46388380D01*
X148313523Y-47388380D02*
X147884952Y-46816952D01*
X148313523Y-46388380D02*
X147742095Y-46959809D01*
%TO.C,D2*%
X142185904Y-61524380D02*
X142185904Y-60524380D01*
X142424000Y-60524380D01*
X142566857Y-60572000D01*
X142662095Y-60667238D01*
X142709714Y-60762476D01*
X142757333Y-60952952D01*
X142757333Y-61095809D01*
X142709714Y-61286285D01*
X142662095Y-61381523D01*
X142566857Y-61476761D01*
X142424000Y-61524380D01*
X142185904Y-61524380D01*
X143138285Y-60619619D02*
X143185904Y-60572000D01*
X143281142Y-60524380D01*
X143519238Y-60524380D01*
X143614476Y-60572000D01*
X143662095Y-60619619D01*
X143709714Y-60714857D01*
X143709714Y-60810095D01*
X143662095Y-60952952D01*
X143090666Y-61524380D01*
X143709714Y-61524380D01*
X147742095Y-66388380D02*
X147742095Y-65388380D01*
X148313523Y-66388380D02*
X147884952Y-65816952D01*
X148313523Y-65388380D02*
X147742095Y-65959809D01*
%TD*%
M02*
