%TF.GenerationSoftware,KiCad,Pcbnew,(5.1.12)-1*%
%TF.CreationDate,2021-12-01T17:34:03-08:00*%
%TF.ProjectId,inverter-stage,696e7665-7274-4657-922d-73746167652e,rev?*%
%TF.SameCoordinates,Original*%
%TF.FileFunction,Copper,L1,Top*%
%TF.FilePolarity,Positive*%
%FSLAX46Y46*%
G04 Gerber Fmt 4.6, Leading zero omitted, Abs format (unit mm)*
G04 Created by KiCad (PCBNEW (5.1.12)-1) date 2021-12-01 17:34:03*
%MOMM*%
%LPD*%
G01*
G04 APERTURE LIST*
%TA.AperFunction,ComponentPad*%
%ADD10O,1.600000X1.600000*%
%TD*%
%TA.AperFunction,ComponentPad*%
%ADD11R,1.600000X1.600000*%
%TD*%
%TA.AperFunction,ComponentPad*%
%ADD12O,2.000000X1.905000*%
%TD*%
%TA.AperFunction,ComponentPad*%
%ADD13R,2.000000X1.905000*%
%TD*%
%TA.AperFunction,ComponentPad*%
%ADD14O,1.980000X3.960000*%
%TD*%
%TA.AperFunction,ComponentPad*%
%ADD15R,1.980000X3.960000*%
%TD*%
%TA.AperFunction,ComponentPad*%
%ADD16C,1.600000*%
%TD*%
%TA.AperFunction,ComponentPad*%
%ADD17C,1.440000*%
%TD*%
%TA.AperFunction,ComponentPad*%
%ADD18R,1.800000X1.800000*%
%TD*%
%TA.AperFunction,ComponentPad*%
%ADD19C,1.800000*%
%TD*%
%TA.AperFunction,ComponentPad*%
%ADD20R,2.000000X2.000000*%
%TD*%
%TA.AperFunction,ComponentPad*%
%ADD21C,2.000000*%
%TD*%
%TA.AperFunction,ComponentPad*%
%ADD22R,1.200000X1.200000*%
%TD*%
%TA.AperFunction,ComponentPad*%
%ADD23C,1.200000*%
%TD*%
%TA.AperFunction,ComponentPad*%
%ADD24O,1.800000X1.800000*%
%TD*%
%TA.AperFunction,Conductor*%
%ADD25C,0.250000*%
%TD*%
%TA.AperFunction,Conductor*%
%ADD26C,0.254000*%
%TD*%
%TA.AperFunction,Conductor*%
%ADD27C,0.100000*%
%TD*%
G04 APERTURE END LIST*
D10*
%TO.P,A1,16*%
%TO.N,Net-(A1-Pad16)*%
X125240000Y-69560000D03*
%TO.P,A1,15*%
%TO.N,Net-(A1-Pad15)*%
X110000000Y-69560000D03*
%TO.P,A1,30*%
%TO.N,+9V*%
X125240000Y-34000000D03*
%TO.P,A1,14*%
%TO.N,SHUTDOWN*%
X110000000Y-67020000D03*
%TO.P,A1,29*%
%TO.N,GND*%
X125240000Y-36540000D03*
%TO.P,A1,13*%
%TO.N,SIG_B*%
X110000000Y-64480000D03*
%TO.P,A1,28*%
%TO.N,Net-(A1-Pad28)*%
X125240000Y-39080000D03*
%TO.P,A1,12*%
%TO.N,SIG_A*%
X110000000Y-61940000D03*
%TO.P,A1,27*%
%TO.N,+5V*%
X125240000Y-41620000D03*
%TO.P,A1,11*%
%TO.N,Net-(A1-Pad11)*%
X110000000Y-59400000D03*
%TO.P,A1,26*%
%TO.N,Net-(A1-Pad26)*%
X125240000Y-44160000D03*
%TO.P,A1,10*%
%TO.N,Net-(A1-Pad10)*%
X110000000Y-56860000D03*
%TO.P,A1,25*%
%TO.N,Net-(A1-Pad25)*%
X125240000Y-46700000D03*
%TO.P,A1,9*%
%TO.N,Net-(A1-Pad9)*%
X110000000Y-54320000D03*
%TO.P,A1,24*%
%TO.N,Net-(A1-Pad24)*%
X125240000Y-49240000D03*
%TO.P,A1,8*%
%TO.N,Net-(A1-Pad8)*%
X110000000Y-51780000D03*
%TO.P,A1,23*%
%TO.N,Net-(A1-Pad23)*%
X125240000Y-51780000D03*
%TO.P,A1,7*%
%TO.N,Net-(A1-Pad7)*%
X110000000Y-49240000D03*
%TO.P,A1,22*%
%TO.N,Net-(A1-Pad22)*%
X125240000Y-54320000D03*
%TO.P,A1,6*%
%TO.N,Net-(A1-Pad6)*%
X110000000Y-46700000D03*
%TO.P,A1,21*%
%TO.N,Net-(A1-Pad21)*%
X125240000Y-56860000D03*
%TO.P,A1,5*%
%TO.N,Net-(A1-Pad5)*%
X110000000Y-44160000D03*
%TO.P,A1,20*%
%TO.N,MOD_INDEX*%
X125240000Y-59400000D03*
%TO.P,A1,4*%
%TO.N,GND*%
X110000000Y-41620000D03*
%TO.P,A1,19*%
%TO.N,SPEED*%
X125240000Y-61940000D03*
%TO.P,A1,3*%
%TO.N,Net-(A1-Pad3)*%
X110000000Y-39080000D03*
%TO.P,A1,18*%
%TO.N,Net-(A1-Pad18)*%
X125240000Y-64480000D03*
%TO.P,A1,2*%
%TO.N,Net-(A1-Pad2)*%
X110000000Y-36540000D03*
%TO.P,A1,17*%
%TO.N,Net-(A1-Pad17)*%
X125240000Y-67020000D03*
D11*
%TO.P,A1,1*%
%TO.N,Net-(A1-Pad1)*%
X110000000Y-34000000D03*
%TD*%
D10*
%TO.P,U2,8*%
%TO.N,Net-(C4-Pad1)*%
X146590000Y-69088000D03*
%TO.P,U2,4*%
%TO.N,GND*%
X138970000Y-76708000D03*
%TO.P,U2,7*%
%TO.N,HO_B*%
X146590000Y-71628000D03*
%TO.P,U2,3*%
%TO.N,SHUTDOWN*%
X138970000Y-74168000D03*
%TO.P,U2,6*%
%TO.N,B*%
X146590000Y-74168000D03*
%TO.P,U2,2*%
%TO.N,SIG_B*%
X138970000Y-71628000D03*
%TO.P,U2,5*%
%TO.N,LO_B*%
X146590000Y-76708000D03*
D11*
%TO.P,U2,1*%
%TO.N,VDD*%
X138970000Y-69088000D03*
%TD*%
D10*
%TO.P,U1,8*%
%TO.N,Net-(C2-Pad1)*%
X146590000Y-50038000D03*
%TO.P,U1,4*%
%TO.N,GND*%
X138970000Y-57658000D03*
%TO.P,U1,7*%
%TO.N,HO_A*%
X146590000Y-52578000D03*
%TO.P,U1,3*%
%TO.N,SHUTDOWN*%
X138970000Y-55118000D03*
%TO.P,U1,6*%
%TO.N,A*%
X146590000Y-55118000D03*
%TO.P,U1,2*%
%TO.N,SIG_A*%
X138970000Y-52578000D03*
%TO.P,U1,5*%
%TO.N,LO_A*%
X146590000Y-57658000D03*
D11*
%TO.P,U1,1*%
%TO.N,VDD*%
X138970000Y-50038000D03*
%TD*%
D12*
%TO.P,Q4,3*%
%TO.N,GND*%
X181864000Y-80518000D03*
%TO.P,Q4,2*%
%TO.N,B*%
X181864000Y-77978000D03*
D13*
%TO.P,Q4,1*%
%TO.N,Net-(Q4-Pad1)*%
X181864000Y-75438000D03*
%TD*%
D12*
%TO.P,Q3,3*%
%TO.N,B*%
X181864000Y-67818000D03*
%TO.P,Q3,2*%
%TO.N,VDD*%
X181864000Y-65278000D03*
D13*
%TO.P,Q3,1*%
%TO.N,Net-(Q3-Pad1)*%
X181864000Y-62738000D03*
%TD*%
D12*
%TO.P,Q2,3*%
%TO.N,GND*%
X181864000Y-55118000D03*
%TO.P,Q2,2*%
%TO.N,A*%
X181864000Y-52578000D03*
D13*
%TO.P,Q2,1*%
%TO.N,Net-(Q2-Pad1)*%
X181864000Y-50038000D03*
%TD*%
D12*
%TO.P,Q1,3*%
%TO.N,A*%
X181864000Y-42418000D03*
%TO.P,Q1,2*%
%TO.N,VDD*%
X181864000Y-39878000D03*
D13*
%TO.P,Q1,1*%
%TO.N,Net-(Q1-Pad1)*%
X181864000Y-37338000D03*
%TD*%
D14*
%TO.P,J2,2*%
%TO.N,B*%
X167720000Y-34036000D03*
D15*
%TO.P,J2,1*%
%TO.N,A*%
X172720000Y-34036000D03*
%TD*%
D16*
%TO.P,C4,2*%
%TO.N,B*%
X151670000Y-72858000D03*
D11*
%TO.P,C4,1*%
%TO.N,Net-(C4-Pad1)*%
X151670000Y-70358000D03*
%TD*%
D16*
%TO.P,C3,2*%
%TO.N,GND*%
X132000000Y-74128000D03*
D11*
%TO.P,C3,1*%
%TO.N,VDD*%
X132000000Y-71628000D03*
%TD*%
D16*
%TO.P,C2,2*%
%TO.N,A*%
X151670000Y-53808000D03*
D11*
%TO.P,C2,1*%
%TO.N,Net-(C2-Pad1)*%
X151670000Y-51308000D03*
%TD*%
D16*
%TO.P,C1,2*%
%TO.N,GND*%
X132000000Y-55078000D03*
D11*
%TO.P,C1,1*%
%TO.N,VDD*%
X132000000Y-52578000D03*
%TD*%
D15*
%TO.P,J1,1*%
%TO.N,VDD*%
X159004000Y-34036000D03*
D14*
%TO.P,J1,2*%
%TO.N,GND*%
X154004000Y-34036000D03*
%TD*%
D17*
%TO.P,RV1,3*%
%TO.N,GND*%
X126080000Y-80000000D03*
%TO.P,RV1,2*%
%TO.N,SPEED*%
X123540000Y-80000000D03*
%TO.P,RV1,1*%
%TO.N,+5V*%
X121000000Y-80000000D03*
%TD*%
%TO.P,RV2,1*%
%TO.N,+5V*%
X110004000Y-80036000D03*
%TO.P,RV2,2*%
%TO.N,MOD_INDEX*%
X112544000Y-80036000D03*
%TO.P,RV2,3*%
%TO.N,GND*%
X115084000Y-80036000D03*
%TD*%
D18*
%TO.P,D3,1*%
%TO.N,GND*%
X143764000Y-32004000D03*
D19*
%TO.P,D3,2*%
%TO.N,Net-(D3-Pad2)*%
X146304000Y-32004000D03*
%TD*%
D13*
%TO.P,U3,1*%
%TO.N,VDD*%
X135890000Y-31750000D03*
D12*
%TO.P,U3,2*%
%TO.N,GND*%
X135890000Y-34290000D03*
%TO.P,U3,3*%
%TO.N,+9V*%
X135890000Y-36830000D03*
%TD*%
D16*
%TO.P,R1,1*%
%TO.N,HO_A*%
X159766000Y-56578000D03*
D10*
%TO.P,R1,2*%
%TO.N,Net-(Q1-Pad1)*%
X167386000Y-56578000D03*
%TD*%
%TO.P,R2,2*%
%TO.N,Net-(Q2-Pad1)*%
X167386000Y-61658000D03*
D16*
%TO.P,R2,1*%
%TO.N,LO_A*%
X159766000Y-61658000D03*
%TD*%
D10*
%TO.P,R3,2*%
%TO.N,Net-(Q3-Pad1)*%
X167640000Y-71628000D03*
D16*
%TO.P,R3,1*%
%TO.N,HO_B*%
X160020000Y-71628000D03*
%TD*%
%TO.P,R4,1*%
%TO.N,LO_B*%
X160020000Y-76708000D03*
D10*
%TO.P,R4,2*%
%TO.N,Net-(Q4-Pad1)*%
X167640000Y-76708000D03*
%TD*%
D16*
%TO.P,R5,1*%
%TO.N,+5V*%
X141224000Y-38100000D03*
D10*
%TO.P,R5,2*%
%TO.N,Net-(D3-Pad2)*%
X148844000Y-38100000D03*
%TD*%
D20*
%TO.P,C5,1*%
%TO.N,VDD*%
X165004000Y-47036000D03*
D21*
%TO.P,C5,2*%
%TO.N,GND*%
X160004000Y-47036000D03*
%TD*%
D22*
%TO.P,C6,1*%
%TO.N,VDD*%
X130004000Y-31036000D03*
D23*
%TO.P,C6,2*%
%TO.N,GND*%
X130004000Y-33036000D03*
%TD*%
%TO.P,C7,2*%
%TO.N,GND*%
X130004000Y-38036000D03*
D22*
%TO.P,C7,1*%
%TO.N,+9V*%
X130004000Y-36036000D03*
%TD*%
D18*
%TO.P,D1,1*%
%TO.N,Net-(C2-Pad1)*%
X148004000Y-45036000D03*
D24*
%TO.P,D1,2*%
%TO.N,VDD*%
X137844000Y-45036000D03*
%TD*%
%TO.P,D2,2*%
%TO.N,VDD*%
X137844000Y-64036000D03*
D18*
%TO.P,D2,1*%
%TO.N,Net-(C4-Pad1)*%
X148004000Y-64036000D03*
%TD*%
D25*
%TO.N,VDD*%
X135890000Y-31750000D02*
X135250000Y-31750000D01*
X135250000Y-31750000D02*
X133829802Y-30329802D01*
X132000000Y-52578000D02*
X132000000Y-52000000D01*
X132000000Y-52000000D02*
X133962000Y-50038000D01*
X132000000Y-71628000D02*
X132000000Y-70500000D01*
X133412000Y-69088000D02*
X138970000Y-69088000D01*
X132000000Y-70500000D02*
X133412000Y-69088000D01*
X155746999Y-30778999D02*
X155746999Y-30746999D01*
X159004000Y-34036000D02*
X155746999Y-30778999D01*
X155746999Y-30746999D02*
X154000000Y-29000000D01*
X138640000Y-29000000D02*
X135890000Y-31750000D01*
X154000000Y-29000000D02*
X138640000Y-29000000D01*
X151504000Y-41536000D02*
X159004000Y-34036000D01*
X147073002Y-41536000D02*
X151504000Y-41536000D01*
X143651002Y-44958000D02*
X147073002Y-41536000D01*
X133962000Y-50038000D02*
X138970000Y-50038000D01*
X137922000Y-44958000D02*
X137844000Y-45036000D01*
X143651002Y-44958000D02*
X137922000Y-44958000D01*
X138970000Y-46162000D02*
X137844000Y-45036000D01*
X138970000Y-50038000D02*
X138970000Y-46162000D01*
X138970000Y-65162000D02*
X137844000Y-64036000D01*
X138970000Y-69088000D02*
X138970000Y-65162000D01*
X130710198Y-30329802D02*
X130004000Y-31036000D01*
X133829802Y-30329802D02*
X130710198Y-30329802D01*
%TO.N,A*%
X156898000Y-59036000D02*
X151670000Y-53808000D01*
X162004000Y-59036000D02*
X156898000Y-59036000D01*
X171658999Y-62783001D02*
X165751001Y-62783001D01*
X165751001Y-62783001D02*
X162004000Y-59036000D01*
X181864000Y-52578000D02*
X171658999Y-62783001D01*
X151670000Y-53808000D02*
X150232000Y-53808000D01*
X148922000Y-55118000D02*
X146590000Y-55118000D01*
X150232000Y-53808000D02*
X148922000Y-55118000D01*
%TO.N,Net-(C2-Pad1)*%
X146590000Y-46450000D02*
X148004000Y-45036000D01*
X146590000Y-50038000D02*
X146590000Y-46450000D01*
X146590000Y-50038000D02*
X149006000Y-50038000D01*
X150276000Y-51308000D02*
X151670000Y-51308000D01*
X149006000Y-50038000D02*
X150276000Y-51308000D01*
%TO.N,Net-(C4-Pad1)*%
X150400000Y-69088000D02*
X151670000Y-70358000D01*
X146590000Y-69088000D02*
X150400000Y-69088000D01*
X148004000Y-64036000D02*
X148004000Y-66036000D01*
X146590000Y-67450000D02*
X146590000Y-69088000D01*
X148004000Y-66036000D02*
X146590000Y-67450000D01*
%TO.N,B*%
X150360000Y-74168000D02*
X151670000Y-72858000D01*
X146590000Y-74168000D02*
X150360000Y-74168000D01*
X181708999Y-78133001D02*
X181864000Y-77978000D01*
X165133001Y-78133001D02*
X181708999Y-78133001D01*
X154500000Y-74500000D02*
X161500000Y-74500000D01*
X161500000Y-74500000D02*
X165133001Y-78133001D01*
X152858000Y-72858000D02*
X154500000Y-74500000D01*
X151670000Y-72858000D02*
X152858000Y-72858000D01*
%TO.N,LO_A*%
X146590000Y-57658000D02*
X149626000Y-57658000D01*
X153626000Y-61658000D02*
X159766000Y-61658000D01*
X149626000Y-57658000D02*
X153626000Y-61658000D01*
%TO.N,SHUTDOWN*%
X137066410Y-55118000D02*
X138970000Y-55118000D01*
X128504000Y-63680410D02*
X137066410Y-55118000D01*
X126636410Y-72000000D02*
X128504000Y-70132410D01*
X123000000Y-72000000D02*
X126636410Y-72000000D01*
X128504000Y-70132410D02*
X128504000Y-63680410D01*
X118020000Y-67020000D02*
X123000000Y-72000000D01*
X110000000Y-67020000D02*
X118020000Y-67020000D01*
X141504000Y-57652000D02*
X138970000Y-55118000D01*
X141504000Y-71634000D02*
X141504000Y-57652000D01*
X138970000Y-74168000D02*
X141504000Y-71634000D01*
%TO.N,SIG_A*%
X128004000Y-63544000D02*
X138970000Y-52578000D01*
X128004000Y-69996000D02*
X128004000Y-63544000D01*
X113940000Y-61940000D02*
X123500000Y-71500000D01*
X126500000Y-71500000D02*
X128004000Y-69996000D01*
X123500000Y-71500000D02*
X126500000Y-71500000D01*
X110000000Y-61940000D02*
X113940000Y-61940000D01*
%TO.N,SIG_B*%
X131004000Y-77036000D02*
X133562000Y-77036000D01*
X126468000Y-72500000D02*
X131004000Y-77036000D01*
X109500000Y-72500000D02*
X126468000Y-72500000D01*
X108000000Y-71000000D02*
X109500000Y-72500000D01*
X133562000Y-77036000D02*
X138970000Y-71628000D01*
X108000000Y-66480000D02*
X108000000Y-71000000D01*
X110000000Y-64480000D02*
X108000000Y-66480000D01*
%TO.N,LO_B*%
X146590000Y-76708000D02*
X148676000Y-76708000D01*
X148676000Y-76708000D02*
X160020000Y-76708000D01*
X148590000Y-76708000D02*
X148676000Y-76708000D01*
%TO.N,+5V*%
X137704000Y-41620000D02*
X141224000Y-38100000D01*
X125240000Y-41620000D02*
X137704000Y-41620000D01*
X118964000Y-82036000D02*
X121000000Y-80000000D01*
X112004000Y-82036000D02*
X118964000Y-82036000D01*
X110004000Y-80036000D02*
X112004000Y-82036000D01*
%TO.N,Net-(D3-Pad2)*%
X148844000Y-34544000D02*
X146304000Y-32004000D01*
X148844000Y-38100000D02*
X148844000Y-34544000D01*
%TO.N,+9V*%
X135890000Y-36830000D02*
X134330000Y-36830000D01*
X134330000Y-36830000D02*
X133429802Y-35929802D01*
X130110198Y-35929802D02*
X130004000Y-36036000D01*
X133429802Y-35929802D02*
X130110198Y-35929802D01*
X125240000Y-34000000D02*
X127276000Y-36036000D01*
X127276000Y-36036000D02*
X130004000Y-36036000D01*
%TO.N,Net-(Q1-Pad1)*%
X174000000Y-45202000D02*
X181864000Y-37338000D01*
X174000000Y-51000000D02*
X174000000Y-45202000D01*
X167386000Y-56578000D02*
X169462000Y-56578000D01*
X169462000Y-56578000D02*
X174004000Y-52036000D01*
X174004000Y-51004000D02*
X174000000Y-51000000D01*
X174004000Y-52036000D02*
X174004000Y-51004000D01*
%TO.N,Net-(Q2-Pad1)*%
X174244000Y-57658000D02*
X181864000Y-50038000D01*
X170244000Y-61658000D02*
X174244000Y-57658000D01*
X167386000Y-61658000D02*
X170244000Y-61658000D01*
%TO.N,Net-(Q3-Pad1)*%
X172974000Y-71628000D02*
X181864000Y-62738000D01*
X167640000Y-71628000D02*
X172974000Y-71628000D01*
%TO.N,Net-(Q4-Pad1)*%
X167640000Y-76708000D02*
X178292000Y-76708000D01*
X179562000Y-75438000D02*
X181864000Y-75438000D01*
X178292000Y-76708000D02*
X179562000Y-75438000D01*
%TD*%
D26*
%TO.N,GND*%
X138261016Y-28340817D02*
X138215724Y-28365026D01*
X138099999Y-28459999D01*
X138076201Y-28488997D01*
X136405771Y-30159428D01*
X134890000Y-30159428D01*
X134765518Y-30171688D01*
X134750918Y-30176117D01*
X134393606Y-29818805D01*
X134369803Y-29789801D01*
X134254078Y-29694828D01*
X134122049Y-29624256D01*
X133978788Y-29580799D01*
X133867135Y-29569802D01*
X133867124Y-29569802D01*
X133829802Y-29566126D01*
X133792480Y-29569802D01*
X130747523Y-29569802D01*
X130710198Y-29566126D01*
X130672873Y-29569802D01*
X130672865Y-29569802D01*
X130561212Y-29580799D01*
X130417951Y-29624256D01*
X130285922Y-29694828D01*
X130170197Y-29789801D01*
X130163527Y-29797928D01*
X129404000Y-29797928D01*
X129279518Y-29810188D01*
X129159820Y-29846498D01*
X129049506Y-29905463D01*
X128952815Y-29984815D01*
X128873463Y-30081506D01*
X128814498Y-30191820D01*
X128778188Y-30311518D01*
X128765928Y-30436000D01*
X128765928Y-31636000D01*
X128778188Y-31760482D01*
X128814498Y-31880180D01*
X128873463Y-31990494D01*
X128952815Y-32087185D01*
X129049506Y-32166537D01*
X129095006Y-32190858D01*
X129037128Y-32248736D01*
X129154234Y-32365842D01*
X128930652Y-32413148D01*
X128829763Y-32634516D01*
X128774000Y-32871313D01*
X128765505Y-33114438D01*
X128804605Y-33354549D01*
X128889798Y-33582418D01*
X128930652Y-33658852D01*
X129154236Y-33706159D01*
X129824395Y-33036000D01*
X129810253Y-33021858D01*
X129989858Y-32842253D01*
X130004000Y-32856395D01*
X130018143Y-32842253D01*
X130197748Y-33021858D01*
X130183605Y-33036000D01*
X130853764Y-33706159D01*
X131077348Y-33658852D01*
X131178237Y-33437484D01*
X131234000Y-33200687D01*
X131242495Y-32957562D01*
X131203395Y-32717451D01*
X131118202Y-32489582D01*
X131077348Y-32413148D01*
X130853766Y-32365842D01*
X130970872Y-32248736D01*
X130912994Y-32190858D01*
X130958494Y-32166537D01*
X131055185Y-32087185D01*
X131134537Y-31990494D01*
X131193502Y-31880180D01*
X131229812Y-31760482D01*
X131242072Y-31636000D01*
X131242072Y-31089802D01*
X133515001Y-31089802D01*
X134251928Y-31826730D01*
X134251928Y-32702500D01*
X134264188Y-32826982D01*
X134300498Y-32946680D01*
X134359463Y-33056994D01*
X134438815Y-33153685D01*
X134535506Y-33233037D01*
X134627219Y-33282059D01*
X134514031Y-33423077D01*
X134370429Y-33698906D01*
X134299437Y-33917020D01*
X134419406Y-34163000D01*
X135763000Y-34163000D01*
X135763000Y-34143000D01*
X136017000Y-34143000D01*
X136017000Y-34163000D01*
X137360594Y-34163000D01*
X137480563Y-33917020D01*
X137409571Y-33698906D01*
X137265969Y-33423077D01*
X137152781Y-33282059D01*
X137244494Y-33233037D01*
X137341185Y-33153685D01*
X137420537Y-33056994D01*
X137479502Y-32946680D01*
X137492448Y-32904000D01*
X142225928Y-32904000D01*
X142238188Y-33028482D01*
X142274498Y-33148180D01*
X142333463Y-33258494D01*
X142412815Y-33355185D01*
X142509506Y-33434537D01*
X142619820Y-33493502D01*
X142739518Y-33529812D01*
X142864000Y-33542072D01*
X143478250Y-33539000D01*
X143637000Y-33380250D01*
X143637000Y-32131000D01*
X142387750Y-32131000D01*
X142229000Y-32289750D01*
X142225928Y-32904000D01*
X137492448Y-32904000D01*
X137515812Y-32826982D01*
X137528072Y-32702500D01*
X137528072Y-31186729D01*
X137610801Y-31104000D01*
X142225928Y-31104000D01*
X142229000Y-31718250D01*
X142387750Y-31877000D01*
X143637000Y-31877000D01*
X143637000Y-30627750D01*
X143891000Y-30627750D01*
X143891000Y-31877000D01*
X143911000Y-31877000D01*
X143911000Y-32131000D01*
X143891000Y-32131000D01*
X143891000Y-33380250D01*
X144049750Y-33539000D01*
X144664000Y-33542072D01*
X144788482Y-33529812D01*
X144908180Y-33493502D01*
X145018494Y-33434537D01*
X145115185Y-33355185D01*
X145194537Y-33258494D01*
X145253502Y-33148180D01*
X145259056Y-33129873D01*
X145325495Y-33196312D01*
X145576905Y-33364299D01*
X145856257Y-33480011D01*
X146152816Y-33539000D01*
X146455184Y-33539000D01*
X146712930Y-33487731D01*
X148084001Y-34858804D01*
X148084000Y-36881956D01*
X147929241Y-36985363D01*
X147729363Y-37185241D01*
X147572320Y-37420273D01*
X147464147Y-37681426D01*
X147409000Y-37958665D01*
X147409000Y-38241335D01*
X147464147Y-38518574D01*
X147572320Y-38779727D01*
X147729363Y-39014759D01*
X147929241Y-39214637D01*
X148164273Y-39371680D01*
X148425426Y-39479853D01*
X148702665Y-39535000D01*
X148985335Y-39535000D01*
X149262574Y-39479853D01*
X149523727Y-39371680D01*
X149758759Y-39214637D01*
X149958637Y-39014759D01*
X150115680Y-38779727D01*
X150223853Y-38518574D01*
X150279000Y-38241335D01*
X150279000Y-37958665D01*
X150223853Y-37681426D01*
X150115680Y-37420273D01*
X149958637Y-37185241D01*
X149758759Y-36985363D01*
X149604000Y-36881957D01*
X149604000Y-34581322D01*
X149607676Y-34543999D01*
X149604000Y-34506676D01*
X149604000Y-34506667D01*
X149593003Y-34395014D01*
X149549546Y-34251753D01*
X149502106Y-34163000D01*
X152379000Y-34163000D01*
X152379000Y-35153000D01*
X152435000Y-35467582D01*
X152551296Y-35765194D01*
X152723419Y-36034399D01*
X152944754Y-36264852D01*
X153206795Y-36447696D01*
X153499472Y-36575905D01*
X153625135Y-36606218D01*
X153877000Y-36486740D01*
X153877000Y-34163000D01*
X154131000Y-34163000D01*
X154131000Y-36486740D01*
X154382865Y-36606218D01*
X154508528Y-36575905D01*
X154801205Y-36447696D01*
X155063246Y-36264852D01*
X155284581Y-36034399D01*
X155456704Y-35765194D01*
X155573000Y-35467582D01*
X155629000Y-35153000D01*
X155629000Y-34163000D01*
X154131000Y-34163000D01*
X153877000Y-34163000D01*
X152379000Y-34163000D01*
X149502106Y-34163000D01*
X149478974Y-34119724D01*
X149410264Y-34036000D01*
X149407799Y-34032996D01*
X149407795Y-34032992D01*
X149384001Y-34003999D01*
X149355008Y-33980205D01*
X148293802Y-32919000D01*
X152379000Y-32919000D01*
X152379000Y-33909000D01*
X153877000Y-33909000D01*
X153877000Y-31585260D01*
X154131000Y-31585260D01*
X154131000Y-33909000D01*
X155629000Y-33909000D01*
X155629000Y-32919000D01*
X155573000Y-32604418D01*
X155456704Y-32306806D01*
X155284581Y-32037601D01*
X155063246Y-31807148D01*
X154801205Y-31624304D01*
X154508528Y-31496095D01*
X154382865Y-31465782D01*
X154131000Y-31585260D01*
X153877000Y-31585260D01*
X153625135Y-31465782D01*
X153499472Y-31496095D01*
X153206795Y-31624304D01*
X152944754Y-31807148D01*
X152723419Y-32037601D01*
X152551296Y-32306806D01*
X152435000Y-32604418D01*
X152379000Y-32919000D01*
X148293802Y-32919000D01*
X147787731Y-32412930D01*
X147839000Y-32155184D01*
X147839000Y-31852816D01*
X147780011Y-31556257D01*
X147664299Y-31276905D01*
X147496312Y-31025495D01*
X147282505Y-30811688D01*
X147031095Y-30643701D01*
X146751743Y-30527989D01*
X146455184Y-30469000D01*
X146152816Y-30469000D01*
X145856257Y-30527989D01*
X145576905Y-30643701D01*
X145325495Y-30811688D01*
X145259056Y-30878127D01*
X145253502Y-30859820D01*
X145194537Y-30749506D01*
X145115185Y-30652815D01*
X145018494Y-30573463D01*
X144908180Y-30514498D01*
X144788482Y-30478188D01*
X144664000Y-30465928D01*
X144049750Y-30469000D01*
X143891000Y-30627750D01*
X143637000Y-30627750D01*
X143478250Y-30469000D01*
X142864000Y-30465928D01*
X142739518Y-30478188D01*
X142619820Y-30514498D01*
X142509506Y-30573463D01*
X142412815Y-30652815D01*
X142333463Y-30749506D01*
X142274498Y-30859820D01*
X142238188Y-30979518D01*
X142225928Y-31104000D01*
X137610801Y-31104000D01*
X138954802Y-29760000D01*
X153685199Y-29760000D01*
X155093138Y-31167940D01*
X155112025Y-31203275D01*
X155142431Y-31240324D01*
X155206998Y-31319000D01*
X155236002Y-31342803D01*
X157375928Y-33482730D01*
X157375928Y-34589270D01*
X151189199Y-40776000D01*
X147110325Y-40776000D01*
X147073002Y-40772324D01*
X147035679Y-40776000D01*
X147035669Y-40776000D01*
X146924016Y-40786997D01*
X146780755Y-40830454D01*
X146648726Y-40901026D01*
X146533001Y-40995999D01*
X146509203Y-41024997D01*
X143336201Y-44198000D01*
X139130195Y-44198000D01*
X139036312Y-44057495D01*
X138822505Y-43843688D01*
X138571095Y-43675701D01*
X138291743Y-43559989D01*
X137995184Y-43501000D01*
X137692816Y-43501000D01*
X137396257Y-43559989D01*
X137116905Y-43675701D01*
X136865495Y-43843688D01*
X136651688Y-44057495D01*
X136483701Y-44308905D01*
X136367989Y-44588257D01*
X136309000Y-44884816D01*
X136309000Y-45187184D01*
X136367989Y-45483743D01*
X136483701Y-45763095D01*
X136651688Y-46014505D01*
X136865495Y-46228312D01*
X137116905Y-46396299D01*
X137396257Y-46512011D01*
X137692816Y-46571000D01*
X137995184Y-46571000D01*
X138210001Y-46528270D01*
X138210000Y-48599928D01*
X138170000Y-48599928D01*
X138045518Y-48612188D01*
X137925820Y-48648498D01*
X137815506Y-48707463D01*
X137718815Y-48786815D01*
X137639463Y-48883506D01*
X137580498Y-48993820D01*
X137544188Y-49113518D01*
X137531928Y-49238000D01*
X137531928Y-49278000D01*
X133999322Y-49278000D01*
X133961999Y-49274324D01*
X133924677Y-49278000D01*
X133924667Y-49278000D01*
X133813014Y-49288997D01*
X133669753Y-49332454D01*
X133537723Y-49403026D01*
X133454083Y-49471668D01*
X133421999Y-49497999D01*
X133398201Y-49526997D01*
X131785271Y-51139928D01*
X131200000Y-51139928D01*
X131075518Y-51152188D01*
X130955820Y-51188498D01*
X130845506Y-51247463D01*
X130748815Y-51326815D01*
X130669463Y-51423506D01*
X130610498Y-51533820D01*
X130574188Y-51653518D01*
X130561928Y-51778000D01*
X130561928Y-53378000D01*
X130574188Y-53502482D01*
X130610498Y-53622180D01*
X130669463Y-53732494D01*
X130748815Y-53829185D01*
X130845506Y-53908537D01*
X130955820Y-53967502D01*
X131075518Y-54003812D01*
X131200000Y-54016072D01*
X131207215Y-54016072D01*
X131186903Y-54085298D01*
X132000000Y-54898395D01*
X132813097Y-54085298D01*
X132792785Y-54016072D01*
X132800000Y-54016072D01*
X132924482Y-54003812D01*
X133044180Y-53967502D01*
X133154494Y-53908537D01*
X133251185Y-53829185D01*
X133330537Y-53732494D01*
X133389502Y-53622180D01*
X133425812Y-53502482D01*
X133438072Y-53378000D01*
X133438072Y-51778000D01*
X133425812Y-51653518D01*
X133424758Y-51650043D01*
X134276802Y-50798000D01*
X137531928Y-50798000D01*
X137531928Y-50838000D01*
X137544188Y-50962482D01*
X137580498Y-51082180D01*
X137639463Y-51192494D01*
X137718815Y-51289185D01*
X137815506Y-51368537D01*
X137925820Y-51427502D01*
X138045518Y-51463812D01*
X138053961Y-51464643D01*
X137855363Y-51663241D01*
X137698320Y-51898273D01*
X137590147Y-52159426D01*
X137535000Y-52436665D01*
X137535000Y-52719335D01*
X137571312Y-52901886D01*
X127492998Y-62980201D01*
X127464000Y-63003999D01*
X127440202Y-63032997D01*
X127440201Y-63032998D01*
X127369026Y-63119724D01*
X127298454Y-63251754D01*
X127254998Y-63395015D01*
X127240324Y-63544000D01*
X127244001Y-63581332D01*
X127244000Y-69681198D01*
X126185199Y-70740000D01*
X126056936Y-70740000D01*
X126154759Y-70674637D01*
X126354637Y-70474759D01*
X126511680Y-70239727D01*
X126619853Y-69978574D01*
X126675000Y-69701335D01*
X126675000Y-69418665D01*
X126619853Y-69141426D01*
X126511680Y-68880273D01*
X126354637Y-68645241D01*
X126154759Y-68445363D01*
X125922241Y-68290000D01*
X126154759Y-68134637D01*
X126354637Y-67934759D01*
X126511680Y-67699727D01*
X126619853Y-67438574D01*
X126675000Y-67161335D01*
X126675000Y-66878665D01*
X126619853Y-66601426D01*
X126511680Y-66340273D01*
X126354637Y-66105241D01*
X126154759Y-65905363D01*
X125922241Y-65750000D01*
X126154759Y-65594637D01*
X126354637Y-65394759D01*
X126511680Y-65159727D01*
X126619853Y-64898574D01*
X126675000Y-64621335D01*
X126675000Y-64338665D01*
X126619853Y-64061426D01*
X126511680Y-63800273D01*
X126354637Y-63565241D01*
X126154759Y-63365363D01*
X125922241Y-63210000D01*
X126154759Y-63054637D01*
X126354637Y-62854759D01*
X126511680Y-62619727D01*
X126619853Y-62358574D01*
X126675000Y-62081335D01*
X126675000Y-61798665D01*
X126619853Y-61521426D01*
X126511680Y-61260273D01*
X126354637Y-61025241D01*
X126154759Y-60825363D01*
X125922241Y-60670000D01*
X126154759Y-60514637D01*
X126354637Y-60314759D01*
X126511680Y-60079727D01*
X126619853Y-59818574D01*
X126675000Y-59541335D01*
X126675000Y-59258665D01*
X126619853Y-58981426D01*
X126511680Y-58720273D01*
X126354637Y-58485241D01*
X126154759Y-58285363D01*
X125922241Y-58130000D01*
X126154759Y-57974637D01*
X126354637Y-57774759D01*
X126511680Y-57539727D01*
X126619853Y-57278574D01*
X126675000Y-57001335D01*
X126675000Y-56718665D01*
X126619853Y-56441426D01*
X126511680Y-56180273D01*
X126438468Y-56070702D01*
X131186903Y-56070702D01*
X131258486Y-56314671D01*
X131513996Y-56435571D01*
X131788184Y-56504300D01*
X132070512Y-56518217D01*
X132350130Y-56476787D01*
X132616292Y-56381603D01*
X132741514Y-56314671D01*
X132813097Y-56070702D01*
X132000000Y-55257605D01*
X131186903Y-56070702D01*
X126438468Y-56070702D01*
X126354637Y-55945241D01*
X126154759Y-55745363D01*
X125922241Y-55590000D01*
X126154759Y-55434637D01*
X126354637Y-55234759D01*
X126412265Y-55148512D01*
X130559783Y-55148512D01*
X130601213Y-55428130D01*
X130696397Y-55694292D01*
X130763329Y-55819514D01*
X131007298Y-55891097D01*
X131820395Y-55078000D01*
X132179605Y-55078000D01*
X132992702Y-55891097D01*
X133236671Y-55819514D01*
X133357571Y-55564004D01*
X133426300Y-55289816D01*
X133440217Y-55007488D01*
X133398787Y-54727870D01*
X133303603Y-54461708D01*
X133236671Y-54336486D01*
X132992702Y-54264903D01*
X132179605Y-55078000D01*
X131820395Y-55078000D01*
X131007298Y-54264903D01*
X130763329Y-54336486D01*
X130642429Y-54591996D01*
X130573700Y-54866184D01*
X130559783Y-55148512D01*
X126412265Y-55148512D01*
X126511680Y-54999727D01*
X126619853Y-54738574D01*
X126675000Y-54461335D01*
X126675000Y-54178665D01*
X126619853Y-53901426D01*
X126511680Y-53640273D01*
X126354637Y-53405241D01*
X126154759Y-53205363D01*
X125922241Y-53050000D01*
X126154759Y-52894637D01*
X126354637Y-52694759D01*
X126511680Y-52459727D01*
X126619853Y-52198574D01*
X126675000Y-51921335D01*
X126675000Y-51638665D01*
X126619853Y-51361426D01*
X126511680Y-51100273D01*
X126354637Y-50865241D01*
X126154759Y-50665363D01*
X125922241Y-50510000D01*
X126154759Y-50354637D01*
X126354637Y-50154759D01*
X126511680Y-49919727D01*
X126619853Y-49658574D01*
X126675000Y-49381335D01*
X126675000Y-49098665D01*
X126619853Y-48821426D01*
X126511680Y-48560273D01*
X126354637Y-48325241D01*
X126154759Y-48125363D01*
X125922241Y-47970000D01*
X126154759Y-47814637D01*
X126354637Y-47614759D01*
X126511680Y-47379727D01*
X126619853Y-47118574D01*
X126675000Y-46841335D01*
X126675000Y-46558665D01*
X126619853Y-46281426D01*
X126511680Y-46020273D01*
X126354637Y-45785241D01*
X126154759Y-45585363D01*
X125922241Y-45430000D01*
X126154759Y-45274637D01*
X126354637Y-45074759D01*
X126511680Y-44839727D01*
X126619853Y-44578574D01*
X126675000Y-44301335D01*
X126675000Y-44018665D01*
X126619853Y-43741426D01*
X126511680Y-43480273D01*
X126354637Y-43245241D01*
X126154759Y-43045363D01*
X125922241Y-42890000D01*
X126154759Y-42734637D01*
X126354637Y-42534759D01*
X126458043Y-42380000D01*
X137666678Y-42380000D01*
X137704000Y-42383676D01*
X137741322Y-42380000D01*
X137741333Y-42380000D01*
X137852986Y-42369003D01*
X137996247Y-42325546D01*
X138128276Y-42254974D01*
X138244001Y-42160001D01*
X138267804Y-42130997D01*
X140900114Y-39498688D01*
X141082665Y-39535000D01*
X141365335Y-39535000D01*
X141642574Y-39479853D01*
X141903727Y-39371680D01*
X142138759Y-39214637D01*
X142338637Y-39014759D01*
X142495680Y-38779727D01*
X142603853Y-38518574D01*
X142659000Y-38241335D01*
X142659000Y-37958665D01*
X142603853Y-37681426D01*
X142495680Y-37420273D01*
X142338637Y-37185241D01*
X142138759Y-36985363D01*
X141903727Y-36828320D01*
X141642574Y-36720147D01*
X141365335Y-36665000D01*
X141082665Y-36665000D01*
X140805426Y-36720147D01*
X140544273Y-36828320D01*
X140309241Y-36985363D01*
X140109363Y-37185241D01*
X139952320Y-37420273D01*
X139844147Y-37681426D01*
X139789000Y-37958665D01*
X139789000Y-38241335D01*
X139825312Y-38423886D01*
X137389199Y-40860000D01*
X126458043Y-40860000D01*
X126354637Y-40705241D01*
X126154759Y-40505363D01*
X125922241Y-40350000D01*
X126154759Y-40194637D01*
X126354637Y-39994759D01*
X126511680Y-39759727D01*
X126619853Y-39498574D01*
X126675000Y-39221335D01*
X126675000Y-38938665D01*
X126664478Y-38885764D01*
X129333841Y-38885764D01*
X129381148Y-39109348D01*
X129602516Y-39210237D01*
X129839313Y-39266000D01*
X130082438Y-39274495D01*
X130322549Y-39235395D01*
X130550418Y-39150202D01*
X130626852Y-39109348D01*
X130674159Y-38885764D01*
X130004000Y-38215605D01*
X129333841Y-38885764D01*
X126664478Y-38885764D01*
X126619853Y-38661426D01*
X126511680Y-38400273D01*
X126354637Y-38165241D01*
X126154759Y-37965363D01*
X125919727Y-37808320D01*
X125909135Y-37803933D01*
X126095131Y-37692385D01*
X126303519Y-37503414D01*
X126471037Y-37277420D01*
X126591246Y-37023087D01*
X126631904Y-36889039D01*
X126509915Y-36667000D01*
X125367000Y-36667000D01*
X125367000Y-36687000D01*
X125113000Y-36687000D01*
X125113000Y-36667000D01*
X123970085Y-36667000D01*
X123848096Y-36889039D01*
X123888754Y-37023087D01*
X124008963Y-37277420D01*
X124176481Y-37503414D01*
X124384869Y-37692385D01*
X124570865Y-37803933D01*
X124560273Y-37808320D01*
X124325241Y-37965363D01*
X124125363Y-38165241D01*
X123968320Y-38400273D01*
X123860147Y-38661426D01*
X123805000Y-38938665D01*
X123805000Y-39221335D01*
X123860147Y-39498574D01*
X123968320Y-39759727D01*
X124125363Y-39994759D01*
X124325241Y-40194637D01*
X124557759Y-40350000D01*
X124325241Y-40505363D01*
X124125363Y-40705241D01*
X123968320Y-40940273D01*
X123860147Y-41201426D01*
X123805000Y-41478665D01*
X123805000Y-41761335D01*
X123860147Y-42038574D01*
X123968320Y-42299727D01*
X124125363Y-42534759D01*
X124325241Y-42734637D01*
X124557759Y-42890000D01*
X124325241Y-43045363D01*
X124125363Y-43245241D01*
X123968320Y-43480273D01*
X123860147Y-43741426D01*
X123805000Y-44018665D01*
X123805000Y-44301335D01*
X123860147Y-44578574D01*
X123968320Y-44839727D01*
X124125363Y-45074759D01*
X124325241Y-45274637D01*
X124557759Y-45430000D01*
X124325241Y-45585363D01*
X124125363Y-45785241D01*
X123968320Y-46020273D01*
X123860147Y-46281426D01*
X123805000Y-46558665D01*
X123805000Y-46841335D01*
X123860147Y-47118574D01*
X123968320Y-47379727D01*
X124125363Y-47614759D01*
X124325241Y-47814637D01*
X124557759Y-47970000D01*
X124325241Y-48125363D01*
X124125363Y-48325241D01*
X123968320Y-48560273D01*
X123860147Y-48821426D01*
X123805000Y-49098665D01*
X123805000Y-49381335D01*
X123860147Y-49658574D01*
X123968320Y-49919727D01*
X124125363Y-50154759D01*
X124325241Y-50354637D01*
X124557759Y-50510000D01*
X124325241Y-50665363D01*
X124125363Y-50865241D01*
X123968320Y-51100273D01*
X123860147Y-51361426D01*
X123805000Y-51638665D01*
X123805000Y-51921335D01*
X123860147Y-52198574D01*
X123968320Y-52459727D01*
X124125363Y-52694759D01*
X124325241Y-52894637D01*
X124557759Y-53050000D01*
X124325241Y-53205363D01*
X124125363Y-53405241D01*
X123968320Y-53640273D01*
X123860147Y-53901426D01*
X123805000Y-54178665D01*
X123805000Y-54461335D01*
X123860147Y-54738574D01*
X123968320Y-54999727D01*
X124125363Y-55234759D01*
X124325241Y-55434637D01*
X124557759Y-55590000D01*
X124325241Y-55745363D01*
X124125363Y-55945241D01*
X123968320Y-56180273D01*
X123860147Y-56441426D01*
X123805000Y-56718665D01*
X123805000Y-57001335D01*
X123860147Y-57278574D01*
X123968320Y-57539727D01*
X124125363Y-57774759D01*
X124325241Y-57974637D01*
X124557759Y-58130000D01*
X124325241Y-58285363D01*
X124125363Y-58485241D01*
X123968320Y-58720273D01*
X123860147Y-58981426D01*
X123805000Y-59258665D01*
X123805000Y-59541335D01*
X123860147Y-59818574D01*
X123968320Y-60079727D01*
X124125363Y-60314759D01*
X124325241Y-60514637D01*
X124557759Y-60670000D01*
X124325241Y-60825363D01*
X124125363Y-61025241D01*
X123968320Y-61260273D01*
X123860147Y-61521426D01*
X123805000Y-61798665D01*
X123805000Y-62081335D01*
X123860147Y-62358574D01*
X123968320Y-62619727D01*
X124125363Y-62854759D01*
X124325241Y-63054637D01*
X124557759Y-63210000D01*
X124325241Y-63365363D01*
X124125363Y-63565241D01*
X123968320Y-63800273D01*
X123860147Y-64061426D01*
X123805000Y-64338665D01*
X123805000Y-64621335D01*
X123860147Y-64898574D01*
X123968320Y-65159727D01*
X124125363Y-65394759D01*
X124325241Y-65594637D01*
X124557759Y-65750000D01*
X124325241Y-65905363D01*
X124125363Y-66105241D01*
X123968320Y-66340273D01*
X123860147Y-66601426D01*
X123805000Y-66878665D01*
X123805000Y-67161335D01*
X123860147Y-67438574D01*
X123968320Y-67699727D01*
X124125363Y-67934759D01*
X124325241Y-68134637D01*
X124557759Y-68290000D01*
X124325241Y-68445363D01*
X124125363Y-68645241D01*
X123968320Y-68880273D01*
X123860147Y-69141426D01*
X123805000Y-69418665D01*
X123805000Y-69701335D01*
X123860147Y-69978574D01*
X123968320Y-70239727D01*
X124125363Y-70474759D01*
X124325241Y-70674637D01*
X124423064Y-70740000D01*
X123814802Y-70740000D01*
X114503804Y-61429003D01*
X114480001Y-61399999D01*
X114364276Y-61305026D01*
X114232247Y-61234454D01*
X114088986Y-61190997D01*
X113977333Y-61180000D01*
X113977322Y-61180000D01*
X113940000Y-61176324D01*
X113902678Y-61180000D01*
X111218043Y-61180000D01*
X111114637Y-61025241D01*
X110914759Y-60825363D01*
X110682241Y-60670000D01*
X110914759Y-60514637D01*
X111114637Y-60314759D01*
X111271680Y-60079727D01*
X111379853Y-59818574D01*
X111435000Y-59541335D01*
X111435000Y-59258665D01*
X111379853Y-58981426D01*
X111271680Y-58720273D01*
X111114637Y-58485241D01*
X110914759Y-58285363D01*
X110682241Y-58130000D01*
X110914759Y-57974637D01*
X111114637Y-57774759D01*
X111271680Y-57539727D01*
X111379853Y-57278574D01*
X111435000Y-57001335D01*
X111435000Y-56718665D01*
X111379853Y-56441426D01*
X111271680Y-56180273D01*
X111114637Y-55945241D01*
X110914759Y-55745363D01*
X110682241Y-55590000D01*
X110914759Y-55434637D01*
X111114637Y-55234759D01*
X111271680Y-54999727D01*
X111379853Y-54738574D01*
X111435000Y-54461335D01*
X111435000Y-54178665D01*
X111379853Y-53901426D01*
X111271680Y-53640273D01*
X111114637Y-53405241D01*
X110914759Y-53205363D01*
X110682241Y-53050000D01*
X110914759Y-52894637D01*
X111114637Y-52694759D01*
X111271680Y-52459727D01*
X111379853Y-52198574D01*
X111435000Y-51921335D01*
X111435000Y-51638665D01*
X111379853Y-51361426D01*
X111271680Y-51100273D01*
X111114637Y-50865241D01*
X110914759Y-50665363D01*
X110682241Y-50510000D01*
X110914759Y-50354637D01*
X111114637Y-50154759D01*
X111271680Y-49919727D01*
X111379853Y-49658574D01*
X111435000Y-49381335D01*
X111435000Y-49098665D01*
X111379853Y-48821426D01*
X111271680Y-48560273D01*
X111114637Y-48325241D01*
X110914759Y-48125363D01*
X110682241Y-47970000D01*
X110914759Y-47814637D01*
X111114637Y-47614759D01*
X111271680Y-47379727D01*
X111379853Y-47118574D01*
X111435000Y-46841335D01*
X111435000Y-46558665D01*
X111379853Y-46281426D01*
X111271680Y-46020273D01*
X111114637Y-45785241D01*
X110914759Y-45585363D01*
X110682241Y-45430000D01*
X110914759Y-45274637D01*
X111114637Y-45074759D01*
X111271680Y-44839727D01*
X111379853Y-44578574D01*
X111435000Y-44301335D01*
X111435000Y-44018665D01*
X111379853Y-43741426D01*
X111271680Y-43480273D01*
X111114637Y-43245241D01*
X110914759Y-43045363D01*
X110679727Y-42888320D01*
X110669135Y-42883933D01*
X110855131Y-42772385D01*
X111063519Y-42583414D01*
X111231037Y-42357420D01*
X111351246Y-42103087D01*
X111391904Y-41969039D01*
X111269915Y-41747000D01*
X110127000Y-41747000D01*
X110127000Y-41767000D01*
X109873000Y-41767000D01*
X109873000Y-41747000D01*
X108730085Y-41747000D01*
X108608096Y-41969039D01*
X108648754Y-42103087D01*
X108768963Y-42357420D01*
X108936481Y-42583414D01*
X109144869Y-42772385D01*
X109330865Y-42883933D01*
X109320273Y-42888320D01*
X109085241Y-43045363D01*
X108885363Y-43245241D01*
X108728320Y-43480273D01*
X108620147Y-43741426D01*
X108565000Y-44018665D01*
X108565000Y-44301335D01*
X108620147Y-44578574D01*
X108728320Y-44839727D01*
X108885363Y-45074759D01*
X109085241Y-45274637D01*
X109317759Y-45430000D01*
X109085241Y-45585363D01*
X108885363Y-45785241D01*
X108728320Y-46020273D01*
X108620147Y-46281426D01*
X108565000Y-46558665D01*
X108565000Y-46841335D01*
X108620147Y-47118574D01*
X108728320Y-47379727D01*
X108885363Y-47614759D01*
X109085241Y-47814637D01*
X109317759Y-47970000D01*
X109085241Y-48125363D01*
X108885363Y-48325241D01*
X108728320Y-48560273D01*
X108620147Y-48821426D01*
X108565000Y-49098665D01*
X108565000Y-49381335D01*
X108620147Y-49658574D01*
X108728320Y-49919727D01*
X108885363Y-50154759D01*
X109085241Y-50354637D01*
X109317759Y-50510000D01*
X109085241Y-50665363D01*
X108885363Y-50865241D01*
X108728320Y-51100273D01*
X108620147Y-51361426D01*
X108565000Y-51638665D01*
X108565000Y-51921335D01*
X108620147Y-52198574D01*
X108728320Y-52459727D01*
X108885363Y-52694759D01*
X109085241Y-52894637D01*
X109317759Y-53050000D01*
X109085241Y-53205363D01*
X108885363Y-53405241D01*
X108728320Y-53640273D01*
X108620147Y-53901426D01*
X108565000Y-54178665D01*
X108565000Y-54461335D01*
X108620147Y-54738574D01*
X108728320Y-54999727D01*
X108885363Y-55234759D01*
X109085241Y-55434637D01*
X109317759Y-55590000D01*
X109085241Y-55745363D01*
X108885363Y-55945241D01*
X108728320Y-56180273D01*
X108620147Y-56441426D01*
X108565000Y-56718665D01*
X108565000Y-57001335D01*
X108620147Y-57278574D01*
X108728320Y-57539727D01*
X108885363Y-57774759D01*
X109085241Y-57974637D01*
X109317759Y-58130000D01*
X109085241Y-58285363D01*
X108885363Y-58485241D01*
X108728320Y-58720273D01*
X108620147Y-58981426D01*
X108565000Y-59258665D01*
X108565000Y-59541335D01*
X108620147Y-59818574D01*
X108728320Y-60079727D01*
X108885363Y-60314759D01*
X109085241Y-60514637D01*
X109317759Y-60670000D01*
X109085241Y-60825363D01*
X108885363Y-61025241D01*
X108728320Y-61260273D01*
X108620147Y-61521426D01*
X108565000Y-61798665D01*
X108565000Y-62081335D01*
X108620147Y-62358574D01*
X108728320Y-62619727D01*
X108885363Y-62854759D01*
X109085241Y-63054637D01*
X109317759Y-63210000D01*
X109085241Y-63365363D01*
X108885363Y-63565241D01*
X108728320Y-63800273D01*
X108620147Y-64061426D01*
X108565000Y-64338665D01*
X108565000Y-64621335D01*
X108601312Y-64803886D01*
X107489003Y-65916196D01*
X107459999Y-65939999D01*
X107404871Y-66007174D01*
X107365026Y-66055724D01*
X107307025Y-66164235D01*
X107294454Y-66187754D01*
X107250997Y-66331015D01*
X107240000Y-66442668D01*
X107240000Y-66442678D01*
X107236324Y-66480000D01*
X107240000Y-66517323D01*
X107240001Y-70962668D01*
X107236324Y-71000000D01*
X107240001Y-71037333D01*
X107250998Y-71148986D01*
X107264180Y-71192442D01*
X107294454Y-71292246D01*
X107365026Y-71424276D01*
X107409949Y-71479014D01*
X107460000Y-71540001D01*
X107488998Y-71563799D01*
X108936200Y-73011002D01*
X108959999Y-73040001D01*
X109075724Y-73134974D01*
X109207753Y-73205546D01*
X109351014Y-73249003D01*
X109462667Y-73260000D01*
X109462676Y-73260000D01*
X109499999Y-73263676D01*
X109537322Y-73260000D01*
X126153199Y-73260000D01*
X130440201Y-77547003D01*
X130463999Y-77576001D01*
X130579724Y-77670974D01*
X130711753Y-77741546D01*
X130855014Y-77785003D01*
X130966667Y-77796000D01*
X130966675Y-77796000D01*
X131004000Y-77799676D01*
X131041325Y-77796000D01*
X133524678Y-77796000D01*
X133562000Y-77799676D01*
X133599322Y-77796000D01*
X133599333Y-77796000D01*
X133710986Y-77785003D01*
X133854247Y-77741546D01*
X133986276Y-77670974D01*
X134102001Y-77576001D01*
X134125804Y-77546997D01*
X134615762Y-77057039D01*
X137578096Y-77057039D01*
X137618754Y-77191087D01*
X137738963Y-77445420D01*
X137906481Y-77671414D01*
X138114869Y-77860385D01*
X138356119Y-78005070D01*
X138620960Y-78099909D01*
X138843000Y-77978624D01*
X138843000Y-76835000D01*
X139097000Y-76835000D01*
X139097000Y-77978624D01*
X139319040Y-78099909D01*
X139583881Y-78005070D01*
X139825131Y-77860385D01*
X140033519Y-77671414D01*
X140201037Y-77445420D01*
X140321246Y-77191087D01*
X140361904Y-77057039D01*
X140239915Y-76835000D01*
X139097000Y-76835000D01*
X138843000Y-76835000D01*
X137700085Y-76835000D01*
X137578096Y-77057039D01*
X134615762Y-77057039D01*
X137535000Y-74137802D01*
X137535000Y-74309335D01*
X137590147Y-74586574D01*
X137698320Y-74847727D01*
X137855363Y-75082759D01*
X138055241Y-75282637D01*
X138290273Y-75439680D01*
X138300865Y-75444067D01*
X138114869Y-75555615D01*
X137906481Y-75744586D01*
X137738963Y-75970580D01*
X137618754Y-76224913D01*
X137578096Y-76358961D01*
X137700085Y-76581000D01*
X138843000Y-76581000D01*
X138843000Y-76561000D01*
X139097000Y-76561000D01*
X139097000Y-76581000D01*
X140239915Y-76581000D01*
X140361904Y-76358961D01*
X140321246Y-76224913D01*
X140201037Y-75970580D01*
X140033519Y-75744586D01*
X139825131Y-75555615D01*
X139639135Y-75444067D01*
X139649727Y-75439680D01*
X139884759Y-75282637D01*
X140084637Y-75082759D01*
X140241680Y-74847727D01*
X140349853Y-74586574D01*
X140405000Y-74309335D01*
X140405000Y-74026665D01*
X140368688Y-73844114D01*
X142015004Y-72197798D01*
X142044001Y-72174001D01*
X142138974Y-72058276D01*
X142209546Y-71926247D01*
X142253003Y-71782986D01*
X142264000Y-71671333D01*
X142264000Y-71671324D01*
X142267676Y-71634001D01*
X142264000Y-71596678D01*
X142264000Y-68946665D01*
X145155000Y-68946665D01*
X145155000Y-69229335D01*
X145210147Y-69506574D01*
X145318320Y-69767727D01*
X145475363Y-70002759D01*
X145675241Y-70202637D01*
X145907759Y-70358000D01*
X145675241Y-70513363D01*
X145475363Y-70713241D01*
X145318320Y-70948273D01*
X145210147Y-71209426D01*
X145155000Y-71486665D01*
X145155000Y-71769335D01*
X145210147Y-72046574D01*
X145318320Y-72307727D01*
X145475363Y-72542759D01*
X145675241Y-72742637D01*
X145907759Y-72898000D01*
X145675241Y-73053363D01*
X145475363Y-73253241D01*
X145318320Y-73488273D01*
X145210147Y-73749426D01*
X145155000Y-74026665D01*
X145155000Y-74309335D01*
X145210147Y-74586574D01*
X145318320Y-74847727D01*
X145475363Y-75082759D01*
X145675241Y-75282637D01*
X145907759Y-75438000D01*
X145675241Y-75593363D01*
X145475363Y-75793241D01*
X145318320Y-76028273D01*
X145210147Y-76289426D01*
X145155000Y-76566665D01*
X145155000Y-76849335D01*
X145210147Y-77126574D01*
X145318320Y-77387727D01*
X145475363Y-77622759D01*
X145675241Y-77822637D01*
X145910273Y-77979680D01*
X146171426Y-78087853D01*
X146448665Y-78143000D01*
X146731335Y-78143000D01*
X147008574Y-78087853D01*
X147269727Y-77979680D01*
X147504759Y-77822637D01*
X147704637Y-77622759D01*
X147808043Y-77468000D01*
X158801957Y-77468000D01*
X158905363Y-77622759D01*
X159105241Y-77822637D01*
X159340273Y-77979680D01*
X159601426Y-78087853D01*
X159878665Y-78143000D01*
X160161335Y-78143000D01*
X160438574Y-78087853D01*
X160699727Y-77979680D01*
X160934759Y-77822637D01*
X161134637Y-77622759D01*
X161291680Y-77387727D01*
X161399853Y-77126574D01*
X161455000Y-76849335D01*
X161455000Y-76566665D01*
X161399853Y-76289426D01*
X161291680Y-76028273D01*
X161134637Y-75793241D01*
X160934759Y-75593363D01*
X160699727Y-75436320D01*
X160438574Y-75328147D01*
X160161335Y-75273000D01*
X159878665Y-75273000D01*
X159601426Y-75328147D01*
X159340273Y-75436320D01*
X159105241Y-75593363D01*
X158905363Y-75793241D01*
X158801957Y-75948000D01*
X147808043Y-75948000D01*
X147704637Y-75793241D01*
X147504759Y-75593363D01*
X147272241Y-75438000D01*
X147504759Y-75282637D01*
X147704637Y-75082759D01*
X147808043Y-74928000D01*
X150322678Y-74928000D01*
X150360000Y-74931676D01*
X150397322Y-74928000D01*
X150397333Y-74928000D01*
X150508986Y-74917003D01*
X150652247Y-74873546D01*
X150784276Y-74802974D01*
X150900001Y-74708001D01*
X150923804Y-74678997D01*
X151346114Y-74256688D01*
X151528665Y-74293000D01*
X151811335Y-74293000D01*
X152088574Y-74237853D01*
X152349727Y-74129680D01*
X152584759Y-73972637D01*
X152741297Y-73816099D01*
X153936200Y-75011002D01*
X153959999Y-75040001D01*
X154075724Y-75134974D01*
X154207753Y-75205546D01*
X154351014Y-75249003D01*
X154462667Y-75260000D01*
X154462675Y-75260000D01*
X154500000Y-75263676D01*
X154537325Y-75260000D01*
X161185199Y-75260000D01*
X164569202Y-78644004D01*
X164593000Y-78673002D01*
X164708725Y-78767975D01*
X164840754Y-78838547D01*
X164984015Y-78882004D01*
X165095668Y-78893001D01*
X165095677Y-78893001D01*
X165133000Y-78896677D01*
X165170323Y-78893001D01*
X175246410Y-78893001D01*
X174941331Y-79019369D01*
X174575271Y-79263962D01*
X174263962Y-79575271D01*
X174019369Y-79941331D01*
X173850890Y-80348075D01*
X173765000Y-80779872D01*
X173765000Y-81220128D01*
X173850890Y-81651925D01*
X174019369Y-82058669D01*
X174263962Y-82424729D01*
X174575271Y-82736038D01*
X174941331Y-82980631D01*
X175348075Y-83149110D01*
X175779872Y-83235000D01*
X176220128Y-83235000D01*
X176651925Y-83149110D01*
X177058669Y-82980631D01*
X177424729Y-82736038D01*
X177736038Y-82424729D01*
X177980631Y-82058669D01*
X178149110Y-81651925D01*
X178235000Y-81220128D01*
X178235000Y-80890980D01*
X180273437Y-80890980D01*
X180344429Y-81109094D01*
X180488031Y-81384923D01*
X180682685Y-81627437D01*
X180920911Y-81827316D01*
X181193554Y-81976879D01*
X181490137Y-82070378D01*
X181737000Y-81943570D01*
X181737000Y-80645000D01*
X181991000Y-80645000D01*
X181991000Y-81943570D01*
X182237863Y-82070378D01*
X182534446Y-81976879D01*
X182807089Y-81827316D01*
X183045315Y-81627437D01*
X183239969Y-81384923D01*
X183383571Y-81109094D01*
X183454563Y-80890980D01*
X183334594Y-80645000D01*
X181991000Y-80645000D01*
X181737000Y-80645000D01*
X180393406Y-80645000D01*
X180273437Y-80890980D01*
X178235000Y-80890980D01*
X178235000Y-80779872D01*
X178149110Y-80348075D01*
X177980631Y-79941331D01*
X177736038Y-79575271D01*
X177424729Y-79263962D01*
X177058669Y-79019369D01*
X176753590Y-78893001D01*
X180513763Y-78893001D01*
X180688537Y-79105963D01*
X180867899Y-79253163D01*
X180682685Y-79408563D01*
X180488031Y-79651077D01*
X180344429Y-79926906D01*
X180273437Y-80145020D01*
X180393406Y-80391000D01*
X181737000Y-80391000D01*
X181737000Y-80371000D01*
X181991000Y-80371000D01*
X181991000Y-80391000D01*
X183334594Y-80391000D01*
X183454563Y-80145020D01*
X183383571Y-79926906D01*
X183239969Y-79651077D01*
X183045315Y-79408563D01*
X182860101Y-79253163D01*
X183039463Y-79105963D01*
X183237845Y-78864235D01*
X183385255Y-78588449D01*
X183476030Y-78289204D01*
X183506681Y-77978000D01*
X183476030Y-77666796D01*
X183385255Y-77367551D01*
X183237845Y-77091765D01*
X183134554Y-76965905D01*
X183218494Y-76921037D01*
X183315185Y-76841685D01*
X183394537Y-76744994D01*
X183453502Y-76634680D01*
X183489812Y-76514982D01*
X183502072Y-76390500D01*
X183502072Y-74485500D01*
X183489812Y-74361018D01*
X183453502Y-74241320D01*
X183394537Y-74131006D01*
X183315185Y-74034315D01*
X183218494Y-73954963D01*
X183108180Y-73895998D01*
X182988482Y-73859688D01*
X182864000Y-73847428D01*
X180864000Y-73847428D01*
X180739518Y-73859688D01*
X180619820Y-73895998D01*
X180509506Y-73954963D01*
X180412815Y-74034315D01*
X180333463Y-74131006D01*
X180274498Y-74241320D01*
X180238188Y-74361018D01*
X180225928Y-74485500D01*
X180225928Y-74678000D01*
X179599322Y-74678000D01*
X179561999Y-74674324D01*
X179524676Y-74678000D01*
X179524667Y-74678000D01*
X179413014Y-74688997D01*
X179269753Y-74732454D01*
X179137724Y-74803026D01*
X179021999Y-74897999D01*
X178998201Y-74926997D01*
X177977199Y-75948000D01*
X168858043Y-75948000D01*
X168754637Y-75793241D01*
X168554759Y-75593363D01*
X168319727Y-75436320D01*
X168058574Y-75328147D01*
X167781335Y-75273000D01*
X167498665Y-75273000D01*
X167221426Y-75328147D01*
X166960273Y-75436320D01*
X166725241Y-75593363D01*
X166525363Y-75793241D01*
X166368320Y-76028273D01*
X166260147Y-76289426D01*
X166205000Y-76566665D01*
X166205000Y-76849335D01*
X166260147Y-77126574D01*
X166362220Y-77373001D01*
X165447803Y-77373001D01*
X162063804Y-73989003D01*
X162040001Y-73959999D01*
X161924276Y-73865026D01*
X161792247Y-73794454D01*
X161648986Y-73750997D01*
X161537333Y-73740000D01*
X161537322Y-73740000D01*
X161500000Y-73736324D01*
X161462678Y-73740000D01*
X154814802Y-73740000D01*
X153421804Y-72347003D01*
X153398001Y-72317999D01*
X153282276Y-72223026D01*
X153150247Y-72152454D01*
X153006986Y-72108997D01*
X152895333Y-72098000D01*
X152895322Y-72098000D01*
X152887531Y-72097233D01*
X152784637Y-71943241D01*
X152618057Y-71776661D01*
X152714180Y-71747502D01*
X152824494Y-71688537D01*
X152921185Y-71609185D01*
X153000537Y-71512494D01*
X153014343Y-71486665D01*
X158585000Y-71486665D01*
X158585000Y-71769335D01*
X158640147Y-72046574D01*
X158748320Y-72307727D01*
X158905363Y-72542759D01*
X159105241Y-72742637D01*
X159340273Y-72899680D01*
X159601426Y-73007853D01*
X159878665Y-73063000D01*
X160161335Y-73063000D01*
X160438574Y-73007853D01*
X160699727Y-72899680D01*
X160934759Y-72742637D01*
X161134637Y-72542759D01*
X161291680Y-72307727D01*
X161399853Y-72046574D01*
X161455000Y-71769335D01*
X161455000Y-71486665D01*
X166205000Y-71486665D01*
X166205000Y-71769335D01*
X166260147Y-72046574D01*
X166368320Y-72307727D01*
X166525363Y-72542759D01*
X166725241Y-72742637D01*
X166960273Y-72899680D01*
X167221426Y-73007853D01*
X167498665Y-73063000D01*
X167781335Y-73063000D01*
X168058574Y-73007853D01*
X168319727Y-72899680D01*
X168554759Y-72742637D01*
X168754637Y-72542759D01*
X168858043Y-72388000D01*
X172936678Y-72388000D01*
X172974000Y-72391676D01*
X173011322Y-72388000D01*
X173011333Y-72388000D01*
X173122986Y-72377003D01*
X173266247Y-72333546D01*
X173398276Y-72262974D01*
X173514001Y-72168001D01*
X173537804Y-72138997D01*
X180237232Y-65439570D01*
X180251970Y-65589204D01*
X180342745Y-65888449D01*
X180490155Y-66164235D01*
X180688537Y-66405963D01*
X180861609Y-66548000D01*
X180688537Y-66690037D01*
X180490155Y-66931765D01*
X180342745Y-67207551D01*
X180251970Y-67506796D01*
X180221319Y-67818000D01*
X180251970Y-68129204D01*
X180342745Y-68428449D01*
X180490155Y-68704235D01*
X180688537Y-68945963D01*
X180930265Y-69144345D01*
X181206051Y-69291755D01*
X181505296Y-69382530D01*
X181738514Y-69405500D01*
X181989486Y-69405500D01*
X182222704Y-69382530D01*
X182521949Y-69291755D01*
X182797735Y-69144345D01*
X183039463Y-68945963D01*
X183237845Y-68704235D01*
X183385255Y-68428449D01*
X183476030Y-68129204D01*
X183506681Y-67818000D01*
X183476030Y-67506796D01*
X183385255Y-67207551D01*
X183237845Y-66931765D01*
X183039463Y-66690037D01*
X182866391Y-66548000D01*
X183039463Y-66405963D01*
X183237845Y-66164235D01*
X183385255Y-65888449D01*
X183476030Y-65589204D01*
X183506681Y-65278000D01*
X183476030Y-64966796D01*
X183385255Y-64667551D01*
X183237845Y-64391765D01*
X183134554Y-64265905D01*
X183218494Y-64221037D01*
X183315185Y-64141685D01*
X183394537Y-64044994D01*
X183453502Y-63934680D01*
X183489812Y-63814982D01*
X183502072Y-63690500D01*
X183502072Y-61785500D01*
X183489812Y-61661018D01*
X183453502Y-61541320D01*
X183394537Y-61431006D01*
X183315185Y-61334315D01*
X183218494Y-61254963D01*
X183108180Y-61195998D01*
X182988482Y-61159688D01*
X182864000Y-61147428D01*
X180864000Y-61147428D01*
X180739518Y-61159688D01*
X180619820Y-61195998D01*
X180509506Y-61254963D01*
X180412815Y-61334315D01*
X180333463Y-61431006D01*
X180274498Y-61541320D01*
X180238188Y-61661018D01*
X180225928Y-61785500D01*
X180225928Y-63301270D01*
X172659199Y-70868000D01*
X168858043Y-70868000D01*
X168754637Y-70713241D01*
X168554759Y-70513363D01*
X168319727Y-70356320D01*
X168058574Y-70248147D01*
X167781335Y-70193000D01*
X167498665Y-70193000D01*
X167221426Y-70248147D01*
X166960273Y-70356320D01*
X166725241Y-70513363D01*
X166525363Y-70713241D01*
X166368320Y-70948273D01*
X166260147Y-71209426D01*
X166205000Y-71486665D01*
X161455000Y-71486665D01*
X161399853Y-71209426D01*
X161291680Y-70948273D01*
X161134637Y-70713241D01*
X160934759Y-70513363D01*
X160699727Y-70356320D01*
X160438574Y-70248147D01*
X160161335Y-70193000D01*
X159878665Y-70193000D01*
X159601426Y-70248147D01*
X159340273Y-70356320D01*
X159105241Y-70513363D01*
X158905363Y-70713241D01*
X158748320Y-70948273D01*
X158640147Y-71209426D01*
X158585000Y-71486665D01*
X153014343Y-71486665D01*
X153059502Y-71402180D01*
X153095812Y-71282482D01*
X153108072Y-71158000D01*
X153108072Y-69558000D01*
X153095812Y-69433518D01*
X153059502Y-69313820D01*
X153000537Y-69203506D01*
X152921185Y-69106815D01*
X152824494Y-69027463D01*
X152714180Y-68968498D01*
X152594482Y-68932188D01*
X152470000Y-68919928D01*
X151306729Y-68919928D01*
X150963804Y-68577003D01*
X150940001Y-68547999D01*
X150824276Y-68453026D01*
X150692247Y-68382454D01*
X150548986Y-68338997D01*
X150437333Y-68328000D01*
X150437322Y-68328000D01*
X150400000Y-68324324D01*
X150362678Y-68328000D01*
X147808043Y-68328000D01*
X147704637Y-68173241D01*
X147504759Y-67973363D01*
X147350000Y-67869957D01*
X147350000Y-67764801D01*
X148515003Y-66599799D01*
X148544001Y-66576001D01*
X148613222Y-66491655D01*
X148638974Y-66460277D01*
X148709546Y-66328247D01*
X148731363Y-66256324D01*
X148753003Y-66184986D01*
X148764000Y-66073333D01*
X148764000Y-66073323D01*
X148767676Y-66036000D01*
X148764000Y-65998677D01*
X148764000Y-65574072D01*
X148904000Y-65574072D01*
X149028482Y-65561812D01*
X149148180Y-65525502D01*
X149258494Y-65466537D01*
X149355185Y-65387185D01*
X149434537Y-65290494D01*
X149493502Y-65180180D01*
X149529812Y-65060482D01*
X149542072Y-64936000D01*
X149542072Y-63136000D01*
X149529812Y-63011518D01*
X149493502Y-62891820D01*
X149434537Y-62781506D01*
X149355185Y-62684815D01*
X149258494Y-62605463D01*
X149148180Y-62546498D01*
X149028482Y-62510188D01*
X148904000Y-62497928D01*
X147104000Y-62497928D01*
X146979518Y-62510188D01*
X146859820Y-62546498D01*
X146749506Y-62605463D01*
X146652815Y-62684815D01*
X146573463Y-62781506D01*
X146514498Y-62891820D01*
X146478188Y-63011518D01*
X146465928Y-63136000D01*
X146465928Y-64936000D01*
X146478188Y-65060482D01*
X146514498Y-65180180D01*
X146573463Y-65290494D01*
X146652815Y-65387185D01*
X146749506Y-65466537D01*
X146859820Y-65525502D01*
X146979518Y-65561812D01*
X147104000Y-65574072D01*
X147244001Y-65574072D01*
X147244001Y-65721197D01*
X146079003Y-66886196D01*
X146049999Y-66909999D01*
X145994871Y-66977174D01*
X145955026Y-67025724D01*
X145945365Y-67043799D01*
X145884454Y-67157754D01*
X145840997Y-67301015D01*
X145830000Y-67412668D01*
X145830000Y-67412678D01*
X145826324Y-67450000D01*
X145830000Y-67487323D01*
X145830000Y-67869956D01*
X145675241Y-67973363D01*
X145475363Y-68173241D01*
X145318320Y-68408273D01*
X145210147Y-68669426D01*
X145155000Y-68946665D01*
X142264000Y-68946665D01*
X142264000Y-57689322D01*
X142267676Y-57651999D01*
X142264000Y-57614676D01*
X142264000Y-57614667D01*
X142253003Y-57503014D01*
X142209546Y-57359753D01*
X142138974Y-57227724D01*
X142044001Y-57111999D01*
X142015003Y-57088201D01*
X140368688Y-55441886D01*
X140405000Y-55259335D01*
X140405000Y-54976665D01*
X140349853Y-54699426D01*
X140241680Y-54438273D01*
X140084637Y-54203241D01*
X139884759Y-54003363D01*
X139652241Y-53848000D01*
X139884759Y-53692637D01*
X140084637Y-53492759D01*
X140241680Y-53257727D01*
X140349853Y-52996574D01*
X140405000Y-52719335D01*
X140405000Y-52436665D01*
X140349853Y-52159426D01*
X140241680Y-51898273D01*
X140084637Y-51663241D01*
X139886039Y-51464643D01*
X139894482Y-51463812D01*
X140014180Y-51427502D01*
X140124494Y-51368537D01*
X140221185Y-51289185D01*
X140300537Y-51192494D01*
X140359502Y-51082180D01*
X140395812Y-50962482D01*
X140408072Y-50838000D01*
X140408072Y-49896665D01*
X145155000Y-49896665D01*
X145155000Y-50179335D01*
X145210147Y-50456574D01*
X145318320Y-50717727D01*
X145475363Y-50952759D01*
X145675241Y-51152637D01*
X145907759Y-51308000D01*
X145675241Y-51463363D01*
X145475363Y-51663241D01*
X145318320Y-51898273D01*
X145210147Y-52159426D01*
X145155000Y-52436665D01*
X145155000Y-52719335D01*
X145210147Y-52996574D01*
X145318320Y-53257727D01*
X145475363Y-53492759D01*
X145675241Y-53692637D01*
X145907759Y-53848000D01*
X145675241Y-54003363D01*
X145475363Y-54203241D01*
X145318320Y-54438273D01*
X145210147Y-54699426D01*
X145155000Y-54976665D01*
X145155000Y-55259335D01*
X145210147Y-55536574D01*
X145318320Y-55797727D01*
X145475363Y-56032759D01*
X145675241Y-56232637D01*
X145907759Y-56388000D01*
X145675241Y-56543363D01*
X145475363Y-56743241D01*
X145318320Y-56978273D01*
X145210147Y-57239426D01*
X145155000Y-57516665D01*
X145155000Y-57799335D01*
X145210147Y-58076574D01*
X145318320Y-58337727D01*
X145475363Y-58572759D01*
X145675241Y-58772637D01*
X145910273Y-58929680D01*
X146171426Y-59037853D01*
X146448665Y-59093000D01*
X146731335Y-59093000D01*
X147008574Y-59037853D01*
X147269727Y-58929680D01*
X147504759Y-58772637D01*
X147704637Y-58572759D01*
X147808043Y-58418000D01*
X149311199Y-58418000D01*
X153062201Y-62169003D01*
X153085999Y-62198001D01*
X153201724Y-62292974D01*
X153333753Y-62363546D01*
X153477014Y-62407003D01*
X153588667Y-62418000D01*
X153588676Y-62418000D01*
X153625999Y-62421676D01*
X153663322Y-62418000D01*
X158547957Y-62418000D01*
X158651363Y-62572759D01*
X158851241Y-62772637D01*
X159086273Y-62929680D01*
X159347426Y-63037853D01*
X159624665Y-63093000D01*
X159907335Y-63093000D01*
X160184574Y-63037853D01*
X160445727Y-62929680D01*
X160680759Y-62772637D01*
X160880637Y-62572759D01*
X161037680Y-62337727D01*
X161145853Y-62076574D01*
X161201000Y-61799335D01*
X161201000Y-61516665D01*
X161145853Y-61239426D01*
X161037680Y-60978273D01*
X160880637Y-60743241D01*
X160680759Y-60543363D01*
X160445727Y-60386320D01*
X160184574Y-60278147D01*
X159907335Y-60223000D01*
X159624665Y-60223000D01*
X159347426Y-60278147D01*
X159086273Y-60386320D01*
X158851241Y-60543363D01*
X158651363Y-60743241D01*
X158547957Y-60898000D01*
X153940802Y-60898000D01*
X150189804Y-57147003D01*
X150166001Y-57117999D01*
X150050276Y-57023026D01*
X149918247Y-56952454D01*
X149774986Y-56908997D01*
X149663333Y-56898000D01*
X149663322Y-56898000D01*
X149626000Y-56894324D01*
X149588678Y-56898000D01*
X147808043Y-56898000D01*
X147704637Y-56743241D01*
X147504759Y-56543363D01*
X147272241Y-56388000D01*
X147504759Y-56232637D01*
X147704637Y-56032759D01*
X147808043Y-55878000D01*
X148884678Y-55878000D01*
X148922000Y-55881676D01*
X148959322Y-55878000D01*
X148959333Y-55878000D01*
X149070986Y-55867003D01*
X149214247Y-55823546D01*
X149346276Y-55752974D01*
X149462001Y-55658001D01*
X149485804Y-55628997D01*
X150489946Y-54624856D01*
X150555363Y-54722759D01*
X150755241Y-54922637D01*
X150990273Y-55079680D01*
X151251426Y-55187853D01*
X151528665Y-55243000D01*
X151811335Y-55243000D01*
X151993887Y-55206688D01*
X156334200Y-59547002D01*
X156357999Y-59576001D01*
X156386997Y-59599799D01*
X156473724Y-59670974D01*
X156605753Y-59741546D01*
X156749014Y-59785003D01*
X156898000Y-59799677D01*
X156935333Y-59796000D01*
X161689199Y-59796000D01*
X165187202Y-63294004D01*
X165211000Y-63323002D01*
X165326725Y-63417975D01*
X165458754Y-63488547D01*
X165602015Y-63532004D01*
X165713668Y-63543001D01*
X165713676Y-63543001D01*
X165751001Y-63546677D01*
X165788326Y-63543001D01*
X171621677Y-63543001D01*
X171658999Y-63546677D01*
X171696321Y-63543001D01*
X171696332Y-63543001D01*
X171807985Y-63532004D01*
X171951246Y-63488547D01*
X172083275Y-63417975D01*
X172199000Y-63323002D01*
X172222803Y-63293998D01*
X180271800Y-55245002D01*
X180393405Y-55245002D01*
X180273437Y-55490980D01*
X180344429Y-55709094D01*
X180488031Y-55984923D01*
X180682685Y-56227437D01*
X180920911Y-56427316D01*
X181193554Y-56576879D01*
X181490137Y-56670378D01*
X181737000Y-56543570D01*
X181737000Y-55245000D01*
X181991000Y-55245000D01*
X181991000Y-56543570D01*
X182237863Y-56670378D01*
X182534446Y-56576879D01*
X182807089Y-56427316D01*
X183045315Y-56227437D01*
X183239969Y-55984923D01*
X183383571Y-55709094D01*
X183454563Y-55490980D01*
X183334594Y-55245000D01*
X181991000Y-55245000D01*
X181737000Y-55245000D01*
X181717000Y-55245000D01*
X181717000Y-54991000D01*
X181737000Y-54991000D01*
X181737000Y-54971000D01*
X181991000Y-54971000D01*
X181991000Y-54991000D01*
X183334594Y-54991000D01*
X183454563Y-54745020D01*
X183383571Y-54526906D01*
X183239969Y-54251077D01*
X183045315Y-54008563D01*
X182860101Y-53853163D01*
X183039463Y-53705963D01*
X183237845Y-53464235D01*
X183385255Y-53188449D01*
X183476030Y-52889204D01*
X183506681Y-52578000D01*
X183476030Y-52266796D01*
X183385255Y-51967551D01*
X183237845Y-51691765D01*
X183134554Y-51565905D01*
X183218494Y-51521037D01*
X183315185Y-51441685D01*
X183394537Y-51344994D01*
X183453502Y-51234680D01*
X183489812Y-51114982D01*
X183502072Y-50990500D01*
X183502072Y-49085500D01*
X183489812Y-48961018D01*
X183453502Y-48841320D01*
X183394537Y-48731006D01*
X183315185Y-48634315D01*
X183218494Y-48554963D01*
X183108180Y-48495998D01*
X182988482Y-48459688D01*
X182864000Y-48447428D01*
X180864000Y-48447428D01*
X180739518Y-48459688D01*
X180619820Y-48495998D01*
X180509506Y-48554963D01*
X180412815Y-48634315D01*
X180333463Y-48731006D01*
X180274498Y-48841320D01*
X180238188Y-48961018D01*
X180225928Y-49085500D01*
X180225928Y-50601270D01*
X173733003Y-57094196D01*
X173732997Y-57094201D01*
X169929199Y-60898000D01*
X168604043Y-60898000D01*
X168500637Y-60743241D01*
X168300759Y-60543363D01*
X168065727Y-60386320D01*
X167804574Y-60278147D01*
X167527335Y-60223000D01*
X167244665Y-60223000D01*
X166967426Y-60278147D01*
X166706273Y-60386320D01*
X166471241Y-60543363D01*
X166271363Y-60743241D01*
X166114320Y-60978273D01*
X166006147Y-61239426D01*
X165951000Y-61516665D01*
X165951000Y-61799335D01*
X165978031Y-61935230D01*
X162567804Y-58525003D01*
X162544001Y-58495999D01*
X162428276Y-58401026D01*
X162296247Y-58330454D01*
X162152986Y-58286997D01*
X162041333Y-58276000D01*
X162041322Y-58276000D01*
X162004000Y-58272324D01*
X161966678Y-58276000D01*
X157212802Y-58276000D01*
X155373467Y-56436665D01*
X158331000Y-56436665D01*
X158331000Y-56719335D01*
X158386147Y-56996574D01*
X158494320Y-57257727D01*
X158651363Y-57492759D01*
X158851241Y-57692637D01*
X159086273Y-57849680D01*
X159347426Y-57957853D01*
X159624665Y-58013000D01*
X159907335Y-58013000D01*
X160184574Y-57957853D01*
X160445727Y-57849680D01*
X160680759Y-57692637D01*
X160880637Y-57492759D01*
X161037680Y-57257727D01*
X161145853Y-56996574D01*
X161201000Y-56719335D01*
X161201000Y-56436665D01*
X165951000Y-56436665D01*
X165951000Y-56719335D01*
X166006147Y-56996574D01*
X166114320Y-57257727D01*
X166271363Y-57492759D01*
X166471241Y-57692637D01*
X166706273Y-57849680D01*
X166967426Y-57957853D01*
X167244665Y-58013000D01*
X167527335Y-58013000D01*
X167804574Y-57957853D01*
X168065727Y-57849680D01*
X168300759Y-57692637D01*
X168500637Y-57492759D01*
X168604043Y-57338000D01*
X169424678Y-57338000D01*
X169462000Y-57341676D01*
X169499322Y-57338000D01*
X169499333Y-57338000D01*
X169610986Y-57327003D01*
X169754247Y-57283546D01*
X169886276Y-57212974D01*
X170002001Y-57118001D01*
X170025804Y-57088997D01*
X174515004Y-52599798D01*
X174544001Y-52576001D01*
X174576566Y-52536320D01*
X174638974Y-52460277D01*
X174709546Y-52328247D01*
X174709546Y-52328246D01*
X174753003Y-52184986D01*
X174764000Y-52073333D01*
X174764000Y-52073323D01*
X174767676Y-52036001D01*
X174764000Y-51998678D01*
X174764000Y-51041323D01*
X174767676Y-51004000D01*
X174764000Y-50966678D01*
X174764000Y-50966667D01*
X174760000Y-50926055D01*
X174760000Y-45516801D01*
X180237232Y-40039570D01*
X180251970Y-40189204D01*
X180342745Y-40488449D01*
X180490155Y-40764235D01*
X180688537Y-41005963D01*
X180861609Y-41148000D01*
X180688537Y-41290037D01*
X180490155Y-41531765D01*
X180342745Y-41807551D01*
X180251970Y-42106796D01*
X180221319Y-42418000D01*
X180251970Y-42729204D01*
X180342745Y-43028449D01*
X180490155Y-43304235D01*
X180688537Y-43545963D01*
X180930265Y-43744345D01*
X181206051Y-43891755D01*
X181505296Y-43982530D01*
X181738514Y-44005500D01*
X181989486Y-44005500D01*
X182222704Y-43982530D01*
X182521949Y-43891755D01*
X182797735Y-43744345D01*
X183039463Y-43545963D01*
X183237845Y-43304235D01*
X183385255Y-43028449D01*
X183476030Y-42729204D01*
X183506681Y-42418000D01*
X183476030Y-42106796D01*
X183385255Y-41807551D01*
X183237845Y-41531765D01*
X183039463Y-41290037D01*
X182866391Y-41148000D01*
X183039463Y-41005963D01*
X183237845Y-40764235D01*
X183385255Y-40488449D01*
X183476030Y-40189204D01*
X183506681Y-39878000D01*
X183476030Y-39566796D01*
X183385255Y-39267551D01*
X183237845Y-38991765D01*
X183134554Y-38865905D01*
X183218494Y-38821037D01*
X183315185Y-38741685D01*
X183394537Y-38644994D01*
X183453502Y-38534680D01*
X183489812Y-38414982D01*
X183502072Y-38290500D01*
X183502072Y-36385500D01*
X183489812Y-36261018D01*
X183453502Y-36141320D01*
X183394537Y-36031006D01*
X183315185Y-35934315D01*
X183218494Y-35854963D01*
X183108180Y-35795998D01*
X182988482Y-35759688D01*
X182864000Y-35747428D01*
X180864000Y-35747428D01*
X180739518Y-35759688D01*
X180619820Y-35795998D01*
X180509506Y-35854963D01*
X180412815Y-35934315D01*
X180333463Y-36031006D01*
X180274498Y-36141320D01*
X180238188Y-36261018D01*
X180225928Y-36385500D01*
X180225928Y-37901269D01*
X173488998Y-44638201D01*
X173460000Y-44661999D01*
X173436202Y-44690997D01*
X173436201Y-44690998D01*
X173365026Y-44777724D01*
X173294454Y-44909754D01*
X173250998Y-45053015D01*
X173236324Y-45202000D01*
X173240001Y-45239332D01*
X173240000Y-50962677D01*
X173236324Y-51000000D01*
X173240000Y-51037322D01*
X173240000Y-51037332D01*
X173244001Y-51077953D01*
X173244000Y-51721198D01*
X169147199Y-55818000D01*
X168604043Y-55818000D01*
X168500637Y-55663241D01*
X168300759Y-55463363D01*
X168065727Y-55306320D01*
X167804574Y-55198147D01*
X167527335Y-55143000D01*
X167244665Y-55143000D01*
X166967426Y-55198147D01*
X166706273Y-55306320D01*
X166471241Y-55463363D01*
X166271363Y-55663241D01*
X166114320Y-55898273D01*
X166006147Y-56159426D01*
X165951000Y-56436665D01*
X161201000Y-56436665D01*
X161145853Y-56159426D01*
X161037680Y-55898273D01*
X160880637Y-55663241D01*
X160680759Y-55463363D01*
X160445727Y-55306320D01*
X160184574Y-55198147D01*
X159907335Y-55143000D01*
X159624665Y-55143000D01*
X159347426Y-55198147D01*
X159086273Y-55306320D01*
X158851241Y-55463363D01*
X158651363Y-55663241D01*
X158494320Y-55898273D01*
X158386147Y-56159426D01*
X158331000Y-56436665D01*
X155373467Y-56436665D01*
X153068688Y-54131887D01*
X153105000Y-53949335D01*
X153105000Y-53666665D01*
X153049853Y-53389426D01*
X152941680Y-53128273D01*
X152784637Y-52893241D01*
X152618057Y-52726661D01*
X152714180Y-52697502D01*
X152824494Y-52638537D01*
X152921185Y-52559185D01*
X153000537Y-52462494D01*
X153059502Y-52352180D01*
X153095812Y-52232482D01*
X153108072Y-52108000D01*
X153108072Y-50508000D01*
X153095812Y-50383518D01*
X153059502Y-50263820D01*
X153000537Y-50153506D01*
X152921185Y-50056815D01*
X152824494Y-49977463D01*
X152714180Y-49918498D01*
X152594482Y-49882188D01*
X152470000Y-49869928D01*
X150870000Y-49869928D01*
X150745518Y-49882188D01*
X150625820Y-49918498D01*
X150515506Y-49977463D01*
X150418815Y-50056815D01*
X150339463Y-50153506D01*
X150289598Y-50246796D01*
X149569804Y-49527003D01*
X149546001Y-49497999D01*
X149430276Y-49403026D01*
X149298247Y-49332454D01*
X149154986Y-49288997D01*
X149043333Y-49278000D01*
X149043322Y-49278000D01*
X149006000Y-49274324D01*
X148968678Y-49278000D01*
X147808043Y-49278000D01*
X147704637Y-49123241D01*
X147504759Y-48923363D01*
X147350000Y-48819957D01*
X147350000Y-48171413D01*
X159048192Y-48171413D01*
X159143956Y-48435814D01*
X159433571Y-48576704D01*
X159745108Y-48658384D01*
X160066595Y-48677718D01*
X160385675Y-48633961D01*
X160690088Y-48528795D01*
X160864044Y-48435814D01*
X160959808Y-48171413D01*
X160004000Y-47215605D01*
X159048192Y-48171413D01*
X147350000Y-48171413D01*
X147350000Y-47098595D01*
X158362282Y-47098595D01*
X158406039Y-47417675D01*
X158511205Y-47722088D01*
X158604186Y-47896044D01*
X158868587Y-47991808D01*
X159824395Y-47036000D01*
X160183605Y-47036000D01*
X161139413Y-47991808D01*
X161403814Y-47896044D01*
X161544704Y-47606429D01*
X161626384Y-47294892D01*
X161645718Y-46973405D01*
X161601961Y-46654325D01*
X161496795Y-46349912D01*
X161403814Y-46175956D01*
X161139413Y-46080192D01*
X160183605Y-47036000D01*
X159824395Y-47036000D01*
X158868587Y-46080192D01*
X158604186Y-46175956D01*
X158463296Y-46465571D01*
X158381616Y-46777108D01*
X158362282Y-47098595D01*
X147350000Y-47098595D01*
X147350000Y-46764801D01*
X147540729Y-46574072D01*
X148904000Y-46574072D01*
X149028482Y-46561812D01*
X149148180Y-46525502D01*
X149258494Y-46466537D01*
X149355185Y-46387185D01*
X149434537Y-46290494D01*
X149493502Y-46180180D01*
X149529812Y-46060482D01*
X149542072Y-45936000D01*
X149542072Y-45900587D01*
X159048192Y-45900587D01*
X160004000Y-46856395D01*
X160824395Y-46036000D01*
X163365928Y-46036000D01*
X163365928Y-48036000D01*
X163378188Y-48160482D01*
X163414498Y-48280180D01*
X163473463Y-48390494D01*
X163552815Y-48487185D01*
X163649506Y-48566537D01*
X163759820Y-48625502D01*
X163879518Y-48661812D01*
X164004000Y-48674072D01*
X166004000Y-48674072D01*
X166128482Y-48661812D01*
X166248180Y-48625502D01*
X166358494Y-48566537D01*
X166455185Y-48487185D01*
X166534537Y-48390494D01*
X166593502Y-48280180D01*
X166629812Y-48160482D01*
X166642072Y-48036000D01*
X166642072Y-46036000D01*
X166629812Y-45911518D01*
X166593502Y-45791820D01*
X166534537Y-45681506D01*
X166455185Y-45584815D01*
X166358494Y-45505463D01*
X166248180Y-45446498D01*
X166128482Y-45410188D01*
X166004000Y-45397928D01*
X164004000Y-45397928D01*
X163879518Y-45410188D01*
X163759820Y-45446498D01*
X163649506Y-45505463D01*
X163552815Y-45584815D01*
X163473463Y-45681506D01*
X163414498Y-45791820D01*
X163378188Y-45911518D01*
X163365928Y-46036000D01*
X160824395Y-46036000D01*
X160959808Y-45900587D01*
X160864044Y-45636186D01*
X160574429Y-45495296D01*
X160262892Y-45413616D01*
X159941405Y-45394282D01*
X159622325Y-45438039D01*
X159317912Y-45543205D01*
X159143956Y-45636186D01*
X159048192Y-45900587D01*
X149542072Y-45900587D01*
X149542072Y-44136000D01*
X149529812Y-44011518D01*
X149493502Y-43891820D01*
X149434537Y-43781506D01*
X149355185Y-43684815D01*
X149258494Y-43605463D01*
X149148180Y-43546498D01*
X149028482Y-43510188D01*
X148904000Y-43497928D01*
X147104000Y-43497928D01*
X146979518Y-43510188D01*
X146859820Y-43546498D01*
X146749506Y-43605463D01*
X146652815Y-43684815D01*
X146573463Y-43781506D01*
X146514498Y-43891820D01*
X146478188Y-44011518D01*
X146465928Y-44136000D01*
X146465928Y-45499271D01*
X146078998Y-45886201D01*
X146050000Y-45909999D01*
X146026202Y-45938997D01*
X146026201Y-45938998D01*
X145955026Y-46025724D01*
X145884454Y-46157754D01*
X145840998Y-46301015D01*
X145826324Y-46450000D01*
X145830001Y-46487332D01*
X145830000Y-48819956D01*
X145675241Y-48923363D01*
X145475363Y-49123241D01*
X145318320Y-49358273D01*
X145210147Y-49619426D01*
X145155000Y-49896665D01*
X140408072Y-49896665D01*
X140408072Y-49238000D01*
X140395812Y-49113518D01*
X140359502Y-48993820D01*
X140300537Y-48883506D01*
X140221185Y-48786815D01*
X140124494Y-48707463D01*
X140014180Y-48648498D01*
X139894482Y-48612188D01*
X139770000Y-48599928D01*
X139730000Y-48599928D01*
X139730000Y-46199322D01*
X139733676Y-46161999D01*
X139730000Y-46124676D01*
X139730000Y-46124667D01*
X139719003Y-46013014D01*
X139675546Y-45869753D01*
X139604974Y-45737724D01*
X139588787Y-45718000D01*
X143613680Y-45718000D01*
X143651002Y-45721676D01*
X143688324Y-45718000D01*
X143688335Y-45718000D01*
X143799988Y-45707003D01*
X143943249Y-45663546D01*
X144075278Y-45592974D01*
X144191003Y-45498001D01*
X144214806Y-45468997D01*
X147387804Y-42296000D01*
X151466678Y-42296000D01*
X151504000Y-42299676D01*
X151541322Y-42296000D01*
X151541333Y-42296000D01*
X151652986Y-42285003D01*
X151796247Y-42241546D01*
X151928276Y-42170974D01*
X152044001Y-42076001D01*
X152067804Y-42046997D01*
X157609392Y-36505410D01*
X157659506Y-36546537D01*
X157769820Y-36605502D01*
X157889518Y-36641812D01*
X158014000Y-36654072D01*
X159994000Y-36654072D01*
X160118482Y-36641812D01*
X160238180Y-36605502D01*
X160348494Y-36546537D01*
X160445185Y-36467185D01*
X160524537Y-36370494D01*
X160583502Y-36260180D01*
X160619812Y-36140482D01*
X160632072Y-36016000D01*
X160632072Y-35105823D01*
X166095000Y-35105823D01*
X166118513Y-35344555D01*
X166211432Y-35650868D01*
X166362325Y-35933169D01*
X166565392Y-36180608D01*
X166812830Y-36383675D01*
X167095131Y-36534568D01*
X167401444Y-36627487D01*
X167720000Y-36658862D01*
X168038555Y-36627487D01*
X168344868Y-36534568D01*
X168627169Y-36383675D01*
X168874608Y-36180608D01*
X169077675Y-35933170D01*
X169228568Y-35650869D01*
X169321487Y-35344556D01*
X169345000Y-35105824D01*
X169345000Y-32966176D01*
X169321487Y-32727444D01*
X169228568Y-32421131D01*
X169077675Y-32138830D01*
X169009699Y-32056000D01*
X171091928Y-32056000D01*
X171091928Y-36016000D01*
X171104188Y-36140482D01*
X171140498Y-36260180D01*
X171199463Y-36370494D01*
X171278815Y-36467185D01*
X171375506Y-36546537D01*
X171485820Y-36605502D01*
X171605518Y-36641812D01*
X171730000Y-36654072D01*
X173710000Y-36654072D01*
X173834482Y-36641812D01*
X173954180Y-36605502D01*
X174064494Y-36546537D01*
X174161185Y-36467185D01*
X174240537Y-36370494D01*
X174299502Y-36260180D01*
X174335812Y-36140482D01*
X174348072Y-36016000D01*
X174348072Y-32056000D01*
X174335812Y-31931518D01*
X174299502Y-31811820D01*
X174240537Y-31701506D01*
X174161185Y-31604815D01*
X174064494Y-31525463D01*
X173954180Y-31466498D01*
X173834482Y-31430188D01*
X173710000Y-31417928D01*
X171730000Y-31417928D01*
X171605518Y-31430188D01*
X171485820Y-31466498D01*
X171375506Y-31525463D01*
X171278815Y-31604815D01*
X171199463Y-31701506D01*
X171140498Y-31811820D01*
X171104188Y-31931518D01*
X171091928Y-32056000D01*
X169009699Y-32056000D01*
X168874608Y-31891392D01*
X168627170Y-31688325D01*
X168344869Y-31537432D01*
X168038556Y-31444513D01*
X167720000Y-31413138D01*
X167401445Y-31444513D01*
X167095132Y-31537432D01*
X166812831Y-31688325D01*
X166565393Y-31891392D01*
X166362326Y-32138830D01*
X166211433Y-32421131D01*
X166118514Y-32727444D01*
X166095001Y-32966176D01*
X166095000Y-35105823D01*
X160632072Y-35105823D01*
X160632072Y-32056000D01*
X160619812Y-31931518D01*
X160583502Y-31811820D01*
X160524537Y-31701506D01*
X160445185Y-31604815D01*
X160348494Y-31525463D01*
X160238180Y-31466498D01*
X160118482Y-31430188D01*
X159994000Y-31417928D01*
X158014000Y-31417928D01*
X157889518Y-31430188D01*
X157769820Y-31466498D01*
X157659506Y-31525463D01*
X157609392Y-31566590D01*
X156822674Y-30779872D01*
X180765000Y-30779872D01*
X180765000Y-31220128D01*
X180850890Y-31651925D01*
X181019369Y-32058669D01*
X181263962Y-32424729D01*
X181575271Y-32736038D01*
X181941331Y-32980631D01*
X182348075Y-33149110D01*
X182779872Y-33235000D01*
X183220128Y-33235000D01*
X183651925Y-33149110D01*
X184058669Y-32980631D01*
X184424729Y-32736038D01*
X184736038Y-32424729D01*
X184980631Y-32058669D01*
X185149110Y-31651925D01*
X185235000Y-31220128D01*
X185235000Y-30779872D01*
X185149110Y-30348075D01*
X184980631Y-29941331D01*
X184736038Y-29575271D01*
X184424729Y-29263962D01*
X184058669Y-29019369D01*
X183651925Y-28850890D01*
X183220128Y-28765000D01*
X182779872Y-28765000D01*
X182348075Y-28850890D01*
X181941331Y-29019369D01*
X181575271Y-29263962D01*
X181263962Y-29575271D01*
X181019369Y-29941331D01*
X180850890Y-30348075D01*
X180765000Y-30779872D01*
X156822674Y-30779872D01*
X156400862Y-30358061D01*
X156381973Y-30322723D01*
X156310798Y-30235996D01*
X156310797Y-30235995D01*
X156287000Y-30206998D01*
X156258002Y-30183200D01*
X154563804Y-28489003D01*
X154540001Y-28459999D01*
X154512650Y-28437553D01*
X186213218Y-28626247D01*
X186213218Y-83873000D01*
X102467218Y-83873000D01*
X102467218Y-80779872D01*
X102540000Y-80779872D01*
X102540000Y-81220128D01*
X102625890Y-81651925D01*
X102794369Y-82058669D01*
X103038962Y-82424729D01*
X103350271Y-82736038D01*
X103716331Y-82980631D01*
X104123075Y-83149110D01*
X104554872Y-83235000D01*
X104995128Y-83235000D01*
X105426925Y-83149110D01*
X105833669Y-82980631D01*
X106199729Y-82736038D01*
X106511038Y-82424729D01*
X106755631Y-82058669D01*
X106924110Y-81651925D01*
X107010000Y-81220128D01*
X107010000Y-80779872D01*
X106924110Y-80348075D01*
X106755631Y-79941331D01*
X106729715Y-79902544D01*
X108649000Y-79902544D01*
X108649000Y-80169456D01*
X108701072Y-80431239D01*
X108803215Y-80677833D01*
X108951503Y-80899762D01*
X109140238Y-81088497D01*
X109362167Y-81236785D01*
X109608761Y-81338928D01*
X109870544Y-81391000D01*
X110137456Y-81391000D01*
X110259852Y-81366654D01*
X111440201Y-82547003D01*
X111463999Y-82576001D01*
X111492997Y-82599799D01*
X111579723Y-82670974D01*
X111701448Y-82736038D01*
X111711753Y-82741546D01*
X111855014Y-82785003D01*
X111966667Y-82796000D01*
X111966676Y-82796000D01*
X112003999Y-82799676D01*
X112041322Y-82796000D01*
X118926678Y-82796000D01*
X118964000Y-82799676D01*
X119001322Y-82796000D01*
X119001333Y-82796000D01*
X119112986Y-82785003D01*
X119256247Y-82741546D01*
X119388276Y-82670974D01*
X119504001Y-82576001D01*
X119527804Y-82546997D01*
X120744148Y-81330654D01*
X120866544Y-81355000D01*
X121133456Y-81355000D01*
X121395239Y-81302928D01*
X121641833Y-81200785D01*
X121863762Y-81052497D01*
X122052497Y-80863762D01*
X122200785Y-80641833D01*
X122270000Y-80474734D01*
X122339215Y-80641833D01*
X122487503Y-80863762D01*
X122676238Y-81052497D01*
X122898167Y-81200785D01*
X123144761Y-81302928D01*
X123406544Y-81355000D01*
X123673456Y-81355000D01*
X123935239Y-81302928D01*
X124181833Y-81200785D01*
X124403762Y-81052497D01*
X124520699Y-80935560D01*
X125324045Y-80935560D01*
X125385932Y-81171368D01*
X125627790Y-81284266D01*
X125887027Y-81347811D01*
X126153680Y-81359561D01*
X126417501Y-81319063D01*
X126668353Y-81227875D01*
X126774068Y-81171368D01*
X126835955Y-80935560D01*
X126080000Y-80179605D01*
X125324045Y-80935560D01*
X124520699Y-80935560D01*
X124592497Y-80863762D01*
X124740785Y-80641833D01*
X124810438Y-80473676D01*
X124852125Y-80588353D01*
X124908632Y-80694068D01*
X125144440Y-80755955D01*
X125900395Y-80000000D01*
X126259605Y-80000000D01*
X127015560Y-80755955D01*
X127251368Y-80694068D01*
X127364266Y-80452210D01*
X127427811Y-80192973D01*
X127439561Y-79926320D01*
X127399063Y-79662499D01*
X127307875Y-79411647D01*
X127251368Y-79305932D01*
X127015560Y-79244045D01*
X126259605Y-80000000D01*
X125900395Y-80000000D01*
X125144440Y-79244045D01*
X124908632Y-79305932D01*
X124808236Y-79521007D01*
X124740785Y-79358167D01*
X124592497Y-79136238D01*
X124520699Y-79064440D01*
X125324045Y-79064440D01*
X126080000Y-79820395D01*
X126835955Y-79064440D01*
X126774068Y-78828632D01*
X126532210Y-78715734D01*
X126272973Y-78652189D01*
X126006320Y-78640439D01*
X125742499Y-78680937D01*
X125491647Y-78772125D01*
X125385932Y-78828632D01*
X125324045Y-79064440D01*
X124520699Y-79064440D01*
X124403762Y-78947503D01*
X124181833Y-78799215D01*
X123935239Y-78697072D01*
X123673456Y-78645000D01*
X123406544Y-78645000D01*
X123144761Y-78697072D01*
X122898167Y-78799215D01*
X122676238Y-78947503D01*
X122487503Y-79136238D01*
X122339215Y-79358167D01*
X122270000Y-79525266D01*
X122200785Y-79358167D01*
X122052497Y-79136238D01*
X121863762Y-78947503D01*
X121641833Y-78799215D01*
X121395239Y-78697072D01*
X121133456Y-78645000D01*
X120866544Y-78645000D01*
X120604761Y-78697072D01*
X120358167Y-78799215D01*
X120136238Y-78947503D01*
X119947503Y-79136238D01*
X119799215Y-79358167D01*
X119697072Y-79604761D01*
X119645000Y-79866544D01*
X119645000Y-80133456D01*
X119669346Y-80255852D01*
X118649199Y-81276000D01*
X115638998Y-81276000D01*
X115672353Y-81263875D01*
X115778068Y-81207368D01*
X115839955Y-80971560D01*
X115084000Y-80215605D01*
X114328045Y-80971560D01*
X114389932Y-81207368D01*
X114536960Y-81276000D01*
X113091160Y-81276000D01*
X113185833Y-81236785D01*
X113407762Y-81088497D01*
X113596497Y-80899762D01*
X113744785Y-80677833D01*
X113814438Y-80509676D01*
X113856125Y-80624353D01*
X113912632Y-80730068D01*
X114148440Y-80791955D01*
X114904395Y-80036000D01*
X115263605Y-80036000D01*
X116019560Y-80791955D01*
X116255368Y-80730068D01*
X116368266Y-80488210D01*
X116431811Y-80228973D01*
X116443561Y-79962320D01*
X116403063Y-79698499D01*
X116311875Y-79447647D01*
X116255368Y-79341932D01*
X116019560Y-79280045D01*
X115263605Y-80036000D01*
X114904395Y-80036000D01*
X114148440Y-79280045D01*
X113912632Y-79341932D01*
X113812236Y-79557007D01*
X113744785Y-79394167D01*
X113596497Y-79172238D01*
X113524699Y-79100440D01*
X114328045Y-79100440D01*
X115084000Y-79856395D01*
X115839955Y-79100440D01*
X115778068Y-78864632D01*
X115536210Y-78751734D01*
X115276973Y-78688189D01*
X115010320Y-78676439D01*
X114746499Y-78716937D01*
X114495647Y-78808125D01*
X114389932Y-78864632D01*
X114328045Y-79100440D01*
X113524699Y-79100440D01*
X113407762Y-78983503D01*
X113185833Y-78835215D01*
X112939239Y-78733072D01*
X112677456Y-78681000D01*
X112410544Y-78681000D01*
X112148761Y-78733072D01*
X111902167Y-78835215D01*
X111680238Y-78983503D01*
X111491503Y-79172238D01*
X111343215Y-79394167D01*
X111274000Y-79561266D01*
X111204785Y-79394167D01*
X111056497Y-79172238D01*
X110867762Y-78983503D01*
X110645833Y-78835215D01*
X110399239Y-78733072D01*
X110137456Y-78681000D01*
X109870544Y-78681000D01*
X109608761Y-78733072D01*
X109362167Y-78835215D01*
X109140238Y-78983503D01*
X108951503Y-79172238D01*
X108803215Y-79394167D01*
X108701072Y-79640761D01*
X108649000Y-79902544D01*
X106729715Y-79902544D01*
X106511038Y-79575271D01*
X106199729Y-79263962D01*
X105833669Y-79019369D01*
X105426925Y-78850890D01*
X104995128Y-78765000D01*
X104554872Y-78765000D01*
X104123075Y-78850890D01*
X103716331Y-79019369D01*
X103350271Y-79263962D01*
X103038962Y-79575271D01*
X102794369Y-79941331D01*
X102625890Y-80348075D01*
X102540000Y-80779872D01*
X102467218Y-80779872D01*
X102467218Y-30779872D01*
X102765000Y-30779872D01*
X102765000Y-31220128D01*
X102850890Y-31651925D01*
X103019369Y-32058669D01*
X103263962Y-32424729D01*
X103575271Y-32736038D01*
X103941331Y-32980631D01*
X104348075Y-33149110D01*
X104779872Y-33235000D01*
X105220128Y-33235000D01*
X105396084Y-33200000D01*
X108561928Y-33200000D01*
X108561928Y-34800000D01*
X108574188Y-34924482D01*
X108610498Y-35044180D01*
X108669463Y-35154494D01*
X108748815Y-35251185D01*
X108845506Y-35330537D01*
X108955820Y-35389502D01*
X109075518Y-35425812D01*
X109083961Y-35426643D01*
X108885363Y-35625241D01*
X108728320Y-35860273D01*
X108620147Y-36121426D01*
X108565000Y-36398665D01*
X108565000Y-36681335D01*
X108620147Y-36958574D01*
X108728320Y-37219727D01*
X108885363Y-37454759D01*
X109085241Y-37654637D01*
X109317759Y-37810000D01*
X109085241Y-37965363D01*
X108885363Y-38165241D01*
X108728320Y-38400273D01*
X108620147Y-38661426D01*
X108565000Y-38938665D01*
X108565000Y-39221335D01*
X108620147Y-39498574D01*
X108728320Y-39759727D01*
X108885363Y-39994759D01*
X109085241Y-40194637D01*
X109320273Y-40351680D01*
X109330865Y-40356067D01*
X109144869Y-40467615D01*
X108936481Y-40656586D01*
X108768963Y-40882580D01*
X108648754Y-41136913D01*
X108608096Y-41270961D01*
X108730085Y-41493000D01*
X109873000Y-41493000D01*
X109873000Y-41473000D01*
X110127000Y-41473000D01*
X110127000Y-41493000D01*
X111269915Y-41493000D01*
X111391904Y-41270961D01*
X111351246Y-41136913D01*
X111231037Y-40882580D01*
X111063519Y-40656586D01*
X110855131Y-40467615D01*
X110669135Y-40356067D01*
X110679727Y-40351680D01*
X110914759Y-40194637D01*
X111114637Y-39994759D01*
X111271680Y-39759727D01*
X111379853Y-39498574D01*
X111435000Y-39221335D01*
X111435000Y-38938665D01*
X111379853Y-38661426D01*
X111271680Y-38400273D01*
X111114637Y-38165241D01*
X110914759Y-37965363D01*
X110682241Y-37810000D01*
X110914759Y-37654637D01*
X111114637Y-37454759D01*
X111271680Y-37219727D01*
X111379853Y-36958574D01*
X111435000Y-36681335D01*
X111435000Y-36398665D01*
X111379853Y-36121426D01*
X111271680Y-35860273D01*
X111114637Y-35625241D01*
X110916039Y-35426643D01*
X110924482Y-35425812D01*
X111044180Y-35389502D01*
X111154494Y-35330537D01*
X111251185Y-35251185D01*
X111330537Y-35154494D01*
X111389502Y-35044180D01*
X111425812Y-34924482D01*
X111438072Y-34800000D01*
X111438072Y-33858665D01*
X123805000Y-33858665D01*
X123805000Y-34141335D01*
X123860147Y-34418574D01*
X123968320Y-34679727D01*
X124125363Y-34914759D01*
X124325241Y-35114637D01*
X124560273Y-35271680D01*
X124570865Y-35276067D01*
X124384869Y-35387615D01*
X124176481Y-35576586D01*
X124008963Y-35802580D01*
X123888754Y-36056913D01*
X123848096Y-36190961D01*
X123970085Y-36413000D01*
X125113000Y-36413000D01*
X125113000Y-36393000D01*
X125367000Y-36393000D01*
X125367000Y-36413000D01*
X126509915Y-36413000D01*
X126534128Y-36368929D01*
X126712201Y-36547003D01*
X126735999Y-36576001D01*
X126851724Y-36670974D01*
X126983753Y-36741546D01*
X127127014Y-36785003D01*
X127238667Y-36796000D01*
X127238677Y-36796000D01*
X127276000Y-36799676D01*
X127313323Y-36796000D01*
X128788962Y-36796000D01*
X128814498Y-36880180D01*
X128873463Y-36990494D01*
X128952815Y-37087185D01*
X129049506Y-37166537D01*
X129095006Y-37190858D01*
X129037128Y-37248736D01*
X129154234Y-37365842D01*
X128930652Y-37413148D01*
X128829763Y-37634516D01*
X128774000Y-37871313D01*
X128765505Y-38114438D01*
X128804605Y-38354549D01*
X128889798Y-38582418D01*
X128930652Y-38658852D01*
X129154236Y-38706159D01*
X129824395Y-38036000D01*
X129810253Y-38021858D01*
X129989858Y-37842253D01*
X130004000Y-37856395D01*
X130018143Y-37842253D01*
X130197748Y-38021858D01*
X130183605Y-38036000D01*
X130853764Y-38706159D01*
X131077348Y-38658852D01*
X131178237Y-38437484D01*
X131234000Y-38200687D01*
X131242495Y-37957562D01*
X131203395Y-37717451D01*
X131118202Y-37489582D01*
X131077348Y-37413148D01*
X130853766Y-37365842D01*
X130970872Y-37248736D01*
X130912994Y-37190858D01*
X130958494Y-37166537D01*
X131055185Y-37087185D01*
X131134537Y-36990494D01*
X131193502Y-36880180D01*
X131229812Y-36760482D01*
X131236773Y-36689802D01*
X133115001Y-36689802D01*
X133766201Y-37341003D01*
X133789999Y-37370001D01*
X133905724Y-37464974D01*
X134037753Y-37535546D01*
X134181014Y-37579003D01*
X134292667Y-37590000D01*
X134292676Y-37590000D01*
X134329999Y-37593676D01*
X134367322Y-37590000D01*
X134448681Y-37590000D01*
X134516155Y-37716235D01*
X134714537Y-37957963D01*
X134956265Y-38156345D01*
X135232051Y-38303755D01*
X135531296Y-38394530D01*
X135764514Y-38417500D01*
X136015486Y-38417500D01*
X136248704Y-38394530D01*
X136547949Y-38303755D01*
X136823735Y-38156345D01*
X137065463Y-37957963D01*
X137263845Y-37716235D01*
X137411255Y-37440449D01*
X137502030Y-37141204D01*
X137532681Y-36830000D01*
X137502030Y-36518796D01*
X137411255Y-36219551D01*
X137263845Y-35943765D01*
X137065463Y-35702037D01*
X136886101Y-35554837D01*
X137071315Y-35399437D01*
X137265969Y-35156923D01*
X137409571Y-34881094D01*
X137480563Y-34662980D01*
X137360594Y-34417000D01*
X136017000Y-34417000D01*
X136017000Y-34437000D01*
X135763000Y-34437000D01*
X135763000Y-34417000D01*
X134419406Y-34417000D01*
X134299437Y-34662980D01*
X134370429Y-34881094D01*
X134514031Y-35156923D01*
X134708685Y-35399437D01*
X134893899Y-35554837D01*
X134714537Y-35702037D01*
X134517242Y-35942440D01*
X133993605Y-35418804D01*
X133969803Y-35389801D01*
X133854078Y-35294828D01*
X133722049Y-35224256D01*
X133578788Y-35180799D01*
X133467135Y-35169802D01*
X133467124Y-35169802D01*
X133429802Y-35166126D01*
X133392480Y-35169802D01*
X131181733Y-35169802D01*
X131134537Y-35081506D01*
X131055185Y-34984815D01*
X130958494Y-34905463D01*
X130848180Y-34846498D01*
X130728482Y-34810188D01*
X130604000Y-34797928D01*
X129404000Y-34797928D01*
X129279518Y-34810188D01*
X129159820Y-34846498D01*
X129049506Y-34905463D01*
X128952815Y-34984815D01*
X128873463Y-35081506D01*
X128814498Y-35191820D01*
X128788962Y-35276000D01*
X127590802Y-35276000D01*
X126638688Y-34323886D01*
X126675000Y-34141335D01*
X126675000Y-33885764D01*
X129333841Y-33885764D01*
X129381148Y-34109348D01*
X129602516Y-34210237D01*
X129839313Y-34266000D01*
X130082438Y-34274495D01*
X130322549Y-34235395D01*
X130550418Y-34150202D01*
X130626852Y-34109348D01*
X130674159Y-33885764D01*
X130004000Y-33215605D01*
X129333841Y-33885764D01*
X126675000Y-33885764D01*
X126675000Y-33858665D01*
X126619853Y-33581426D01*
X126511680Y-33320273D01*
X126354637Y-33085241D01*
X126154759Y-32885363D01*
X125919727Y-32728320D01*
X125658574Y-32620147D01*
X125381335Y-32565000D01*
X125098665Y-32565000D01*
X124821426Y-32620147D01*
X124560273Y-32728320D01*
X124325241Y-32885363D01*
X124125363Y-33085241D01*
X123968320Y-33320273D01*
X123860147Y-33581426D01*
X123805000Y-33858665D01*
X111438072Y-33858665D01*
X111438072Y-33200000D01*
X111425812Y-33075518D01*
X111389502Y-32955820D01*
X111330537Y-32845506D01*
X111251185Y-32748815D01*
X111154494Y-32669463D01*
X111044180Y-32610498D01*
X110924482Y-32574188D01*
X110800000Y-32561928D01*
X109200000Y-32561928D01*
X109075518Y-32574188D01*
X108955820Y-32610498D01*
X108845506Y-32669463D01*
X108748815Y-32748815D01*
X108669463Y-32845506D01*
X108610498Y-32955820D01*
X108574188Y-33075518D01*
X108561928Y-33200000D01*
X105396084Y-33200000D01*
X105651925Y-33149110D01*
X106058669Y-32980631D01*
X106424729Y-32736038D01*
X106736038Y-32424729D01*
X106980631Y-32058669D01*
X107149110Y-31651925D01*
X107235000Y-31220128D01*
X107235000Y-30779872D01*
X107149110Y-30348075D01*
X106980631Y-29941331D01*
X106736038Y-29575271D01*
X106424729Y-29263962D01*
X106058669Y-29019369D01*
X105651925Y-28850890D01*
X105220128Y-28765000D01*
X104779872Y-28765000D01*
X104348075Y-28850890D01*
X103941331Y-29019369D01*
X103575271Y-29263962D01*
X103263962Y-29575271D01*
X103019369Y-29941331D01*
X102850890Y-30348075D01*
X102765000Y-30779872D01*
X102467218Y-30779872D01*
X102467218Y-28127758D01*
X138261016Y-28340817D01*
%TA.AperFunction,Conductor*%
D27*
G36*
X138261016Y-28340817D02*
G01*
X138215724Y-28365026D01*
X138099999Y-28459999D01*
X138076201Y-28488997D01*
X136405771Y-30159428D01*
X134890000Y-30159428D01*
X134765518Y-30171688D01*
X134750918Y-30176117D01*
X134393606Y-29818805D01*
X134369803Y-29789801D01*
X134254078Y-29694828D01*
X134122049Y-29624256D01*
X133978788Y-29580799D01*
X133867135Y-29569802D01*
X133867124Y-29569802D01*
X133829802Y-29566126D01*
X133792480Y-29569802D01*
X130747523Y-29569802D01*
X130710198Y-29566126D01*
X130672873Y-29569802D01*
X130672865Y-29569802D01*
X130561212Y-29580799D01*
X130417951Y-29624256D01*
X130285922Y-29694828D01*
X130170197Y-29789801D01*
X130163527Y-29797928D01*
X129404000Y-29797928D01*
X129279518Y-29810188D01*
X129159820Y-29846498D01*
X129049506Y-29905463D01*
X128952815Y-29984815D01*
X128873463Y-30081506D01*
X128814498Y-30191820D01*
X128778188Y-30311518D01*
X128765928Y-30436000D01*
X128765928Y-31636000D01*
X128778188Y-31760482D01*
X128814498Y-31880180D01*
X128873463Y-31990494D01*
X128952815Y-32087185D01*
X129049506Y-32166537D01*
X129095006Y-32190858D01*
X129037128Y-32248736D01*
X129154234Y-32365842D01*
X128930652Y-32413148D01*
X128829763Y-32634516D01*
X128774000Y-32871313D01*
X128765505Y-33114438D01*
X128804605Y-33354549D01*
X128889798Y-33582418D01*
X128930652Y-33658852D01*
X129154236Y-33706159D01*
X129824395Y-33036000D01*
X129810253Y-33021858D01*
X129989858Y-32842253D01*
X130004000Y-32856395D01*
X130018143Y-32842253D01*
X130197748Y-33021858D01*
X130183605Y-33036000D01*
X130853764Y-33706159D01*
X131077348Y-33658852D01*
X131178237Y-33437484D01*
X131234000Y-33200687D01*
X131242495Y-32957562D01*
X131203395Y-32717451D01*
X131118202Y-32489582D01*
X131077348Y-32413148D01*
X130853766Y-32365842D01*
X130970872Y-32248736D01*
X130912994Y-32190858D01*
X130958494Y-32166537D01*
X131055185Y-32087185D01*
X131134537Y-31990494D01*
X131193502Y-31880180D01*
X131229812Y-31760482D01*
X131242072Y-31636000D01*
X131242072Y-31089802D01*
X133515001Y-31089802D01*
X134251928Y-31826730D01*
X134251928Y-32702500D01*
X134264188Y-32826982D01*
X134300498Y-32946680D01*
X134359463Y-33056994D01*
X134438815Y-33153685D01*
X134535506Y-33233037D01*
X134627219Y-33282059D01*
X134514031Y-33423077D01*
X134370429Y-33698906D01*
X134299437Y-33917020D01*
X134419406Y-34163000D01*
X135763000Y-34163000D01*
X135763000Y-34143000D01*
X136017000Y-34143000D01*
X136017000Y-34163000D01*
X137360594Y-34163000D01*
X137480563Y-33917020D01*
X137409571Y-33698906D01*
X137265969Y-33423077D01*
X137152781Y-33282059D01*
X137244494Y-33233037D01*
X137341185Y-33153685D01*
X137420537Y-33056994D01*
X137479502Y-32946680D01*
X137492448Y-32904000D01*
X142225928Y-32904000D01*
X142238188Y-33028482D01*
X142274498Y-33148180D01*
X142333463Y-33258494D01*
X142412815Y-33355185D01*
X142509506Y-33434537D01*
X142619820Y-33493502D01*
X142739518Y-33529812D01*
X142864000Y-33542072D01*
X143478250Y-33539000D01*
X143637000Y-33380250D01*
X143637000Y-32131000D01*
X142387750Y-32131000D01*
X142229000Y-32289750D01*
X142225928Y-32904000D01*
X137492448Y-32904000D01*
X137515812Y-32826982D01*
X137528072Y-32702500D01*
X137528072Y-31186729D01*
X137610801Y-31104000D01*
X142225928Y-31104000D01*
X142229000Y-31718250D01*
X142387750Y-31877000D01*
X143637000Y-31877000D01*
X143637000Y-30627750D01*
X143891000Y-30627750D01*
X143891000Y-31877000D01*
X143911000Y-31877000D01*
X143911000Y-32131000D01*
X143891000Y-32131000D01*
X143891000Y-33380250D01*
X144049750Y-33539000D01*
X144664000Y-33542072D01*
X144788482Y-33529812D01*
X144908180Y-33493502D01*
X145018494Y-33434537D01*
X145115185Y-33355185D01*
X145194537Y-33258494D01*
X145253502Y-33148180D01*
X145259056Y-33129873D01*
X145325495Y-33196312D01*
X145576905Y-33364299D01*
X145856257Y-33480011D01*
X146152816Y-33539000D01*
X146455184Y-33539000D01*
X146712930Y-33487731D01*
X148084001Y-34858804D01*
X148084000Y-36881956D01*
X147929241Y-36985363D01*
X147729363Y-37185241D01*
X147572320Y-37420273D01*
X147464147Y-37681426D01*
X147409000Y-37958665D01*
X147409000Y-38241335D01*
X147464147Y-38518574D01*
X147572320Y-38779727D01*
X147729363Y-39014759D01*
X147929241Y-39214637D01*
X148164273Y-39371680D01*
X148425426Y-39479853D01*
X148702665Y-39535000D01*
X148985335Y-39535000D01*
X149262574Y-39479853D01*
X149523727Y-39371680D01*
X149758759Y-39214637D01*
X149958637Y-39014759D01*
X150115680Y-38779727D01*
X150223853Y-38518574D01*
X150279000Y-38241335D01*
X150279000Y-37958665D01*
X150223853Y-37681426D01*
X150115680Y-37420273D01*
X149958637Y-37185241D01*
X149758759Y-36985363D01*
X149604000Y-36881957D01*
X149604000Y-34581322D01*
X149607676Y-34543999D01*
X149604000Y-34506676D01*
X149604000Y-34506667D01*
X149593003Y-34395014D01*
X149549546Y-34251753D01*
X149502106Y-34163000D01*
X152379000Y-34163000D01*
X152379000Y-35153000D01*
X152435000Y-35467582D01*
X152551296Y-35765194D01*
X152723419Y-36034399D01*
X152944754Y-36264852D01*
X153206795Y-36447696D01*
X153499472Y-36575905D01*
X153625135Y-36606218D01*
X153877000Y-36486740D01*
X153877000Y-34163000D01*
X154131000Y-34163000D01*
X154131000Y-36486740D01*
X154382865Y-36606218D01*
X154508528Y-36575905D01*
X154801205Y-36447696D01*
X155063246Y-36264852D01*
X155284581Y-36034399D01*
X155456704Y-35765194D01*
X155573000Y-35467582D01*
X155629000Y-35153000D01*
X155629000Y-34163000D01*
X154131000Y-34163000D01*
X153877000Y-34163000D01*
X152379000Y-34163000D01*
X149502106Y-34163000D01*
X149478974Y-34119724D01*
X149410264Y-34036000D01*
X149407799Y-34032996D01*
X149407795Y-34032992D01*
X149384001Y-34003999D01*
X149355008Y-33980205D01*
X148293802Y-32919000D01*
X152379000Y-32919000D01*
X152379000Y-33909000D01*
X153877000Y-33909000D01*
X153877000Y-31585260D01*
X154131000Y-31585260D01*
X154131000Y-33909000D01*
X155629000Y-33909000D01*
X155629000Y-32919000D01*
X155573000Y-32604418D01*
X155456704Y-32306806D01*
X155284581Y-32037601D01*
X155063246Y-31807148D01*
X154801205Y-31624304D01*
X154508528Y-31496095D01*
X154382865Y-31465782D01*
X154131000Y-31585260D01*
X153877000Y-31585260D01*
X153625135Y-31465782D01*
X153499472Y-31496095D01*
X153206795Y-31624304D01*
X152944754Y-31807148D01*
X152723419Y-32037601D01*
X152551296Y-32306806D01*
X152435000Y-32604418D01*
X152379000Y-32919000D01*
X148293802Y-32919000D01*
X147787731Y-32412930D01*
X147839000Y-32155184D01*
X147839000Y-31852816D01*
X147780011Y-31556257D01*
X147664299Y-31276905D01*
X147496312Y-31025495D01*
X147282505Y-30811688D01*
X147031095Y-30643701D01*
X146751743Y-30527989D01*
X146455184Y-30469000D01*
X146152816Y-30469000D01*
X145856257Y-30527989D01*
X145576905Y-30643701D01*
X145325495Y-30811688D01*
X145259056Y-30878127D01*
X145253502Y-30859820D01*
X145194537Y-30749506D01*
X145115185Y-30652815D01*
X145018494Y-30573463D01*
X144908180Y-30514498D01*
X144788482Y-30478188D01*
X144664000Y-30465928D01*
X144049750Y-30469000D01*
X143891000Y-30627750D01*
X143637000Y-30627750D01*
X143478250Y-30469000D01*
X142864000Y-30465928D01*
X142739518Y-30478188D01*
X142619820Y-30514498D01*
X142509506Y-30573463D01*
X142412815Y-30652815D01*
X142333463Y-30749506D01*
X142274498Y-30859820D01*
X142238188Y-30979518D01*
X142225928Y-31104000D01*
X137610801Y-31104000D01*
X138954802Y-29760000D01*
X153685199Y-29760000D01*
X155093138Y-31167940D01*
X155112025Y-31203275D01*
X155142431Y-31240324D01*
X155206998Y-31319000D01*
X155236002Y-31342803D01*
X157375928Y-33482730D01*
X157375928Y-34589270D01*
X151189199Y-40776000D01*
X147110325Y-40776000D01*
X147073002Y-40772324D01*
X147035679Y-40776000D01*
X147035669Y-40776000D01*
X146924016Y-40786997D01*
X146780755Y-40830454D01*
X146648726Y-40901026D01*
X146533001Y-40995999D01*
X146509203Y-41024997D01*
X143336201Y-44198000D01*
X139130195Y-44198000D01*
X139036312Y-44057495D01*
X138822505Y-43843688D01*
X138571095Y-43675701D01*
X138291743Y-43559989D01*
X137995184Y-43501000D01*
X137692816Y-43501000D01*
X137396257Y-43559989D01*
X137116905Y-43675701D01*
X136865495Y-43843688D01*
X136651688Y-44057495D01*
X136483701Y-44308905D01*
X136367989Y-44588257D01*
X136309000Y-44884816D01*
X136309000Y-45187184D01*
X136367989Y-45483743D01*
X136483701Y-45763095D01*
X136651688Y-46014505D01*
X136865495Y-46228312D01*
X137116905Y-46396299D01*
X137396257Y-46512011D01*
X137692816Y-46571000D01*
X137995184Y-46571000D01*
X138210001Y-46528270D01*
X138210000Y-48599928D01*
X138170000Y-48599928D01*
X138045518Y-48612188D01*
X137925820Y-48648498D01*
X137815506Y-48707463D01*
X137718815Y-48786815D01*
X137639463Y-48883506D01*
X137580498Y-48993820D01*
X137544188Y-49113518D01*
X137531928Y-49238000D01*
X137531928Y-49278000D01*
X133999322Y-49278000D01*
X133961999Y-49274324D01*
X133924677Y-49278000D01*
X133924667Y-49278000D01*
X133813014Y-49288997D01*
X133669753Y-49332454D01*
X133537723Y-49403026D01*
X133454083Y-49471668D01*
X133421999Y-49497999D01*
X133398201Y-49526997D01*
X131785271Y-51139928D01*
X131200000Y-51139928D01*
X131075518Y-51152188D01*
X130955820Y-51188498D01*
X130845506Y-51247463D01*
X130748815Y-51326815D01*
X130669463Y-51423506D01*
X130610498Y-51533820D01*
X130574188Y-51653518D01*
X130561928Y-51778000D01*
X130561928Y-53378000D01*
X130574188Y-53502482D01*
X130610498Y-53622180D01*
X130669463Y-53732494D01*
X130748815Y-53829185D01*
X130845506Y-53908537D01*
X130955820Y-53967502D01*
X131075518Y-54003812D01*
X131200000Y-54016072D01*
X131207215Y-54016072D01*
X131186903Y-54085298D01*
X132000000Y-54898395D01*
X132813097Y-54085298D01*
X132792785Y-54016072D01*
X132800000Y-54016072D01*
X132924482Y-54003812D01*
X133044180Y-53967502D01*
X133154494Y-53908537D01*
X133251185Y-53829185D01*
X133330537Y-53732494D01*
X133389502Y-53622180D01*
X133425812Y-53502482D01*
X133438072Y-53378000D01*
X133438072Y-51778000D01*
X133425812Y-51653518D01*
X133424758Y-51650043D01*
X134276802Y-50798000D01*
X137531928Y-50798000D01*
X137531928Y-50838000D01*
X137544188Y-50962482D01*
X137580498Y-51082180D01*
X137639463Y-51192494D01*
X137718815Y-51289185D01*
X137815506Y-51368537D01*
X137925820Y-51427502D01*
X138045518Y-51463812D01*
X138053961Y-51464643D01*
X137855363Y-51663241D01*
X137698320Y-51898273D01*
X137590147Y-52159426D01*
X137535000Y-52436665D01*
X137535000Y-52719335D01*
X137571312Y-52901886D01*
X127492998Y-62980201D01*
X127464000Y-63003999D01*
X127440202Y-63032997D01*
X127440201Y-63032998D01*
X127369026Y-63119724D01*
X127298454Y-63251754D01*
X127254998Y-63395015D01*
X127240324Y-63544000D01*
X127244001Y-63581332D01*
X127244000Y-69681198D01*
X126185199Y-70740000D01*
X126056936Y-70740000D01*
X126154759Y-70674637D01*
X126354637Y-70474759D01*
X126511680Y-70239727D01*
X126619853Y-69978574D01*
X126675000Y-69701335D01*
X126675000Y-69418665D01*
X126619853Y-69141426D01*
X126511680Y-68880273D01*
X126354637Y-68645241D01*
X126154759Y-68445363D01*
X125922241Y-68290000D01*
X126154759Y-68134637D01*
X126354637Y-67934759D01*
X126511680Y-67699727D01*
X126619853Y-67438574D01*
X126675000Y-67161335D01*
X126675000Y-66878665D01*
X126619853Y-66601426D01*
X126511680Y-66340273D01*
X126354637Y-66105241D01*
X126154759Y-65905363D01*
X125922241Y-65750000D01*
X126154759Y-65594637D01*
X126354637Y-65394759D01*
X126511680Y-65159727D01*
X126619853Y-64898574D01*
X126675000Y-64621335D01*
X126675000Y-64338665D01*
X126619853Y-64061426D01*
X126511680Y-63800273D01*
X126354637Y-63565241D01*
X126154759Y-63365363D01*
X125922241Y-63210000D01*
X126154759Y-63054637D01*
X126354637Y-62854759D01*
X126511680Y-62619727D01*
X126619853Y-62358574D01*
X126675000Y-62081335D01*
X126675000Y-61798665D01*
X126619853Y-61521426D01*
X126511680Y-61260273D01*
X126354637Y-61025241D01*
X126154759Y-60825363D01*
X125922241Y-60670000D01*
X126154759Y-60514637D01*
X126354637Y-60314759D01*
X126511680Y-60079727D01*
X126619853Y-59818574D01*
X126675000Y-59541335D01*
X126675000Y-59258665D01*
X126619853Y-58981426D01*
X126511680Y-58720273D01*
X126354637Y-58485241D01*
X126154759Y-58285363D01*
X125922241Y-58130000D01*
X126154759Y-57974637D01*
X126354637Y-57774759D01*
X126511680Y-57539727D01*
X126619853Y-57278574D01*
X126675000Y-57001335D01*
X126675000Y-56718665D01*
X126619853Y-56441426D01*
X126511680Y-56180273D01*
X126438468Y-56070702D01*
X131186903Y-56070702D01*
X131258486Y-56314671D01*
X131513996Y-56435571D01*
X131788184Y-56504300D01*
X132070512Y-56518217D01*
X132350130Y-56476787D01*
X132616292Y-56381603D01*
X132741514Y-56314671D01*
X132813097Y-56070702D01*
X132000000Y-55257605D01*
X131186903Y-56070702D01*
X126438468Y-56070702D01*
X126354637Y-55945241D01*
X126154759Y-55745363D01*
X125922241Y-55590000D01*
X126154759Y-55434637D01*
X126354637Y-55234759D01*
X126412265Y-55148512D01*
X130559783Y-55148512D01*
X130601213Y-55428130D01*
X130696397Y-55694292D01*
X130763329Y-55819514D01*
X131007298Y-55891097D01*
X131820395Y-55078000D01*
X132179605Y-55078000D01*
X132992702Y-55891097D01*
X133236671Y-55819514D01*
X133357571Y-55564004D01*
X133426300Y-55289816D01*
X133440217Y-55007488D01*
X133398787Y-54727870D01*
X133303603Y-54461708D01*
X133236671Y-54336486D01*
X132992702Y-54264903D01*
X132179605Y-55078000D01*
X131820395Y-55078000D01*
X131007298Y-54264903D01*
X130763329Y-54336486D01*
X130642429Y-54591996D01*
X130573700Y-54866184D01*
X130559783Y-55148512D01*
X126412265Y-55148512D01*
X126511680Y-54999727D01*
X126619853Y-54738574D01*
X126675000Y-54461335D01*
X126675000Y-54178665D01*
X126619853Y-53901426D01*
X126511680Y-53640273D01*
X126354637Y-53405241D01*
X126154759Y-53205363D01*
X125922241Y-53050000D01*
X126154759Y-52894637D01*
X126354637Y-52694759D01*
X126511680Y-52459727D01*
X126619853Y-52198574D01*
X126675000Y-51921335D01*
X126675000Y-51638665D01*
X126619853Y-51361426D01*
X126511680Y-51100273D01*
X126354637Y-50865241D01*
X126154759Y-50665363D01*
X125922241Y-50510000D01*
X126154759Y-50354637D01*
X126354637Y-50154759D01*
X126511680Y-49919727D01*
X126619853Y-49658574D01*
X126675000Y-49381335D01*
X126675000Y-49098665D01*
X126619853Y-48821426D01*
X126511680Y-48560273D01*
X126354637Y-48325241D01*
X126154759Y-48125363D01*
X125922241Y-47970000D01*
X126154759Y-47814637D01*
X126354637Y-47614759D01*
X126511680Y-47379727D01*
X126619853Y-47118574D01*
X126675000Y-46841335D01*
X126675000Y-46558665D01*
X126619853Y-46281426D01*
X126511680Y-46020273D01*
X126354637Y-45785241D01*
X126154759Y-45585363D01*
X125922241Y-45430000D01*
X126154759Y-45274637D01*
X126354637Y-45074759D01*
X126511680Y-44839727D01*
X126619853Y-44578574D01*
X126675000Y-44301335D01*
X126675000Y-44018665D01*
X126619853Y-43741426D01*
X126511680Y-43480273D01*
X126354637Y-43245241D01*
X126154759Y-43045363D01*
X125922241Y-42890000D01*
X126154759Y-42734637D01*
X126354637Y-42534759D01*
X126458043Y-42380000D01*
X137666678Y-42380000D01*
X137704000Y-42383676D01*
X137741322Y-42380000D01*
X137741333Y-42380000D01*
X137852986Y-42369003D01*
X137996247Y-42325546D01*
X138128276Y-42254974D01*
X138244001Y-42160001D01*
X138267804Y-42130997D01*
X140900114Y-39498688D01*
X141082665Y-39535000D01*
X141365335Y-39535000D01*
X141642574Y-39479853D01*
X141903727Y-39371680D01*
X142138759Y-39214637D01*
X142338637Y-39014759D01*
X142495680Y-38779727D01*
X142603853Y-38518574D01*
X142659000Y-38241335D01*
X142659000Y-37958665D01*
X142603853Y-37681426D01*
X142495680Y-37420273D01*
X142338637Y-37185241D01*
X142138759Y-36985363D01*
X141903727Y-36828320D01*
X141642574Y-36720147D01*
X141365335Y-36665000D01*
X141082665Y-36665000D01*
X140805426Y-36720147D01*
X140544273Y-36828320D01*
X140309241Y-36985363D01*
X140109363Y-37185241D01*
X139952320Y-37420273D01*
X139844147Y-37681426D01*
X139789000Y-37958665D01*
X139789000Y-38241335D01*
X139825312Y-38423886D01*
X137389199Y-40860000D01*
X126458043Y-40860000D01*
X126354637Y-40705241D01*
X126154759Y-40505363D01*
X125922241Y-40350000D01*
X126154759Y-40194637D01*
X126354637Y-39994759D01*
X126511680Y-39759727D01*
X126619853Y-39498574D01*
X126675000Y-39221335D01*
X126675000Y-38938665D01*
X126664478Y-38885764D01*
X129333841Y-38885764D01*
X129381148Y-39109348D01*
X129602516Y-39210237D01*
X129839313Y-39266000D01*
X130082438Y-39274495D01*
X130322549Y-39235395D01*
X130550418Y-39150202D01*
X130626852Y-39109348D01*
X130674159Y-38885764D01*
X130004000Y-38215605D01*
X129333841Y-38885764D01*
X126664478Y-38885764D01*
X126619853Y-38661426D01*
X126511680Y-38400273D01*
X126354637Y-38165241D01*
X126154759Y-37965363D01*
X125919727Y-37808320D01*
X125909135Y-37803933D01*
X126095131Y-37692385D01*
X126303519Y-37503414D01*
X126471037Y-37277420D01*
X126591246Y-37023087D01*
X126631904Y-36889039D01*
X126509915Y-36667000D01*
X125367000Y-36667000D01*
X125367000Y-36687000D01*
X125113000Y-36687000D01*
X125113000Y-36667000D01*
X123970085Y-36667000D01*
X123848096Y-36889039D01*
X123888754Y-37023087D01*
X124008963Y-37277420D01*
X124176481Y-37503414D01*
X124384869Y-37692385D01*
X124570865Y-37803933D01*
X124560273Y-37808320D01*
X124325241Y-37965363D01*
X124125363Y-38165241D01*
X123968320Y-38400273D01*
X123860147Y-38661426D01*
X123805000Y-38938665D01*
X123805000Y-39221335D01*
X123860147Y-39498574D01*
X123968320Y-39759727D01*
X124125363Y-39994759D01*
X124325241Y-40194637D01*
X124557759Y-40350000D01*
X124325241Y-40505363D01*
X124125363Y-40705241D01*
X123968320Y-40940273D01*
X123860147Y-41201426D01*
X123805000Y-41478665D01*
X123805000Y-41761335D01*
X123860147Y-42038574D01*
X123968320Y-42299727D01*
X124125363Y-42534759D01*
X124325241Y-42734637D01*
X124557759Y-42890000D01*
X124325241Y-43045363D01*
X124125363Y-43245241D01*
X123968320Y-43480273D01*
X123860147Y-43741426D01*
X123805000Y-44018665D01*
X123805000Y-44301335D01*
X123860147Y-44578574D01*
X123968320Y-44839727D01*
X124125363Y-45074759D01*
X124325241Y-45274637D01*
X124557759Y-45430000D01*
X124325241Y-45585363D01*
X124125363Y-45785241D01*
X123968320Y-46020273D01*
X123860147Y-46281426D01*
X123805000Y-46558665D01*
X123805000Y-46841335D01*
X123860147Y-47118574D01*
X123968320Y-47379727D01*
X124125363Y-47614759D01*
X124325241Y-47814637D01*
X124557759Y-47970000D01*
X124325241Y-48125363D01*
X124125363Y-48325241D01*
X123968320Y-48560273D01*
X123860147Y-48821426D01*
X123805000Y-49098665D01*
X123805000Y-49381335D01*
X123860147Y-49658574D01*
X123968320Y-49919727D01*
X124125363Y-50154759D01*
X124325241Y-50354637D01*
X124557759Y-50510000D01*
X124325241Y-50665363D01*
X124125363Y-50865241D01*
X123968320Y-51100273D01*
X123860147Y-51361426D01*
X123805000Y-51638665D01*
X123805000Y-51921335D01*
X123860147Y-52198574D01*
X123968320Y-52459727D01*
X124125363Y-52694759D01*
X124325241Y-52894637D01*
X124557759Y-53050000D01*
X124325241Y-53205363D01*
X124125363Y-53405241D01*
X123968320Y-53640273D01*
X123860147Y-53901426D01*
X123805000Y-54178665D01*
X123805000Y-54461335D01*
X123860147Y-54738574D01*
X123968320Y-54999727D01*
X124125363Y-55234759D01*
X124325241Y-55434637D01*
X124557759Y-55590000D01*
X124325241Y-55745363D01*
X124125363Y-55945241D01*
X123968320Y-56180273D01*
X123860147Y-56441426D01*
X123805000Y-56718665D01*
X123805000Y-57001335D01*
X123860147Y-57278574D01*
X123968320Y-57539727D01*
X124125363Y-57774759D01*
X124325241Y-57974637D01*
X124557759Y-58130000D01*
X124325241Y-58285363D01*
X124125363Y-58485241D01*
X123968320Y-58720273D01*
X123860147Y-58981426D01*
X123805000Y-59258665D01*
X123805000Y-59541335D01*
X123860147Y-59818574D01*
X123968320Y-60079727D01*
X124125363Y-60314759D01*
X124325241Y-60514637D01*
X124557759Y-60670000D01*
X124325241Y-60825363D01*
X124125363Y-61025241D01*
X123968320Y-61260273D01*
X123860147Y-61521426D01*
X123805000Y-61798665D01*
X123805000Y-62081335D01*
X123860147Y-62358574D01*
X123968320Y-62619727D01*
X124125363Y-62854759D01*
X124325241Y-63054637D01*
X124557759Y-63210000D01*
X124325241Y-63365363D01*
X124125363Y-63565241D01*
X123968320Y-63800273D01*
X123860147Y-64061426D01*
X123805000Y-64338665D01*
X123805000Y-64621335D01*
X123860147Y-64898574D01*
X123968320Y-65159727D01*
X124125363Y-65394759D01*
X124325241Y-65594637D01*
X124557759Y-65750000D01*
X124325241Y-65905363D01*
X124125363Y-66105241D01*
X123968320Y-66340273D01*
X123860147Y-66601426D01*
X123805000Y-66878665D01*
X123805000Y-67161335D01*
X123860147Y-67438574D01*
X123968320Y-67699727D01*
X124125363Y-67934759D01*
X124325241Y-68134637D01*
X124557759Y-68290000D01*
X124325241Y-68445363D01*
X124125363Y-68645241D01*
X123968320Y-68880273D01*
X123860147Y-69141426D01*
X123805000Y-69418665D01*
X123805000Y-69701335D01*
X123860147Y-69978574D01*
X123968320Y-70239727D01*
X124125363Y-70474759D01*
X124325241Y-70674637D01*
X124423064Y-70740000D01*
X123814802Y-70740000D01*
X114503804Y-61429003D01*
X114480001Y-61399999D01*
X114364276Y-61305026D01*
X114232247Y-61234454D01*
X114088986Y-61190997D01*
X113977333Y-61180000D01*
X113977322Y-61180000D01*
X113940000Y-61176324D01*
X113902678Y-61180000D01*
X111218043Y-61180000D01*
X111114637Y-61025241D01*
X110914759Y-60825363D01*
X110682241Y-60670000D01*
X110914759Y-60514637D01*
X111114637Y-60314759D01*
X111271680Y-60079727D01*
X111379853Y-59818574D01*
X111435000Y-59541335D01*
X111435000Y-59258665D01*
X111379853Y-58981426D01*
X111271680Y-58720273D01*
X111114637Y-58485241D01*
X110914759Y-58285363D01*
X110682241Y-58130000D01*
X110914759Y-57974637D01*
X111114637Y-57774759D01*
X111271680Y-57539727D01*
X111379853Y-57278574D01*
X111435000Y-57001335D01*
X111435000Y-56718665D01*
X111379853Y-56441426D01*
X111271680Y-56180273D01*
X111114637Y-55945241D01*
X110914759Y-55745363D01*
X110682241Y-55590000D01*
X110914759Y-55434637D01*
X111114637Y-55234759D01*
X111271680Y-54999727D01*
X111379853Y-54738574D01*
X111435000Y-54461335D01*
X111435000Y-54178665D01*
X111379853Y-53901426D01*
X111271680Y-53640273D01*
X111114637Y-53405241D01*
X110914759Y-53205363D01*
X110682241Y-53050000D01*
X110914759Y-52894637D01*
X111114637Y-52694759D01*
X111271680Y-52459727D01*
X111379853Y-52198574D01*
X111435000Y-51921335D01*
X111435000Y-51638665D01*
X111379853Y-51361426D01*
X111271680Y-51100273D01*
X111114637Y-50865241D01*
X110914759Y-50665363D01*
X110682241Y-50510000D01*
X110914759Y-50354637D01*
X111114637Y-50154759D01*
X111271680Y-49919727D01*
X111379853Y-49658574D01*
X111435000Y-49381335D01*
X111435000Y-49098665D01*
X111379853Y-48821426D01*
X111271680Y-48560273D01*
X111114637Y-48325241D01*
X110914759Y-48125363D01*
X110682241Y-47970000D01*
X110914759Y-47814637D01*
X111114637Y-47614759D01*
X111271680Y-47379727D01*
X111379853Y-47118574D01*
X111435000Y-46841335D01*
X111435000Y-46558665D01*
X111379853Y-46281426D01*
X111271680Y-46020273D01*
X111114637Y-45785241D01*
X110914759Y-45585363D01*
X110682241Y-45430000D01*
X110914759Y-45274637D01*
X111114637Y-45074759D01*
X111271680Y-44839727D01*
X111379853Y-44578574D01*
X111435000Y-44301335D01*
X111435000Y-44018665D01*
X111379853Y-43741426D01*
X111271680Y-43480273D01*
X111114637Y-43245241D01*
X110914759Y-43045363D01*
X110679727Y-42888320D01*
X110669135Y-42883933D01*
X110855131Y-42772385D01*
X111063519Y-42583414D01*
X111231037Y-42357420D01*
X111351246Y-42103087D01*
X111391904Y-41969039D01*
X111269915Y-41747000D01*
X110127000Y-41747000D01*
X110127000Y-41767000D01*
X109873000Y-41767000D01*
X109873000Y-41747000D01*
X108730085Y-41747000D01*
X108608096Y-41969039D01*
X108648754Y-42103087D01*
X108768963Y-42357420D01*
X108936481Y-42583414D01*
X109144869Y-42772385D01*
X109330865Y-42883933D01*
X109320273Y-42888320D01*
X109085241Y-43045363D01*
X108885363Y-43245241D01*
X108728320Y-43480273D01*
X108620147Y-43741426D01*
X108565000Y-44018665D01*
X108565000Y-44301335D01*
X108620147Y-44578574D01*
X108728320Y-44839727D01*
X108885363Y-45074759D01*
X109085241Y-45274637D01*
X109317759Y-45430000D01*
X109085241Y-45585363D01*
X108885363Y-45785241D01*
X108728320Y-46020273D01*
X108620147Y-46281426D01*
X108565000Y-46558665D01*
X108565000Y-46841335D01*
X108620147Y-47118574D01*
X108728320Y-47379727D01*
X108885363Y-47614759D01*
X109085241Y-47814637D01*
X109317759Y-47970000D01*
X109085241Y-48125363D01*
X108885363Y-48325241D01*
X108728320Y-48560273D01*
X108620147Y-48821426D01*
X108565000Y-49098665D01*
X108565000Y-49381335D01*
X108620147Y-49658574D01*
X108728320Y-49919727D01*
X108885363Y-50154759D01*
X109085241Y-50354637D01*
X109317759Y-50510000D01*
X109085241Y-50665363D01*
X108885363Y-50865241D01*
X108728320Y-51100273D01*
X108620147Y-51361426D01*
X108565000Y-51638665D01*
X108565000Y-51921335D01*
X108620147Y-52198574D01*
X108728320Y-52459727D01*
X108885363Y-52694759D01*
X109085241Y-52894637D01*
X109317759Y-53050000D01*
X109085241Y-53205363D01*
X108885363Y-53405241D01*
X108728320Y-53640273D01*
X108620147Y-53901426D01*
X108565000Y-54178665D01*
X108565000Y-54461335D01*
X108620147Y-54738574D01*
X108728320Y-54999727D01*
X108885363Y-55234759D01*
X109085241Y-55434637D01*
X109317759Y-55590000D01*
X109085241Y-55745363D01*
X108885363Y-55945241D01*
X108728320Y-56180273D01*
X108620147Y-56441426D01*
X108565000Y-56718665D01*
X108565000Y-57001335D01*
X108620147Y-57278574D01*
X108728320Y-57539727D01*
X108885363Y-57774759D01*
X109085241Y-57974637D01*
X109317759Y-58130000D01*
X109085241Y-58285363D01*
X108885363Y-58485241D01*
X108728320Y-58720273D01*
X108620147Y-58981426D01*
X108565000Y-59258665D01*
X108565000Y-59541335D01*
X108620147Y-59818574D01*
X108728320Y-60079727D01*
X108885363Y-60314759D01*
X109085241Y-60514637D01*
X109317759Y-60670000D01*
X109085241Y-60825363D01*
X108885363Y-61025241D01*
X108728320Y-61260273D01*
X108620147Y-61521426D01*
X108565000Y-61798665D01*
X108565000Y-62081335D01*
X108620147Y-62358574D01*
X108728320Y-62619727D01*
X108885363Y-62854759D01*
X109085241Y-63054637D01*
X109317759Y-63210000D01*
X109085241Y-63365363D01*
X108885363Y-63565241D01*
X108728320Y-63800273D01*
X108620147Y-64061426D01*
X108565000Y-64338665D01*
X108565000Y-64621335D01*
X108601312Y-64803886D01*
X107489003Y-65916196D01*
X107459999Y-65939999D01*
X107404871Y-66007174D01*
X107365026Y-66055724D01*
X107307025Y-66164235D01*
X107294454Y-66187754D01*
X107250997Y-66331015D01*
X107240000Y-66442668D01*
X107240000Y-66442678D01*
X107236324Y-66480000D01*
X107240000Y-66517323D01*
X107240001Y-70962668D01*
X107236324Y-71000000D01*
X107240001Y-71037333D01*
X107250998Y-71148986D01*
X107264180Y-71192442D01*
X107294454Y-71292246D01*
X107365026Y-71424276D01*
X107409949Y-71479014D01*
X107460000Y-71540001D01*
X107488998Y-71563799D01*
X108936200Y-73011002D01*
X108959999Y-73040001D01*
X109075724Y-73134974D01*
X109207753Y-73205546D01*
X109351014Y-73249003D01*
X109462667Y-73260000D01*
X109462676Y-73260000D01*
X109499999Y-73263676D01*
X109537322Y-73260000D01*
X126153199Y-73260000D01*
X130440201Y-77547003D01*
X130463999Y-77576001D01*
X130579724Y-77670974D01*
X130711753Y-77741546D01*
X130855014Y-77785003D01*
X130966667Y-77796000D01*
X130966675Y-77796000D01*
X131004000Y-77799676D01*
X131041325Y-77796000D01*
X133524678Y-77796000D01*
X133562000Y-77799676D01*
X133599322Y-77796000D01*
X133599333Y-77796000D01*
X133710986Y-77785003D01*
X133854247Y-77741546D01*
X133986276Y-77670974D01*
X134102001Y-77576001D01*
X134125804Y-77546997D01*
X134615762Y-77057039D01*
X137578096Y-77057039D01*
X137618754Y-77191087D01*
X137738963Y-77445420D01*
X137906481Y-77671414D01*
X138114869Y-77860385D01*
X138356119Y-78005070D01*
X138620960Y-78099909D01*
X138843000Y-77978624D01*
X138843000Y-76835000D01*
X139097000Y-76835000D01*
X139097000Y-77978624D01*
X139319040Y-78099909D01*
X139583881Y-78005070D01*
X139825131Y-77860385D01*
X140033519Y-77671414D01*
X140201037Y-77445420D01*
X140321246Y-77191087D01*
X140361904Y-77057039D01*
X140239915Y-76835000D01*
X139097000Y-76835000D01*
X138843000Y-76835000D01*
X137700085Y-76835000D01*
X137578096Y-77057039D01*
X134615762Y-77057039D01*
X137535000Y-74137802D01*
X137535000Y-74309335D01*
X137590147Y-74586574D01*
X137698320Y-74847727D01*
X137855363Y-75082759D01*
X138055241Y-75282637D01*
X138290273Y-75439680D01*
X138300865Y-75444067D01*
X138114869Y-75555615D01*
X137906481Y-75744586D01*
X137738963Y-75970580D01*
X137618754Y-76224913D01*
X137578096Y-76358961D01*
X137700085Y-76581000D01*
X138843000Y-76581000D01*
X138843000Y-76561000D01*
X139097000Y-76561000D01*
X139097000Y-76581000D01*
X140239915Y-76581000D01*
X140361904Y-76358961D01*
X140321246Y-76224913D01*
X140201037Y-75970580D01*
X140033519Y-75744586D01*
X139825131Y-75555615D01*
X139639135Y-75444067D01*
X139649727Y-75439680D01*
X139884759Y-75282637D01*
X140084637Y-75082759D01*
X140241680Y-74847727D01*
X140349853Y-74586574D01*
X140405000Y-74309335D01*
X140405000Y-74026665D01*
X140368688Y-73844114D01*
X142015004Y-72197798D01*
X142044001Y-72174001D01*
X142138974Y-72058276D01*
X142209546Y-71926247D01*
X142253003Y-71782986D01*
X142264000Y-71671333D01*
X142264000Y-71671324D01*
X142267676Y-71634001D01*
X142264000Y-71596678D01*
X142264000Y-68946665D01*
X145155000Y-68946665D01*
X145155000Y-69229335D01*
X145210147Y-69506574D01*
X145318320Y-69767727D01*
X145475363Y-70002759D01*
X145675241Y-70202637D01*
X145907759Y-70358000D01*
X145675241Y-70513363D01*
X145475363Y-70713241D01*
X145318320Y-70948273D01*
X145210147Y-71209426D01*
X145155000Y-71486665D01*
X145155000Y-71769335D01*
X145210147Y-72046574D01*
X145318320Y-72307727D01*
X145475363Y-72542759D01*
X145675241Y-72742637D01*
X145907759Y-72898000D01*
X145675241Y-73053363D01*
X145475363Y-73253241D01*
X145318320Y-73488273D01*
X145210147Y-73749426D01*
X145155000Y-74026665D01*
X145155000Y-74309335D01*
X145210147Y-74586574D01*
X145318320Y-74847727D01*
X145475363Y-75082759D01*
X145675241Y-75282637D01*
X145907759Y-75438000D01*
X145675241Y-75593363D01*
X145475363Y-75793241D01*
X145318320Y-76028273D01*
X145210147Y-76289426D01*
X145155000Y-76566665D01*
X145155000Y-76849335D01*
X145210147Y-77126574D01*
X145318320Y-77387727D01*
X145475363Y-77622759D01*
X145675241Y-77822637D01*
X145910273Y-77979680D01*
X146171426Y-78087853D01*
X146448665Y-78143000D01*
X146731335Y-78143000D01*
X147008574Y-78087853D01*
X147269727Y-77979680D01*
X147504759Y-77822637D01*
X147704637Y-77622759D01*
X147808043Y-77468000D01*
X158801957Y-77468000D01*
X158905363Y-77622759D01*
X159105241Y-77822637D01*
X159340273Y-77979680D01*
X159601426Y-78087853D01*
X159878665Y-78143000D01*
X160161335Y-78143000D01*
X160438574Y-78087853D01*
X160699727Y-77979680D01*
X160934759Y-77822637D01*
X161134637Y-77622759D01*
X161291680Y-77387727D01*
X161399853Y-77126574D01*
X161455000Y-76849335D01*
X161455000Y-76566665D01*
X161399853Y-76289426D01*
X161291680Y-76028273D01*
X161134637Y-75793241D01*
X160934759Y-75593363D01*
X160699727Y-75436320D01*
X160438574Y-75328147D01*
X160161335Y-75273000D01*
X159878665Y-75273000D01*
X159601426Y-75328147D01*
X159340273Y-75436320D01*
X159105241Y-75593363D01*
X158905363Y-75793241D01*
X158801957Y-75948000D01*
X147808043Y-75948000D01*
X147704637Y-75793241D01*
X147504759Y-75593363D01*
X147272241Y-75438000D01*
X147504759Y-75282637D01*
X147704637Y-75082759D01*
X147808043Y-74928000D01*
X150322678Y-74928000D01*
X150360000Y-74931676D01*
X150397322Y-74928000D01*
X150397333Y-74928000D01*
X150508986Y-74917003D01*
X150652247Y-74873546D01*
X150784276Y-74802974D01*
X150900001Y-74708001D01*
X150923804Y-74678997D01*
X151346114Y-74256688D01*
X151528665Y-74293000D01*
X151811335Y-74293000D01*
X152088574Y-74237853D01*
X152349727Y-74129680D01*
X152584759Y-73972637D01*
X152741297Y-73816099D01*
X153936200Y-75011002D01*
X153959999Y-75040001D01*
X154075724Y-75134974D01*
X154207753Y-75205546D01*
X154351014Y-75249003D01*
X154462667Y-75260000D01*
X154462675Y-75260000D01*
X154500000Y-75263676D01*
X154537325Y-75260000D01*
X161185199Y-75260000D01*
X164569202Y-78644004D01*
X164593000Y-78673002D01*
X164708725Y-78767975D01*
X164840754Y-78838547D01*
X164984015Y-78882004D01*
X165095668Y-78893001D01*
X165095677Y-78893001D01*
X165133000Y-78896677D01*
X165170323Y-78893001D01*
X175246410Y-78893001D01*
X174941331Y-79019369D01*
X174575271Y-79263962D01*
X174263962Y-79575271D01*
X174019369Y-79941331D01*
X173850890Y-80348075D01*
X173765000Y-80779872D01*
X173765000Y-81220128D01*
X173850890Y-81651925D01*
X174019369Y-82058669D01*
X174263962Y-82424729D01*
X174575271Y-82736038D01*
X174941331Y-82980631D01*
X175348075Y-83149110D01*
X175779872Y-83235000D01*
X176220128Y-83235000D01*
X176651925Y-83149110D01*
X177058669Y-82980631D01*
X177424729Y-82736038D01*
X177736038Y-82424729D01*
X177980631Y-82058669D01*
X178149110Y-81651925D01*
X178235000Y-81220128D01*
X178235000Y-80890980D01*
X180273437Y-80890980D01*
X180344429Y-81109094D01*
X180488031Y-81384923D01*
X180682685Y-81627437D01*
X180920911Y-81827316D01*
X181193554Y-81976879D01*
X181490137Y-82070378D01*
X181737000Y-81943570D01*
X181737000Y-80645000D01*
X181991000Y-80645000D01*
X181991000Y-81943570D01*
X182237863Y-82070378D01*
X182534446Y-81976879D01*
X182807089Y-81827316D01*
X183045315Y-81627437D01*
X183239969Y-81384923D01*
X183383571Y-81109094D01*
X183454563Y-80890980D01*
X183334594Y-80645000D01*
X181991000Y-80645000D01*
X181737000Y-80645000D01*
X180393406Y-80645000D01*
X180273437Y-80890980D01*
X178235000Y-80890980D01*
X178235000Y-80779872D01*
X178149110Y-80348075D01*
X177980631Y-79941331D01*
X177736038Y-79575271D01*
X177424729Y-79263962D01*
X177058669Y-79019369D01*
X176753590Y-78893001D01*
X180513763Y-78893001D01*
X180688537Y-79105963D01*
X180867899Y-79253163D01*
X180682685Y-79408563D01*
X180488031Y-79651077D01*
X180344429Y-79926906D01*
X180273437Y-80145020D01*
X180393406Y-80391000D01*
X181737000Y-80391000D01*
X181737000Y-80371000D01*
X181991000Y-80371000D01*
X181991000Y-80391000D01*
X183334594Y-80391000D01*
X183454563Y-80145020D01*
X183383571Y-79926906D01*
X183239969Y-79651077D01*
X183045315Y-79408563D01*
X182860101Y-79253163D01*
X183039463Y-79105963D01*
X183237845Y-78864235D01*
X183385255Y-78588449D01*
X183476030Y-78289204D01*
X183506681Y-77978000D01*
X183476030Y-77666796D01*
X183385255Y-77367551D01*
X183237845Y-77091765D01*
X183134554Y-76965905D01*
X183218494Y-76921037D01*
X183315185Y-76841685D01*
X183394537Y-76744994D01*
X183453502Y-76634680D01*
X183489812Y-76514982D01*
X183502072Y-76390500D01*
X183502072Y-74485500D01*
X183489812Y-74361018D01*
X183453502Y-74241320D01*
X183394537Y-74131006D01*
X183315185Y-74034315D01*
X183218494Y-73954963D01*
X183108180Y-73895998D01*
X182988482Y-73859688D01*
X182864000Y-73847428D01*
X180864000Y-73847428D01*
X180739518Y-73859688D01*
X180619820Y-73895998D01*
X180509506Y-73954963D01*
X180412815Y-74034315D01*
X180333463Y-74131006D01*
X180274498Y-74241320D01*
X180238188Y-74361018D01*
X180225928Y-74485500D01*
X180225928Y-74678000D01*
X179599322Y-74678000D01*
X179561999Y-74674324D01*
X179524676Y-74678000D01*
X179524667Y-74678000D01*
X179413014Y-74688997D01*
X179269753Y-74732454D01*
X179137724Y-74803026D01*
X179021999Y-74897999D01*
X178998201Y-74926997D01*
X177977199Y-75948000D01*
X168858043Y-75948000D01*
X168754637Y-75793241D01*
X168554759Y-75593363D01*
X168319727Y-75436320D01*
X168058574Y-75328147D01*
X167781335Y-75273000D01*
X167498665Y-75273000D01*
X167221426Y-75328147D01*
X166960273Y-75436320D01*
X166725241Y-75593363D01*
X166525363Y-75793241D01*
X166368320Y-76028273D01*
X166260147Y-76289426D01*
X166205000Y-76566665D01*
X166205000Y-76849335D01*
X166260147Y-77126574D01*
X166362220Y-77373001D01*
X165447803Y-77373001D01*
X162063804Y-73989003D01*
X162040001Y-73959999D01*
X161924276Y-73865026D01*
X161792247Y-73794454D01*
X161648986Y-73750997D01*
X161537333Y-73740000D01*
X161537322Y-73740000D01*
X161500000Y-73736324D01*
X161462678Y-73740000D01*
X154814802Y-73740000D01*
X153421804Y-72347003D01*
X153398001Y-72317999D01*
X153282276Y-72223026D01*
X153150247Y-72152454D01*
X153006986Y-72108997D01*
X152895333Y-72098000D01*
X152895322Y-72098000D01*
X152887531Y-72097233D01*
X152784637Y-71943241D01*
X152618057Y-71776661D01*
X152714180Y-71747502D01*
X152824494Y-71688537D01*
X152921185Y-71609185D01*
X153000537Y-71512494D01*
X153014343Y-71486665D01*
X158585000Y-71486665D01*
X158585000Y-71769335D01*
X158640147Y-72046574D01*
X158748320Y-72307727D01*
X158905363Y-72542759D01*
X159105241Y-72742637D01*
X159340273Y-72899680D01*
X159601426Y-73007853D01*
X159878665Y-73063000D01*
X160161335Y-73063000D01*
X160438574Y-73007853D01*
X160699727Y-72899680D01*
X160934759Y-72742637D01*
X161134637Y-72542759D01*
X161291680Y-72307727D01*
X161399853Y-72046574D01*
X161455000Y-71769335D01*
X161455000Y-71486665D01*
X166205000Y-71486665D01*
X166205000Y-71769335D01*
X166260147Y-72046574D01*
X166368320Y-72307727D01*
X166525363Y-72542759D01*
X166725241Y-72742637D01*
X166960273Y-72899680D01*
X167221426Y-73007853D01*
X167498665Y-73063000D01*
X167781335Y-73063000D01*
X168058574Y-73007853D01*
X168319727Y-72899680D01*
X168554759Y-72742637D01*
X168754637Y-72542759D01*
X168858043Y-72388000D01*
X172936678Y-72388000D01*
X172974000Y-72391676D01*
X173011322Y-72388000D01*
X173011333Y-72388000D01*
X173122986Y-72377003D01*
X173266247Y-72333546D01*
X173398276Y-72262974D01*
X173514001Y-72168001D01*
X173537804Y-72138997D01*
X180237232Y-65439570D01*
X180251970Y-65589204D01*
X180342745Y-65888449D01*
X180490155Y-66164235D01*
X180688537Y-66405963D01*
X180861609Y-66548000D01*
X180688537Y-66690037D01*
X180490155Y-66931765D01*
X180342745Y-67207551D01*
X180251970Y-67506796D01*
X180221319Y-67818000D01*
X180251970Y-68129204D01*
X180342745Y-68428449D01*
X180490155Y-68704235D01*
X180688537Y-68945963D01*
X180930265Y-69144345D01*
X181206051Y-69291755D01*
X181505296Y-69382530D01*
X181738514Y-69405500D01*
X181989486Y-69405500D01*
X182222704Y-69382530D01*
X182521949Y-69291755D01*
X182797735Y-69144345D01*
X183039463Y-68945963D01*
X183237845Y-68704235D01*
X183385255Y-68428449D01*
X183476030Y-68129204D01*
X183506681Y-67818000D01*
X183476030Y-67506796D01*
X183385255Y-67207551D01*
X183237845Y-66931765D01*
X183039463Y-66690037D01*
X182866391Y-66548000D01*
X183039463Y-66405963D01*
X183237845Y-66164235D01*
X183385255Y-65888449D01*
X183476030Y-65589204D01*
X183506681Y-65278000D01*
X183476030Y-64966796D01*
X183385255Y-64667551D01*
X183237845Y-64391765D01*
X183134554Y-64265905D01*
X183218494Y-64221037D01*
X183315185Y-64141685D01*
X183394537Y-64044994D01*
X183453502Y-63934680D01*
X183489812Y-63814982D01*
X183502072Y-63690500D01*
X183502072Y-61785500D01*
X183489812Y-61661018D01*
X183453502Y-61541320D01*
X183394537Y-61431006D01*
X183315185Y-61334315D01*
X183218494Y-61254963D01*
X183108180Y-61195998D01*
X182988482Y-61159688D01*
X182864000Y-61147428D01*
X180864000Y-61147428D01*
X180739518Y-61159688D01*
X180619820Y-61195998D01*
X180509506Y-61254963D01*
X180412815Y-61334315D01*
X180333463Y-61431006D01*
X180274498Y-61541320D01*
X180238188Y-61661018D01*
X180225928Y-61785500D01*
X180225928Y-63301270D01*
X172659199Y-70868000D01*
X168858043Y-70868000D01*
X168754637Y-70713241D01*
X168554759Y-70513363D01*
X168319727Y-70356320D01*
X168058574Y-70248147D01*
X167781335Y-70193000D01*
X167498665Y-70193000D01*
X167221426Y-70248147D01*
X166960273Y-70356320D01*
X166725241Y-70513363D01*
X166525363Y-70713241D01*
X166368320Y-70948273D01*
X166260147Y-71209426D01*
X166205000Y-71486665D01*
X161455000Y-71486665D01*
X161399853Y-71209426D01*
X161291680Y-70948273D01*
X161134637Y-70713241D01*
X160934759Y-70513363D01*
X160699727Y-70356320D01*
X160438574Y-70248147D01*
X160161335Y-70193000D01*
X159878665Y-70193000D01*
X159601426Y-70248147D01*
X159340273Y-70356320D01*
X159105241Y-70513363D01*
X158905363Y-70713241D01*
X158748320Y-70948273D01*
X158640147Y-71209426D01*
X158585000Y-71486665D01*
X153014343Y-71486665D01*
X153059502Y-71402180D01*
X153095812Y-71282482D01*
X153108072Y-71158000D01*
X153108072Y-69558000D01*
X153095812Y-69433518D01*
X153059502Y-69313820D01*
X153000537Y-69203506D01*
X152921185Y-69106815D01*
X152824494Y-69027463D01*
X152714180Y-68968498D01*
X152594482Y-68932188D01*
X152470000Y-68919928D01*
X151306729Y-68919928D01*
X150963804Y-68577003D01*
X150940001Y-68547999D01*
X150824276Y-68453026D01*
X150692247Y-68382454D01*
X150548986Y-68338997D01*
X150437333Y-68328000D01*
X150437322Y-68328000D01*
X150400000Y-68324324D01*
X150362678Y-68328000D01*
X147808043Y-68328000D01*
X147704637Y-68173241D01*
X147504759Y-67973363D01*
X147350000Y-67869957D01*
X147350000Y-67764801D01*
X148515003Y-66599799D01*
X148544001Y-66576001D01*
X148613222Y-66491655D01*
X148638974Y-66460277D01*
X148709546Y-66328247D01*
X148731363Y-66256324D01*
X148753003Y-66184986D01*
X148764000Y-66073333D01*
X148764000Y-66073323D01*
X148767676Y-66036000D01*
X148764000Y-65998677D01*
X148764000Y-65574072D01*
X148904000Y-65574072D01*
X149028482Y-65561812D01*
X149148180Y-65525502D01*
X149258494Y-65466537D01*
X149355185Y-65387185D01*
X149434537Y-65290494D01*
X149493502Y-65180180D01*
X149529812Y-65060482D01*
X149542072Y-64936000D01*
X149542072Y-63136000D01*
X149529812Y-63011518D01*
X149493502Y-62891820D01*
X149434537Y-62781506D01*
X149355185Y-62684815D01*
X149258494Y-62605463D01*
X149148180Y-62546498D01*
X149028482Y-62510188D01*
X148904000Y-62497928D01*
X147104000Y-62497928D01*
X146979518Y-62510188D01*
X146859820Y-62546498D01*
X146749506Y-62605463D01*
X146652815Y-62684815D01*
X146573463Y-62781506D01*
X146514498Y-62891820D01*
X146478188Y-63011518D01*
X146465928Y-63136000D01*
X146465928Y-64936000D01*
X146478188Y-65060482D01*
X146514498Y-65180180D01*
X146573463Y-65290494D01*
X146652815Y-65387185D01*
X146749506Y-65466537D01*
X146859820Y-65525502D01*
X146979518Y-65561812D01*
X147104000Y-65574072D01*
X147244001Y-65574072D01*
X147244001Y-65721197D01*
X146079003Y-66886196D01*
X146049999Y-66909999D01*
X145994871Y-66977174D01*
X145955026Y-67025724D01*
X145945365Y-67043799D01*
X145884454Y-67157754D01*
X145840997Y-67301015D01*
X145830000Y-67412668D01*
X145830000Y-67412678D01*
X145826324Y-67450000D01*
X145830000Y-67487323D01*
X145830000Y-67869956D01*
X145675241Y-67973363D01*
X145475363Y-68173241D01*
X145318320Y-68408273D01*
X145210147Y-68669426D01*
X145155000Y-68946665D01*
X142264000Y-68946665D01*
X142264000Y-57689322D01*
X142267676Y-57651999D01*
X142264000Y-57614676D01*
X142264000Y-57614667D01*
X142253003Y-57503014D01*
X142209546Y-57359753D01*
X142138974Y-57227724D01*
X142044001Y-57111999D01*
X142015003Y-57088201D01*
X140368688Y-55441886D01*
X140405000Y-55259335D01*
X140405000Y-54976665D01*
X140349853Y-54699426D01*
X140241680Y-54438273D01*
X140084637Y-54203241D01*
X139884759Y-54003363D01*
X139652241Y-53848000D01*
X139884759Y-53692637D01*
X140084637Y-53492759D01*
X140241680Y-53257727D01*
X140349853Y-52996574D01*
X140405000Y-52719335D01*
X140405000Y-52436665D01*
X140349853Y-52159426D01*
X140241680Y-51898273D01*
X140084637Y-51663241D01*
X139886039Y-51464643D01*
X139894482Y-51463812D01*
X140014180Y-51427502D01*
X140124494Y-51368537D01*
X140221185Y-51289185D01*
X140300537Y-51192494D01*
X140359502Y-51082180D01*
X140395812Y-50962482D01*
X140408072Y-50838000D01*
X140408072Y-49896665D01*
X145155000Y-49896665D01*
X145155000Y-50179335D01*
X145210147Y-50456574D01*
X145318320Y-50717727D01*
X145475363Y-50952759D01*
X145675241Y-51152637D01*
X145907759Y-51308000D01*
X145675241Y-51463363D01*
X145475363Y-51663241D01*
X145318320Y-51898273D01*
X145210147Y-52159426D01*
X145155000Y-52436665D01*
X145155000Y-52719335D01*
X145210147Y-52996574D01*
X145318320Y-53257727D01*
X145475363Y-53492759D01*
X145675241Y-53692637D01*
X145907759Y-53848000D01*
X145675241Y-54003363D01*
X145475363Y-54203241D01*
X145318320Y-54438273D01*
X145210147Y-54699426D01*
X145155000Y-54976665D01*
X145155000Y-55259335D01*
X145210147Y-55536574D01*
X145318320Y-55797727D01*
X145475363Y-56032759D01*
X145675241Y-56232637D01*
X145907759Y-56388000D01*
X145675241Y-56543363D01*
X145475363Y-56743241D01*
X145318320Y-56978273D01*
X145210147Y-57239426D01*
X145155000Y-57516665D01*
X145155000Y-57799335D01*
X145210147Y-58076574D01*
X145318320Y-58337727D01*
X145475363Y-58572759D01*
X145675241Y-58772637D01*
X145910273Y-58929680D01*
X146171426Y-59037853D01*
X146448665Y-59093000D01*
X146731335Y-59093000D01*
X147008574Y-59037853D01*
X147269727Y-58929680D01*
X147504759Y-58772637D01*
X147704637Y-58572759D01*
X147808043Y-58418000D01*
X149311199Y-58418000D01*
X153062201Y-62169003D01*
X153085999Y-62198001D01*
X153201724Y-62292974D01*
X153333753Y-62363546D01*
X153477014Y-62407003D01*
X153588667Y-62418000D01*
X153588676Y-62418000D01*
X153625999Y-62421676D01*
X153663322Y-62418000D01*
X158547957Y-62418000D01*
X158651363Y-62572759D01*
X158851241Y-62772637D01*
X159086273Y-62929680D01*
X159347426Y-63037853D01*
X159624665Y-63093000D01*
X159907335Y-63093000D01*
X160184574Y-63037853D01*
X160445727Y-62929680D01*
X160680759Y-62772637D01*
X160880637Y-62572759D01*
X161037680Y-62337727D01*
X161145853Y-62076574D01*
X161201000Y-61799335D01*
X161201000Y-61516665D01*
X161145853Y-61239426D01*
X161037680Y-60978273D01*
X160880637Y-60743241D01*
X160680759Y-60543363D01*
X160445727Y-60386320D01*
X160184574Y-60278147D01*
X159907335Y-60223000D01*
X159624665Y-60223000D01*
X159347426Y-60278147D01*
X159086273Y-60386320D01*
X158851241Y-60543363D01*
X158651363Y-60743241D01*
X158547957Y-60898000D01*
X153940802Y-60898000D01*
X150189804Y-57147003D01*
X150166001Y-57117999D01*
X150050276Y-57023026D01*
X149918247Y-56952454D01*
X149774986Y-56908997D01*
X149663333Y-56898000D01*
X149663322Y-56898000D01*
X149626000Y-56894324D01*
X149588678Y-56898000D01*
X147808043Y-56898000D01*
X147704637Y-56743241D01*
X147504759Y-56543363D01*
X147272241Y-56388000D01*
X147504759Y-56232637D01*
X147704637Y-56032759D01*
X147808043Y-55878000D01*
X148884678Y-55878000D01*
X148922000Y-55881676D01*
X148959322Y-55878000D01*
X148959333Y-55878000D01*
X149070986Y-55867003D01*
X149214247Y-55823546D01*
X149346276Y-55752974D01*
X149462001Y-55658001D01*
X149485804Y-55628997D01*
X150489946Y-54624856D01*
X150555363Y-54722759D01*
X150755241Y-54922637D01*
X150990273Y-55079680D01*
X151251426Y-55187853D01*
X151528665Y-55243000D01*
X151811335Y-55243000D01*
X151993887Y-55206688D01*
X156334200Y-59547002D01*
X156357999Y-59576001D01*
X156386997Y-59599799D01*
X156473724Y-59670974D01*
X156605753Y-59741546D01*
X156749014Y-59785003D01*
X156898000Y-59799677D01*
X156935333Y-59796000D01*
X161689199Y-59796000D01*
X165187202Y-63294004D01*
X165211000Y-63323002D01*
X165326725Y-63417975D01*
X165458754Y-63488547D01*
X165602015Y-63532004D01*
X165713668Y-63543001D01*
X165713676Y-63543001D01*
X165751001Y-63546677D01*
X165788326Y-63543001D01*
X171621677Y-63543001D01*
X171658999Y-63546677D01*
X171696321Y-63543001D01*
X171696332Y-63543001D01*
X171807985Y-63532004D01*
X171951246Y-63488547D01*
X172083275Y-63417975D01*
X172199000Y-63323002D01*
X172222803Y-63293998D01*
X180271800Y-55245002D01*
X180393405Y-55245002D01*
X180273437Y-55490980D01*
X180344429Y-55709094D01*
X180488031Y-55984923D01*
X180682685Y-56227437D01*
X180920911Y-56427316D01*
X181193554Y-56576879D01*
X181490137Y-56670378D01*
X181737000Y-56543570D01*
X181737000Y-55245000D01*
X181991000Y-55245000D01*
X181991000Y-56543570D01*
X182237863Y-56670378D01*
X182534446Y-56576879D01*
X182807089Y-56427316D01*
X183045315Y-56227437D01*
X183239969Y-55984923D01*
X183383571Y-55709094D01*
X183454563Y-55490980D01*
X183334594Y-55245000D01*
X181991000Y-55245000D01*
X181737000Y-55245000D01*
X181717000Y-55245000D01*
X181717000Y-54991000D01*
X181737000Y-54991000D01*
X181737000Y-54971000D01*
X181991000Y-54971000D01*
X181991000Y-54991000D01*
X183334594Y-54991000D01*
X183454563Y-54745020D01*
X183383571Y-54526906D01*
X183239969Y-54251077D01*
X183045315Y-54008563D01*
X182860101Y-53853163D01*
X183039463Y-53705963D01*
X183237845Y-53464235D01*
X183385255Y-53188449D01*
X183476030Y-52889204D01*
X183506681Y-52578000D01*
X183476030Y-52266796D01*
X183385255Y-51967551D01*
X183237845Y-51691765D01*
X183134554Y-51565905D01*
X183218494Y-51521037D01*
X183315185Y-51441685D01*
X183394537Y-51344994D01*
X183453502Y-51234680D01*
X183489812Y-51114982D01*
X183502072Y-50990500D01*
X183502072Y-49085500D01*
X183489812Y-48961018D01*
X183453502Y-48841320D01*
X183394537Y-48731006D01*
X183315185Y-48634315D01*
X183218494Y-48554963D01*
X183108180Y-48495998D01*
X182988482Y-48459688D01*
X182864000Y-48447428D01*
X180864000Y-48447428D01*
X180739518Y-48459688D01*
X180619820Y-48495998D01*
X180509506Y-48554963D01*
X180412815Y-48634315D01*
X180333463Y-48731006D01*
X180274498Y-48841320D01*
X180238188Y-48961018D01*
X180225928Y-49085500D01*
X180225928Y-50601270D01*
X173733003Y-57094196D01*
X173732997Y-57094201D01*
X169929199Y-60898000D01*
X168604043Y-60898000D01*
X168500637Y-60743241D01*
X168300759Y-60543363D01*
X168065727Y-60386320D01*
X167804574Y-60278147D01*
X167527335Y-60223000D01*
X167244665Y-60223000D01*
X166967426Y-60278147D01*
X166706273Y-60386320D01*
X166471241Y-60543363D01*
X166271363Y-60743241D01*
X166114320Y-60978273D01*
X166006147Y-61239426D01*
X165951000Y-61516665D01*
X165951000Y-61799335D01*
X165978031Y-61935230D01*
X162567804Y-58525003D01*
X162544001Y-58495999D01*
X162428276Y-58401026D01*
X162296247Y-58330454D01*
X162152986Y-58286997D01*
X162041333Y-58276000D01*
X162041322Y-58276000D01*
X162004000Y-58272324D01*
X161966678Y-58276000D01*
X157212802Y-58276000D01*
X155373467Y-56436665D01*
X158331000Y-56436665D01*
X158331000Y-56719335D01*
X158386147Y-56996574D01*
X158494320Y-57257727D01*
X158651363Y-57492759D01*
X158851241Y-57692637D01*
X159086273Y-57849680D01*
X159347426Y-57957853D01*
X159624665Y-58013000D01*
X159907335Y-58013000D01*
X160184574Y-57957853D01*
X160445727Y-57849680D01*
X160680759Y-57692637D01*
X160880637Y-57492759D01*
X161037680Y-57257727D01*
X161145853Y-56996574D01*
X161201000Y-56719335D01*
X161201000Y-56436665D01*
X165951000Y-56436665D01*
X165951000Y-56719335D01*
X166006147Y-56996574D01*
X166114320Y-57257727D01*
X166271363Y-57492759D01*
X166471241Y-57692637D01*
X166706273Y-57849680D01*
X166967426Y-57957853D01*
X167244665Y-58013000D01*
X167527335Y-58013000D01*
X167804574Y-57957853D01*
X168065727Y-57849680D01*
X168300759Y-57692637D01*
X168500637Y-57492759D01*
X168604043Y-57338000D01*
X169424678Y-57338000D01*
X169462000Y-57341676D01*
X169499322Y-57338000D01*
X169499333Y-57338000D01*
X169610986Y-57327003D01*
X169754247Y-57283546D01*
X169886276Y-57212974D01*
X170002001Y-57118001D01*
X170025804Y-57088997D01*
X174515004Y-52599798D01*
X174544001Y-52576001D01*
X174576566Y-52536320D01*
X174638974Y-52460277D01*
X174709546Y-52328247D01*
X174709546Y-52328246D01*
X174753003Y-52184986D01*
X174764000Y-52073333D01*
X174764000Y-52073323D01*
X174767676Y-52036001D01*
X174764000Y-51998678D01*
X174764000Y-51041323D01*
X174767676Y-51004000D01*
X174764000Y-50966678D01*
X174764000Y-50966667D01*
X174760000Y-50926055D01*
X174760000Y-45516801D01*
X180237232Y-40039570D01*
X180251970Y-40189204D01*
X180342745Y-40488449D01*
X180490155Y-40764235D01*
X180688537Y-41005963D01*
X180861609Y-41148000D01*
X180688537Y-41290037D01*
X180490155Y-41531765D01*
X180342745Y-41807551D01*
X180251970Y-42106796D01*
X180221319Y-42418000D01*
X180251970Y-42729204D01*
X180342745Y-43028449D01*
X180490155Y-43304235D01*
X180688537Y-43545963D01*
X180930265Y-43744345D01*
X181206051Y-43891755D01*
X181505296Y-43982530D01*
X181738514Y-44005500D01*
X181989486Y-44005500D01*
X182222704Y-43982530D01*
X182521949Y-43891755D01*
X182797735Y-43744345D01*
X183039463Y-43545963D01*
X183237845Y-43304235D01*
X183385255Y-43028449D01*
X183476030Y-42729204D01*
X183506681Y-42418000D01*
X183476030Y-42106796D01*
X183385255Y-41807551D01*
X183237845Y-41531765D01*
X183039463Y-41290037D01*
X182866391Y-41148000D01*
X183039463Y-41005963D01*
X183237845Y-40764235D01*
X183385255Y-40488449D01*
X183476030Y-40189204D01*
X183506681Y-39878000D01*
X183476030Y-39566796D01*
X183385255Y-39267551D01*
X183237845Y-38991765D01*
X183134554Y-38865905D01*
X183218494Y-38821037D01*
X183315185Y-38741685D01*
X183394537Y-38644994D01*
X183453502Y-38534680D01*
X183489812Y-38414982D01*
X183502072Y-38290500D01*
X183502072Y-36385500D01*
X183489812Y-36261018D01*
X183453502Y-36141320D01*
X183394537Y-36031006D01*
X183315185Y-35934315D01*
X183218494Y-35854963D01*
X183108180Y-35795998D01*
X182988482Y-35759688D01*
X182864000Y-35747428D01*
X180864000Y-35747428D01*
X180739518Y-35759688D01*
X180619820Y-35795998D01*
X180509506Y-35854963D01*
X180412815Y-35934315D01*
X180333463Y-36031006D01*
X180274498Y-36141320D01*
X180238188Y-36261018D01*
X180225928Y-36385500D01*
X180225928Y-37901269D01*
X173488998Y-44638201D01*
X173460000Y-44661999D01*
X173436202Y-44690997D01*
X173436201Y-44690998D01*
X173365026Y-44777724D01*
X173294454Y-44909754D01*
X173250998Y-45053015D01*
X173236324Y-45202000D01*
X173240001Y-45239332D01*
X173240000Y-50962677D01*
X173236324Y-51000000D01*
X173240000Y-51037322D01*
X173240000Y-51037332D01*
X173244001Y-51077953D01*
X173244000Y-51721198D01*
X169147199Y-55818000D01*
X168604043Y-55818000D01*
X168500637Y-55663241D01*
X168300759Y-55463363D01*
X168065727Y-55306320D01*
X167804574Y-55198147D01*
X167527335Y-55143000D01*
X167244665Y-55143000D01*
X166967426Y-55198147D01*
X166706273Y-55306320D01*
X166471241Y-55463363D01*
X166271363Y-55663241D01*
X166114320Y-55898273D01*
X166006147Y-56159426D01*
X165951000Y-56436665D01*
X161201000Y-56436665D01*
X161145853Y-56159426D01*
X161037680Y-55898273D01*
X160880637Y-55663241D01*
X160680759Y-55463363D01*
X160445727Y-55306320D01*
X160184574Y-55198147D01*
X159907335Y-55143000D01*
X159624665Y-55143000D01*
X159347426Y-55198147D01*
X159086273Y-55306320D01*
X158851241Y-55463363D01*
X158651363Y-55663241D01*
X158494320Y-55898273D01*
X158386147Y-56159426D01*
X158331000Y-56436665D01*
X155373467Y-56436665D01*
X153068688Y-54131887D01*
X153105000Y-53949335D01*
X153105000Y-53666665D01*
X153049853Y-53389426D01*
X152941680Y-53128273D01*
X152784637Y-52893241D01*
X152618057Y-52726661D01*
X152714180Y-52697502D01*
X152824494Y-52638537D01*
X152921185Y-52559185D01*
X153000537Y-52462494D01*
X153059502Y-52352180D01*
X153095812Y-52232482D01*
X153108072Y-52108000D01*
X153108072Y-50508000D01*
X153095812Y-50383518D01*
X153059502Y-50263820D01*
X153000537Y-50153506D01*
X152921185Y-50056815D01*
X152824494Y-49977463D01*
X152714180Y-49918498D01*
X152594482Y-49882188D01*
X152470000Y-49869928D01*
X150870000Y-49869928D01*
X150745518Y-49882188D01*
X150625820Y-49918498D01*
X150515506Y-49977463D01*
X150418815Y-50056815D01*
X150339463Y-50153506D01*
X150289598Y-50246796D01*
X149569804Y-49527003D01*
X149546001Y-49497999D01*
X149430276Y-49403026D01*
X149298247Y-49332454D01*
X149154986Y-49288997D01*
X149043333Y-49278000D01*
X149043322Y-49278000D01*
X149006000Y-49274324D01*
X148968678Y-49278000D01*
X147808043Y-49278000D01*
X147704637Y-49123241D01*
X147504759Y-48923363D01*
X147350000Y-48819957D01*
X147350000Y-48171413D01*
X159048192Y-48171413D01*
X159143956Y-48435814D01*
X159433571Y-48576704D01*
X159745108Y-48658384D01*
X160066595Y-48677718D01*
X160385675Y-48633961D01*
X160690088Y-48528795D01*
X160864044Y-48435814D01*
X160959808Y-48171413D01*
X160004000Y-47215605D01*
X159048192Y-48171413D01*
X147350000Y-48171413D01*
X147350000Y-47098595D01*
X158362282Y-47098595D01*
X158406039Y-47417675D01*
X158511205Y-47722088D01*
X158604186Y-47896044D01*
X158868587Y-47991808D01*
X159824395Y-47036000D01*
X160183605Y-47036000D01*
X161139413Y-47991808D01*
X161403814Y-47896044D01*
X161544704Y-47606429D01*
X161626384Y-47294892D01*
X161645718Y-46973405D01*
X161601961Y-46654325D01*
X161496795Y-46349912D01*
X161403814Y-46175956D01*
X161139413Y-46080192D01*
X160183605Y-47036000D01*
X159824395Y-47036000D01*
X158868587Y-46080192D01*
X158604186Y-46175956D01*
X158463296Y-46465571D01*
X158381616Y-46777108D01*
X158362282Y-47098595D01*
X147350000Y-47098595D01*
X147350000Y-46764801D01*
X147540729Y-46574072D01*
X148904000Y-46574072D01*
X149028482Y-46561812D01*
X149148180Y-46525502D01*
X149258494Y-46466537D01*
X149355185Y-46387185D01*
X149434537Y-46290494D01*
X149493502Y-46180180D01*
X149529812Y-46060482D01*
X149542072Y-45936000D01*
X149542072Y-45900587D01*
X159048192Y-45900587D01*
X160004000Y-46856395D01*
X160824395Y-46036000D01*
X163365928Y-46036000D01*
X163365928Y-48036000D01*
X163378188Y-48160482D01*
X163414498Y-48280180D01*
X163473463Y-48390494D01*
X163552815Y-48487185D01*
X163649506Y-48566537D01*
X163759820Y-48625502D01*
X163879518Y-48661812D01*
X164004000Y-48674072D01*
X166004000Y-48674072D01*
X166128482Y-48661812D01*
X166248180Y-48625502D01*
X166358494Y-48566537D01*
X166455185Y-48487185D01*
X166534537Y-48390494D01*
X166593502Y-48280180D01*
X166629812Y-48160482D01*
X166642072Y-48036000D01*
X166642072Y-46036000D01*
X166629812Y-45911518D01*
X166593502Y-45791820D01*
X166534537Y-45681506D01*
X166455185Y-45584815D01*
X166358494Y-45505463D01*
X166248180Y-45446498D01*
X166128482Y-45410188D01*
X166004000Y-45397928D01*
X164004000Y-45397928D01*
X163879518Y-45410188D01*
X163759820Y-45446498D01*
X163649506Y-45505463D01*
X163552815Y-45584815D01*
X163473463Y-45681506D01*
X163414498Y-45791820D01*
X163378188Y-45911518D01*
X163365928Y-46036000D01*
X160824395Y-46036000D01*
X160959808Y-45900587D01*
X160864044Y-45636186D01*
X160574429Y-45495296D01*
X160262892Y-45413616D01*
X159941405Y-45394282D01*
X159622325Y-45438039D01*
X159317912Y-45543205D01*
X159143956Y-45636186D01*
X159048192Y-45900587D01*
X149542072Y-45900587D01*
X149542072Y-44136000D01*
X149529812Y-44011518D01*
X149493502Y-43891820D01*
X149434537Y-43781506D01*
X149355185Y-43684815D01*
X149258494Y-43605463D01*
X149148180Y-43546498D01*
X149028482Y-43510188D01*
X148904000Y-43497928D01*
X147104000Y-43497928D01*
X146979518Y-43510188D01*
X146859820Y-43546498D01*
X146749506Y-43605463D01*
X146652815Y-43684815D01*
X146573463Y-43781506D01*
X146514498Y-43891820D01*
X146478188Y-44011518D01*
X146465928Y-44136000D01*
X146465928Y-45499271D01*
X146078998Y-45886201D01*
X146050000Y-45909999D01*
X146026202Y-45938997D01*
X146026201Y-45938998D01*
X145955026Y-46025724D01*
X145884454Y-46157754D01*
X145840998Y-46301015D01*
X145826324Y-46450000D01*
X145830001Y-46487332D01*
X145830000Y-48819956D01*
X145675241Y-48923363D01*
X145475363Y-49123241D01*
X145318320Y-49358273D01*
X145210147Y-49619426D01*
X145155000Y-49896665D01*
X140408072Y-49896665D01*
X140408072Y-49238000D01*
X140395812Y-49113518D01*
X140359502Y-48993820D01*
X140300537Y-48883506D01*
X140221185Y-48786815D01*
X140124494Y-48707463D01*
X140014180Y-48648498D01*
X139894482Y-48612188D01*
X139770000Y-48599928D01*
X139730000Y-48599928D01*
X139730000Y-46199322D01*
X139733676Y-46161999D01*
X139730000Y-46124676D01*
X139730000Y-46124667D01*
X139719003Y-46013014D01*
X139675546Y-45869753D01*
X139604974Y-45737724D01*
X139588787Y-45718000D01*
X143613680Y-45718000D01*
X143651002Y-45721676D01*
X143688324Y-45718000D01*
X143688335Y-45718000D01*
X143799988Y-45707003D01*
X143943249Y-45663546D01*
X144075278Y-45592974D01*
X144191003Y-45498001D01*
X144214806Y-45468997D01*
X147387804Y-42296000D01*
X151466678Y-42296000D01*
X151504000Y-42299676D01*
X151541322Y-42296000D01*
X151541333Y-42296000D01*
X151652986Y-42285003D01*
X151796247Y-42241546D01*
X151928276Y-42170974D01*
X152044001Y-42076001D01*
X152067804Y-42046997D01*
X157609392Y-36505410D01*
X157659506Y-36546537D01*
X157769820Y-36605502D01*
X157889518Y-36641812D01*
X158014000Y-36654072D01*
X159994000Y-36654072D01*
X160118482Y-36641812D01*
X160238180Y-36605502D01*
X160348494Y-36546537D01*
X160445185Y-36467185D01*
X160524537Y-36370494D01*
X160583502Y-36260180D01*
X160619812Y-36140482D01*
X160632072Y-36016000D01*
X160632072Y-35105823D01*
X166095000Y-35105823D01*
X166118513Y-35344555D01*
X166211432Y-35650868D01*
X166362325Y-35933169D01*
X166565392Y-36180608D01*
X166812830Y-36383675D01*
X167095131Y-36534568D01*
X167401444Y-36627487D01*
X167720000Y-36658862D01*
X168038555Y-36627487D01*
X168344868Y-36534568D01*
X168627169Y-36383675D01*
X168874608Y-36180608D01*
X169077675Y-35933170D01*
X169228568Y-35650869D01*
X169321487Y-35344556D01*
X169345000Y-35105824D01*
X169345000Y-32966176D01*
X169321487Y-32727444D01*
X169228568Y-32421131D01*
X169077675Y-32138830D01*
X169009699Y-32056000D01*
X171091928Y-32056000D01*
X171091928Y-36016000D01*
X171104188Y-36140482D01*
X171140498Y-36260180D01*
X171199463Y-36370494D01*
X171278815Y-36467185D01*
X171375506Y-36546537D01*
X171485820Y-36605502D01*
X171605518Y-36641812D01*
X171730000Y-36654072D01*
X173710000Y-36654072D01*
X173834482Y-36641812D01*
X173954180Y-36605502D01*
X174064494Y-36546537D01*
X174161185Y-36467185D01*
X174240537Y-36370494D01*
X174299502Y-36260180D01*
X174335812Y-36140482D01*
X174348072Y-36016000D01*
X174348072Y-32056000D01*
X174335812Y-31931518D01*
X174299502Y-31811820D01*
X174240537Y-31701506D01*
X174161185Y-31604815D01*
X174064494Y-31525463D01*
X173954180Y-31466498D01*
X173834482Y-31430188D01*
X173710000Y-31417928D01*
X171730000Y-31417928D01*
X171605518Y-31430188D01*
X171485820Y-31466498D01*
X171375506Y-31525463D01*
X171278815Y-31604815D01*
X171199463Y-31701506D01*
X171140498Y-31811820D01*
X171104188Y-31931518D01*
X171091928Y-32056000D01*
X169009699Y-32056000D01*
X168874608Y-31891392D01*
X168627170Y-31688325D01*
X168344869Y-31537432D01*
X168038556Y-31444513D01*
X167720000Y-31413138D01*
X167401445Y-31444513D01*
X167095132Y-31537432D01*
X166812831Y-31688325D01*
X166565393Y-31891392D01*
X166362326Y-32138830D01*
X166211433Y-32421131D01*
X166118514Y-32727444D01*
X166095001Y-32966176D01*
X166095000Y-35105823D01*
X160632072Y-35105823D01*
X160632072Y-32056000D01*
X160619812Y-31931518D01*
X160583502Y-31811820D01*
X160524537Y-31701506D01*
X160445185Y-31604815D01*
X160348494Y-31525463D01*
X160238180Y-31466498D01*
X160118482Y-31430188D01*
X159994000Y-31417928D01*
X158014000Y-31417928D01*
X157889518Y-31430188D01*
X157769820Y-31466498D01*
X157659506Y-31525463D01*
X157609392Y-31566590D01*
X156822674Y-30779872D01*
X180765000Y-30779872D01*
X180765000Y-31220128D01*
X180850890Y-31651925D01*
X181019369Y-32058669D01*
X181263962Y-32424729D01*
X181575271Y-32736038D01*
X181941331Y-32980631D01*
X182348075Y-33149110D01*
X182779872Y-33235000D01*
X183220128Y-33235000D01*
X183651925Y-33149110D01*
X184058669Y-32980631D01*
X184424729Y-32736038D01*
X184736038Y-32424729D01*
X184980631Y-32058669D01*
X185149110Y-31651925D01*
X185235000Y-31220128D01*
X185235000Y-30779872D01*
X185149110Y-30348075D01*
X184980631Y-29941331D01*
X184736038Y-29575271D01*
X184424729Y-29263962D01*
X184058669Y-29019369D01*
X183651925Y-28850890D01*
X183220128Y-28765000D01*
X182779872Y-28765000D01*
X182348075Y-28850890D01*
X181941331Y-29019369D01*
X181575271Y-29263962D01*
X181263962Y-29575271D01*
X181019369Y-29941331D01*
X180850890Y-30348075D01*
X180765000Y-30779872D01*
X156822674Y-30779872D01*
X156400862Y-30358061D01*
X156381973Y-30322723D01*
X156310798Y-30235996D01*
X156310797Y-30235995D01*
X156287000Y-30206998D01*
X156258002Y-30183200D01*
X154563804Y-28489003D01*
X154540001Y-28459999D01*
X154512650Y-28437553D01*
X186213218Y-28626247D01*
X186213218Y-83873000D01*
X102467218Y-83873000D01*
X102467218Y-80779872D01*
X102540000Y-80779872D01*
X102540000Y-81220128D01*
X102625890Y-81651925D01*
X102794369Y-82058669D01*
X103038962Y-82424729D01*
X103350271Y-82736038D01*
X103716331Y-82980631D01*
X104123075Y-83149110D01*
X104554872Y-83235000D01*
X104995128Y-83235000D01*
X105426925Y-83149110D01*
X105833669Y-82980631D01*
X106199729Y-82736038D01*
X106511038Y-82424729D01*
X106755631Y-82058669D01*
X106924110Y-81651925D01*
X107010000Y-81220128D01*
X107010000Y-80779872D01*
X106924110Y-80348075D01*
X106755631Y-79941331D01*
X106729715Y-79902544D01*
X108649000Y-79902544D01*
X108649000Y-80169456D01*
X108701072Y-80431239D01*
X108803215Y-80677833D01*
X108951503Y-80899762D01*
X109140238Y-81088497D01*
X109362167Y-81236785D01*
X109608761Y-81338928D01*
X109870544Y-81391000D01*
X110137456Y-81391000D01*
X110259852Y-81366654D01*
X111440201Y-82547003D01*
X111463999Y-82576001D01*
X111492997Y-82599799D01*
X111579723Y-82670974D01*
X111701448Y-82736038D01*
X111711753Y-82741546D01*
X111855014Y-82785003D01*
X111966667Y-82796000D01*
X111966676Y-82796000D01*
X112003999Y-82799676D01*
X112041322Y-82796000D01*
X118926678Y-82796000D01*
X118964000Y-82799676D01*
X119001322Y-82796000D01*
X119001333Y-82796000D01*
X119112986Y-82785003D01*
X119256247Y-82741546D01*
X119388276Y-82670974D01*
X119504001Y-82576001D01*
X119527804Y-82546997D01*
X120744148Y-81330654D01*
X120866544Y-81355000D01*
X121133456Y-81355000D01*
X121395239Y-81302928D01*
X121641833Y-81200785D01*
X121863762Y-81052497D01*
X122052497Y-80863762D01*
X122200785Y-80641833D01*
X122270000Y-80474734D01*
X122339215Y-80641833D01*
X122487503Y-80863762D01*
X122676238Y-81052497D01*
X122898167Y-81200785D01*
X123144761Y-81302928D01*
X123406544Y-81355000D01*
X123673456Y-81355000D01*
X123935239Y-81302928D01*
X124181833Y-81200785D01*
X124403762Y-81052497D01*
X124520699Y-80935560D01*
X125324045Y-80935560D01*
X125385932Y-81171368D01*
X125627790Y-81284266D01*
X125887027Y-81347811D01*
X126153680Y-81359561D01*
X126417501Y-81319063D01*
X126668353Y-81227875D01*
X126774068Y-81171368D01*
X126835955Y-80935560D01*
X126080000Y-80179605D01*
X125324045Y-80935560D01*
X124520699Y-80935560D01*
X124592497Y-80863762D01*
X124740785Y-80641833D01*
X124810438Y-80473676D01*
X124852125Y-80588353D01*
X124908632Y-80694068D01*
X125144440Y-80755955D01*
X125900395Y-80000000D01*
X126259605Y-80000000D01*
X127015560Y-80755955D01*
X127251368Y-80694068D01*
X127364266Y-80452210D01*
X127427811Y-80192973D01*
X127439561Y-79926320D01*
X127399063Y-79662499D01*
X127307875Y-79411647D01*
X127251368Y-79305932D01*
X127015560Y-79244045D01*
X126259605Y-80000000D01*
X125900395Y-80000000D01*
X125144440Y-79244045D01*
X124908632Y-79305932D01*
X124808236Y-79521007D01*
X124740785Y-79358167D01*
X124592497Y-79136238D01*
X124520699Y-79064440D01*
X125324045Y-79064440D01*
X126080000Y-79820395D01*
X126835955Y-79064440D01*
X126774068Y-78828632D01*
X126532210Y-78715734D01*
X126272973Y-78652189D01*
X126006320Y-78640439D01*
X125742499Y-78680937D01*
X125491647Y-78772125D01*
X125385932Y-78828632D01*
X125324045Y-79064440D01*
X124520699Y-79064440D01*
X124403762Y-78947503D01*
X124181833Y-78799215D01*
X123935239Y-78697072D01*
X123673456Y-78645000D01*
X123406544Y-78645000D01*
X123144761Y-78697072D01*
X122898167Y-78799215D01*
X122676238Y-78947503D01*
X122487503Y-79136238D01*
X122339215Y-79358167D01*
X122270000Y-79525266D01*
X122200785Y-79358167D01*
X122052497Y-79136238D01*
X121863762Y-78947503D01*
X121641833Y-78799215D01*
X121395239Y-78697072D01*
X121133456Y-78645000D01*
X120866544Y-78645000D01*
X120604761Y-78697072D01*
X120358167Y-78799215D01*
X120136238Y-78947503D01*
X119947503Y-79136238D01*
X119799215Y-79358167D01*
X119697072Y-79604761D01*
X119645000Y-79866544D01*
X119645000Y-80133456D01*
X119669346Y-80255852D01*
X118649199Y-81276000D01*
X115638998Y-81276000D01*
X115672353Y-81263875D01*
X115778068Y-81207368D01*
X115839955Y-80971560D01*
X115084000Y-80215605D01*
X114328045Y-80971560D01*
X114389932Y-81207368D01*
X114536960Y-81276000D01*
X113091160Y-81276000D01*
X113185833Y-81236785D01*
X113407762Y-81088497D01*
X113596497Y-80899762D01*
X113744785Y-80677833D01*
X113814438Y-80509676D01*
X113856125Y-80624353D01*
X113912632Y-80730068D01*
X114148440Y-80791955D01*
X114904395Y-80036000D01*
X115263605Y-80036000D01*
X116019560Y-80791955D01*
X116255368Y-80730068D01*
X116368266Y-80488210D01*
X116431811Y-80228973D01*
X116443561Y-79962320D01*
X116403063Y-79698499D01*
X116311875Y-79447647D01*
X116255368Y-79341932D01*
X116019560Y-79280045D01*
X115263605Y-80036000D01*
X114904395Y-80036000D01*
X114148440Y-79280045D01*
X113912632Y-79341932D01*
X113812236Y-79557007D01*
X113744785Y-79394167D01*
X113596497Y-79172238D01*
X113524699Y-79100440D01*
X114328045Y-79100440D01*
X115084000Y-79856395D01*
X115839955Y-79100440D01*
X115778068Y-78864632D01*
X115536210Y-78751734D01*
X115276973Y-78688189D01*
X115010320Y-78676439D01*
X114746499Y-78716937D01*
X114495647Y-78808125D01*
X114389932Y-78864632D01*
X114328045Y-79100440D01*
X113524699Y-79100440D01*
X113407762Y-78983503D01*
X113185833Y-78835215D01*
X112939239Y-78733072D01*
X112677456Y-78681000D01*
X112410544Y-78681000D01*
X112148761Y-78733072D01*
X111902167Y-78835215D01*
X111680238Y-78983503D01*
X111491503Y-79172238D01*
X111343215Y-79394167D01*
X111274000Y-79561266D01*
X111204785Y-79394167D01*
X111056497Y-79172238D01*
X110867762Y-78983503D01*
X110645833Y-78835215D01*
X110399239Y-78733072D01*
X110137456Y-78681000D01*
X109870544Y-78681000D01*
X109608761Y-78733072D01*
X109362167Y-78835215D01*
X109140238Y-78983503D01*
X108951503Y-79172238D01*
X108803215Y-79394167D01*
X108701072Y-79640761D01*
X108649000Y-79902544D01*
X106729715Y-79902544D01*
X106511038Y-79575271D01*
X106199729Y-79263962D01*
X105833669Y-79019369D01*
X105426925Y-78850890D01*
X104995128Y-78765000D01*
X104554872Y-78765000D01*
X104123075Y-78850890D01*
X103716331Y-79019369D01*
X103350271Y-79263962D01*
X103038962Y-79575271D01*
X102794369Y-79941331D01*
X102625890Y-80348075D01*
X102540000Y-80779872D01*
X102467218Y-80779872D01*
X102467218Y-30779872D01*
X102765000Y-30779872D01*
X102765000Y-31220128D01*
X102850890Y-31651925D01*
X103019369Y-32058669D01*
X103263962Y-32424729D01*
X103575271Y-32736038D01*
X103941331Y-32980631D01*
X104348075Y-33149110D01*
X104779872Y-33235000D01*
X105220128Y-33235000D01*
X105396084Y-33200000D01*
X108561928Y-33200000D01*
X108561928Y-34800000D01*
X108574188Y-34924482D01*
X108610498Y-35044180D01*
X108669463Y-35154494D01*
X108748815Y-35251185D01*
X108845506Y-35330537D01*
X108955820Y-35389502D01*
X109075518Y-35425812D01*
X109083961Y-35426643D01*
X108885363Y-35625241D01*
X108728320Y-35860273D01*
X108620147Y-36121426D01*
X108565000Y-36398665D01*
X108565000Y-36681335D01*
X108620147Y-36958574D01*
X108728320Y-37219727D01*
X108885363Y-37454759D01*
X109085241Y-37654637D01*
X109317759Y-37810000D01*
X109085241Y-37965363D01*
X108885363Y-38165241D01*
X108728320Y-38400273D01*
X108620147Y-38661426D01*
X108565000Y-38938665D01*
X108565000Y-39221335D01*
X108620147Y-39498574D01*
X108728320Y-39759727D01*
X108885363Y-39994759D01*
X109085241Y-40194637D01*
X109320273Y-40351680D01*
X109330865Y-40356067D01*
X109144869Y-40467615D01*
X108936481Y-40656586D01*
X108768963Y-40882580D01*
X108648754Y-41136913D01*
X108608096Y-41270961D01*
X108730085Y-41493000D01*
X109873000Y-41493000D01*
X109873000Y-41473000D01*
X110127000Y-41473000D01*
X110127000Y-41493000D01*
X111269915Y-41493000D01*
X111391904Y-41270961D01*
X111351246Y-41136913D01*
X111231037Y-40882580D01*
X111063519Y-40656586D01*
X110855131Y-40467615D01*
X110669135Y-40356067D01*
X110679727Y-40351680D01*
X110914759Y-40194637D01*
X111114637Y-39994759D01*
X111271680Y-39759727D01*
X111379853Y-39498574D01*
X111435000Y-39221335D01*
X111435000Y-38938665D01*
X111379853Y-38661426D01*
X111271680Y-38400273D01*
X111114637Y-38165241D01*
X110914759Y-37965363D01*
X110682241Y-37810000D01*
X110914759Y-37654637D01*
X111114637Y-37454759D01*
X111271680Y-37219727D01*
X111379853Y-36958574D01*
X111435000Y-36681335D01*
X111435000Y-36398665D01*
X111379853Y-36121426D01*
X111271680Y-35860273D01*
X111114637Y-35625241D01*
X110916039Y-35426643D01*
X110924482Y-35425812D01*
X111044180Y-35389502D01*
X111154494Y-35330537D01*
X111251185Y-35251185D01*
X111330537Y-35154494D01*
X111389502Y-35044180D01*
X111425812Y-34924482D01*
X111438072Y-34800000D01*
X111438072Y-33858665D01*
X123805000Y-33858665D01*
X123805000Y-34141335D01*
X123860147Y-34418574D01*
X123968320Y-34679727D01*
X124125363Y-34914759D01*
X124325241Y-35114637D01*
X124560273Y-35271680D01*
X124570865Y-35276067D01*
X124384869Y-35387615D01*
X124176481Y-35576586D01*
X124008963Y-35802580D01*
X123888754Y-36056913D01*
X123848096Y-36190961D01*
X123970085Y-36413000D01*
X125113000Y-36413000D01*
X125113000Y-36393000D01*
X125367000Y-36393000D01*
X125367000Y-36413000D01*
X126509915Y-36413000D01*
X126534128Y-36368929D01*
X126712201Y-36547003D01*
X126735999Y-36576001D01*
X126851724Y-36670974D01*
X126983753Y-36741546D01*
X127127014Y-36785003D01*
X127238667Y-36796000D01*
X127238677Y-36796000D01*
X127276000Y-36799676D01*
X127313323Y-36796000D01*
X128788962Y-36796000D01*
X128814498Y-36880180D01*
X128873463Y-36990494D01*
X128952815Y-37087185D01*
X129049506Y-37166537D01*
X129095006Y-37190858D01*
X129037128Y-37248736D01*
X129154234Y-37365842D01*
X128930652Y-37413148D01*
X128829763Y-37634516D01*
X128774000Y-37871313D01*
X128765505Y-38114438D01*
X128804605Y-38354549D01*
X128889798Y-38582418D01*
X128930652Y-38658852D01*
X129154236Y-38706159D01*
X129824395Y-38036000D01*
X129810253Y-38021858D01*
X129989858Y-37842253D01*
X130004000Y-37856395D01*
X130018143Y-37842253D01*
X130197748Y-38021858D01*
X130183605Y-38036000D01*
X130853764Y-38706159D01*
X131077348Y-38658852D01*
X131178237Y-38437484D01*
X131234000Y-38200687D01*
X131242495Y-37957562D01*
X131203395Y-37717451D01*
X131118202Y-37489582D01*
X131077348Y-37413148D01*
X130853766Y-37365842D01*
X130970872Y-37248736D01*
X130912994Y-37190858D01*
X130958494Y-37166537D01*
X131055185Y-37087185D01*
X131134537Y-36990494D01*
X131193502Y-36880180D01*
X131229812Y-36760482D01*
X131236773Y-36689802D01*
X133115001Y-36689802D01*
X133766201Y-37341003D01*
X133789999Y-37370001D01*
X133905724Y-37464974D01*
X134037753Y-37535546D01*
X134181014Y-37579003D01*
X134292667Y-37590000D01*
X134292676Y-37590000D01*
X134329999Y-37593676D01*
X134367322Y-37590000D01*
X134448681Y-37590000D01*
X134516155Y-37716235D01*
X134714537Y-37957963D01*
X134956265Y-38156345D01*
X135232051Y-38303755D01*
X135531296Y-38394530D01*
X135764514Y-38417500D01*
X136015486Y-38417500D01*
X136248704Y-38394530D01*
X136547949Y-38303755D01*
X136823735Y-38156345D01*
X137065463Y-37957963D01*
X137263845Y-37716235D01*
X137411255Y-37440449D01*
X137502030Y-37141204D01*
X137532681Y-36830000D01*
X137502030Y-36518796D01*
X137411255Y-36219551D01*
X137263845Y-35943765D01*
X137065463Y-35702037D01*
X136886101Y-35554837D01*
X137071315Y-35399437D01*
X137265969Y-35156923D01*
X137409571Y-34881094D01*
X137480563Y-34662980D01*
X137360594Y-34417000D01*
X136017000Y-34417000D01*
X136017000Y-34437000D01*
X135763000Y-34437000D01*
X135763000Y-34417000D01*
X134419406Y-34417000D01*
X134299437Y-34662980D01*
X134370429Y-34881094D01*
X134514031Y-35156923D01*
X134708685Y-35399437D01*
X134893899Y-35554837D01*
X134714537Y-35702037D01*
X134517242Y-35942440D01*
X133993605Y-35418804D01*
X133969803Y-35389801D01*
X133854078Y-35294828D01*
X133722049Y-35224256D01*
X133578788Y-35180799D01*
X133467135Y-35169802D01*
X133467124Y-35169802D01*
X133429802Y-35166126D01*
X133392480Y-35169802D01*
X131181733Y-35169802D01*
X131134537Y-35081506D01*
X131055185Y-34984815D01*
X130958494Y-34905463D01*
X130848180Y-34846498D01*
X130728482Y-34810188D01*
X130604000Y-34797928D01*
X129404000Y-34797928D01*
X129279518Y-34810188D01*
X129159820Y-34846498D01*
X129049506Y-34905463D01*
X128952815Y-34984815D01*
X128873463Y-35081506D01*
X128814498Y-35191820D01*
X128788962Y-35276000D01*
X127590802Y-35276000D01*
X126638688Y-34323886D01*
X126675000Y-34141335D01*
X126675000Y-33885764D01*
X129333841Y-33885764D01*
X129381148Y-34109348D01*
X129602516Y-34210237D01*
X129839313Y-34266000D01*
X130082438Y-34274495D01*
X130322549Y-34235395D01*
X130550418Y-34150202D01*
X130626852Y-34109348D01*
X130674159Y-33885764D01*
X130004000Y-33215605D01*
X129333841Y-33885764D01*
X126675000Y-33885764D01*
X126675000Y-33858665D01*
X126619853Y-33581426D01*
X126511680Y-33320273D01*
X126354637Y-33085241D01*
X126154759Y-32885363D01*
X125919727Y-32728320D01*
X125658574Y-32620147D01*
X125381335Y-32565000D01*
X125098665Y-32565000D01*
X124821426Y-32620147D01*
X124560273Y-32728320D01*
X124325241Y-32885363D01*
X124125363Y-33085241D01*
X123968320Y-33320273D01*
X123860147Y-33581426D01*
X123805000Y-33858665D01*
X111438072Y-33858665D01*
X111438072Y-33200000D01*
X111425812Y-33075518D01*
X111389502Y-32955820D01*
X111330537Y-32845506D01*
X111251185Y-32748815D01*
X111154494Y-32669463D01*
X111044180Y-32610498D01*
X110924482Y-32574188D01*
X110800000Y-32561928D01*
X109200000Y-32561928D01*
X109075518Y-32574188D01*
X108955820Y-32610498D01*
X108845506Y-32669463D01*
X108748815Y-32748815D01*
X108669463Y-32845506D01*
X108610498Y-32955820D01*
X108574188Y-33075518D01*
X108561928Y-33200000D01*
X105396084Y-33200000D01*
X105651925Y-33149110D01*
X106058669Y-32980631D01*
X106424729Y-32736038D01*
X106736038Y-32424729D01*
X106980631Y-32058669D01*
X107149110Y-31651925D01*
X107235000Y-31220128D01*
X107235000Y-30779872D01*
X107149110Y-30348075D01*
X106980631Y-29941331D01*
X106736038Y-29575271D01*
X106424729Y-29263962D01*
X106058669Y-29019369D01*
X105651925Y-28850890D01*
X105220128Y-28765000D01*
X104779872Y-28765000D01*
X104348075Y-28850890D01*
X103941331Y-29019369D01*
X103575271Y-29263962D01*
X103263962Y-29575271D01*
X103019369Y-29941331D01*
X102850890Y-30348075D01*
X102765000Y-30779872D01*
X102467218Y-30779872D01*
X102467218Y-28127758D01*
X138261016Y-28340817D01*
G37*
%TD.AperFunction*%
D26*
X137855363Y-56032759D02*
X138055241Y-56232637D01*
X138290273Y-56389680D01*
X138300865Y-56394067D01*
X138114869Y-56505615D01*
X137906481Y-56694586D01*
X137738963Y-56920580D01*
X137618754Y-57174913D01*
X137578096Y-57308961D01*
X137700085Y-57531000D01*
X138843000Y-57531000D01*
X138843000Y-57511000D01*
X139097000Y-57511000D01*
X139097000Y-57531000D01*
X140239915Y-57531000D01*
X140264128Y-57486929D01*
X140744001Y-57966803D01*
X140744000Y-71319198D01*
X140405000Y-71658198D01*
X140405000Y-71486665D01*
X140349853Y-71209426D01*
X140241680Y-70948273D01*
X140084637Y-70713241D01*
X139886039Y-70514643D01*
X139894482Y-70513812D01*
X140014180Y-70477502D01*
X140124494Y-70418537D01*
X140221185Y-70339185D01*
X140300537Y-70242494D01*
X140359502Y-70132180D01*
X140395812Y-70012482D01*
X140408072Y-69888000D01*
X140408072Y-68288000D01*
X140395812Y-68163518D01*
X140359502Y-68043820D01*
X140300537Y-67933506D01*
X140221185Y-67836815D01*
X140124494Y-67757463D01*
X140014180Y-67698498D01*
X139894482Y-67662188D01*
X139770000Y-67649928D01*
X139730000Y-67649928D01*
X139730000Y-65199322D01*
X139733676Y-65161999D01*
X139730000Y-65124676D01*
X139730000Y-65124667D01*
X139719003Y-65013014D01*
X139675546Y-64869753D01*
X139604974Y-64737724D01*
X139547385Y-64667551D01*
X139533799Y-64650996D01*
X139533795Y-64650992D01*
X139510001Y-64621999D01*
X139481008Y-64598205D01*
X139327732Y-64444929D01*
X139379000Y-64187184D01*
X139379000Y-63884816D01*
X139320011Y-63588257D01*
X139204299Y-63308905D01*
X139036312Y-63057495D01*
X138822505Y-62843688D01*
X138571095Y-62675701D01*
X138291743Y-62559989D01*
X137995184Y-62501000D01*
X137692816Y-62501000D01*
X137396257Y-62559989D01*
X137116905Y-62675701D01*
X136865495Y-62843688D01*
X136651688Y-63057495D01*
X136483701Y-63308905D01*
X136367989Y-63588257D01*
X136309000Y-63884816D01*
X136309000Y-64187184D01*
X136367989Y-64483743D01*
X136483701Y-64763095D01*
X136651688Y-65014505D01*
X136865495Y-65228312D01*
X137116905Y-65396299D01*
X137396257Y-65512011D01*
X137692816Y-65571000D01*
X137995184Y-65571000D01*
X138210001Y-65528270D01*
X138210000Y-67649928D01*
X138170000Y-67649928D01*
X138045518Y-67662188D01*
X137925820Y-67698498D01*
X137815506Y-67757463D01*
X137718815Y-67836815D01*
X137639463Y-67933506D01*
X137580498Y-68043820D01*
X137544188Y-68163518D01*
X137531928Y-68288000D01*
X137531928Y-68328000D01*
X133449333Y-68328000D01*
X133412000Y-68324323D01*
X133374667Y-68328000D01*
X133263014Y-68338997D01*
X133119753Y-68382454D01*
X132987724Y-68453026D01*
X132871999Y-68547999D01*
X132848201Y-68576997D01*
X131488998Y-69936201D01*
X131460000Y-69959999D01*
X131436202Y-69988997D01*
X131436201Y-69988998D01*
X131365026Y-70075724D01*
X131303982Y-70189928D01*
X131200000Y-70189928D01*
X131075518Y-70202188D01*
X130955820Y-70238498D01*
X130845506Y-70297463D01*
X130748815Y-70376815D01*
X130669463Y-70473506D01*
X130610498Y-70583820D01*
X130574188Y-70703518D01*
X130561928Y-70828000D01*
X130561928Y-72428000D01*
X130574188Y-72552482D01*
X130610498Y-72672180D01*
X130669463Y-72782494D01*
X130748815Y-72879185D01*
X130845506Y-72958537D01*
X130955820Y-73017502D01*
X131075518Y-73053812D01*
X131200000Y-73066072D01*
X131207215Y-73066072D01*
X131186903Y-73135298D01*
X132000000Y-73948395D01*
X132813097Y-73135298D01*
X132792785Y-73066072D01*
X132800000Y-73066072D01*
X132924482Y-73053812D01*
X133044180Y-73017502D01*
X133154494Y-72958537D01*
X133251185Y-72879185D01*
X133330537Y-72782494D01*
X133389502Y-72672180D01*
X133425812Y-72552482D01*
X133438072Y-72428000D01*
X133438072Y-70828000D01*
X133425812Y-70703518D01*
X133389502Y-70583820D01*
X133330537Y-70473506D01*
X133251185Y-70376815D01*
X133221966Y-70352836D01*
X133726802Y-69848000D01*
X137531928Y-69848000D01*
X137531928Y-69888000D01*
X137544188Y-70012482D01*
X137580498Y-70132180D01*
X137639463Y-70242494D01*
X137718815Y-70339185D01*
X137815506Y-70418537D01*
X137925820Y-70477502D01*
X138045518Y-70513812D01*
X138053961Y-70514643D01*
X137855363Y-70713241D01*
X137698320Y-70948273D01*
X137590147Y-71209426D01*
X137535000Y-71486665D01*
X137535000Y-71769335D01*
X137571312Y-71951886D01*
X133247199Y-76276000D01*
X131318802Y-76276000D01*
X130163504Y-75120702D01*
X131186903Y-75120702D01*
X131258486Y-75364671D01*
X131513996Y-75485571D01*
X131788184Y-75554300D01*
X132070512Y-75568217D01*
X132350130Y-75526787D01*
X132616292Y-75431603D01*
X132741514Y-75364671D01*
X132813097Y-75120702D01*
X132000000Y-74307605D01*
X131186903Y-75120702D01*
X130163504Y-75120702D01*
X129241314Y-74198512D01*
X130559783Y-74198512D01*
X130601213Y-74478130D01*
X130696397Y-74744292D01*
X130763329Y-74869514D01*
X131007298Y-74941097D01*
X131820395Y-74128000D01*
X132179605Y-74128000D01*
X132992702Y-74941097D01*
X133236671Y-74869514D01*
X133357571Y-74614004D01*
X133426300Y-74339816D01*
X133440217Y-74057488D01*
X133398787Y-73777870D01*
X133303603Y-73511708D01*
X133236671Y-73386486D01*
X132992702Y-73314903D01*
X132179605Y-74128000D01*
X131820395Y-74128000D01*
X131007298Y-73314903D01*
X130763329Y-73386486D01*
X130642429Y-73641996D01*
X130573700Y-73916184D01*
X130559783Y-74198512D01*
X129241314Y-74198512D01*
X127377006Y-72334205D01*
X129015004Y-70696208D01*
X129044001Y-70672411D01*
X129070332Y-70640327D01*
X129138974Y-70556687D01*
X129209546Y-70424657D01*
X129224058Y-70376815D01*
X129253003Y-70281396D01*
X129264000Y-70169743D01*
X129264000Y-70169734D01*
X129267676Y-70132411D01*
X129264000Y-70095088D01*
X129264000Y-63995211D01*
X135252172Y-58007039D01*
X137578096Y-58007039D01*
X137618754Y-58141087D01*
X137738963Y-58395420D01*
X137906481Y-58621414D01*
X138114869Y-58810385D01*
X138356119Y-58955070D01*
X138620960Y-59049909D01*
X138843000Y-58928624D01*
X138843000Y-57785000D01*
X139097000Y-57785000D01*
X139097000Y-58928624D01*
X139319040Y-59049909D01*
X139583881Y-58955070D01*
X139825131Y-58810385D01*
X140033519Y-58621414D01*
X140201037Y-58395420D01*
X140321246Y-58141087D01*
X140361904Y-58007039D01*
X140239915Y-57785000D01*
X139097000Y-57785000D01*
X138843000Y-57785000D01*
X137700085Y-57785000D01*
X137578096Y-58007039D01*
X135252172Y-58007039D01*
X137381212Y-55878000D01*
X137751957Y-55878000D01*
X137855363Y-56032759D01*
%TA.AperFunction,Conductor*%
D27*
G36*
X137855363Y-56032759D02*
G01*
X138055241Y-56232637D01*
X138290273Y-56389680D01*
X138300865Y-56394067D01*
X138114869Y-56505615D01*
X137906481Y-56694586D01*
X137738963Y-56920580D01*
X137618754Y-57174913D01*
X137578096Y-57308961D01*
X137700085Y-57531000D01*
X138843000Y-57531000D01*
X138843000Y-57511000D01*
X139097000Y-57511000D01*
X139097000Y-57531000D01*
X140239915Y-57531000D01*
X140264128Y-57486929D01*
X140744001Y-57966803D01*
X140744000Y-71319198D01*
X140405000Y-71658198D01*
X140405000Y-71486665D01*
X140349853Y-71209426D01*
X140241680Y-70948273D01*
X140084637Y-70713241D01*
X139886039Y-70514643D01*
X139894482Y-70513812D01*
X140014180Y-70477502D01*
X140124494Y-70418537D01*
X140221185Y-70339185D01*
X140300537Y-70242494D01*
X140359502Y-70132180D01*
X140395812Y-70012482D01*
X140408072Y-69888000D01*
X140408072Y-68288000D01*
X140395812Y-68163518D01*
X140359502Y-68043820D01*
X140300537Y-67933506D01*
X140221185Y-67836815D01*
X140124494Y-67757463D01*
X140014180Y-67698498D01*
X139894482Y-67662188D01*
X139770000Y-67649928D01*
X139730000Y-67649928D01*
X139730000Y-65199322D01*
X139733676Y-65161999D01*
X139730000Y-65124676D01*
X139730000Y-65124667D01*
X139719003Y-65013014D01*
X139675546Y-64869753D01*
X139604974Y-64737724D01*
X139547385Y-64667551D01*
X139533799Y-64650996D01*
X139533795Y-64650992D01*
X139510001Y-64621999D01*
X139481008Y-64598205D01*
X139327732Y-64444929D01*
X139379000Y-64187184D01*
X139379000Y-63884816D01*
X139320011Y-63588257D01*
X139204299Y-63308905D01*
X139036312Y-63057495D01*
X138822505Y-62843688D01*
X138571095Y-62675701D01*
X138291743Y-62559989D01*
X137995184Y-62501000D01*
X137692816Y-62501000D01*
X137396257Y-62559989D01*
X137116905Y-62675701D01*
X136865495Y-62843688D01*
X136651688Y-63057495D01*
X136483701Y-63308905D01*
X136367989Y-63588257D01*
X136309000Y-63884816D01*
X136309000Y-64187184D01*
X136367989Y-64483743D01*
X136483701Y-64763095D01*
X136651688Y-65014505D01*
X136865495Y-65228312D01*
X137116905Y-65396299D01*
X137396257Y-65512011D01*
X137692816Y-65571000D01*
X137995184Y-65571000D01*
X138210001Y-65528270D01*
X138210000Y-67649928D01*
X138170000Y-67649928D01*
X138045518Y-67662188D01*
X137925820Y-67698498D01*
X137815506Y-67757463D01*
X137718815Y-67836815D01*
X137639463Y-67933506D01*
X137580498Y-68043820D01*
X137544188Y-68163518D01*
X137531928Y-68288000D01*
X137531928Y-68328000D01*
X133449333Y-68328000D01*
X133412000Y-68324323D01*
X133374667Y-68328000D01*
X133263014Y-68338997D01*
X133119753Y-68382454D01*
X132987724Y-68453026D01*
X132871999Y-68547999D01*
X132848201Y-68576997D01*
X131488998Y-69936201D01*
X131460000Y-69959999D01*
X131436202Y-69988997D01*
X131436201Y-69988998D01*
X131365026Y-70075724D01*
X131303982Y-70189928D01*
X131200000Y-70189928D01*
X131075518Y-70202188D01*
X130955820Y-70238498D01*
X130845506Y-70297463D01*
X130748815Y-70376815D01*
X130669463Y-70473506D01*
X130610498Y-70583820D01*
X130574188Y-70703518D01*
X130561928Y-70828000D01*
X130561928Y-72428000D01*
X130574188Y-72552482D01*
X130610498Y-72672180D01*
X130669463Y-72782494D01*
X130748815Y-72879185D01*
X130845506Y-72958537D01*
X130955820Y-73017502D01*
X131075518Y-73053812D01*
X131200000Y-73066072D01*
X131207215Y-73066072D01*
X131186903Y-73135298D01*
X132000000Y-73948395D01*
X132813097Y-73135298D01*
X132792785Y-73066072D01*
X132800000Y-73066072D01*
X132924482Y-73053812D01*
X133044180Y-73017502D01*
X133154494Y-72958537D01*
X133251185Y-72879185D01*
X133330537Y-72782494D01*
X133389502Y-72672180D01*
X133425812Y-72552482D01*
X133438072Y-72428000D01*
X133438072Y-70828000D01*
X133425812Y-70703518D01*
X133389502Y-70583820D01*
X133330537Y-70473506D01*
X133251185Y-70376815D01*
X133221966Y-70352836D01*
X133726802Y-69848000D01*
X137531928Y-69848000D01*
X137531928Y-69888000D01*
X137544188Y-70012482D01*
X137580498Y-70132180D01*
X137639463Y-70242494D01*
X137718815Y-70339185D01*
X137815506Y-70418537D01*
X137925820Y-70477502D01*
X138045518Y-70513812D01*
X138053961Y-70514643D01*
X137855363Y-70713241D01*
X137698320Y-70948273D01*
X137590147Y-71209426D01*
X137535000Y-71486665D01*
X137535000Y-71769335D01*
X137571312Y-71951886D01*
X133247199Y-76276000D01*
X131318802Y-76276000D01*
X130163504Y-75120702D01*
X131186903Y-75120702D01*
X131258486Y-75364671D01*
X131513996Y-75485571D01*
X131788184Y-75554300D01*
X132070512Y-75568217D01*
X132350130Y-75526787D01*
X132616292Y-75431603D01*
X132741514Y-75364671D01*
X132813097Y-75120702D01*
X132000000Y-74307605D01*
X131186903Y-75120702D01*
X130163504Y-75120702D01*
X129241314Y-74198512D01*
X130559783Y-74198512D01*
X130601213Y-74478130D01*
X130696397Y-74744292D01*
X130763329Y-74869514D01*
X131007298Y-74941097D01*
X131820395Y-74128000D01*
X132179605Y-74128000D01*
X132992702Y-74941097D01*
X133236671Y-74869514D01*
X133357571Y-74614004D01*
X133426300Y-74339816D01*
X133440217Y-74057488D01*
X133398787Y-73777870D01*
X133303603Y-73511708D01*
X133236671Y-73386486D01*
X132992702Y-73314903D01*
X132179605Y-74128000D01*
X131820395Y-74128000D01*
X131007298Y-73314903D01*
X130763329Y-73386486D01*
X130642429Y-73641996D01*
X130573700Y-73916184D01*
X130559783Y-74198512D01*
X129241314Y-74198512D01*
X127377006Y-72334205D01*
X129015004Y-70696208D01*
X129044001Y-70672411D01*
X129070332Y-70640327D01*
X129138974Y-70556687D01*
X129209546Y-70424657D01*
X129224058Y-70376815D01*
X129253003Y-70281396D01*
X129264000Y-70169743D01*
X129264000Y-70169734D01*
X129267676Y-70132411D01*
X129264000Y-70095088D01*
X129264000Y-63995211D01*
X135252172Y-58007039D01*
X137578096Y-58007039D01*
X137618754Y-58141087D01*
X137738963Y-58395420D01*
X137906481Y-58621414D01*
X138114869Y-58810385D01*
X138356119Y-58955070D01*
X138620960Y-59049909D01*
X138843000Y-58928624D01*
X138843000Y-57785000D01*
X139097000Y-57785000D01*
X139097000Y-58928624D01*
X139319040Y-59049909D01*
X139583881Y-58955070D01*
X139825131Y-58810385D01*
X140033519Y-58621414D01*
X140201037Y-58395420D01*
X140321246Y-58141087D01*
X140361904Y-58007039D01*
X140239915Y-57785000D01*
X139097000Y-57785000D01*
X138843000Y-57785000D01*
X137700085Y-57785000D01*
X137578096Y-58007039D01*
X135252172Y-58007039D01*
X137381212Y-55878000D01*
X137751957Y-55878000D01*
X137855363Y-56032759D01*
G37*
%TD.AperFunction*%
%TD*%
M02*
