%TF.GenerationSoftware,KiCad,Pcbnew,(5.1.12)-1*%
%TF.CreationDate,2021-11-30T23:14:44-08:00*%
%TF.ProjectId,inverter-stage,696e7665-7274-4657-922d-73746167652e,rev?*%
%TF.SameCoordinates,Original*%
%TF.FileFunction,Copper,L2,Bot*%
%TF.FilePolarity,Positive*%
%FSLAX46Y46*%
G04 Gerber Fmt 4.6, Leading zero omitted, Abs format (unit mm)*
G04 Created by KiCad (PCBNEW (5.1.12)-1) date 2021-11-30 23:14:44*
%MOMM*%
%LPD*%
G01*
G04 APERTURE LIST*
%TA.AperFunction,ComponentPad*%
%ADD10O,1.600000X1.600000*%
%TD*%
%TA.AperFunction,ComponentPad*%
%ADD11R,1.600000X1.600000*%
%TD*%
%TA.AperFunction,ComponentPad*%
%ADD12O,2.000000X1.905000*%
%TD*%
%TA.AperFunction,ComponentPad*%
%ADD13R,2.000000X1.905000*%
%TD*%
%TA.AperFunction,ComponentPad*%
%ADD14O,1.980000X3.960000*%
%TD*%
%TA.AperFunction,ComponentPad*%
%ADD15R,1.980000X3.960000*%
%TD*%
%TA.AperFunction,ComponentPad*%
%ADD16C,1.600000*%
%TD*%
%TA.AperFunction,ComponentPad*%
%ADD17C,1.440000*%
%TD*%
%TA.AperFunction,ComponentPad*%
%ADD18O,2.400000X2.400000*%
%TD*%
%TA.AperFunction,ComponentPad*%
%ADD19R,2.400000X2.400000*%
%TD*%
%TA.AperFunction,ComponentPad*%
%ADD20R,1.800000X1.800000*%
%TD*%
%TA.AperFunction,ComponentPad*%
%ADD21C,1.800000*%
%TD*%
%TA.AperFunction,ComponentPad*%
%ADD22R,1.200000X1.200000*%
%TD*%
%TA.AperFunction,ComponentPad*%
%ADD23C,1.200000*%
%TD*%
%TA.AperFunction,Conductor*%
%ADD24C,0.250000*%
%TD*%
%TA.AperFunction,Conductor*%
%ADD25C,2.000000*%
%TD*%
G04 APERTURE END LIST*
D10*
%TO.P,A1,16*%
%TO.N,Net-(A1-Pad16)*%
X125240000Y-69560000D03*
%TO.P,A1,15*%
%TO.N,Net-(A1-Pad15)*%
X110000000Y-69560000D03*
%TO.P,A1,30*%
%TO.N,+9V*%
X125240000Y-34000000D03*
%TO.P,A1,14*%
%TO.N,SHUTDOWN*%
X110000000Y-67020000D03*
%TO.P,A1,29*%
%TO.N,GND*%
X125240000Y-36540000D03*
%TO.P,A1,13*%
%TO.N,SIG_B*%
X110000000Y-64480000D03*
%TO.P,A1,28*%
%TO.N,Net-(A1-Pad28)*%
X125240000Y-39080000D03*
%TO.P,A1,12*%
%TO.N,SIG_A*%
X110000000Y-61940000D03*
%TO.P,A1,27*%
%TO.N,+5V*%
X125240000Y-41620000D03*
%TO.P,A1,11*%
%TO.N,Net-(A1-Pad11)*%
X110000000Y-59400000D03*
%TO.P,A1,26*%
%TO.N,Net-(A1-Pad26)*%
X125240000Y-44160000D03*
%TO.P,A1,10*%
%TO.N,Net-(A1-Pad10)*%
X110000000Y-56860000D03*
%TO.P,A1,25*%
%TO.N,Net-(A1-Pad25)*%
X125240000Y-46700000D03*
%TO.P,A1,9*%
%TO.N,Net-(A1-Pad9)*%
X110000000Y-54320000D03*
%TO.P,A1,24*%
%TO.N,Net-(A1-Pad24)*%
X125240000Y-49240000D03*
%TO.P,A1,8*%
%TO.N,Net-(A1-Pad8)*%
X110000000Y-51780000D03*
%TO.P,A1,23*%
%TO.N,Net-(A1-Pad23)*%
X125240000Y-51780000D03*
%TO.P,A1,7*%
%TO.N,Net-(A1-Pad7)*%
X110000000Y-49240000D03*
%TO.P,A1,22*%
%TO.N,Net-(A1-Pad22)*%
X125240000Y-54320000D03*
%TO.P,A1,6*%
%TO.N,Net-(A1-Pad6)*%
X110000000Y-46700000D03*
%TO.P,A1,21*%
%TO.N,Net-(A1-Pad21)*%
X125240000Y-56860000D03*
%TO.P,A1,5*%
%TO.N,Net-(A1-Pad5)*%
X110000000Y-44160000D03*
%TO.P,A1,20*%
%TO.N,MOD_INDEX*%
X125240000Y-59400000D03*
%TO.P,A1,4*%
%TO.N,GND*%
X110000000Y-41620000D03*
%TO.P,A1,19*%
%TO.N,SPEED*%
X125240000Y-61940000D03*
%TO.P,A1,3*%
%TO.N,Net-(A1-Pad3)*%
X110000000Y-39080000D03*
%TO.P,A1,18*%
%TO.N,Net-(A1-Pad18)*%
X125240000Y-64480000D03*
%TO.P,A1,2*%
%TO.N,Net-(A1-Pad2)*%
X110000000Y-36540000D03*
%TO.P,A1,17*%
%TO.N,Net-(A1-Pad17)*%
X125240000Y-67020000D03*
D11*
%TO.P,A1,1*%
%TO.N,Net-(A1-Pad1)*%
X110000000Y-34000000D03*
%TD*%
D10*
%TO.P,U2,8*%
%TO.N,Net-(C4-Pad1)*%
X148590000Y-69088000D03*
%TO.P,U2,4*%
%TO.N,GND*%
X140970000Y-76708000D03*
%TO.P,U2,7*%
%TO.N,HO_B*%
X148590000Y-71628000D03*
%TO.P,U2,3*%
%TO.N,SHUTDOWN*%
X140970000Y-74168000D03*
%TO.P,U2,6*%
%TO.N,B*%
X148590000Y-74168000D03*
%TO.P,U2,2*%
%TO.N,SIG_B*%
X140970000Y-71628000D03*
%TO.P,U2,5*%
%TO.N,LO_B*%
X148590000Y-76708000D03*
D11*
%TO.P,U2,1*%
%TO.N,VDD*%
X140970000Y-69088000D03*
%TD*%
D10*
%TO.P,U1,8*%
%TO.N,Net-(C2-Pad1)*%
X148590000Y-50038000D03*
%TO.P,U1,4*%
%TO.N,GND*%
X140970000Y-57658000D03*
%TO.P,U1,7*%
%TO.N,HO_A*%
X148590000Y-52578000D03*
%TO.P,U1,3*%
%TO.N,SHUTDOWN*%
X140970000Y-55118000D03*
%TO.P,U1,6*%
%TO.N,A*%
X148590000Y-55118000D03*
%TO.P,U1,2*%
%TO.N,SIG_A*%
X140970000Y-52578000D03*
%TO.P,U1,5*%
%TO.N,LO_A*%
X148590000Y-57658000D03*
D11*
%TO.P,U1,1*%
%TO.N,VDD*%
X140970000Y-50038000D03*
%TD*%
D12*
%TO.P,Q4,3*%
%TO.N,GND*%
X181864000Y-80518000D03*
%TO.P,Q4,2*%
%TO.N,B*%
X181864000Y-77978000D03*
D13*
%TO.P,Q4,1*%
%TO.N,Net-(Q4-Pad1)*%
X181864000Y-75438000D03*
%TD*%
D12*
%TO.P,Q3,3*%
%TO.N,B*%
X181864000Y-67818000D03*
%TO.P,Q3,2*%
%TO.N,VDD*%
X181864000Y-65278000D03*
D13*
%TO.P,Q3,1*%
%TO.N,Net-(Q3-Pad1)*%
X181864000Y-62738000D03*
%TD*%
D12*
%TO.P,Q2,3*%
%TO.N,GND*%
X181864000Y-55118000D03*
%TO.P,Q2,2*%
%TO.N,A*%
X181864000Y-52578000D03*
D13*
%TO.P,Q2,1*%
%TO.N,Net-(Q2-Pad1)*%
X181864000Y-50038000D03*
%TD*%
D12*
%TO.P,Q1,3*%
%TO.N,A*%
X181864000Y-42418000D03*
%TO.P,Q1,2*%
%TO.N,VDD*%
X181864000Y-39878000D03*
D13*
%TO.P,Q1,1*%
%TO.N,Net-(Q1-Pad1)*%
X181864000Y-37338000D03*
%TD*%
D14*
%TO.P,J2,2*%
%TO.N,B*%
X167720000Y-34036000D03*
D15*
%TO.P,J2,1*%
%TO.N,A*%
X172720000Y-34036000D03*
%TD*%
D16*
%TO.P,C4,2*%
%TO.N,B*%
X153670000Y-72858000D03*
D11*
%TO.P,C4,1*%
%TO.N,Net-(C4-Pad1)*%
X153670000Y-70358000D03*
%TD*%
D16*
%TO.P,C3,2*%
%TO.N,GND*%
X134000000Y-74128000D03*
D11*
%TO.P,C3,1*%
%TO.N,VDD*%
X134000000Y-71628000D03*
%TD*%
D16*
%TO.P,C2,2*%
%TO.N,A*%
X153670000Y-53808000D03*
D11*
%TO.P,C2,1*%
%TO.N,Net-(C2-Pad1)*%
X153670000Y-51308000D03*
%TD*%
D16*
%TO.P,C1,2*%
%TO.N,GND*%
X134000000Y-55078000D03*
D11*
%TO.P,C1,1*%
%TO.N,VDD*%
X134000000Y-52578000D03*
%TD*%
D15*
%TO.P,J1,1*%
%TO.N,VDD*%
X159004000Y-34036000D03*
D14*
%TO.P,J1,2*%
%TO.N,GND*%
X154004000Y-34036000D03*
%TD*%
D17*
%TO.P,RV1,3*%
%TO.N,GND*%
X126080000Y-80000000D03*
%TO.P,RV1,2*%
%TO.N,SPEED*%
X123540000Y-80000000D03*
%TO.P,RV1,1*%
%TO.N,+5V*%
X121000000Y-80000000D03*
%TD*%
%TO.P,RV2,1*%
%TO.N,+5V*%
X111000000Y-80000000D03*
%TO.P,RV2,2*%
%TO.N,MOD_INDEX*%
X113540000Y-80000000D03*
%TO.P,RV2,3*%
%TO.N,GND*%
X116080000Y-80000000D03*
%TD*%
D18*
%TO.P,D1,2*%
%TO.N,VDD*%
X138300000Y-44958000D03*
D19*
%TO.P,D1,1*%
%TO.N,Net-(C2-Pad1)*%
X151000000Y-44958000D03*
%TD*%
%TO.P,D2,1*%
%TO.N,Net-(C4-Pad1)*%
X151000000Y-64000000D03*
D18*
%TO.P,D2,2*%
%TO.N,VDD*%
X138300000Y-64000000D03*
%TD*%
D20*
%TO.P,D3,1*%
%TO.N,GND*%
X143764000Y-32004000D03*
D21*
%TO.P,D3,2*%
%TO.N,Net-(D3-Pad2)*%
X146304000Y-32004000D03*
%TD*%
D13*
%TO.P,U3,1*%
%TO.N,VDD*%
X135890000Y-31750000D03*
D12*
%TO.P,U3,2*%
%TO.N,GND*%
X135890000Y-34290000D03*
%TO.P,U3,3*%
%TO.N,+9V*%
X135890000Y-36830000D03*
%TD*%
D16*
%TO.P,R1,1*%
%TO.N,HO_A*%
X159766000Y-52578000D03*
D10*
%TO.P,R1,2*%
%TO.N,Net-(Q1-Pad1)*%
X167386000Y-52578000D03*
%TD*%
%TO.P,R2,2*%
%TO.N,Net-(Q2-Pad1)*%
X167386000Y-57658000D03*
D16*
%TO.P,R2,1*%
%TO.N,LO_A*%
X159766000Y-57658000D03*
%TD*%
D10*
%TO.P,R3,2*%
%TO.N,Net-(Q3-Pad1)*%
X167640000Y-71628000D03*
D16*
%TO.P,R3,1*%
%TO.N,HO_B*%
X160020000Y-71628000D03*
%TD*%
%TO.P,R4,1*%
%TO.N,LO_B*%
X160020000Y-76708000D03*
D10*
%TO.P,R4,2*%
%TO.N,Net-(Q4-Pad1)*%
X167640000Y-76708000D03*
%TD*%
D16*
%TO.P,R5,1*%
%TO.N,+5V*%
X141224000Y-38100000D03*
D10*
%TO.P,R5,2*%
%TO.N,Net-(D3-Pad2)*%
X148844000Y-38100000D03*
%TD*%
D22*
%TO.P,C5,1*%
%TO.N,VDD*%
X130724999Y-30329802D03*
D23*
%TO.P,C5,2*%
%TO.N,GND*%
X130724999Y-32329802D03*
%TD*%
%TO.P,C6,2*%
%TO.N,GND*%
X130724999Y-37929802D03*
D22*
%TO.P,C6,1*%
%TO.N,+9V*%
X130724999Y-35929802D03*
%TD*%
D24*
%TO.N,GND*%
X134000000Y-55078000D02*
X136958000Y-58036000D01*
X140592000Y-58036000D02*
X140970000Y-57658000D01*
X136958000Y-58036000D02*
X140592000Y-58036000D01*
%TO.N,VDD*%
X159004000Y-34036000D02*
X159004000Y-33996000D01*
X138300000Y-64000000D02*
X132000000Y-57700000D01*
X132000000Y-54578000D02*
X134000000Y-52578000D01*
X132000000Y-57700000D02*
X132000000Y-54578000D01*
D25*
X183436502Y-39878000D02*
X181864000Y-39878000D01*
X185004000Y-38310502D02*
X183436502Y-39878000D01*
X181883674Y-65278000D02*
X181873837Y-65268163D01*
X183436502Y-65278000D02*
X181883674Y-65278000D01*
X185004000Y-63710502D02*
X183436502Y-65278000D01*
X185004000Y-38310502D02*
X185004000Y-63710502D01*
X183268001Y-33800001D02*
X185004000Y-35536000D01*
X180768001Y-33800001D02*
X183268001Y-33800001D01*
X176504000Y-29536000D02*
X180768001Y-33800001D01*
X185004000Y-35536000D02*
X185004000Y-38310502D01*
X159004000Y-34036000D02*
X163504000Y-29536000D01*
X163504000Y-29536000D02*
X176504000Y-29536000D01*
%TO.N,A*%
X172720000Y-34249872D02*
X172720000Y-34036000D01*
X181864000Y-42418000D02*
X181864000Y-42676000D01*
X178504000Y-46036000D02*
X178504000Y-50790502D01*
X181102000Y-42418000D02*
X181864000Y-42418000D01*
X172720000Y-34036000D02*
X181102000Y-42418000D01*
X172720000Y-34036000D02*
X172720000Y-36252000D01*
X180254000Y-43786000D02*
X180254000Y-44286000D01*
X180254000Y-44286000D02*
X178504000Y-46036000D01*
X181864000Y-42676000D02*
X180254000Y-44286000D01*
X172720000Y-36252000D02*
X179504000Y-43036000D01*
X179504000Y-43036000D02*
X180254000Y-43786000D01*
X180291498Y-52578000D02*
X178504000Y-50790502D01*
X181864000Y-52578000D02*
X180291498Y-52578000D01*
X181864000Y-52578000D02*
X178546000Y-52578000D01*
X178546000Y-52578000D02*
X177004000Y-51036000D01*
X177004000Y-45536000D02*
X179504000Y-43036000D01*
X177004000Y-51036000D02*
X177004000Y-45536000D01*
%TO.N,B*%
X180291498Y-77978000D02*
X181864000Y-77978000D01*
X178504000Y-76190502D02*
X180291498Y-77978000D01*
X178504000Y-70536000D02*
X178504000Y-76190502D01*
X181222000Y-67818000D02*
X178504000Y-70536000D01*
X181864000Y-67818000D02*
X181222000Y-67818000D01*
X167720000Y-34036000D02*
X167720000Y-40752000D01*
X167720000Y-40752000D02*
X172504000Y-45536000D01*
X181312392Y-67818000D02*
X181864000Y-67818000D01*
X172504000Y-59009608D02*
X181312392Y-67818000D01*
X172504000Y-45536000D02*
X172504000Y-59009608D01*
X179062000Y-77978000D02*
X181864000Y-77978000D01*
X179004000Y-78036000D02*
X179062000Y-77978000D01*
X177504000Y-76536000D02*
X179004000Y-78036000D01*
X177504000Y-70036000D02*
X177504000Y-76536000D01*
X171504000Y-60036000D02*
X179504000Y-68036000D01*
X171504000Y-46536000D02*
X171504000Y-60036000D01*
X179504000Y-68036000D02*
X177504000Y-70036000D01*
X166504000Y-41536000D02*
X171504000Y-46536000D01*
X166504000Y-34036000D02*
X166504000Y-41536000D01*
X167720000Y-34036000D02*
X166504000Y-34036000D01*
D24*
%TO.N,HO_A*%
X157110999Y-55233001D02*
X159766000Y-52578000D01*
X151245001Y-55233001D02*
X157110999Y-55233001D01*
X148590000Y-52578000D02*
X151245001Y-55233001D01*
%TO.N,HO_B*%
X157364999Y-74283001D02*
X160020000Y-71628000D01*
X151245001Y-74283001D02*
X157364999Y-74283001D01*
X148590000Y-71628000D02*
X151245001Y-74283001D01*
%TO.N,+5V*%
X125240000Y-41620000D02*
X121120000Y-41620000D01*
X121120000Y-41620000D02*
X111500000Y-32000000D01*
X111500000Y-32000000D02*
X108500000Y-32000000D01*
X108500000Y-32000000D02*
X107500000Y-33000000D01*
X107500000Y-76500000D02*
X111000000Y-80000000D01*
X107500000Y-33000000D02*
X107500000Y-76500000D01*
%TO.N,MOD_INDEX*%
X113540000Y-71974998D02*
X113500000Y-71934998D01*
X113540000Y-80000000D02*
X113540000Y-71974998D01*
X113500000Y-71140000D02*
X125240000Y-59400000D01*
X113500000Y-71934998D02*
X113500000Y-71140000D01*
%TO.N,SPEED*%
X123540000Y-63640000D02*
X123540000Y-80000000D01*
X125240000Y-61940000D02*
X123540000Y-63640000D01*
%TD*%
M02*
