%TF.GenerationSoftware,KiCad,Pcbnew,(5.1.12)-1*%
%TF.CreationDate,2021-11-30T23:14:44-08:00*%
%TF.ProjectId,inverter-stage,696e7665-7274-4657-922d-73746167652e,rev?*%
%TF.SameCoordinates,Original*%
%TF.FileFunction,Legend,Top*%
%TF.FilePolarity,Positive*%
%FSLAX46Y46*%
G04 Gerber Fmt 4.6, Leading zero omitted, Abs format (unit mm)*
G04 Created by KiCad (PCBNEW (5.1.12)-1) date 2021-11-30 23:14:44*
%MOMM*%
%LPD*%
G01*
G04 APERTURE LIST*
%ADD10C,0.150000*%
%ADD11C,0.200000*%
%ADD12C,0.120000*%
G04 APERTURE END LIST*
D10*
X168884952Y-39464571D02*
X169027809Y-39512190D01*
X169075428Y-39559809D01*
X169123047Y-39655047D01*
X169123047Y-39797904D01*
X169075428Y-39893142D01*
X169027809Y-39940761D01*
X168932571Y-39988380D01*
X168551619Y-39988380D01*
X168551619Y-38988380D01*
X168884952Y-38988380D01*
X168980190Y-39036000D01*
X169027809Y-39083619D01*
X169075428Y-39178857D01*
X169075428Y-39274095D01*
X169027809Y-39369333D01*
X168980190Y-39416952D01*
X168884952Y-39464571D01*
X168551619Y-39464571D01*
X171027809Y-39702666D02*
X171504000Y-39702666D01*
X170932571Y-39988380D02*
X171265904Y-38988380D01*
X171599238Y-39988380D01*
X109571428Y-76952380D02*
X109571428Y-75952380D01*
X109904761Y-76666666D01*
X110238095Y-75952380D01*
X110238095Y-76952380D01*
X110904761Y-75952380D02*
X111095238Y-75952380D01*
X111190476Y-76000000D01*
X111285714Y-76095238D01*
X111333333Y-76285714D01*
X111333333Y-76619047D01*
X111285714Y-76809523D01*
X111190476Y-76904761D01*
X111095238Y-76952380D01*
X110904761Y-76952380D01*
X110809523Y-76904761D01*
X110714285Y-76809523D01*
X110666666Y-76619047D01*
X110666666Y-76285714D01*
X110714285Y-76095238D01*
X110809523Y-76000000D01*
X110904761Y-75952380D01*
X111761904Y-76952380D02*
X111761904Y-75952380D01*
X112000000Y-75952380D01*
X112142857Y-76000000D01*
X112238095Y-76095238D01*
X112285714Y-76190476D01*
X112333333Y-76380952D01*
X112333333Y-76523809D01*
X112285714Y-76714285D01*
X112238095Y-76809523D01*
X112142857Y-76904761D01*
X112000000Y-76952380D01*
X111761904Y-76952380D01*
X113523809Y-76952380D02*
X113523809Y-75952380D01*
X114000000Y-76952380D02*
X114000000Y-75952380D01*
X114571428Y-76952380D01*
X114571428Y-75952380D01*
X115047619Y-76952380D02*
X115047619Y-75952380D01*
X115285714Y-75952380D01*
X115428571Y-76000000D01*
X115523809Y-76095238D01*
X115571428Y-76190476D01*
X115619047Y-76380952D01*
X115619047Y-76523809D01*
X115571428Y-76714285D01*
X115523809Y-76809523D01*
X115428571Y-76904761D01*
X115285714Y-76952380D01*
X115047619Y-76952380D01*
X116047619Y-76428571D02*
X116380952Y-76428571D01*
X116523809Y-76952380D02*
X116047619Y-76952380D01*
X116047619Y-75952380D01*
X116523809Y-75952380D01*
X116857142Y-75952380D02*
X117523809Y-76952380D01*
X117523809Y-75952380D02*
X116857142Y-76952380D01*
X121309523Y-76904761D02*
X121452380Y-76952380D01*
X121690476Y-76952380D01*
X121785714Y-76904761D01*
X121833333Y-76857142D01*
X121880952Y-76761904D01*
X121880952Y-76666666D01*
X121833333Y-76571428D01*
X121785714Y-76523809D01*
X121690476Y-76476190D01*
X121500000Y-76428571D01*
X121404761Y-76380952D01*
X121357142Y-76333333D01*
X121309523Y-76238095D01*
X121309523Y-76142857D01*
X121357142Y-76047619D01*
X121404761Y-76000000D01*
X121500000Y-75952380D01*
X121738095Y-75952380D01*
X121880952Y-76000000D01*
X122309523Y-76952380D02*
X122309523Y-75952380D01*
X122690476Y-75952380D01*
X122785714Y-76000000D01*
X122833333Y-76047619D01*
X122880952Y-76142857D01*
X122880952Y-76285714D01*
X122833333Y-76380952D01*
X122785714Y-76428571D01*
X122690476Y-76476190D01*
X122309523Y-76476190D01*
X123309523Y-76428571D02*
X123642857Y-76428571D01*
X123785714Y-76952380D02*
X123309523Y-76952380D01*
X123309523Y-75952380D01*
X123785714Y-75952380D01*
X124214285Y-76428571D02*
X124547619Y-76428571D01*
X124690476Y-76952380D02*
X124214285Y-76952380D01*
X124214285Y-75952380D01*
X124690476Y-75952380D01*
X125119047Y-76952380D02*
X125119047Y-75952380D01*
X125357142Y-75952380D01*
X125500000Y-76000000D01*
X125595238Y-76095238D01*
X125642857Y-76190476D01*
X125690476Y-76380952D01*
X125690476Y-76523809D01*
X125642857Y-76714285D01*
X125595238Y-76809523D01*
X125500000Y-76904761D01*
X125357142Y-76952380D01*
X125119047Y-76952380D01*
X183571428Y-71928571D02*
X183714285Y-71976190D01*
X183761904Y-72023809D01*
X183809523Y-72119047D01*
X183809523Y-72261904D01*
X183761904Y-72357142D01*
X183714285Y-72404761D01*
X183619047Y-72452380D01*
X183238095Y-72452380D01*
X183238095Y-71452380D01*
X183571428Y-71452380D01*
X183666666Y-71500000D01*
X183714285Y-71547619D01*
X183761904Y-71642857D01*
X183761904Y-71738095D01*
X183714285Y-71833333D01*
X183666666Y-71880952D01*
X183571428Y-71928571D01*
X183238095Y-71928571D01*
X183261904Y-46666666D02*
X183738095Y-46666666D01*
X183166666Y-46952380D02*
X183500000Y-45952380D01*
X183833333Y-46952380D01*
X155166666Y-38952380D02*
X155500000Y-39952380D01*
X155833333Y-38952380D01*
X156166666Y-39952380D02*
X156166666Y-38952380D01*
X156404761Y-38952380D01*
X156547619Y-39000000D01*
X156642857Y-39095238D01*
X156690476Y-39190476D01*
X156738095Y-39380952D01*
X156738095Y-39523809D01*
X156690476Y-39714285D01*
X156642857Y-39809523D01*
X156547619Y-39904761D01*
X156404761Y-39952380D01*
X156166666Y-39952380D01*
X157166666Y-39952380D02*
X157166666Y-38952380D01*
X157404761Y-38952380D01*
X157547619Y-39000000D01*
X157642857Y-39095238D01*
X157690476Y-39190476D01*
X157738095Y-39380952D01*
X157738095Y-39523809D01*
X157690476Y-39714285D01*
X157642857Y-39809523D01*
X157547619Y-39904761D01*
X157404761Y-39952380D01*
X157166666Y-39952380D01*
X164833333Y-82214285D02*
X164928571Y-82309523D01*
X164833333Y-82404761D01*
X164738095Y-82309523D01*
X164833333Y-82214285D01*
X164833333Y-82404761D01*
X164833333Y-81166666D02*
X164928571Y-81261904D01*
X164833333Y-81357142D01*
X164738095Y-81261904D01*
X164833333Y-81166666D01*
X164833333Y-81357142D01*
X165595238Y-83166666D02*
X165690476Y-83071428D01*
X165880952Y-82785714D01*
X165976190Y-82595238D01*
X166071428Y-82309523D01*
X166166666Y-81833333D01*
X166166666Y-81452380D01*
X166071428Y-80976190D01*
X165976190Y-80690476D01*
X165880952Y-80500000D01*
X165690476Y-80214285D01*
X165595238Y-80119047D01*
D11*
X139000000Y-79453571D02*
X139500000Y-80953571D01*
X140000000Y-79453571D01*
X141000000Y-80167857D02*
X140500000Y-80167857D01*
X140500000Y-80953571D02*
X140500000Y-79453571D01*
X141214285Y-79453571D01*
X141785714Y-80953571D02*
X141785714Y-79453571D01*
X142142857Y-79453571D01*
X142357142Y-79525000D01*
X142500000Y-79667857D01*
X142571428Y-79810714D01*
X142642857Y-80096428D01*
X142642857Y-80310714D01*
X142571428Y-80596428D01*
X142500000Y-80739285D01*
X142357142Y-80882142D01*
X142142857Y-80953571D01*
X141785714Y-80953571D01*
X144214285Y-79953571D02*
X144785714Y-79953571D01*
X144428571Y-80953571D02*
X144428571Y-79667857D01*
X144500000Y-79525000D01*
X144642857Y-79453571D01*
X144785714Y-79453571D01*
X145500000Y-80953571D02*
X145357142Y-80882142D01*
X145285714Y-80810714D01*
X145214285Y-80667857D01*
X145214285Y-80239285D01*
X145285714Y-80096428D01*
X145357142Y-80025000D01*
X145500000Y-79953571D01*
X145714285Y-79953571D01*
X145857142Y-80025000D01*
X145928571Y-80096428D01*
X146000000Y-80239285D01*
X146000000Y-80667857D01*
X145928571Y-80810714D01*
X145857142Y-80882142D01*
X145714285Y-80953571D01*
X145500000Y-80953571D01*
X146642857Y-80953571D02*
X146642857Y-79953571D01*
X146642857Y-80239285D02*
X146714285Y-80096428D01*
X146785714Y-80025000D01*
X146928571Y-79953571D01*
X147071428Y-79953571D01*
X148642857Y-80882142D02*
X148857142Y-80953571D01*
X149214285Y-80953571D01*
X149357142Y-80882142D01*
X149428571Y-80810714D01*
X149500000Y-80667857D01*
X149500000Y-80525000D01*
X149428571Y-80382142D01*
X149357142Y-80310714D01*
X149214285Y-80239285D01*
X148928571Y-80167857D01*
X148785714Y-80096428D01*
X148714285Y-80025000D01*
X148642857Y-79882142D01*
X148642857Y-79739285D01*
X148714285Y-79596428D01*
X148785714Y-79525000D01*
X148928571Y-79453571D01*
X149285714Y-79453571D01*
X149500000Y-79525000D01*
X150142857Y-80953571D02*
X150142857Y-79953571D01*
X150142857Y-79453571D02*
X150071428Y-79525000D01*
X150142857Y-79596428D01*
X150214285Y-79525000D01*
X150142857Y-79453571D01*
X150142857Y-79596428D01*
X150857142Y-79953571D02*
X150857142Y-80953571D01*
X150857142Y-80096428D02*
X150928571Y-80025000D01*
X151071428Y-79953571D01*
X151285714Y-79953571D01*
X151428571Y-80025000D01*
X151500000Y-80167857D01*
X151500000Y-80953571D01*
X152857142Y-79953571D02*
X152857142Y-81167857D01*
X152785714Y-81310714D01*
X152714285Y-81382142D01*
X152571428Y-81453571D01*
X152357142Y-81453571D01*
X152214285Y-81382142D01*
X152857142Y-80882142D02*
X152714285Y-80953571D01*
X152428571Y-80953571D01*
X152285714Y-80882142D01*
X152214285Y-80810714D01*
X152142857Y-80667857D01*
X152142857Y-80239285D01*
X152214285Y-80096428D01*
X152285714Y-80025000D01*
X152428571Y-79953571D01*
X152714285Y-79953571D01*
X152857142Y-80025000D01*
X153785714Y-80953571D02*
X153642857Y-80882142D01*
X153571428Y-80739285D01*
X153571428Y-79453571D01*
X154928571Y-80882142D02*
X154785714Y-80953571D01*
X154500000Y-80953571D01*
X154357142Y-80882142D01*
X154285714Y-80739285D01*
X154285714Y-80167857D01*
X154357142Y-80025000D01*
X154500000Y-79953571D01*
X154785714Y-79953571D01*
X154928571Y-80025000D01*
X155000000Y-80167857D01*
X155000000Y-80310714D01*
X154285714Y-80453571D01*
X156785714Y-80953571D02*
X156785714Y-79453571D01*
X157357142Y-79453571D01*
X157500000Y-79525000D01*
X157571428Y-79596428D01*
X157642857Y-79739285D01*
X157642857Y-79953571D01*
X157571428Y-80096428D01*
X157500000Y-80167857D01*
X157357142Y-80239285D01*
X156785714Y-80239285D01*
X158285714Y-80953571D02*
X158285714Y-79453571D01*
X158928571Y-80953571D02*
X158928571Y-80167857D01*
X158857142Y-80025000D01*
X158714285Y-79953571D01*
X158500000Y-79953571D01*
X158357142Y-80025000D01*
X158285714Y-80096428D01*
X160285714Y-80953571D02*
X160285714Y-80167857D01*
X160214285Y-80025000D01*
X160071428Y-79953571D01*
X159785714Y-79953571D01*
X159642857Y-80025000D01*
X160285714Y-80882142D02*
X160142857Y-80953571D01*
X159785714Y-80953571D01*
X159642857Y-80882142D01*
X159571428Y-80739285D01*
X159571428Y-80596428D01*
X159642857Y-80453571D01*
X159785714Y-80382142D01*
X160142857Y-80382142D01*
X160285714Y-80310714D01*
X160928571Y-80882142D02*
X161071428Y-80953571D01*
X161357142Y-80953571D01*
X161500000Y-80882142D01*
X161571428Y-80739285D01*
X161571428Y-80667857D01*
X161500000Y-80525000D01*
X161357142Y-80453571D01*
X161142857Y-80453571D01*
X161000000Y-80382142D01*
X160928571Y-80239285D01*
X160928571Y-80167857D01*
X161000000Y-80025000D01*
X161142857Y-79953571D01*
X161357142Y-79953571D01*
X161500000Y-80025000D01*
X162785714Y-80882142D02*
X162642857Y-80953571D01*
X162357142Y-80953571D01*
X162214285Y-80882142D01*
X162142857Y-80739285D01*
X162142857Y-80167857D01*
X162214285Y-80025000D01*
X162357142Y-79953571D01*
X162642857Y-79953571D01*
X162785714Y-80025000D01*
X162857142Y-80167857D01*
X162857142Y-80310714D01*
X162142857Y-80453571D01*
X142500000Y-83403571D02*
X142500000Y-81903571D01*
X143214285Y-82403571D02*
X143214285Y-83403571D01*
X143214285Y-82546428D02*
X143285714Y-82475000D01*
X143428571Y-82403571D01*
X143642857Y-82403571D01*
X143785714Y-82475000D01*
X143857142Y-82617857D01*
X143857142Y-83403571D01*
X145214285Y-83403571D02*
X145214285Y-81903571D01*
X145214285Y-83332142D02*
X145071428Y-83403571D01*
X144785714Y-83403571D01*
X144642857Y-83332142D01*
X144571428Y-83260714D01*
X144500000Y-83117857D01*
X144500000Y-82689285D01*
X144571428Y-82546428D01*
X144642857Y-82475000D01*
X144785714Y-82403571D01*
X145071428Y-82403571D01*
X145214285Y-82475000D01*
X146571428Y-82403571D02*
X146571428Y-83403571D01*
X145928571Y-82403571D02*
X145928571Y-83189285D01*
X146000000Y-83332142D01*
X146142857Y-83403571D01*
X146357142Y-83403571D01*
X146500000Y-83332142D01*
X146571428Y-83260714D01*
X147928571Y-83332142D02*
X147785714Y-83403571D01*
X147500000Y-83403571D01*
X147357142Y-83332142D01*
X147285714Y-83260714D01*
X147214285Y-83117857D01*
X147214285Y-82689285D01*
X147285714Y-82546428D01*
X147357142Y-82475000D01*
X147500000Y-82403571D01*
X147785714Y-82403571D01*
X147928571Y-82475000D01*
X148357142Y-82403571D02*
X148928571Y-82403571D01*
X148571428Y-81903571D02*
X148571428Y-83189285D01*
X148642857Y-83332142D01*
X148785714Y-83403571D01*
X148928571Y-83403571D01*
X149428571Y-83403571D02*
X149428571Y-82403571D01*
X149428571Y-81903571D02*
X149357142Y-81975000D01*
X149428571Y-82046428D01*
X149500000Y-81975000D01*
X149428571Y-81903571D01*
X149428571Y-82046428D01*
X150357142Y-83403571D02*
X150214285Y-83332142D01*
X150142857Y-83260714D01*
X150071428Y-83117857D01*
X150071428Y-82689285D01*
X150142857Y-82546428D01*
X150214285Y-82475000D01*
X150357142Y-82403571D01*
X150571428Y-82403571D01*
X150714285Y-82475000D01*
X150785714Y-82546428D01*
X150857142Y-82689285D01*
X150857142Y-83117857D01*
X150785714Y-83260714D01*
X150714285Y-83332142D01*
X150571428Y-83403571D01*
X150357142Y-83403571D01*
X151500000Y-82403571D02*
X151500000Y-83403571D01*
X151500000Y-82546428D02*
X151571428Y-82475000D01*
X151714285Y-82403571D01*
X151928571Y-82403571D01*
X152071428Y-82475000D01*
X152142857Y-82617857D01*
X152142857Y-83403571D01*
X154000000Y-83403571D02*
X154000000Y-81903571D01*
X154500000Y-82975000D01*
X155000000Y-81903571D01*
X155000000Y-83403571D01*
X155928571Y-83403571D02*
X155785714Y-83332142D01*
X155714285Y-83260714D01*
X155642857Y-83117857D01*
X155642857Y-82689285D01*
X155714285Y-82546428D01*
X155785714Y-82475000D01*
X155928571Y-82403571D01*
X156142857Y-82403571D01*
X156285714Y-82475000D01*
X156357142Y-82546428D01*
X156428571Y-82689285D01*
X156428571Y-83117857D01*
X156357142Y-83260714D01*
X156285714Y-83332142D01*
X156142857Y-83403571D01*
X155928571Y-83403571D01*
X156857142Y-82403571D02*
X157428571Y-82403571D01*
X157071428Y-81903571D02*
X157071428Y-83189285D01*
X157142857Y-83332142D01*
X157285714Y-83403571D01*
X157428571Y-83403571D01*
X158142857Y-83403571D02*
X158000000Y-83332142D01*
X157928571Y-83260714D01*
X157857142Y-83117857D01*
X157857142Y-82689285D01*
X157928571Y-82546428D01*
X158000000Y-82475000D01*
X158142857Y-82403571D01*
X158357142Y-82403571D01*
X158500000Y-82475000D01*
X158571428Y-82546428D01*
X158642857Y-82689285D01*
X158642857Y-83117857D01*
X158571428Y-83260714D01*
X158500000Y-83332142D01*
X158357142Y-83403571D01*
X158142857Y-83403571D01*
X159285714Y-83403571D02*
X159285714Y-82403571D01*
X159285714Y-82689285D02*
X159357142Y-82546428D01*
X159428571Y-82475000D01*
X159571428Y-82403571D01*
X159714285Y-82403571D01*
D10*
X105214285Y-46095238D02*
X104547619Y-46333333D01*
X105214285Y-46571428D01*
X104547619Y-47476190D02*
X104547619Y-46904761D01*
X104547619Y-47190476D02*
X105547619Y-47190476D01*
X105404761Y-47095238D01*
X105309523Y-47000000D01*
X105261904Y-46904761D01*
X104642857Y-47904761D02*
X104595238Y-47952380D01*
X104547619Y-47904761D01*
X104595238Y-47857142D01*
X104642857Y-47904761D01*
X104547619Y-47904761D01*
X105547619Y-48571428D02*
X105547619Y-48666666D01*
X105500000Y-48761904D01*
X105452380Y-48809523D01*
X105357142Y-48857142D01*
X105166666Y-48904761D01*
X104928571Y-48904761D01*
X104738095Y-48857142D01*
X104642857Y-48809523D01*
X104595238Y-48761904D01*
X104547619Y-48666666D01*
X104547619Y-48571428D01*
X104595238Y-48476190D01*
X104642857Y-48428571D01*
X104738095Y-48380952D01*
X104928571Y-48333333D01*
X105166666Y-48333333D01*
X105357142Y-48380952D01*
X105452380Y-48428571D01*
X105500000Y-48476190D01*
X105547619Y-48571428D01*
X104547619Y-50095238D02*
X105547619Y-50095238D01*
X104833333Y-50428571D01*
X105547619Y-50761904D01*
X104547619Y-50761904D01*
X104547619Y-51666666D02*
X105071428Y-51666666D01*
X105166666Y-51619047D01*
X105214285Y-51523809D01*
X105214285Y-51333333D01*
X105166666Y-51238095D01*
X104595238Y-51666666D02*
X104547619Y-51571428D01*
X104547619Y-51333333D01*
X104595238Y-51238095D01*
X104690476Y-51190476D01*
X104785714Y-51190476D01*
X104880952Y-51238095D01*
X104928571Y-51333333D01*
X104928571Y-51571428D01*
X104976190Y-51666666D01*
X105214285Y-52000000D02*
X105214285Y-52380952D01*
X105547619Y-52142857D02*
X104690476Y-52142857D01*
X104595238Y-52190476D01*
X104547619Y-52285714D01*
X104547619Y-52380952D01*
X105214285Y-52571428D02*
X105214285Y-52952380D01*
X105547619Y-52714285D02*
X104690476Y-52714285D01*
X104595238Y-52761904D01*
X104547619Y-52857142D01*
X104547619Y-52952380D01*
X104547619Y-53285714D02*
X105214285Y-53285714D01*
X105547619Y-53285714D02*
X105500000Y-53238095D01*
X105452380Y-53285714D01*
X105500000Y-53333333D01*
X105547619Y-53285714D01*
X105452380Y-53285714D01*
X104547619Y-54190476D02*
X105071428Y-54190476D01*
X105166666Y-54142857D01*
X105214285Y-54047619D01*
X105214285Y-53857142D01*
X105166666Y-53761904D01*
X104595238Y-54190476D02*
X104547619Y-54095238D01*
X104547619Y-53857142D01*
X104595238Y-53761904D01*
X104690476Y-53714285D01*
X104785714Y-53714285D01*
X104880952Y-53761904D01*
X104928571Y-53857142D01*
X104928571Y-54095238D01*
X104976190Y-54190476D01*
X104595238Y-54619047D02*
X104547619Y-54714285D01*
X104547619Y-54904761D01*
X104595238Y-55000000D01*
X104690476Y-55047619D01*
X104738095Y-55047619D01*
X104833333Y-55000000D01*
X104880952Y-54904761D01*
X104880952Y-54761904D01*
X104928571Y-54666666D01*
X105023809Y-54619047D01*
X105071428Y-54619047D01*
X105166666Y-54666666D01*
X105214285Y-54761904D01*
X105214285Y-54904761D01*
X105166666Y-55000000D01*
X105547619Y-56142857D02*
X105547619Y-56809523D01*
X104547619Y-56142857D01*
X104547619Y-56809523D01*
X105214285Y-57619047D02*
X104547619Y-57619047D01*
X105214285Y-57190476D02*
X104690476Y-57190476D01*
X104595238Y-57238095D01*
X104547619Y-57333333D01*
X104547619Y-57476190D01*
X104595238Y-57571428D01*
X104642857Y-57619047D01*
X104547619Y-58095238D02*
X105214285Y-58095238D01*
X105023809Y-58095238D02*
X105119047Y-58142857D01*
X105166666Y-58190476D01*
X105214285Y-58285714D01*
X105214285Y-58380952D01*
X104547619Y-58714285D02*
X105547619Y-58714285D01*
X104928571Y-58809523D02*
X104547619Y-59095238D01*
X105214285Y-59095238D02*
X104833333Y-58714285D01*
X104547619Y-59666666D02*
X104595238Y-59571428D01*
X104642857Y-59523809D01*
X104738095Y-59476190D01*
X105023809Y-59476190D01*
X105119047Y-59523809D01*
X105166666Y-59571428D01*
X105214285Y-59666666D01*
X105214285Y-59809523D01*
X105166666Y-59904761D01*
X105119047Y-59952380D01*
X105023809Y-60000000D01*
X104738095Y-60000000D01*
X104642857Y-59952380D01*
X104595238Y-59904761D01*
X104547619Y-59809523D01*
X104547619Y-59666666D01*
X105214285Y-60333333D02*
X104547619Y-60571428D01*
X105214285Y-60809523D01*
X104547619Y-61190476D02*
X105214285Y-61190476D01*
X105547619Y-61190476D02*
X105500000Y-61142857D01*
X105452380Y-61190476D01*
X105500000Y-61238095D01*
X105547619Y-61190476D01*
X105452380Y-61190476D01*
X104595238Y-62095238D02*
X104547619Y-62000000D01*
X104547619Y-61809523D01*
X104595238Y-61714285D01*
X104642857Y-61666666D01*
X104738095Y-61619047D01*
X105023809Y-61619047D01*
X105119047Y-61666666D01*
X105166666Y-61714285D01*
X105214285Y-61809523D01*
X105214285Y-62000000D01*
X105166666Y-62095238D01*
D12*
%TO.C,A1*%
X111270000Y-35270000D02*
X111270000Y-32730000D01*
X111270000Y-32730000D02*
X108600000Y-32730000D01*
X108600000Y-35270000D02*
X108600000Y-73500000D01*
X108600000Y-30060000D02*
X108600000Y-32730000D01*
X123970000Y-32730000D02*
X126640000Y-32730000D01*
X123970000Y-32730000D02*
X123970000Y-70830000D01*
X123970000Y-70830000D02*
X126640000Y-70830000D01*
X111270000Y-35270000D02*
X108600000Y-35270000D01*
X111270000Y-35270000D02*
X111270000Y-70830000D01*
X111270000Y-70830000D02*
X108600000Y-70830000D01*
X108600000Y-73500000D02*
X126640000Y-73500000D01*
X126640000Y-73500000D02*
X126640000Y-30060000D01*
X126640000Y-30060000D02*
X108600000Y-30060000D01*
%TO.C,U2*%
X143780000Y-67758000D02*
X142130000Y-67758000D01*
X142130000Y-67758000D02*
X142130000Y-78038000D01*
X142130000Y-78038000D02*
X147430000Y-78038000D01*
X147430000Y-78038000D02*
X147430000Y-67758000D01*
X147430000Y-67758000D02*
X145780000Y-67758000D01*
X139640000Y-67698000D02*
X139640000Y-78098000D01*
X139640000Y-78098000D02*
X149920000Y-78098000D01*
X149920000Y-78098000D02*
X149920000Y-67698000D01*
X149920000Y-67698000D02*
X139640000Y-67698000D01*
X145780000Y-67758000D02*
G75*
G02*
X143780000Y-67758000I-1000000J0D01*
G01*
%TO.C,U1*%
X143780000Y-48708000D02*
X142130000Y-48708000D01*
X142130000Y-48708000D02*
X142130000Y-58988000D01*
X142130000Y-58988000D02*
X147430000Y-58988000D01*
X147430000Y-58988000D02*
X147430000Y-48708000D01*
X147430000Y-48708000D02*
X145780000Y-48708000D01*
X139640000Y-48648000D02*
X139640000Y-59048000D01*
X139640000Y-59048000D02*
X149920000Y-59048000D01*
X149920000Y-59048000D02*
X149920000Y-48648000D01*
X149920000Y-48648000D02*
X139640000Y-48648000D01*
X145780000Y-48708000D02*
G75*
G02*
X143780000Y-48708000I-1000000J0D01*
G01*
%TO.C,Q4*%
X185134000Y-72858000D02*
X185134000Y-83098000D01*
X180493000Y-72858000D02*
X180493000Y-83098000D01*
X185134000Y-72858000D02*
X180493000Y-72858000D01*
X185134000Y-83098000D02*
X180493000Y-83098000D01*
X183624000Y-72858000D02*
X183624000Y-83098000D01*
X185134000Y-76128000D02*
X183624000Y-76128000D01*
X185134000Y-79829000D02*
X183624000Y-79829000D01*
%TO.C,Q3*%
X185134000Y-60158000D02*
X185134000Y-70398000D01*
X180493000Y-60158000D02*
X180493000Y-70398000D01*
X185134000Y-60158000D02*
X180493000Y-60158000D01*
X185134000Y-70398000D02*
X180493000Y-70398000D01*
X183624000Y-60158000D02*
X183624000Y-70398000D01*
X185134000Y-63428000D02*
X183624000Y-63428000D01*
X185134000Y-67129000D02*
X183624000Y-67129000D01*
%TO.C,Q2*%
X185134000Y-47458000D02*
X185134000Y-57698000D01*
X180493000Y-47458000D02*
X180493000Y-57698000D01*
X185134000Y-47458000D02*
X180493000Y-47458000D01*
X185134000Y-57698000D02*
X180493000Y-57698000D01*
X183624000Y-47458000D02*
X183624000Y-57698000D01*
X185134000Y-50728000D02*
X183624000Y-50728000D01*
X185134000Y-54429000D02*
X183624000Y-54429000D01*
%TO.C,Q1*%
X185134000Y-34758000D02*
X185134000Y-44998000D01*
X180493000Y-34758000D02*
X180493000Y-44998000D01*
X185134000Y-34758000D02*
X180493000Y-34758000D01*
X185134000Y-44998000D02*
X180493000Y-44998000D01*
X183624000Y-34758000D02*
X183624000Y-44998000D01*
X185134000Y-38028000D02*
X183624000Y-38028000D01*
X185134000Y-41729000D02*
X183624000Y-41729000D01*
%TO.C,J2*%
X175370000Y-40336000D02*
X175370000Y-27736000D01*
X175370000Y-27736000D02*
X165020000Y-27736000D01*
X165020000Y-27736000D02*
X165020000Y-28686000D01*
X165020000Y-28686000D02*
X164520000Y-28436000D01*
X164520000Y-28436000D02*
X164520000Y-30336000D01*
X164520000Y-30336000D02*
X164520000Y-30386000D01*
X164520000Y-30386000D02*
X165020000Y-30136000D01*
X165020000Y-30136000D02*
X165020000Y-35536000D01*
X165020000Y-35536000D02*
X164520000Y-35236000D01*
X164520000Y-35236000D02*
X164520000Y-40336000D01*
X164520000Y-40336000D02*
X175370000Y-40336000D01*
%TO.C,C4*%
X156290000Y-71608000D02*
G75*
G03*
X156290000Y-71608000I-2620000J0D01*
G01*
X156250000Y-71608000D02*
X151090000Y-71608000D01*
X156250000Y-71648000D02*
X151090000Y-71648000D01*
X156249000Y-71688000D02*
X151091000Y-71688000D01*
X156248000Y-71728000D02*
X151092000Y-71728000D01*
X156246000Y-71768000D02*
X151094000Y-71768000D01*
X156243000Y-71808000D02*
X151097000Y-71808000D01*
X156239000Y-71848000D02*
X154710000Y-71848000D01*
X152630000Y-71848000D02*
X151101000Y-71848000D01*
X156235000Y-71888000D02*
X154710000Y-71888000D01*
X152630000Y-71888000D02*
X151105000Y-71888000D01*
X156231000Y-71928000D02*
X154710000Y-71928000D01*
X152630000Y-71928000D02*
X151109000Y-71928000D01*
X156226000Y-71968000D02*
X154710000Y-71968000D01*
X152630000Y-71968000D02*
X151114000Y-71968000D01*
X156220000Y-72008000D02*
X154710000Y-72008000D01*
X152630000Y-72008000D02*
X151120000Y-72008000D01*
X156213000Y-72048000D02*
X154710000Y-72048000D01*
X152630000Y-72048000D02*
X151127000Y-72048000D01*
X156206000Y-72088000D02*
X154710000Y-72088000D01*
X152630000Y-72088000D02*
X151134000Y-72088000D01*
X156198000Y-72128000D02*
X154710000Y-72128000D01*
X152630000Y-72128000D02*
X151142000Y-72128000D01*
X156190000Y-72168000D02*
X154710000Y-72168000D01*
X152630000Y-72168000D02*
X151150000Y-72168000D01*
X156181000Y-72208000D02*
X154710000Y-72208000D01*
X152630000Y-72208000D02*
X151159000Y-72208000D01*
X156171000Y-72248000D02*
X154710000Y-72248000D01*
X152630000Y-72248000D02*
X151169000Y-72248000D01*
X156161000Y-72288000D02*
X154710000Y-72288000D01*
X152630000Y-72288000D02*
X151179000Y-72288000D01*
X156150000Y-72329000D02*
X154710000Y-72329000D01*
X152630000Y-72329000D02*
X151190000Y-72329000D01*
X156138000Y-72369000D02*
X154710000Y-72369000D01*
X152630000Y-72369000D02*
X151202000Y-72369000D01*
X156125000Y-72409000D02*
X154710000Y-72409000D01*
X152630000Y-72409000D02*
X151215000Y-72409000D01*
X156112000Y-72449000D02*
X154710000Y-72449000D01*
X152630000Y-72449000D02*
X151228000Y-72449000D01*
X156098000Y-72489000D02*
X154710000Y-72489000D01*
X152630000Y-72489000D02*
X151242000Y-72489000D01*
X156084000Y-72529000D02*
X154710000Y-72529000D01*
X152630000Y-72529000D02*
X151256000Y-72529000D01*
X156068000Y-72569000D02*
X154710000Y-72569000D01*
X152630000Y-72569000D02*
X151272000Y-72569000D01*
X156052000Y-72609000D02*
X154710000Y-72609000D01*
X152630000Y-72609000D02*
X151288000Y-72609000D01*
X156035000Y-72649000D02*
X154710000Y-72649000D01*
X152630000Y-72649000D02*
X151305000Y-72649000D01*
X156018000Y-72689000D02*
X154710000Y-72689000D01*
X152630000Y-72689000D02*
X151322000Y-72689000D01*
X155999000Y-72729000D02*
X154710000Y-72729000D01*
X152630000Y-72729000D02*
X151341000Y-72729000D01*
X155980000Y-72769000D02*
X154710000Y-72769000D01*
X152630000Y-72769000D02*
X151360000Y-72769000D01*
X155960000Y-72809000D02*
X154710000Y-72809000D01*
X152630000Y-72809000D02*
X151380000Y-72809000D01*
X155938000Y-72849000D02*
X154710000Y-72849000D01*
X152630000Y-72849000D02*
X151402000Y-72849000D01*
X155917000Y-72889000D02*
X154710000Y-72889000D01*
X152630000Y-72889000D02*
X151423000Y-72889000D01*
X155894000Y-72929000D02*
X154710000Y-72929000D01*
X152630000Y-72929000D02*
X151446000Y-72929000D01*
X155870000Y-72969000D02*
X154710000Y-72969000D01*
X152630000Y-72969000D02*
X151470000Y-72969000D01*
X155845000Y-73009000D02*
X154710000Y-73009000D01*
X152630000Y-73009000D02*
X151495000Y-73009000D01*
X155819000Y-73049000D02*
X154710000Y-73049000D01*
X152630000Y-73049000D02*
X151521000Y-73049000D01*
X155792000Y-73089000D02*
X154710000Y-73089000D01*
X152630000Y-73089000D02*
X151548000Y-73089000D01*
X155765000Y-73129000D02*
X154710000Y-73129000D01*
X152630000Y-73129000D02*
X151575000Y-73129000D01*
X155735000Y-73169000D02*
X154710000Y-73169000D01*
X152630000Y-73169000D02*
X151605000Y-73169000D01*
X155705000Y-73209000D02*
X154710000Y-73209000D01*
X152630000Y-73209000D02*
X151635000Y-73209000D01*
X155674000Y-73249000D02*
X154710000Y-73249000D01*
X152630000Y-73249000D02*
X151666000Y-73249000D01*
X155641000Y-73289000D02*
X154710000Y-73289000D01*
X152630000Y-73289000D02*
X151699000Y-73289000D01*
X155607000Y-73329000D02*
X154710000Y-73329000D01*
X152630000Y-73329000D02*
X151733000Y-73329000D01*
X155571000Y-73369000D02*
X154710000Y-73369000D01*
X152630000Y-73369000D02*
X151769000Y-73369000D01*
X155534000Y-73409000D02*
X154710000Y-73409000D01*
X152630000Y-73409000D02*
X151806000Y-73409000D01*
X155496000Y-73449000D02*
X154710000Y-73449000D01*
X152630000Y-73449000D02*
X151844000Y-73449000D01*
X155455000Y-73489000D02*
X154710000Y-73489000D01*
X152630000Y-73489000D02*
X151885000Y-73489000D01*
X155413000Y-73529000D02*
X154710000Y-73529000D01*
X152630000Y-73529000D02*
X151927000Y-73529000D01*
X155369000Y-73569000D02*
X154710000Y-73569000D01*
X152630000Y-73569000D02*
X151971000Y-73569000D01*
X155323000Y-73609000D02*
X154710000Y-73609000D01*
X152630000Y-73609000D02*
X152017000Y-73609000D01*
X155275000Y-73649000D02*
X154710000Y-73649000D01*
X152630000Y-73649000D02*
X152065000Y-73649000D01*
X155224000Y-73689000D02*
X154710000Y-73689000D01*
X152630000Y-73689000D02*
X152116000Y-73689000D01*
X155170000Y-73729000D02*
X154710000Y-73729000D01*
X152630000Y-73729000D02*
X152170000Y-73729000D01*
X155113000Y-73769000D02*
X154710000Y-73769000D01*
X152630000Y-73769000D02*
X152227000Y-73769000D01*
X155053000Y-73809000D02*
X154710000Y-73809000D01*
X152630000Y-73809000D02*
X152287000Y-73809000D01*
X154989000Y-73849000D02*
X154710000Y-73849000D01*
X152630000Y-73849000D02*
X152351000Y-73849000D01*
X154921000Y-73889000D02*
X154710000Y-73889000D01*
X152630000Y-73889000D02*
X152419000Y-73889000D01*
X154848000Y-73929000D02*
X152492000Y-73929000D01*
X154768000Y-73969000D02*
X152572000Y-73969000D01*
X154681000Y-74009000D02*
X152659000Y-74009000D01*
X154585000Y-74049000D02*
X152755000Y-74049000D01*
X154475000Y-74089000D02*
X152865000Y-74089000D01*
X154347000Y-74129000D02*
X152993000Y-74129000D01*
X154188000Y-74169000D02*
X153152000Y-74169000D01*
X153954000Y-74209000D02*
X153386000Y-74209000D01*
X155145000Y-68803225D02*
X155145000Y-69303225D01*
X155395000Y-69053225D02*
X154895000Y-69053225D01*
%TO.C,C3*%
X137270000Y-72878000D02*
G75*
G03*
X137270000Y-72878000I-3270000J0D01*
G01*
X137230000Y-72878000D02*
X130770000Y-72878000D01*
X137230000Y-72918000D02*
X130770000Y-72918000D01*
X137230000Y-72958000D02*
X130770000Y-72958000D01*
X137228000Y-72998000D02*
X130772000Y-72998000D01*
X137227000Y-73038000D02*
X130773000Y-73038000D01*
X137224000Y-73078000D02*
X130776000Y-73078000D01*
X137222000Y-73118000D02*
X135040000Y-73118000D01*
X132960000Y-73118000D02*
X130778000Y-73118000D01*
X137218000Y-73158000D02*
X135040000Y-73158000D01*
X132960000Y-73158000D02*
X130782000Y-73158000D01*
X137215000Y-73198000D02*
X135040000Y-73198000D01*
X132960000Y-73198000D02*
X130785000Y-73198000D01*
X137211000Y-73238000D02*
X135040000Y-73238000D01*
X132960000Y-73238000D02*
X130789000Y-73238000D01*
X137206000Y-73278000D02*
X135040000Y-73278000D01*
X132960000Y-73278000D02*
X130794000Y-73278000D01*
X137201000Y-73318000D02*
X135040000Y-73318000D01*
X132960000Y-73318000D02*
X130799000Y-73318000D01*
X137195000Y-73358000D02*
X135040000Y-73358000D01*
X132960000Y-73358000D02*
X130805000Y-73358000D01*
X137189000Y-73398000D02*
X135040000Y-73398000D01*
X132960000Y-73398000D02*
X130811000Y-73398000D01*
X137182000Y-73438000D02*
X135040000Y-73438000D01*
X132960000Y-73438000D02*
X130818000Y-73438000D01*
X137175000Y-73478000D02*
X135040000Y-73478000D01*
X132960000Y-73478000D02*
X130825000Y-73478000D01*
X137167000Y-73518000D02*
X135040000Y-73518000D01*
X132960000Y-73518000D02*
X130833000Y-73518000D01*
X137159000Y-73558000D02*
X135040000Y-73558000D01*
X132960000Y-73558000D02*
X130841000Y-73558000D01*
X137150000Y-73599000D02*
X135040000Y-73599000D01*
X132960000Y-73599000D02*
X130850000Y-73599000D01*
X137141000Y-73639000D02*
X135040000Y-73639000D01*
X132960000Y-73639000D02*
X130859000Y-73639000D01*
X137131000Y-73679000D02*
X135040000Y-73679000D01*
X132960000Y-73679000D02*
X130869000Y-73679000D01*
X137121000Y-73719000D02*
X135040000Y-73719000D01*
X132960000Y-73719000D02*
X130879000Y-73719000D01*
X137110000Y-73759000D02*
X135040000Y-73759000D01*
X132960000Y-73759000D02*
X130890000Y-73759000D01*
X137098000Y-73799000D02*
X135040000Y-73799000D01*
X132960000Y-73799000D02*
X130902000Y-73799000D01*
X137086000Y-73839000D02*
X135040000Y-73839000D01*
X132960000Y-73839000D02*
X130914000Y-73839000D01*
X137074000Y-73879000D02*
X135040000Y-73879000D01*
X132960000Y-73879000D02*
X130926000Y-73879000D01*
X137061000Y-73919000D02*
X135040000Y-73919000D01*
X132960000Y-73919000D02*
X130939000Y-73919000D01*
X137047000Y-73959000D02*
X135040000Y-73959000D01*
X132960000Y-73959000D02*
X130953000Y-73959000D01*
X137033000Y-73999000D02*
X135040000Y-73999000D01*
X132960000Y-73999000D02*
X130967000Y-73999000D01*
X137018000Y-74039000D02*
X135040000Y-74039000D01*
X132960000Y-74039000D02*
X130982000Y-74039000D01*
X137002000Y-74079000D02*
X135040000Y-74079000D01*
X132960000Y-74079000D02*
X130998000Y-74079000D01*
X136986000Y-74119000D02*
X135040000Y-74119000D01*
X132960000Y-74119000D02*
X131014000Y-74119000D01*
X136970000Y-74159000D02*
X135040000Y-74159000D01*
X132960000Y-74159000D02*
X131030000Y-74159000D01*
X136952000Y-74199000D02*
X135040000Y-74199000D01*
X132960000Y-74199000D02*
X131048000Y-74199000D01*
X136934000Y-74239000D02*
X135040000Y-74239000D01*
X132960000Y-74239000D02*
X131066000Y-74239000D01*
X136916000Y-74279000D02*
X135040000Y-74279000D01*
X132960000Y-74279000D02*
X131084000Y-74279000D01*
X136896000Y-74319000D02*
X135040000Y-74319000D01*
X132960000Y-74319000D02*
X131104000Y-74319000D01*
X136876000Y-74359000D02*
X135040000Y-74359000D01*
X132960000Y-74359000D02*
X131124000Y-74359000D01*
X136856000Y-74399000D02*
X135040000Y-74399000D01*
X132960000Y-74399000D02*
X131144000Y-74399000D01*
X136834000Y-74439000D02*
X135040000Y-74439000D01*
X132960000Y-74439000D02*
X131166000Y-74439000D01*
X136812000Y-74479000D02*
X135040000Y-74479000D01*
X132960000Y-74479000D02*
X131188000Y-74479000D01*
X136790000Y-74519000D02*
X135040000Y-74519000D01*
X132960000Y-74519000D02*
X131210000Y-74519000D01*
X136766000Y-74559000D02*
X135040000Y-74559000D01*
X132960000Y-74559000D02*
X131234000Y-74559000D01*
X136742000Y-74599000D02*
X135040000Y-74599000D01*
X132960000Y-74599000D02*
X131258000Y-74599000D01*
X136716000Y-74639000D02*
X135040000Y-74639000D01*
X132960000Y-74639000D02*
X131284000Y-74639000D01*
X136690000Y-74679000D02*
X135040000Y-74679000D01*
X132960000Y-74679000D02*
X131310000Y-74679000D01*
X136664000Y-74719000D02*
X135040000Y-74719000D01*
X132960000Y-74719000D02*
X131336000Y-74719000D01*
X136636000Y-74759000D02*
X135040000Y-74759000D01*
X132960000Y-74759000D02*
X131364000Y-74759000D01*
X136607000Y-74799000D02*
X135040000Y-74799000D01*
X132960000Y-74799000D02*
X131393000Y-74799000D01*
X136578000Y-74839000D02*
X135040000Y-74839000D01*
X132960000Y-74839000D02*
X131422000Y-74839000D01*
X136548000Y-74879000D02*
X135040000Y-74879000D01*
X132960000Y-74879000D02*
X131452000Y-74879000D01*
X136516000Y-74919000D02*
X135040000Y-74919000D01*
X132960000Y-74919000D02*
X131484000Y-74919000D01*
X136484000Y-74959000D02*
X135040000Y-74959000D01*
X132960000Y-74959000D02*
X131516000Y-74959000D01*
X136450000Y-74999000D02*
X135040000Y-74999000D01*
X132960000Y-74999000D02*
X131550000Y-74999000D01*
X136416000Y-75039000D02*
X135040000Y-75039000D01*
X132960000Y-75039000D02*
X131584000Y-75039000D01*
X136380000Y-75079000D02*
X135040000Y-75079000D01*
X132960000Y-75079000D02*
X131620000Y-75079000D01*
X136343000Y-75119000D02*
X135040000Y-75119000D01*
X132960000Y-75119000D02*
X131657000Y-75119000D01*
X136305000Y-75159000D02*
X135040000Y-75159000D01*
X132960000Y-75159000D02*
X131695000Y-75159000D01*
X136265000Y-75199000D02*
X131735000Y-75199000D01*
X136224000Y-75239000D02*
X131776000Y-75239000D01*
X136182000Y-75279000D02*
X131818000Y-75279000D01*
X136137000Y-75319000D02*
X131863000Y-75319000D01*
X136092000Y-75359000D02*
X131908000Y-75359000D01*
X136044000Y-75399000D02*
X131956000Y-75399000D01*
X135995000Y-75439000D02*
X132005000Y-75439000D01*
X135944000Y-75479000D02*
X132056000Y-75479000D01*
X135890000Y-75519000D02*
X132110000Y-75519000D01*
X135834000Y-75559000D02*
X132166000Y-75559000D01*
X135776000Y-75599000D02*
X132224000Y-75599000D01*
X135714000Y-75639000D02*
X132286000Y-75639000D01*
X135650000Y-75679000D02*
X132350000Y-75679000D01*
X135581000Y-75719000D02*
X132419000Y-75719000D01*
X135509000Y-75759000D02*
X132491000Y-75759000D01*
X135432000Y-75799000D02*
X132568000Y-75799000D01*
X135350000Y-75839000D02*
X132650000Y-75839000D01*
X135262000Y-75879000D02*
X132738000Y-75879000D01*
X135165000Y-75919000D02*
X132835000Y-75919000D01*
X135059000Y-75959000D02*
X132941000Y-75959000D01*
X134940000Y-75999000D02*
X133060000Y-75999000D01*
X134802000Y-76039000D02*
X133198000Y-76039000D01*
X134633000Y-76079000D02*
X133367000Y-76079000D01*
X134402000Y-76119000D02*
X133598000Y-76119000D01*
X135839000Y-69377759D02*
X135839000Y-70007759D01*
X136154000Y-69692759D02*
X135524000Y-69692759D01*
%TO.C,C2*%
X156290000Y-52558000D02*
G75*
G03*
X156290000Y-52558000I-2620000J0D01*
G01*
X156250000Y-52558000D02*
X151090000Y-52558000D01*
X156250000Y-52598000D02*
X151090000Y-52598000D01*
X156249000Y-52638000D02*
X151091000Y-52638000D01*
X156248000Y-52678000D02*
X151092000Y-52678000D01*
X156246000Y-52718000D02*
X151094000Y-52718000D01*
X156243000Y-52758000D02*
X151097000Y-52758000D01*
X156239000Y-52798000D02*
X154710000Y-52798000D01*
X152630000Y-52798000D02*
X151101000Y-52798000D01*
X156235000Y-52838000D02*
X154710000Y-52838000D01*
X152630000Y-52838000D02*
X151105000Y-52838000D01*
X156231000Y-52878000D02*
X154710000Y-52878000D01*
X152630000Y-52878000D02*
X151109000Y-52878000D01*
X156226000Y-52918000D02*
X154710000Y-52918000D01*
X152630000Y-52918000D02*
X151114000Y-52918000D01*
X156220000Y-52958000D02*
X154710000Y-52958000D01*
X152630000Y-52958000D02*
X151120000Y-52958000D01*
X156213000Y-52998000D02*
X154710000Y-52998000D01*
X152630000Y-52998000D02*
X151127000Y-52998000D01*
X156206000Y-53038000D02*
X154710000Y-53038000D01*
X152630000Y-53038000D02*
X151134000Y-53038000D01*
X156198000Y-53078000D02*
X154710000Y-53078000D01*
X152630000Y-53078000D02*
X151142000Y-53078000D01*
X156190000Y-53118000D02*
X154710000Y-53118000D01*
X152630000Y-53118000D02*
X151150000Y-53118000D01*
X156181000Y-53158000D02*
X154710000Y-53158000D01*
X152630000Y-53158000D02*
X151159000Y-53158000D01*
X156171000Y-53198000D02*
X154710000Y-53198000D01*
X152630000Y-53198000D02*
X151169000Y-53198000D01*
X156161000Y-53238000D02*
X154710000Y-53238000D01*
X152630000Y-53238000D02*
X151179000Y-53238000D01*
X156150000Y-53279000D02*
X154710000Y-53279000D01*
X152630000Y-53279000D02*
X151190000Y-53279000D01*
X156138000Y-53319000D02*
X154710000Y-53319000D01*
X152630000Y-53319000D02*
X151202000Y-53319000D01*
X156125000Y-53359000D02*
X154710000Y-53359000D01*
X152630000Y-53359000D02*
X151215000Y-53359000D01*
X156112000Y-53399000D02*
X154710000Y-53399000D01*
X152630000Y-53399000D02*
X151228000Y-53399000D01*
X156098000Y-53439000D02*
X154710000Y-53439000D01*
X152630000Y-53439000D02*
X151242000Y-53439000D01*
X156084000Y-53479000D02*
X154710000Y-53479000D01*
X152630000Y-53479000D02*
X151256000Y-53479000D01*
X156068000Y-53519000D02*
X154710000Y-53519000D01*
X152630000Y-53519000D02*
X151272000Y-53519000D01*
X156052000Y-53559000D02*
X154710000Y-53559000D01*
X152630000Y-53559000D02*
X151288000Y-53559000D01*
X156035000Y-53599000D02*
X154710000Y-53599000D01*
X152630000Y-53599000D02*
X151305000Y-53599000D01*
X156018000Y-53639000D02*
X154710000Y-53639000D01*
X152630000Y-53639000D02*
X151322000Y-53639000D01*
X155999000Y-53679000D02*
X154710000Y-53679000D01*
X152630000Y-53679000D02*
X151341000Y-53679000D01*
X155980000Y-53719000D02*
X154710000Y-53719000D01*
X152630000Y-53719000D02*
X151360000Y-53719000D01*
X155960000Y-53759000D02*
X154710000Y-53759000D01*
X152630000Y-53759000D02*
X151380000Y-53759000D01*
X155938000Y-53799000D02*
X154710000Y-53799000D01*
X152630000Y-53799000D02*
X151402000Y-53799000D01*
X155917000Y-53839000D02*
X154710000Y-53839000D01*
X152630000Y-53839000D02*
X151423000Y-53839000D01*
X155894000Y-53879000D02*
X154710000Y-53879000D01*
X152630000Y-53879000D02*
X151446000Y-53879000D01*
X155870000Y-53919000D02*
X154710000Y-53919000D01*
X152630000Y-53919000D02*
X151470000Y-53919000D01*
X155845000Y-53959000D02*
X154710000Y-53959000D01*
X152630000Y-53959000D02*
X151495000Y-53959000D01*
X155819000Y-53999000D02*
X154710000Y-53999000D01*
X152630000Y-53999000D02*
X151521000Y-53999000D01*
X155792000Y-54039000D02*
X154710000Y-54039000D01*
X152630000Y-54039000D02*
X151548000Y-54039000D01*
X155765000Y-54079000D02*
X154710000Y-54079000D01*
X152630000Y-54079000D02*
X151575000Y-54079000D01*
X155735000Y-54119000D02*
X154710000Y-54119000D01*
X152630000Y-54119000D02*
X151605000Y-54119000D01*
X155705000Y-54159000D02*
X154710000Y-54159000D01*
X152630000Y-54159000D02*
X151635000Y-54159000D01*
X155674000Y-54199000D02*
X154710000Y-54199000D01*
X152630000Y-54199000D02*
X151666000Y-54199000D01*
X155641000Y-54239000D02*
X154710000Y-54239000D01*
X152630000Y-54239000D02*
X151699000Y-54239000D01*
X155607000Y-54279000D02*
X154710000Y-54279000D01*
X152630000Y-54279000D02*
X151733000Y-54279000D01*
X155571000Y-54319000D02*
X154710000Y-54319000D01*
X152630000Y-54319000D02*
X151769000Y-54319000D01*
X155534000Y-54359000D02*
X154710000Y-54359000D01*
X152630000Y-54359000D02*
X151806000Y-54359000D01*
X155496000Y-54399000D02*
X154710000Y-54399000D01*
X152630000Y-54399000D02*
X151844000Y-54399000D01*
X155455000Y-54439000D02*
X154710000Y-54439000D01*
X152630000Y-54439000D02*
X151885000Y-54439000D01*
X155413000Y-54479000D02*
X154710000Y-54479000D01*
X152630000Y-54479000D02*
X151927000Y-54479000D01*
X155369000Y-54519000D02*
X154710000Y-54519000D01*
X152630000Y-54519000D02*
X151971000Y-54519000D01*
X155323000Y-54559000D02*
X154710000Y-54559000D01*
X152630000Y-54559000D02*
X152017000Y-54559000D01*
X155275000Y-54599000D02*
X154710000Y-54599000D01*
X152630000Y-54599000D02*
X152065000Y-54599000D01*
X155224000Y-54639000D02*
X154710000Y-54639000D01*
X152630000Y-54639000D02*
X152116000Y-54639000D01*
X155170000Y-54679000D02*
X154710000Y-54679000D01*
X152630000Y-54679000D02*
X152170000Y-54679000D01*
X155113000Y-54719000D02*
X154710000Y-54719000D01*
X152630000Y-54719000D02*
X152227000Y-54719000D01*
X155053000Y-54759000D02*
X154710000Y-54759000D01*
X152630000Y-54759000D02*
X152287000Y-54759000D01*
X154989000Y-54799000D02*
X154710000Y-54799000D01*
X152630000Y-54799000D02*
X152351000Y-54799000D01*
X154921000Y-54839000D02*
X154710000Y-54839000D01*
X152630000Y-54839000D02*
X152419000Y-54839000D01*
X154848000Y-54879000D02*
X152492000Y-54879000D01*
X154768000Y-54919000D02*
X152572000Y-54919000D01*
X154681000Y-54959000D02*
X152659000Y-54959000D01*
X154585000Y-54999000D02*
X152755000Y-54999000D01*
X154475000Y-55039000D02*
X152865000Y-55039000D01*
X154347000Y-55079000D02*
X152993000Y-55079000D01*
X154188000Y-55119000D02*
X153152000Y-55119000D01*
X153954000Y-55159000D02*
X153386000Y-55159000D01*
X155145000Y-49753225D02*
X155145000Y-50253225D01*
X155395000Y-50003225D02*
X154895000Y-50003225D01*
%TO.C,C1*%
X137270000Y-53828000D02*
G75*
G03*
X137270000Y-53828000I-3270000J0D01*
G01*
X137230000Y-53828000D02*
X130770000Y-53828000D01*
X137230000Y-53868000D02*
X130770000Y-53868000D01*
X137230000Y-53908000D02*
X130770000Y-53908000D01*
X137228000Y-53948000D02*
X130772000Y-53948000D01*
X137227000Y-53988000D02*
X130773000Y-53988000D01*
X137224000Y-54028000D02*
X130776000Y-54028000D01*
X137222000Y-54068000D02*
X135040000Y-54068000D01*
X132960000Y-54068000D02*
X130778000Y-54068000D01*
X137218000Y-54108000D02*
X135040000Y-54108000D01*
X132960000Y-54108000D02*
X130782000Y-54108000D01*
X137215000Y-54148000D02*
X135040000Y-54148000D01*
X132960000Y-54148000D02*
X130785000Y-54148000D01*
X137211000Y-54188000D02*
X135040000Y-54188000D01*
X132960000Y-54188000D02*
X130789000Y-54188000D01*
X137206000Y-54228000D02*
X135040000Y-54228000D01*
X132960000Y-54228000D02*
X130794000Y-54228000D01*
X137201000Y-54268000D02*
X135040000Y-54268000D01*
X132960000Y-54268000D02*
X130799000Y-54268000D01*
X137195000Y-54308000D02*
X135040000Y-54308000D01*
X132960000Y-54308000D02*
X130805000Y-54308000D01*
X137189000Y-54348000D02*
X135040000Y-54348000D01*
X132960000Y-54348000D02*
X130811000Y-54348000D01*
X137182000Y-54388000D02*
X135040000Y-54388000D01*
X132960000Y-54388000D02*
X130818000Y-54388000D01*
X137175000Y-54428000D02*
X135040000Y-54428000D01*
X132960000Y-54428000D02*
X130825000Y-54428000D01*
X137167000Y-54468000D02*
X135040000Y-54468000D01*
X132960000Y-54468000D02*
X130833000Y-54468000D01*
X137159000Y-54508000D02*
X135040000Y-54508000D01*
X132960000Y-54508000D02*
X130841000Y-54508000D01*
X137150000Y-54549000D02*
X135040000Y-54549000D01*
X132960000Y-54549000D02*
X130850000Y-54549000D01*
X137141000Y-54589000D02*
X135040000Y-54589000D01*
X132960000Y-54589000D02*
X130859000Y-54589000D01*
X137131000Y-54629000D02*
X135040000Y-54629000D01*
X132960000Y-54629000D02*
X130869000Y-54629000D01*
X137121000Y-54669000D02*
X135040000Y-54669000D01*
X132960000Y-54669000D02*
X130879000Y-54669000D01*
X137110000Y-54709000D02*
X135040000Y-54709000D01*
X132960000Y-54709000D02*
X130890000Y-54709000D01*
X137098000Y-54749000D02*
X135040000Y-54749000D01*
X132960000Y-54749000D02*
X130902000Y-54749000D01*
X137086000Y-54789000D02*
X135040000Y-54789000D01*
X132960000Y-54789000D02*
X130914000Y-54789000D01*
X137074000Y-54829000D02*
X135040000Y-54829000D01*
X132960000Y-54829000D02*
X130926000Y-54829000D01*
X137061000Y-54869000D02*
X135040000Y-54869000D01*
X132960000Y-54869000D02*
X130939000Y-54869000D01*
X137047000Y-54909000D02*
X135040000Y-54909000D01*
X132960000Y-54909000D02*
X130953000Y-54909000D01*
X137033000Y-54949000D02*
X135040000Y-54949000D01*
X132960000Y-54949000D02*
X130967000Y-54949000D01*
X137018000Y-54989000D02*
X135040000Y-54989000D01*
X132960000Y-54989000D02*
X130982000Y-54989000D01*
X137002000Y-55029000D02*
X135040000Y-55029000D01*
X132960000Y-55029000D02*
X130998000Y-55029000D01*
X136986000Y-55069000D02*
X135040000Y-55069000D01*
X132960000Y-55069000D02*
X131014000Y-55069000D01*
X136970000Y-55109000D02*
X135040000Y-55109000D01*
X132960000Y-55109000D02*
X131030000Y-55109000D01*
X136952000Y-55149000D02*
X135040000Y-55149000D01*
X132960000Y-55149000D02*
X131048000Y-55149000D01*
X136934000Y-55189000D02*
X135040000Y-55189000D01*
X132960000Y-55189000D02*
X131066000Y-55189000D01*
X136916000Y-55229000D02*
X135040000Y-55229000D01*
X132960000Y-55229000D02*
X131084000Y-55229000D01*
X136896000Y-55269000D02*
X135040000Y-55269000D01*
X132960000Y-55269000D02*
X131104000Y-55269000D01*
X136876000Y-55309000D02*
X135040000Y-55309000D01*
X132960000Y-55309000D02*
X131124000Y-55309000D01*
X136856000Y-55349000D02*
X135040000Y-55349000D01*
X132960000Y-55349000D02*
X131144000Y-55349000D01*
X136834000Y-55389000D02*
X135040000Y-55389000D01*
X132960000Y-55389000D02*
X131166000Y-55389000D01*
X136812000Y-55429000D02*
X135040000Y-55429000D01*
X132960000Y-55429000D02*
X131188000Y-55429000D01*
X136790000Y-55469000D02*
X135040000Y-55469000D01*
X132960000Y-55469000D02*
X131210000Y-55469000D01*
X136766000Y-55509000D02*
X135040000Y-55509000D01*
X132960000Y-55509000D02*
X131234000Y-55509000D01*
X136742000Y-55549000D02*
X135040000Y-55549000D01*
X132960000Y-55549000D02*
X131258000Y-55549000D01*
X136716000Y-55589000D02*
X135040000Y-55589000D01*
X132960000Y-55589000D02*
X131284000Y-55589000D01*
X136690000Y-55629000D02*
X135040000Y-55629000D01*
X132960000Y-55629000D02*
X131310000Y-55629000D01*
X136664000Y-55669000D02*
X135040000Y-55669000D01*
X132960000Y-55669000D02*
X131336000Y-55669000D01*
X136636000Y-55709000D02*
X135040000Y-55709000D01*
X132960000Y-55709000D02*
X131364000Y-55709000D01*
X136607000Y-55749000D02*
X135040000Y-55749000D01*
X132960000Y-55749000D02*
X131393000Y-55749000D01*
X136578000Y-55789000D02*
X135040000Y-55789000D01*
X132960000Y-55789000D02*
X131422000Y-55789000D01*
X136548000Y-55829000D02*
X135040000Y-55829000D01*
X132960000Y-55829000D02*
X131452000Y-55829000D01*
X136516000Y-55869000D02*
X135040000Y-55869000D01*
X132960000Y-55869000D02*
X131484000Y-55869000D01*
X136484000Y-55909000D02*
X135040000Y-55909000D01*
X132960000Y-55909000D02*
X131516000Y-55909000D01*
X136450000Y-55949000D02*
X135040000Y-55949000D01*
X132960000Y-55949000D02*
X131550000Y-55949000D01*
X136416000Y-55989000D02*
X135040000Y-55989000D01*
X132960000Y-55989000D02*
X131584000Y-55989000D01*
X136380000Y-56029000D02*
X135040000Y-56029000D01*
X132960000Y-56029000D02*
X131620000Y-56029000D01*
X136343000Y-56069000D02*
X135040000Y-56069000D01*
X132960000Y-56069000D02*
X131657000Y-56069000D01*
X136305000Y-56109000D02*
X135040000Y-56109000D01*
X132960000Y-56109000D02*
X131695000Y-56109000D01*
X136265000Y-56149000D02*
X131735000Y-56149000D01*
X136224000Y-56189000D02*
X131776000Y-56189000D01*
X136182000Y-56229000D02*
X131818000Y-56229000D01*
X136137000Y-56269000D02*
X131863000Y-56269000D01*
X136092000Y-56309000D02*
X131908000Y-56309000D01*
X136044000Y-56349000D02*
X131956000Y-56349000D01*
X135995000Y-56389000D02*
X132005000Y-56389000D01*
X135944000Y-56429000D02*
X132056000Y-56429000D01*
X135890000Y-56469000D02*
X132110000Y-56469000D01*
X135834000Y-56509000D02*
X132166000Y-56509000D01*
X135776000Y-56549000D02*
X132224000Y-56549000D01*
X135714000Y-56589000D02*
X132286000Y-56589000D01*
X135650000Y-56629000D02*
X132350000Y-56629000D01*
X135581000Y-56669000D02*
X132419000Y-56669000D01*
X135509000Y-56709000D02*
X132491000Y-56709000D01*
X135432000Y-56749000D02*
X132568000Y-56749000D01*
X135350000Y-56789000D02*
X132650000Y-56789000D01*
X135262000Y-56829000D02*
X132738000Y-56829000D01*
X135165000Y-56869000D02*
X132835000Y-56869000D01*
X135059000Y-56909000D02*
X132941000Y-56909000D01*
X134940000Y-56949000D02*
X133060000Y-56949000D01*
X134802000Y-56989000D02*
X133198000Y-56989000D01*
X134633000Y-57029000D02*
X133367000Y-57029000D01*
X134402000Y-57069000D02*
X133598000Y-57069000D01*
X135839000Y-50327759D02*
X135839000Y-50957759D01*
X136154000Y-50642759D02*
X135524000Y-50642759D01*
%TO.C,J1*%
X161654000Y-40336000D02*
X161654000Y-27736000D01*
X161654000Y-27736000D02*
X151304000Y-27736000D01*
X151304000Y-27736000D02*
X151304000Y-28686000D01*
X151304000Y-28686000D02*
X150804000Y-28436000D01*
X150804000Y-28436000D02*
X150804000Y-30336000D01*
X150804000Y-30336000D02*
X150804000Y-30386000D01*
X150804000Y-30386000D02*
X151304000Y-30136000D01*
X151304000Y-30136000D02*
X151304000Y-35536000D01*
X151304000Y-35536000D02*
X150804000Y-35236000D01*
X150804000Y-35236000D02*
X150804000Y-40336000D01*
X150804000Y-40336000D02*
X161654000Y-40336000D01*
%TO.C,RV1*%
X120120000Y-82470000D02*
X120120000Y-80650000D01*
X120120000Y-79350000D02*
X120120000Y-77530000D01*
X126960000Y-82470000D02*
X126960000Y-80650000D01*
X126960000Y-79350000D02*
X126960000Y-77530000D01*
X120120000Y-77530000D02*
X126960000Y-77530000D01*
X120120000Y-82470000D02*
X126960000Y-82470000D01*
%TO.C,RV2*%
X110120000Y-82470000D02*
X116960000Y-82470000D01*
X110120000Y-77530000D02*
X116960000Y-77530000D01*
X116960000Y-79350000D02*
X116960000Y-77530000D01*
X116960000Y-82470000D02*
X116960000Y-80650000D01*
X110120000Y-79350000D02*
X110120000Y-77530000D01*
X110120000Y-82470000D02*
X110120000Y-80650000D01*
%TO.C,D1*%
X147430000Y-46878000D02*
X147430000Y-43038000D01*
X147190000Y-46878000D02*
X147190000Y-43038000D01*
X147310000Y-46878000D02*
X147310000Y-43038000D01*
X139740000Y-44958000D02*
X140730000Y-44958000D01*
X149560000Y-44958000D02*
X148570000Y-44958000D01*
X140730000Y-46878000D02*
X148570000Y-46878000D01*
X140730000Y-43038000D02*
X140730000Y-46878000D01*
X148570000Y-43038000D02*
X140730000Y-43038000D01*
X148570000Y-46878000D02*
X148570000Y-43038000D01*
%TO.C,D2*%
X148570000Y-65920000D02*
X148570000Y-62080000D01*
X148570000Y-62080000D02*
X140730000Y-62080000D01*
X140730000Y-62080000D02*
X140730000Y-65920000D01*
X140730000Y-65920000D02*
X148570000Y-65920000D01*
X149560000Y-64000000D02*
X148570000Y-64000000D01*
X139740000Y-64000000D02*
X140730000Y-64000000D01*
X147310000Y-65920000D02*
X147310000Y-62080000D01*
X147190000Y-65920000D02*
X147190000Y-62080000D01*
X147430000Y-65920000D02*
X147430000Y-62080000D01*
%TO.C,D3*%
X143474000Y-30768000D02*
X143474000Y-30924000D01*
X143474000Y-33084000D02*
X143474000Y-33240000D01*
X146706335Y-30925392D02*
G75*
G03*
X143474000Y-30768484I-1672335J-1078608D01*
G01*
X146706335Y-33082608D02*
G75*
G02*
X143474000Y-33239516I-1672335J1078608D01*
G01*
X146075130Y-30924163D02*
G75*
G03*
X143993039Y-30924000I-1041130J-1079837D01*
G01*
X146075130Y-33083837D02*
G75*
G02*
X143993039Y-33084000I-1041130J1079837D01*
G01*
%TO.C,U3*%
X139160000Y-29170000D02*
X139160000Y-39410000D01*
X134519000Y-29170000D02*
X134519000Y-39410000D01*
X139160000Y-29170000D02*
X134519000Y-29170000D01*
X139160000Y-39410000D02*
X134519000Y-39410000D01*
X137650000Y-29170000D02*
X137650000Y-39410000D01*
X139160000Y-32440000D02*
X137650000Y-32440000D01*
X139160000Y-36141000D02*
X137650000Y-36141000D01*
%TO.C,R1*%
X160306000Y-51538000D02*
X160306000Y-51208000D01*
X160306000Y-51208000D02*
X166846000Y-51208000D01*
X166846000Y-51208000D02*
X166846000Y-51538000D01*
X160306000Y-53618000D02*
X160306000Y-53948000D01*
X160306000Y-53948000D02*
X166846000Y-53948000D01*
X166846000Y-53948000D02*
X166846000Y-53618000D01*
%TO.C,R2*%
X166846000Y-59028000D02*
X166846000Y-58698000D01*
X160306000Y-59028000D02*
X166846000Y-59028000D01*
X160306000Y-58698000D02*
X160306000Y-59028000D01*
X166846000Y-56288000D02*
X166846000Y-56618000D01*
X160306000Y-56288000D02*
X166846000Y-56288000D01*
X160306000Y-56618000D02*
X160306000Y-56288000D01*
%TO.C,R3*%
X167100000Y-72998000D02*
X167100000Y-72668000D01*
X160560000Y-72998000D02*
X167100000Y-72998000D01*
X160560000Y-72668000D02*
X160560000Y-72998000D01*
X167100000Y-70258000D02*
X167100000Y-70588000D01*
X160560000Y-70258000D02*
X167100000Y-70258000D01*
X160560000Y-70588000D02*
X160560000Y-70258000D01*
%TO.C,R4*%
X160560000Y-75668000D02*
X160560000Y-75338000D01*
X160560000Y-75338000D02*
X167100000Y-75338000D01*
X167100000Y-75338000D02*
X167100000Y-75668000D01*
X160560000Y-77748000D02*
X160560000Y-78078000D01*
X160560000Y-78078000D02*
X167100000Y-78078000D01*
X167100000Y-78078000D02*
X167100000Y-77748000D01*
%TO.C,R5*%
X141764000Y-37060000D02*
X141764000Y-36730000D01*
X141764000Y-36730000D02*
X148304000Y-36730000D01*
X148304000Y-36730000D02*
X148304000Y-37060000D01*
X141764000Y-39140000D02*
X141764000Y-39470000D01*
X141764000Y-39470000D02*
X148304000Y-39470000D01*
X148304000Y-39470000D02*
X148304000Y-39140000D01*
%TO.C,C5*%
X132844999Y-31329802D02*
G75*
G03*
X132844999Y-31329802I-2120000J0D01*
G01*
X132804999Y-31329802D02*
X128644999Y-31329802D01*
X132804999Y-31369802D02*
X128644999Y-31369802D01*
X132803999Y-31409802D02*
X128645999Y-31409802D01*
X132801999Y-31449802D02*
X128647999Y-31449802D01*
X132798999Y-31489802D02*
X128650999Y-31489802D01*
X132795999Y-31529802D02*
X131564999Y-31529802D01*
X129884999Y-31529802D02*
X128653999Y-31529802D01*
X132791999Y-31569802D02*
X131564999Y-31569802D01*
X129884999Y-31569802D02*
X128657999Y-31569802D01*
X132786999Y-31609802D02*
X131564999Y-31609802D01*
X129884999Y-31609802D02*
X128662999Y-31609802D01*
X132780999Y-31649802D02*
X131564999Y-31649802D01*
X129884999Y-31649802D02*
X128668999Y-31649802D01*
X132774999Y-31689802D02*
X131564999Y-31689802D01*
X129884999Y-31689802D02*
X128674999Y-31689802D01*
X132766999Y-31729802D02*
X131564999Y-31729802D01*
X129884999Y-31729802D02*
X128682999Y-31729802D01*
X132758999Y-31769802D02*
X131564999Y-31769802D01*
X129884999Y-31769802D02*
X128690999Y-31769802D01*
X132749999Y-31809802D02*
X131564999Y-31809802D01*
X129884999Y-31809802D02*
X128699999Y-31809802D01*
X132740999Y-31849802D02*
X131564999Y-31849802D01*
X129884999Y-31849802D02*
X128708999Y-31849802D01*
X132729999Y-31889802D02*
X131564999Y-31889802D01*
X129884999Y-31889802D02*
X128719999Y-31889802D01*
X132718999Y-31929802D02*
X131564999Y-31929802D01*
X129884999Y-31929802D02*
X128730999Y-31929802D01*
X132706999Y-31969802D02*
X131564999Y-31969802D01*
X129884999Y-31969802D02*
X128742999Y-31969802D01*
X132692999Y-32009802D02*
X131564999Y-32009802D01*
X129884999Y-32009802D02*
X128756999Y-32009802D01*
X132678999Y-32050802D02*
X131564999Y-32050802D01*
X129884999Y-32050802D02*
X128770999Y-32050802D01*
X132664999Y-32090802D02*
X131564999Y-32090802D01*
X129884999Y-32090802D02*
X128784999Y-32090802D01*
X132648999Y-32130802D02*
X131564999Y-32130802D01*
X129884999Y-32130802D02*
X128800999Y-32130802D01*
X132631999Y-32170802D02*
X131564999Y-32170802D01*
X129884999Y-32170802D02*
X128817999Y-32170802D01*
X132613999Y-32210802D02*
X131564999Y-32210802D01*
X129884999Y-32210802D02*
X128835999Y-32210802D01*
X132594999Y-32250802D02*
X131564999Y-32250802D01*
X129884999Y-32250802D02*
X128854999Y-32250802D01*
X132575999Y-32290802D02*
X131564999Y-32290802D01*
X129884999Y-32290802D02*
X128873999Y-32290802D01*
X132554999Y-32330802D02*
X131564999Y-32330802D01*
X129884999Y-32330802D02*
X128894999Y-32330802D01*
X132532999Y-32370802D02*
X131564999Y-32370802D01*
X129884999Y-32370802D02*
X128916999Y-32370802D01*
X132509999Y-32410802D02*
X131564999Y-32410802D01*
X129884999Y-32410802D02*
X128939999Y-32410802D01*
X132484999Y-32450802D02*
X131564999Y-32450802D01*
X129884999Y-32450802D02*
X128964999Y-32450802D01*
X132459999Y-32490802D02*
X131564999Y-32490802D01*
X129884999Y-32490802D02*
X128989999Y-32490802D01*
X132432999Y-32530802D02*
X131564999Y-32530802D01*
X129884999Y-32530802D02*
X129016999Y-32530802D01*
X132404999Y-32570802D02*
X131564999Y-32570802D01*
X129884999Y-32570802D02*
X129044999Y-32570802D01*
X132374999Y-32610802D02*
X131564999Y-32610802D01*
X129884999Y-32610802D02*
X129074999Y-32610802D01*
X132343999Y-32650802D02*
X131564999Y-32650802D01*
X129884999Y-32650802D02*
X129105999Y-32650802D01*
X132311999Y-32690802D02*
X131564999Y-32690802D01*
X129884999Y-32690802D02*
X129137999Y-32690802D01*
X132276999Y-32730802D02*
X131564999Y-32730802D01*
X129884999Y-32730802D02*
X129172999Y-32730802D01*
X132240999Y-32770802D02*
X131564999Y-32770802D01*
X129884999Y-32770802D02*
X129208999Y-32770802D01*
X132202999Y-32810802D02*
X131564999Y-32810802D01*
X129884999Y-32810802D02*
X129246999Y-32810802D01*
X132162999Y-32850802D02*
X131564999Y-32850802D01*
X129884999Y-32850802D02*
X129286999Y-32850802D01*
X132120999Y-32890802D02*
X131564999Y-32890802D01*
X129884999Y-32890802D02*
X129328999Y-32890802D01*
X132075999Y-32930802D02*
X131564999Y-32930802D01*
X129884999Y-32930802D02*
X129373999Y-32930802D01*
X132028999Y-32970802D02*
X131564999Y-32970802D01*
X129884999Y-32970802D02*
X129420999Y-32970802D01*
X131978999Y-33010802D02*
X131564999Y-33010802D01*
X129884999Y-33010802D02*
X129470999Y-33010802D01*
X131924999Y-33050802D02*
X131564999Y-33050802D01*
X129884999Y-33050802D02*
X129524999Y-33050802D01*
X131866999Y-33090802D02*
X131564999Y-33090802D01*
X129884999Y-33090802D02*
X129582999Y-33090802D01*
X131804999Y-33130802D02*
X131564999Y-33130802D01*
X129884999Y-33130802D02*
X129644999Y-33130802D01*
X131737999Y-33170802D02*
X129711999Y-33170802D01*
X131664999Y-33210802D02*
X129784999Y-33210802D01*
X131583999Y-33250802D02*
X129865999Y-33250802D01*
X131492999Y-33290802D02*
X129956999Y-33290802D01*
X131388999Y-33330802D02*
X130060999Y-33330802D01*
X131261999Y-33370802D02*
X130187999Y-33370802D01*
X131094999Y-33410802D02*
X130354999Y-33410802D01*
X131919999Y-29060001D02*
X131919999Y-29460001D01*
X132119999Y-29260001D02*
X131719999Y-29260001D01*
%TO.C,C6*%
X132119999Y-34860001D02*
X131719999Y-34860001D01*
X131919999Y-34660001D02*
X131919999Y-35060001D01*
X131094999Y-39010802D02*
X130354999Y-39010802D01*
X131261999Y-38970802D02*
X130187999Y-38970802D01*
X131388999Y-38930802D02*
X130060999Y-38930802D01*
X131492999Y-38890802D02*
X129956999Y-38890802D01*
X131583999Y-38850802D02*
X129865999Y-38850802D01*
X131664999Y-38810802D02*
X129784999Y-38810802D01*
X131737999Y-38770802D02*
X129711999Y-38770802D01*
X129884999Y-38730802D02*
X129644999Y-38730802D01*
X131804999Y-38730802D02*
X131564999Y-38730802D01*
X129884999Y-38690802D02*
X129582999Y-38690802D01*
X131866999Y-38690802D02*
X131564999Y-38690802D01*
X129884999Y-38650802D02*
X129524999Y-38650802D01*
X131924999Y-38650802D02*
X131564999Y-38650802D01*
X129884999Y-38610802D02*
X129470999Y-38610802D01*
X131978999Y-38610802D02*
X131564999Y-38610802D01*
X129884999Y-38570802D02*
X129420999Y-38570802D01*
X132028999Y-38570802D02*
X131564999Y-38570802D01*
X129884999Y-38530802D02*
X129373999Y-38530802D01*
X132075999Y-38530802D02*
X131564999Y-38530802D01*
X129884999Y-38490802D02*
X129328999Y-38490802D01*
X132120999Y-38490802D02*
X131564999Y-38490802D01*
X129884999Y-38450802D02*
X129286999Y-38450802D01*
X132162999Y-38450802D02*
X131564999Y-38450802D01*
X129884999Y-38410802D02*
X129246999Y-38410802D01*
X132202999Y-38410802D02*
X131564999Y-38410802D01*
X129884999Y-38370802D02*
X129208999Y-38370802D01*
X132240999Y-38370802D02*
X131564999Y-38370802D01*
X129884999Y-38330802D02*
X129172999Y-38330802D01*
X132276999Y-38330802D02*
X131564999Y-38330802D01*
X129884999Y-38290802D02*
X129137999Y-38290802D01*
X132311999Y-38290802D02*
X131564999Y-38290802D01*
X129884999Y-38250802D02*
X129105999Y-38250802D01*
X132343999Y-38250802D02*
X131564999Y-38250802D01*
X129884999Y-38210802D02*
X129074999Y-38210802D01*
X132374999Y-38210802D02*
X131564999Y-38210802D01*
X129884999Y-38170802D02*
X129044999Y-38170802D01*
X132404999Y-38170802D02*
X131564999Y-38170802D01*
X129884999Y-38130802D02*
X129016999Y-38130802D01*
X132432999Y-38130802D02*
X131564999Y-38130802D01*
X129884999Y-38090802D02*
X128989999Y-38090802D01*
X132459999Y-38090802D02*
X131564999Y-38090802D01*
X129884999Y-38050802D02*
X128964999Y-38050802D01*
X132484999Y-38050802D02*
X131564999Y-38050802D01*
X129884999Y-38010802D02*
X128939999Y-38010802D01*
X132509999Y-38010802D02*
X131564999Y-38010802D01*
X129884999Y-37970802D02*
X128916999Y-37970802D01*
X132532999Y-37970802D02*
X131564999Y-37970802D01*
X129884999Y-37930802D02*
X128894999Y-37930802D01*
X132554999Y-37930802D02*
X131564999Y-37930802D01*
X129884999Y-37890802D02*
X128873999Y-37890802D01*
X132575999Y-37890802D02*
X131564999Y-37890802D01*
X129884999Y-37850802D02*
X128854999Y-37850802D01*
X132594999Y-37850802D02*
X131564999Y-37850802D01*
X129884999Y-37810802D02*
X128835999Y-37810802D01*
X132613999Y-37810802D02*
X131564999Y-37810802D01*
X129884999Y-37770802D02*
X128817999Y-37770802D01*
X132631999Y-37770802D02*
X131564999Y-37770802D01*
X129884999Y-37730802D02*
X128800999Y-37730802D01*
X132648999Y-37730802D02*
X131564999Y-37730802D01*
X129884999Y-37690802D02*
X128784999Y-37690802D01*
X132664999Y-37690802D02*
X131564999Y-37690802D01*
X129884999Y-37650802D02*
X128770999Y-37650802D01*
X132678999Y-37650802D02*
X131564999Y-37650802D01*
X129884999Y-37609802D02*
X128756999Y-37609802D01*
X132692999Y-37609802D02*
X131564999Y-37609802D01*
X129884999Y-37569802D02*
X128742999Y-37569802D01*
X132706999Y-37569802D02*
X131564999Y-37569802D01*
X129884999Y-37529802D02*
X128730999Y-37529802D01*
X132718999Y-37529802D02*
X131564999Y-37529802D01*
X129884999Y-37489802D02*
X128719999Y-37489802D01*
X132729999Y-37489802D02*
X131564999Y-37489802D01*
X129884999Y-37449802D02*
X128708999Y-37449802D01*
X132740999Y-37449802D02*
X131564999Y-37449802D01*
X129884999Y-37409802D02*
X128699999Y-37409802D01*
X132749999Y-37409802D02*
X131564999Y-37409802D01*
X129884999Y-37369802D02*
X128690999Y-37369802D01*
X132758999Y-37369802D02*
X131564999Y-37369802D01*
X129884999Y-37329802D02*
X128682999Y-37329802D01*
X132766999Y-37329802D02*
X131564999Y-37329802D01*
X129884999Y-37289802D02*
X128674999Y-37289802D01*
X132774999Y-37289802D02*
X131564999Y-37289802D01*
X129884999Y-37249802D02*
X128668999Y-37249802D01*
X132780999Y-37249802D02*
X131564999Y-37249802D01*
X129884999Y-37209802D02*
X128662999Y-37209802D01*
X132786999Y-37209802D02*
X131564999Y-37209802D01*
X129884999Y-37169802D02*
X128657999Y-37169802D01*
X132791999Y-37169802D02*
X131564999Y-37169802D01*
X129884999Y-37129802D02*
X128653999Y-37129802D01*
X132795999Y-37129802D02*
X131564999Y-37129802D01*
X132798999Y-37089802D02*
X128650999Y-37089802D01*
X132801999Y-37049802D02*
X128647999Y-37049802D01*
X132803999Y-37009802D02*
X128645999Y-37009802D01*
X132804999Y-36969802D02*
X128644999Y-36969802D01*
X132804999Y-36929802D02*
X128644999Y-36929802D01*
X132844999Y-36929802D02*
G75*
G03*
X132844999Y-36929802I-2120000J0D01*
G01*
%TO.C,A1*%
D10*
X116905714Y-29086666D02*
X117381904Y-29086666D01*
X116810476Y-29372380D02*
X117143809Y-28372380D01*
X117477142Y-29372380D01*
X118334285Y-29372380D02*
X117762857Y-29372380D01*
X118048571Y-29372380D02*
X118048571Y-28372380D01*
X117953333Y-28515238D01*
X117858095Y-28610476D01*
X117762857Y-28658095D01*
%TO.C,U2*%
X144018095Y-66210380D02*
X144018095Y-67019904D01*
X144065714Y-67115142D01*
X144113333Y-67162761D01*
X144208571Y-67210380D01*
X144399047Y-67210380D01*
X144494285Y-67162761D01*
X144541904Y-67115142D01*
X144589523Y-67019904D01*
X144589523Y-66210380D01*
X145018095Y-66305619D02*
X145065714Y-66258000D01*
X145160952Y-66210380D01*
X145399047Y-66210380D01*
X145494285Y-66258000D01*
X145541904Y-66305619D01*
X145589523Y-66400857D01*
X145589523Y-66496095D01*
X145541904Y-66638952D01*
X144970476Y-67210380D01*
X145589523Y-67210380D01*
%TO.C,U1*%
X144018095Y-47160380D02*
X144018095Y-47969904D01*
X144065714Y-48065142D01*
X144113333Y-48112761D01*
X144208571Y-48160380D01*
X144399047Y-48160380D01*
X144494285Y-48112761D01*
X144541904Y-48065142D01*
X144589523Y-47969904D01*
X144589523Y-47160380D01*
X145589523Y-48160380D02*
X145018095Y-48160380D01*
X145303809Y-48160380D02*
X145303809Y-47160380D01*
X145208571Y-47303238D01*
X145113333Y-47398476D01*
X145018095Y-47446095D01*
%TO.C,Q4*%
X186681619Y-78073238D02*
X186634000Y-78168476D01*
X186538761Y-78263714D01*
X186395904Y-78406571D01*
X186348285Y-78501809D01*
X186348285Y-78597047D01*
X186586380Y-78549428D02*
X186538761Y-78644666D01*
X186443523Y-78739904D01*
X186253047Y-78787523D01*
X185919714Y-78787523D01*
X185729238Y-78739904D01*
X185634000Y-78644666D01*
X185586380Y-78549428D01*
X185586380Y-78358952D01*
X185634000Y-78263714D01*
X185729238Y-78168476D01*
X185919714Y-78120857D01*
X186253047Y-78120857D01*
X186443523Y-78168476D01*
X186538761Y-78263714D01*
X186586380Y-78358952D01*
X186586380Y-78549428D01*
X185919714Y-77263714D02*
X186586380Y-77263714D01*
X185538761Y-77501809D02*
X186253047Y-77739904D01*
X186253047Y-77120857D01*
%TO.C,Q3*%
X186681619Y-65373238D02*
X186634000Y-65468476D01*
X186538761Y-65563714D01*
X186395904Y-65706571D01*
X186348285Y-65801809D01*
X186348285Y-65897047D01*
X186586380Y-65849428D02*
X186538761Y-65944666D01*
X186443523Y-66039904D01*
X186253047Y-66087523D01*
X185919714Y-66087523D01*
X185729238Y-66039904D01*
X185634000Y-65944666D01*
X185586380Y-65849428D01*
X185586380Y-65658952D01*
X185634000Y-65563714D01*
X185729238Y-65468476D01*
X185919714Y-65420857D01*
X186253047Y-65420857D01*
X186443523Y-65468476D01*
X186538761Y-65563714D01*
X186586380Y-65658952D01*
X186586380Y-65849428D01*
X185586380Y-65087523D02*
X185586380Y-64468476D01*
X185967333Y-64801809D01*
X185967333Y-64658952D01*
X186014952Y-64563714D01*
X186062571Y-64516095D01*
X186157809Y-64468476D01*
X186395904Y-64468476D01*
X186491142Y-64516095D01*
X186538761Y-64563714D01*
X186586380Y-64658952D01*
X186586380Y-64944666D01*
X186538761Y-65039904D01*
X186491142Y-65087523D01*
%TO.C,Q2*%
X186681619Y-52673238D02*
X186634000Y-52768476D01*
X186538761Y-52863714D01*
X186395904Y-53006571D01*
X186348285Y-53101809D01*
X186348285Y-53197047D01*
X186586380Y-53149428D02*
X186538761Y-53244666D01*
X186443523Y-53339904D01*
X186253047Y-53387523D01*
X185919714Y-53387523D01*
X185729238Y-53339904D01*
X185634000Y-53244666D01*
X185586380Y-53149428D01*
X185586380Y-52958952D01*
X185634000Y-52863714D01*
X185729238Y-52768476D01*
X185919714Y-52720857D01*
X186253047Y-52720857D01*
X186443523Y-52768476D01*
X186538761Y-52863714D01*
X186586380Y-52958952D01*
X186586380Y-53149428D01*
X185681619Y-52339904D02*
X185634000Y-52292285D01*
X185586380Y-52197047D01*
X185586380Y-51958952D01*
X185634000Y-51863714D01*
X185681619Y-51816095D01*
X185776857Y-51768476D01*
X185872095Y-51768476D01*
X186014952Y-51816095D01*
X186586380Y-52387523D01*
X186586380Y-51768476D01*
%TO.C,Q1*%
X186681619Y-39973238D02*
X186634000Y-40068476D01*
X186538761Y-40163714D01*
X186395904Y-40306571D01*
X186348285Y-40401809D01*
X186348285Y-40497047D01*
X186586380Y-40449428D02*
X186538761Y-40544666D01*
X186443523Y-40639904D01*
X186253047Y-40687523D01*
X185919714Y-40687523D01*
X185729238Y-40639904D01*
X185634000Y-40544666D01*
X185586380Y-40449428D01*
X185586380Y-40258952D01*
X185634000Y-40163714D01*
X185729238Y-40068476D01*
X185919714Y-40020857D01*
X186253047Y-40020857D01*
X186443523Y-40068476D01*
X186538761Y-40163714D01*
X186586380Y-40258952D01*
X186586380Y-40449428D01*
X186586380Y-39068476D02*
X186586380Y-39639904D01*
X186586380Y-39354190D02*
X185586380Y-39354190D01*
X185729238Y-39449428D01*
X185824476Y-39544666D01*
X185872095Y-39639904D01*
%TO.C,J2*%
X174306666Y-40478380D02*
X174306666Y-41192666D01*
X174259047Y-41335523D01*
X174163809Y-41430761D01*
X174020952Y-41478380D01*
X173925714Y-41478380D01*
X174735238Y-40573619D02*
X174782857Y-40526000D01*
X174878095Y-40478380D01*
X175116190Y-40478380D01*
X175211428Y-40526000D01*
X175259047Y-40573619D01*
X175306666Y-40668857D01*
X175306666Y-40764095D01*
X175259047Y-40906952D01*
X174687619Y-41478380D01*
X175306666Y-41478380D01*
%TO.C,C4*%
X157777142Y-71774666D02*
X157824761Y-71822285D01*
X157872380Y-71965142D01*
X157872380Y-72060380D01*
X157824761Y-72203238D01*
X157729523Y-72298476D01*
X157634285Y-72346095D01*
X157443809Y-72393714D01*
X157300952Y-72393714D01*
X157110476Y-72346095D01*
X157015238Y-72298476D01*
X156920000Y-72203238D01*
X156872380Y-72060380D01*
X156872380Y-71965142D01*
X156920000Y-71822285D01*
X156967619Y-71774666D01*
X157205714Y-70917523D02*
X157872380Y-70917523D01*
X156824761Y-71155619D02*
X157539047Y-71393714D01*
X157539047Y-70774666D01*
%TO.C,C3*%
X138757142Y-73044666D02*
X138804761Y-73092285D01*
X138852380Y-73235142D01*
X138852380Y-73330380D01*
X138804761Y-73473238D01*
X138709523Y-73568476D01*
X138614285Y-73616095D01*
X138423809Y-73663714D01*
X138280952Y-73663714D01*
X138090476Y-73616095D01*
X137995238Y-73568476D01*
X137900000Y-73473238D01*
X137852380Y-73330380D01*
X137852380Y-73235142D01*
X137900000Y-73092285D01*
X137947619Y-73044666D01*
X137852380Y-72711333D02*
X137852380Y-72092285D01*
X138233333Y-72425619D01*
X138233333Y-72282761D01*
X138280952Y-72187523D01*
X138328571Y-72139904D01*
X138423809Y-72092285D01*
X138661904Y-72092285D01*
X138757142Y-72139904D01*
X138804761Y-72187523D01*
X138852380Y-72282761D01*
X138852380Y-72568476D01*
X138804761Y-72663714D01*
X138757142Y-72711333D01*
%TO.C,C2*%
X157777142Y-52724666D02*
X157824761Y-52772285D01*
X157872380Y-52915142D01*
X157872380Y-53010380D01*
X157824761Y-53153238D01*
X157729523Y-53248476D01*
X157634285Y-53296095D01*
X157443809Y-53343714D01*
X157300952Y-53343714D01*
X157110476Y-53296095D01*
X157015238Y-53248476D01*
X156920000Y-53153238D01*
X156872380Y-53010380D01*
X156872380Y-52915142D01*
X156920000Y-52772285D01*
X156967619Y-52724666D01*
X156967619Y-52343714D02*
X156920000Y-52296095D01*
X156872380Y-52200857D01*
X156872380Y-51962761D01*
X156920000Y-51867523D01*
X156967619Y-51819904D01*
X157062857Y-51772285D01*
X157158095Y-51772285D01*
X157300952Y-51819904D01*
X157872380Y-52391333D01*
X157872380Y-51772285D01*
%TO.C,C1*%
X138757142Y-53994666D02*
X138804761Y-54042285D01*
X138852380Y-54185142D01*
X138852380Y-54280380D01*
X138804761Y-54423238D01*
X138709523Y-54518476D01*
X138614285Y-54566095D01*
X138423809Y-54613714D01*
X138280952Y-54613714D01*
X138090476Y-54566095D01*
X137995238Y-54518476D01*
X137900000Y-54423238D01*
X137852380Y-54280380D01*
X137852380Y-54185142D01*
X137900000Y-54042285D01*
X137947619Y-53994666D01*
X138852380Y-53042285D02*
X138852380Y-53613714D01*
X138852380Y-53328000D02*
X137852380Y-53328000D01*
X137995238Y-53423238D01*
X138090476Y-53518476D01*
X138138095Y-53613714D01*
%TO.C,J1*%
X160590666Y-40478380D02*
X160590666Y-41192666D01*
X160543047Y-41335523D01*
X160447809Y-41430761D01*
X160304952Y-41478380D01*
X160209714Y-41478380D01*
X161590666Y-41478380D02*
X161019238Y-41478380D01*
X161304952Y-41478380D02*
X161304952Y-40478380D01*
X161209714Y-40621238D01*
X161114476Y-40716476D01*
X161019238Y-40764095D01*
%TO.C,RV1*%
X119442380Y-80595238D02*
X118966190Y-80928571D01*
X119442380Y-81166666D02*
X118442380Y-81166666D01*
X118442380Y-80785714D01*
X118490000Y-80690476D01*
X118537619Y-80642857D01*
X118632857Y-80595238D01*
X118775714Y-80595238D01*
X118870952Y-80642857D01*
X118918571Y-80690476D01*
X118966190Y-80785714D01*
X118966190Y-81166666D01*
X118442380Y-80309523D02*
X119442380Y-79976190D01*
X118442380Y-79642857D01*
X119442380Y-78785714D02*
X119442380Y-79357142D01*
X119442380Y-79071428D02*
X118442380Y-79071428D01*
X118585238Y-79166666D01*
X118680476Y-79261904D01*
X118728095Y-79357142D01*
%TO.C,RV2*%
X109442380Y-80595238D02*
X108966190Y-80928571D01*
X109442380Y-81166666D02*
X108442380Y-81166666D01*
X108442380Y-80785714D01*
X108490000Y-80690476D01*
X108537619Y-80642857D01*
X108632857Y-80595238D01*
X108775714Y-80595238D01*
X108870952Y-80642857D01*
X108918571Y-80690476D01*
X108966190Y-80785714D01*
X108966190Y-81166666D01*
X108442380Y-80309523D02*
X109442380Y-79976190D01*
X108442380Y-79642857D01*
X108537619Y-79357142D02*
X108490000Y-79309523D01*
X108442380Y-79214285D01*
X108442380Y-78976190D01*
X108490000Y-78880952D01*
X108537619Y-78833333D01*
X108632857Y-78785714D01*
X108728095Y-78785714D01*
X108870952Y-78833333D01*
X109442380Y-79404761D01*
X109442380Y-78785714D01*
%TO.C,H1*%
X182238095Y-28892380D02*
X182238095Y-27892380D01*
X182238095Y-28368571D02*
X182809523Y-28368571D01*
X182809523Y-28892380D02*
X182809523Y-27892380D01*
X183809523Y-28892380D02*
X183238095Y-28892380D01*
X183523809Y-28892380D02*
X183523809Y-27892380D01*
X183428571Y-28035238D01*
X183333333Y-28130476D01*
X183238095Y-28178095D01*
%TO.C,H2*%
X175110095Y-78804380D02*
X175110095Y-77804380D01*
X175110095Y-78280571D02*
X175681523Y-78280571D01*
X175681523Y-78804380D02*
X175681523Y-77804380D01*
X176110095Y-77899619D02*
X176157714Y-77852000D01*
X176252952Y-77804380D01*
X176491047Y-77804380D01*
X176586285Y-77852000D01*
X176633904Y-77899619D01*
X176681523Y-77994857D01*
X176681523Y-78090095D01*
X176633904Y-78232952D01*
X176062476Y-78804380D01*
X176681523Y-78804380D01*
%TO.C,H3*%
X104161095Y-78804380D02*
X104161095Y-77804380D01*
X104161095Y-78280571D02*
X104732523Y-78280571D01*
X104732523Y-78804380D02*
X104732523Y-77804380D01*
X105113476Y-77804380D02*
X105732523Y-77804380D01*
X105399190Y-78185333D01*
X105542047Y-78185333D01*
X105637285Y-78232952D01*
X105684904Y-78280571D01*
X105732523Y-78375809D01*
X105732523Y-78613904D01*
X105684904Y-78709142D01*
X105637285Y-78756761D01*
X105542047Y-78804380D01*
X105256333Y-78804380D01*
X105161095Y-78756761D01*
X105113476Y-78709142D01*
%TO.C,H4*%
X104238095Y-28892380D02*
X104238095Y-27892380D01*
X104238095Y-28368571D02*
X104809523Y-28368571D01*
X104809523Y-28892380D02*
X104809523Y-27892380D01*
X105714285Y-28225714D02*
X105714285Y-28892380D01*
X105476190Y-27844761D02*
X105238095Y-28559047D01*
X105857142Y-28559047D01*
%TO.C,D1*%
X143911904Y-42452380D02*
X143911904Y-41452380D01*
X144150000Y-41452380D01*
X144292857Y-41500000D01*
X144388095Y-41595238D01*
X144435714Y-41690476D01*
X144483333Y-41880952D01*
X144483333Y-42023809D01*
X144435714Y-42214285D01*
X144388095Y-42309523D01*
X144292857Y-42404761D01*
X144150000Y-42452380D01*
X143911904Y-42452380D01*
X145435714Y-42452380D02*
X144864285Y-42452380D01*
X145150000Y-42452380D02*
X145150000Y-41452380D01*
X145054761Y-41595238D01*
X144959523Y-41690476D01*
X144864285Y-41738095D01*
X150738095Y-47610380D02*
X150738095Y-46610380D01*
X151309523Y-47610380D02*
X150880952Y-47038952D01*
X151309523Y-46610380D02*
X150738095Y-47181809D01*
%TO.C,D2*%
X143761904Y-61452380D02*
X143761904Y-60452380D01*
X144000000Y-60452380D01*
X144142857Y-60500000D01*
X144238095Y-60595238D01*
X144285714Y-60690476D01*
X144333333Y-60880952D01*
X144333333Y-61023809D01*
X144285714Y-61214285D01*
X144238095Y-61309523D01*
X144142857Y-61404761D01*
X144000000Y-61452380D01*
X143761904Y-61452380D01*
X144714285Y-60547619D02*
X144761904Y-60500000D01*
X144857142Y-60452380D01*
X145095238Y-60452380D01*
X145190476Y-60500000D01*
X145238095Y-60547619D01*
X145285714Y-60642857D01*
X145285714Y-60738095D01*
X145238095Y-60880952D01*
X144666666Y-61452380D01*
X145285714Y-61452380D01*
X150738095Y-66652380D02*
X150738095Y-65652380D01*
X151309523Y-66652380D02*
X150880952Y-66080952D01*
X151309523Y-65652380D02*
X150738095Y-66223809D01*
%TO.C,D3*%
X144295904Y-29496380D02*
X144295904Y-28496380D01*
X144534000Y-28496380D01*
X144676857Y-28544000D01*
X144772095Y-28639238D01*
X144819714Y-28734476D01*
X144867333Y-28924952D01*
X144867333Y-29067809D01*
X144819714Y-29258285D01*
X144772095Y-29353523D01*
X144676857Y-29448761D01*
X144534000Y-29496380D01*
X144295904Y-29496380D01*
X145200666Y-28496380D02*
X145819714Y-28496380D01*
X145486380Y-28877333D01*
X145629238Y-28877333D01*
X145724476Y-28924952D01*
X145772095Y-28972571D01*
X145819714Y-29067809D01*
X145819714Y-29305904D01*
X145772095Y-29401142D01*
X145724476Y-29448761D01*
X145629238Y-29496380D01*
X145343523Y-29496380D01*
X145248285Y-29448761D01*
X145200666Y-29401142D01*
%TO.C,U3*%
X139612380Y-35051904D02*
X140421904Y-35051904D01*
X140517142Y-35004285D01*
X140564761Y-34956666D01*
X140612380Y-34861428D01*
X140612380Y-34670952D01*
X140564761Y-34575714D01*
X140517142Y-34528095D01*
X140421904Y-34480476D01*
X139612380Y-34480476D01*
X139612380Y-34099523D02*
X139612380Y-33480476D01*
X139993333Y-33813809D01*
X139993333Y-33670952D01*
X140040952Y-33575714D01*
X140088571Y-33528095D01*
X140183809Y-33480476D01*
X140421904Y-33480476D01*
X140517142Y-33528095D01*
X140564761Y-33575714D01*
X140612380Y-33670952D01*
X140612380Y-33956666D01*
X140564761Y-34051904D01*
X140517142Y-34099523D01*
%TO.C,R1*%
X163409333Y-50660380D02*
X163076000Y-50184190D01*
X162837904Y-50660380D02*
X162837904Y-49660380D01*
X163218857Y-49660380D01*
X163314095Y-49708000D01*
X163361714Y-49755619D01*
X163409333Y-49850857D01*
X163409333Y-49993714D01*
X163361714Y-50088952D01*
X163314095Y-50136571D01*
X163218857Y-50184190D01*
X162837904Y-50184190D01*
X164361714Y-50660380D02*
X163790285Y-50660380D01*
X164076000Y-50660380D02*
X164076000Y-49660380D01*
X163980761Y-49803238D01*
X163885523Y-49898476D01*
X163790285Y-49946095D01*
%TO.C,R2*%
X163409333Y-55740380D02*
X163076000Y-55264190D01*
X162837904Y-55740380D02*
X162837904Y-54740380D01*
X163218857Y-54740380D01*
X163314095Y-54788000D01*
X163361714Y-54835619D01*
X163409333Y-54930857D01*
X163409333Y-55073714D01*
X163361714Y-55168952D01*
X163314095Y-55216571D01*
X163218857Y-55264190D01*
X162837904Y-55264190D01*
X163790285Y-54835619D02*
X163837904Y-54788000D01*
X163933142Y-54740380D01*
X164171238Y-54740380D01*
X164266476Y-54788000D01*
X164314095Y-54835619D01*
X164361714Y-54930857D01*
X164361714Y-55026095D01*
X164314095Y-55168952D01*
X163742666Y-55740380D01*
X164361714Y-55740380D01*
%TO.C,R3*%
X163663333Y-69710380D02*
X163330000Y-69234190D01*
X163091904Y-69710380D02*
X163091904Y-68710380D01*
X163472857Y-68710380D01*
X163568095Y-68758000D01*
X163615714Y-68805619D01*
X163663333Y-68900857D01*
X163663333Y-69043714D01*
X163615714Y-69138952D01*
X163568095Y-69186571D01*
X163472857Y-69234190D01*
X163091904Y-69234190D01*
X163996666Y-68710380D02*
X164615714Y-68710380D01*
X164282380Y-69091333D01*
X164425238Y-69091333D01*
X164520476Y-69138952D01*
X164568095Y-69186571D01*
X164615714Y-69281809D01*
X164615714Y-69519904D01*
X164568095Y-69615142D01*
X164520476Y-69662761D01*
X164425238Y-69710380D01*
X164139523Y-69710380D01*
X164044285Y-69662761D01*
X163996666Y-69615142D01*
%TO.C,R4*%
X163663333Y-74790380D02*
X163330000Y-74314190D01*
X163091904Y-74790380D02*
X163091904Y-73790380D01*
X163472857Y-73790380D01*
X163568095Y-73838000D01*
X163615714Y-73885619D01*
X163663333Y-73980857D01*
X163663333Y-74123714D01*
X163615714Y-74218952D01*
X163568095Y-74266571D01*
X163472857Y-74314190D01*
X163091904Y-74314190D01*
X164520476Y-74123714D02*
X164520476Y-74790380D01*
X164282380Y-73742761D02*
X164044285Y-74457047D01*
X164663333Y-74457047D01*
%TO.C,R5*%
X144867333Y-36182380D02*
X144534000Y-35706190D01*
X144295904Y-36182380D02*
X144295904Y-35182380D01*
X144676857Y-35182380D01*
X144772095Y-35230000D01*
X144819714Y-35277619D01*
X144867333Y-35372857D01*
X144867333Y-35515714D01*
X144819714Y-35610952D01*
X144772095Y-35658571D01*
X144676857Y-35706190D01*
X144295904Y-35706190D01*
X145772095Y-35182380D02*
X145295904Y-35182380D01*
X145248285Y-35658571D01*
X145295904Y-35610952D01*
X145391142Y-35563333D01*
X145629238Y-35563333D01*
X145724476Y-35610952D01*
X145772095Y-35658571D01*
X145819714Y-35753809D01*
X145819714Y-35991904D01*
X145772095Y-36087142D01*
X145724476Y-36134761D01*
X145629238Y-36182380D01*
X145391142Y-36182380D01*
X145295904Y-36134761D01*
X145248285Y-36087142D01*
%TO.C,C5*%
X134332141Y-31496468D02*
X134379760Y-31544087D01*
X134427379Y-31686944D01*
X134427379Y-31782182D01*
X134379760Y-31925040D01*
X134284522Y-32020278D01*
X134189284Y-32067897D01*
X133998808Y-32115516D01*
X133855951Y-32115516D01*
X133665475Y-32067897D01*
X133570237Y-32020278D01*
X133474999Y-31925040D01*
X133427379Y-31782182D01*
X133427379Y-31686944D01*
X133474999Y-31544087D01*
X133522618Y-31496468D01*
X133427379Y-30591706D02*
X133427379Y-31067897D01*
X133903570Y-31115516D01*
X133855951Y-31067897D01*
X133808332Y-30972659D01*
X133808332Y-30734563D01*
X133855951Y-30639325D01*
X133903570Y-30591706D01*
X133998808Y-30544087D01*
X134236903Y-30544087D01*
X134332141Y-30591706D01*
X134379760Y-30639325D01*
X134427379Y-30734563D01*
X134427379Y-30972659D01*
X134379760Y-31067897D01*
X134332141Y-31115516D01*
%TO.C,C6*%
X134332141Y-37096468D02*
X134379760Y-37144087D01*
X134427379Y-37286944D01*
X134427379Y-37382182D01*
X134379760Y-37525040D01*
X134284522Y-37620278D01*
X134189284Y-37667897D01*
X133998808Y-37715516D01*
X133855951Y-37715516D01*
X133665475Y-37667897D01*
X133570237Y-37620278D01*
X133474999Y-37525040D01*
X133427379Y-37382182D01*
X133427379Y-37286944D01*
X133474999Y-37144087D01*
X133522618Y-37096468D01*
X133427379Y-36239325D02*
X133427379Y-36429802D01*
X133474999Y-36525040D01*
X133522618Y-36572659D01*
X133665475Y-36667897D01*
X133855951Y-36715516D01*
X134236903Y-36715516D01*
X134332141Y-36667897D01*
X134379760Y-36620278D01*
X134427379Y-36525040D01*
X134427379Y-36334563D01*
X134379760Y-36239325D01*
X134332141Y-36191706D01*
X134236903Y-36144087D01*
X133998808Y-36144087D01*
X133903570Y-36191706D01*
X133855951Y-36239325D01*
X133808332Y-36334563D01*
X133808332Y-36525040D01*
X133855951Y-36620278D01*
X133903570Y-36667897D01*
X133998808Y-36715516D01*
%TD*%
M02*
