M48
; DRILL file {KiCad (5.1.12)-1} date 11/30/21 23:14:41
; FORMAT={-:-/ absolute / inch / decimal}
; #@! TF.CreationDate,2021-11-30T23:14:41-08:00
; #@! TF.GenerationSoftware,Kicad,Pcbnew,(5.1.12)-1
; #@! TF.FileFunction,Plated,1,2,PTH
FMAT,2
INCH
T1C0.0236
T2C0.0315
T3C0.0354
T4C0.0394
T5C0.0433
T6C0.0472
T7C0.0520
%
G90
G05
T1
X5.1467Y-1.1941
X5.1467Y-1.2728
X5.1467Y-1.4146
X5.1467Y-1.4933
T2
X4.3701Y-3.1496
X4.4701Y-3.1496
X4.5701Y-3.1496
X4.7638Y-3.1496
X4.8638Y-3.1496
X4.9638Y-3.1496
X5.2756Y-2.07
X5.2756Y-2.1684
X5.2756Y-2.82
X5.2756Y-2.9184
X5.55Y-1.97
X5.55Y-2.07
X5.55Y-2.17
X5.55Y-2.27
X5.55Y-2.72
X5.55Y-2.82
X5.55Y-2.92
X5.55Y-3.02
X5.56Y-1.5
X5.85Y-1.97
X5.85Y-2.07
X5.85Y-2.17
X5.85Y-2.27
X5.85Y-2.72
X5.85Y-2.82
X5.85Y-2.92
X5.85Y-3.02
X5.86Y-1.5
X6.05Y-2.02
X6.05Y-2.1184
X6.05Y-2.77
X6.05Y-2.8684
X6.29Y-2.07
X6.29Y-2.27
X6.3Y-2.82
X6.3Y-3.02
X6.59Y-2.07
X6.59Y-2.27
X6.6Y-2.82
X6.6Y-3.02
T3
X5.66Y-1.26
X5.76Y-1.26
T4
X4.3307Y-1.3386
X4.3307Y-1.4386
X4.3307Y-1.5386
X4.3307Y-1.6386
X4.3307Y-1.7386
X4.3307Y-1.8386
X4.3307Y-1.9386
X4.3307Y-2.0386
X4.3307Y-2.1386
X4.3307Y-2.2386
X4.3307Y-2.3386
X4.3307Y-2.4386
X4.3307Y-2.5386
X4.3307Y-2.6386
X4.3307Y-2.7386
X4.9307Y-1.3386
X4.9307Y-1.4386
X4.9307Y-1.5386
X4.9307Y-1.6386
X4.9307Y-1.7386
X4.9307Y-1.8386
X4.9307Y-1.9386
X4.9307Y-2.0386
X4.9307Y-2.1386
X4.9307Y-2.2386
X4.9307Y-2.3386
X4.9307Y-2.4386
X4.9307Y-2.5386
X4.9307Y-2.6386
X4.9307Y-2.7386
T5
X5.35Y-1.25
X5.35Y-1.35
X5.35Y-1.45
X7.16Y-1.47
X7.16Y-1.57
X7.16Y-1.67
X7.16Y-1.97
X7.16Y-2.07
X7.16Y-2.17
X7.16Y-2.47
X7.16Y-2.57
X7.16Y-2.67
X7.16Y-2.97
X7.16Y-3.07
X7.16Y-3.17
T6
X5.4449Y-1.77
X5.4449Y-2.5197
X5.9449Y-1.77
X5.9449Y-2.5197
T7
X6.0631Y-1.34
X6.26Y-1.34
X6.6031Y-1.34
X6.8Y-1.34
T0
M30
